ISO-10303-21;
HEADER;
/* Generated by software containing ST-Developer
 * from STEP Tools, Inc. (www.steptools.com) 
 */

FILE_DESCRIPTION(
/* description */ (''),
/* implementation_level */ '2;1');

FILE_NAME(
/* name */ '',
/* time_stamp */ '2026-07-17T13:00:55+08:00',
/* author */ (''),
/* organization */ (''),
/* preprocessor_version */ 'ST-DEVELOPER v20.1',
/* originating_system */ 'Autodesk Translation Framework v14.4.0.0',
/* authorisation */ '');

FILE_SCHEMA (('AUTOMOTIVE_DESIGN { 1 0 10303 214 3 1 1 }'));
ENDSEC;

DATA;
#10=MECHANICAL_DESIGN_GEOMETRIC_PRESENTATION_REPRESENTATION('',(#13),#635);
#11=SHAPE_REPRESENTATION_RELATIONSHIP('SRR','None',#642,#12);
#12=ADVANCED_BREP_SHAPE_REPRESENTATION('',(#14),#634);
#13=STYLED_ITEM('',(#651),#14);
#14=MANIFOLD_SOLID_BREP('\X2\5B9E4F53\X0\1',#223);
#15=PLANE('',#244);
#16=PLANE('',#248);
#17=FACE_BOUND('',#42,.T.);
#18=FACE_BOUND('',#43,.T.);
#19=FACE_BOUND('',#44,.T.);
#20=FACE_BOUND('',#46,.T.);
#21=FACE_BOUND('',#48,.T.);
#22=FACE_BOUND('',#49,.T.);
#23=FACE_BOUND('',#50,.T.);
#24=FACE_BOUND('',#52,.T.);
#25=CIRCLE('',#242,22.5);
#26=CIRCLE('',#243,22.5);
#27=CIRCLE('',#245,27.75);
#28=CIRCLE('',#247,27.75);
#29=FACE_OUTER_BOUND('',#37,.T.);
#30=FACE_OUTER_BOUND('',#38,.T.);
#31=FACE_OUTER_BOUND('',#39,.T.);
#32=FACE_OUTER_BOUND('',#40,.T.);
#33=FACE_OUTER_BOUND('',#41,.T.);
#34=FACE_OUTER_BOUND('',#45,.T.);
#35=FACE_OUTER_BOUND('',#47,.T.);
#36=FACE_OUTER_BOUND('',#51,.T.);
#37=EDGE_LOOP('',(#145,#146,#147,#148,#149,#150));
#38=EDGE_LOOP('',(#151,#152,#153,#154,#155,#156,#157,#158,#159,#160));
#39=EDGE_LOOP('',(#161,#162,#163,#164,#165,#166));
#40=EDGE_LOOP('',(#167,#168,#169,#170,#171,#172));
#41=EDGE_LOOP('',(#173,#174,#175,#176,#177,#178,#179,#180,#181,#182));
#42=EDGE_LOOP('',(#183,#184));
#43=EDGE_LOOP('',(#185,#186));
#44=EDGE_LOOP('',(#187,#188));
#45=EDGE_LOOP('',(#189));
#46=EDGE_LOOP('',(#190));
#47=EDGE_LOOP('',(#191,#192,#193,#194,#195,#196,#197,#198,#199,#200));
#48=EDGE_LOOP('',(#201,#202));
#49=EDGE_LOOP('',(#203,#204));
#50=EDGE_LOOP('',(#205,#206));
#51=EDGE_LOOP('',(#207));
#52=EDGE_LOOP('',(#208));
#53=LINE('',#324,#61);
#54=LINE('',#392,#62);
#55=LINE('',#500,#63);
#56=LINE('',#578,#64);
#57=LINE('',#619,#65);
#58=LINE('',#621,#66);
#59=LINE('',#629,#67);
#60=LINE('',#630,#68);
#61=VECTOR('',#253,2.00000000000003);
#62=VECTOR('',#256,2.00000000000003);
#63=VECTOR('',#259,2.00000000000003);
#64=VECTOR('',#262,2.00000000000003);
#65=VECTOR('',#267,22.5);
#66=VECTOR('',#268,22.5);
#67=VECTOR('',#279,27.75);
#68=VECTOR('',#280,27.75);
#69=B_SPLINE_CURVE_WITH_KNOTS('',3,(#287,#288,#289,#290,#291,#292,#293,
#294,#295,#296,#297,#298,#299,#300,#301,#302,#303,#304,#305,#306,#307,#308,
#309,#310,#311,#312),.UNSPECIFIED.,.F.,.F.,(4,2,2,2,2,2,2,2,2,2,2,2,4),
(0.,0.0753653426027463,0.150730685205493,0.226095380969382,0.30146007673327,
0.37682606790895,0.45219205908463,0.527557533386986,0.602923007689342,0.678288481991698,
0.753653956294053,0.829019947469733,0.904385938645413),.UNSPECIFIED.);
#70=B_SPLINE_CURVE_WITH_KNOTS('',3,(#313,#314,#315,#316,#317,#318,#319,
#320,#321,#322),.UNSPECIFIED.,.F.,.F.,(4,2,2,2,4),(0.904385938645413,0.979750634409302,
1.05511533017319,1.13048067277594,1.20584601537868),.UNSPECIFIED.);
#71=B_SPLINE_CURVE_WITH_KNOTS('',3,(#326,#327,#328,#329,#330,#331,#332,
#333,#334,#335),.UNSPECIFIED.,.F.,.F.,(4,2,2,2,4),(0.,0.075380017300247,
0.150760034600494,0.226139013187089,0.301517991773683),.UNSPECIFIED.);
#72=B_SPLINE_CURVE_WITH_KNOTS('',3,(#336,#337,#338,#339,#340,#341,#342,
#343,#344,#345,#346,#347,#348,#349,#350,#351,#352,#353,#354,#355,#356,#357,
#358,#359,#360,#361),.UNSPECIFIED.,.F.,.F.,(4,2,2,2,2,2,2,2,2,2,2,2,4),
(0.301517991773683,0.376898942976192,0.4522798941787,0.527660114455371,
0.603040334732043,0.678420555008714,0.753800775285385,0.829181726487893,
0.904562677690402,0.979941656276997,1.05532063486359,1.13070065216384,1.20608066946409),
 .UNSPECIFIED.);
#73=B_SPLINE_CURVE_WITH_KNOTS('',3,(#365,#366,#367,#368,#369,#370,#371,
#372,#373,#374),.UNSPECIFIED.,.F.,.F.,(4,2,2,2,4),(0.,0.075380017300247,
0.150760034600494,0.226139013187089,0.300667718156412),.UNSPECIFIED.);
#74=B_SPLINE_CURVE_WITH_KNOTS('',3,(#376,#377,#378,#379,#380,#381,#382,
#383,#384,#385),.UNSPECIFIED.,.F.,.F.,(4,2,2,2,4),(0.905412951307673,0.979941656276997,
1.05532063486359,1.13070065216384,1.20608066946409),.UNSPECIFIED.);
#75=B_SPLINE_CURVE_WITH_KNOTS('',3,(#387,#388,#389,#390),.UNSPECIFIED.,
 .F.,.F.,(4,4),(0.904562677690402,0.905412951307673),.UNSPECIFIED.);
#76=B_SPLINE_CURVE_WITH_KNOTS('',3,(#394,#395,#396,#397),.UNSPECIFIED.,
 .F.,.F.,(4,4),(0.300609804406054,0.301460076733271),.UNSPECIFIED.);
#77=B_SPLINE_CURVE_WITH_KNOTS('',3,(#399,#400,#401,#402,#403,#404,#405,
#406,#407,#408),.UNSPECIFIED.,.F.,.F.,(4,2,2,2,4),(0.,0.0753653426027463,
0.150730685205493,0.226095380969382,0.300609804406054),.UNSPECIFIED.);
#78=B_SPLINE_CURVE_WITH_KNOTS('',3,(#410,#411,#412,#413,#414,#415,#416,
#417,#418,#419),.UNSPECIFIED.,.F.,.F.,(4,2,2,2,4),(0.905236210972629,0.979750634409302,
1.05511533017319,1.13048067277594,1.20584601537868),.UNSPECIFIED.);
#79=B_SPLINE_CURVE_WITH_KNOTS('',3,(#420,#421,#422,#423,#424,#425,#426,
#427,#428,#429,#430,#431,#432,#433,#434,#435,#436,#437,#438,#439),
 .UNSPECIFIED.,.F.,.F.,(4,2,2,2,2,2,2,2,2,4),(0.301460076733271,0.37682606790895,
0.45219205908463,0.527557533386986,0.602923007689342,0.678288481991697,
0.753653956294053,0.829019947469733,0.904385938645413,0.905236210972629),
 .UNSPECIFIED.);
#80=B_SPLINE_CURVE_WITH_KNOTS('',3,(#440,#441,#442,#443,#444,#445,#446,
#447,#448,#449,#450,#451,#452,#453,#454,#455,#456,#457,#458,#459),
 .UNSPECIFIED.,.F.,.F.,(4,2,2,2,2,2,2,2,2,4),(0.300667718156412,0.301517991773683,
0.376898942976192,0.4522798941787,0.527660114455371,0.603040334732043,0.678420555008714,
0.753800775285385,0.829181726487893,0.904562677690402),.UNSPECIFIED.);
#81=B_SPLINE_CURVE_WITH_KNOTS('',3,(#463,#464,#465,#466,#467,#468,#469,
#470,#471,#472,#473,#474,#475,#476,#477,#478,#479,#480,#481,#482,#483,#484,
#485,#486,#487,#488),.UNSPECIFIED.,.F.,.F.,(4,2,2,2,2,2,2,2,2,2,2,2,4),
(0.,0.0753654086290081,0.150730817258016,0.226096156983581,0.301461496709145,
0.37682683643471,0.452192176160275,0.527557584789283,0.602922993418291,
0.678288402047299,0.753653810676307,0.829019150401872,0.904384490127436),
 .UNSPECIFIED.);
#82=B_SPLINE_CURVE_WITH_KNOTS('',3,(#489,#490,#491,#492,#493,#494,#495,
#496,#497,#498),.UNSPECIFIED.,.F.,.F.,(4,2,2,2,4),(0.904384490127436,0.979749829853001,
1.05511516957857,1.13048057820757,1.20584598683658),.UNSPECIFIED.);
#83=B_SPLINE_CURVE_WITH_KNOTS('',3,(#502,#503,#504,#505,#506,#507,#508,
#509,#510,#511),.UNSPECIFIED.,.F.,.F.,(4,2,2,2,4),(0.,0.0753801190493778,
0.150760238098756,0.22614019728457,0.301520156470385),.UNSPECIFIED.);
#84=B_SPLINE_CURVE_WITH_KNOTS('',3,(#512,#513,#514,#515,#516,#517,#518,
#519,#520,#521,#522,#523,#524,#525,#526,#527,#528,#529,#530,#531,#532,#533,
#534,#535,#536,#537),.UNSPECIFIED.,.F.,.F.,(4,2,2,2,2,2,2,2,2,2,2,2,4),
(0.301520156470385,0.3769001156562,0.452280074842014,0.527660193891392,
0.60304031294077,0.678420431990148,0.753800551039526,0.829180510225341,
0.904560469411155,0.97994042859697,1.05532038778278,1.13070050683216,1.20608062588154),
 .UNSPECIFIED.);
#85=B_SPLINE_CURVE_WITH_KNOTS('',3,(#541,#542,#543,#544,#545,#546,#547,
#548,#549,#550,#551,#552,#553,#554,#555,#556,#557,#558,#559,#560,#561,#562,
#563,#564,#565,#566),.UNSPECIFIED.,.F.,.F.,(4,2,2,2,2,2,2,2,2,2,2,2,4),
(0.,0.0753801190493778,0.150760238098756,0.22614019728457,0.301520156470385,
0.3769001156562,0.452280074842014,0.527660193891392,0.60304031294077,0.678420431990148,
0.753800551039526,0.829180510225341,0.904560469411155),.UNSPECIFIED.);
#86=B_SPLINE_CURVE_WITH_KNOTS('',3,(#567,#568,#569,#570,#571,#572,#573,
#574,#575,#576),.UNSPECIFIED.,.F.,.F.,(4,2,2,2,4),(0.904560469411155,0.97994042859697,
1.05532038778278,1.13070050683216,1.20608062588154),.UNSPECIFIED.);
#87=B_SPLINE_CURVE_WITH_KNOTS('',3,(#580,#581,#582,#583,#584,#585,#586,
#587,#588,#589),.UNSPECIFIED.,.F.,.F.,(4,2,2,2,4),(0.,0.0753654086290081,
0.150730817258016,0.226096156983581,0.301461496709146),.UNSPECIFIED.);
#88=B_SPLINE_CURVE_WITH_KNOTS('',3,(#590,#591,#592,#593,#594,#595,#596,
#597,#598,#599,#600,#601,#602,#603,#604,#605,#606,#607,#608,#609,#610,#611,
#612,#613,#614,#615),.UNSPECIFIED.,.F.,.F.,(4,2,2,2,2,2,2,2,2,2,2,2,4),
(0.301461496709146,0.37682683643471,0.452192176160275,0.527557584789283,
0.602922993418291,0.678288402047299,0.753653810676307,0.829019150401872,
0.904384490127436,0.979749829853001,1.05511516957857,1.13048057820757,1.20584598683658),
 .UNSPECIFIED.);
#89=VERTEX_POINT('',#285);
#90=VERTEX_POINT('',#286);
#91=VERTEX_POINT('',#323);
#92=VERTEX_POINT('',#325);
#93=VERTEX_POINT('',#363);
#94=VERTEX_POINT('',#364);
#95=VERTEX_POINT('',#375);
#96=VERTEX_POINT('',#386);
#97=VERTEX_POINT('',#391);
#98=VERTEX_POINT('',#393);
#99=VERTEX_POINT('',#398);
#100=VERTEX_POINT('',#409);
#101=VERTEX_POINT('',#461);
#102=VERTEX_POINT('',#462);
#103=VERTEX_POINT('',#499);
#104=VERTEX_POINT('',#501);
#105=VERTEX_POINT('',#539);
#106=VERTEX_POINT('',#540);
#107=VERTEX_POINT('',#577);
#108=VERTEX_POINT('',#579);
#109=VERTEX_POINT('',#617);
#110=VERTEX_POINT('',#620);
#111=VERTEX_POINT('',#624);
#112=VERTEX_POINT('',#627);
#113=EDGE_CURVE('',#89,#90,#69,.T.);
#114=EDGE_CURVE('',#90,#89,#70,.T.);
#115=EDGE_CURVE('',#90,#91,#53,.T.);
#116=EDGE_CURVE('',#92,#91,#71,.T.);
#117=EDGE_CURVE('',#91,#92,#72,.T.);
#118=EDGE_CURVE('',#93,#94,#73,.T.);
#119=EDGE_CURVE('',#95,#93,#74,.T.);
#120=EDGE_CURVE('',#96,#95,#75,.T.);
#121=EDGE_CURVE('',#96,#97,#54,.T.);
#122=EDGE_CURVE('',#98,#97,#76,.T.);
#123=EDGE_CURVE('',#99,#98,#77,.T.);
#124=EDGE_CURVE('',#100,#99,#78,.T.);
#125=EDGE_CURVE('',#97,#100,#79,.T.);
#126=EDGE_CURVE('',#94,#96,#80,.T.);
#127=EDGE_CURVE('',#101,#102,#81,.T.);
#128=EDGE_CURVE('',#102,#101,#82,.T.);
#129=EDGE_CURVE('',#102,#103,#55,.T.);
#130=EDGE_CURVE('',#104,#103,#83,.T.);
#131=EDGE_CURVE('',#103,#104,#84,.T.);
#132=EDGE_CURVE('',#105,#106,#85,.T.);
#133=EDGE_CURVE('',#106,#105,#86,.T.);
#134=EDGE_CURVE('',#106,#107,#56,.T.);
#135=EDGE_CURVE('',#108,#107,#87,.T.);
#136=EDGE_CURVE('',#107,#108,#88,.T.);
#137=EDGE_CURVE('',#109,#109,#25,.T.);
#138=EDGE_CURVE('',#109,#94,#57,.T.);
#139=EDGE_CURVE('',#95,#110,#58,.T.);
#140=EDGE_CURVE('',#110,#110,#26,.T.);
#141=EDGE_CURVE('',#111,#111,#27,.T.);
#142=EDGE_CURVE('',#112,#112,#28,.T.);
#143=EDGE_CURVE('',#112,#100,#59,.T.);
#144=EDGE_CURVE('',#98,#111,#60,.T.);
#145=ORIENTED_EDGE('',*,*,#113,.F.);
#146=ORIENTED_EDGE('',*,*,#114,.F.);
#147=ORIENTED_EDGE('',*,*,#115,.T.);
#148=ORIENTED_EDGE('',*,*,#116,.F.);
#149=ORIENTED_EDGE('',*,*,#117,.F.);
#150=ORIENTED_EDGE('',*,*,#115,.F.);
#151=ORIENTED_EDGE('',*,*,#118,.F.);
#152=ORIENTED_EDGE('',*,*,#119,.F.);
#153=ORIENTED_EDGE('',*,*,#120,.F.);
#154=ORIENTED_EDGE('',*,*,#121,.T.);
#155=ORIENTED_EDGE('',*,*,#122,.F.);
#156=ORIENTED_EDGE('',*,*,#123,.F.);
#157=ORIENTED_EDGE('',*,*,#124,.F.);
#158=ORIENTED_EDGE('',*,*,#125,.F.);
#159=ORIENTED_EDGE('',*,*,#121,.F.);
#160=ORIENTED_EDGE('',*,*,#126,.F.);
#161=ORIENTED_EDGE('',*,*,#127,.F.);
#162=ORIENTED_EDGE('',*,*,#128,.F.);
#163=ORIENTED_EDGE('',*,*,#129,.T.);
#164=ORIENTED_EDGE('',*,*,#130,.F.);
#165=ORIENTED_EDGE('',*,*,#131,.F.);
#166=ORIENTED_EDGE('',*,*,#129,.F.);
#167=ORIENTED_EDGE('',*,*,#132,.F.);
#168=ORIENTED_EDGE('',*,*,#133,.F.);
#169=ORIENTED_EDGE('',*,*,#134,.T.);
#170=ORIENTED_EDGE('',*,*,#135,.F.);
#171=ORIENTED_EDGE('',*,*,#136,.F.);
#172=ORIENTED_EDGE('',*,*,#134,.F.);
#173=ORIENTED_EDGE('',*,*,#137,.T.);
#174=ORIENTED_EDGE('',*,*,#138,.T.);
#175=ORIENTED_EDGE('',*,*,#126,.T.);
#176=ORIENTED_EDGE('',*,*,#120,.T.);
#177=ORIENTED_EDGE('',*,*,#139,.T.);
#178=ORIENTED_EDGE('',*,*,#140,.F.);
#179=ORIENTED_EDGE('',*,*,#139,.F.);
#180=ORIENTED_EDGE('',*,*,#119,.T.);
#181=ORIENTED_EDGE('',*,*,#118,.T.);
#182=ORIENTED_EDGE('',*,*,#138,.F.);
#183=ORIENTED_EDGE('',*,*,#116,.T.);
#184=ORIENTED_EDGE('',*,*,#117,.T.);
#185=ORIENTED_EDGE('',*,*,#132,.T.);
#186=ORIENTED_EDGE('',*,*,#133,.T.);
#187=ORIENTED_EDGE('',*,*,#130,.T.);
#188=ORIENTED_EDGE('',*,*,#131,.T.);
#189=ORIENTED_EDGE('',*,*,#141,.F.);
#190=ORIENTED_EDGE('',*,*,#140,.T.);
#191=ORIENTED_EDGE('',*,*,#142,.F.);
#192=ORIENTED_EDGE('',*,*,#143,.T.);
#193=ORIENTED_EDGE('',*,*,#124,.T.);
#194=ORIENTED_EDGE('',*,*,#123,.T.);
#195=ORIENTED_EDGE('',*,*,#144,.T.);
#196=ORIENTED_EDGE('',*,*,#141,.T.);
#197=ORIENTED_EDGE('',*,*,#144,.F.);
#198=ORIENTED_EDGE('',*,*,#122,.T.);
#199=ORIENTED_EDGE('',*,*,#125,.T.);
#200=ORIENTED_EDGE('',*,*,#143,.F.);
#201=ORIENTED_EDGE('',*,*,#113,.T.);
#202=ORIENTED_EDGE('',*,*,#114,.T.);
#203=ORIENTED_EDGE('',*,*,#135,.T.);
#204=ORIENTED_EDGE('',*,*,#136,.T.);
#205=ORIENTED_EDGE('',*,*,#127,.T.);
#206=ORIENTED_EDGE('',*,*,#128,.T.);
#207=ORIENTED_EDGE('',*,*,#142,.T.);
#208=ORIENTED_EDGE('',*,*,#137,.F.);
#209=CYLINDRICAL_SURFACE('',#237,2.00000000000003);
#210=CYLINDRICAL_SURFACE('',#238,2.00000000000003);
#211=CYLINDRICAL_SURFACE('',#239,2.00000000000003);
#212=CYLINDRICAL_SURFACE('',#240,2.00000000000003);
#213=CYLINDRICAL_SURFACE('',#241,22.5);
#214=CYLINDRICAL_SURFACE('',#246,27.75);
#215=ADVANCED_FACE('',(#29),#209,.F.);
#216=ADVANCED_FACE('',(#30),#210,.F.);
#217=ADVANCED_FACE('',(#31),#211,.F.);
#218=ADVANCED_FACE('',(#32),#212,.F.);
#219=ADVANCED_FACE('',(#33,#17,#18,#19),#213,.F.);
#220=ADVANCED_FACE('',(#34,#20),#15,.T.);
#221=ADVANCED_FACE('',(#35,#21,#22,#23),#214,.T.);
#222=ADVANCED_FACE('',(#36,#24),#16,.T.);
#223=CLOSED_SHELL('',(#215,#216,#217,#218,#219,#220,#221,#222));
#224=DERIVED_UNIT_ELEMENT(#226,1.);
#225=DERIVED_UNIT_ELEMENT(#637,-3.);
#226=(
MASS_UNIT()
NAMED_UNIT(*)
SI_UNIT(.KILO.,.GRAM.)
);
#227=DERIVED_UNIT((#224,#225));
#228=MEASURE_REPRESENTATION_ITEM('density measure',
POSITIVE_RATIO_MEASURE(7850.),#227);
#229=PROPERTY_DEFINITION_REPRESENTATION(#234,#231);
#230=PROPERTY_DEFINITION_REPRESENTATION(#235,#232);
#231=REPRESENTATION('material name',(#233),#634);
#232=REPRESENTATION('density',(#228),#634);
#233=DESCRIPTIVE_REPRESENTATION_ITEM('\X2\94A2\X0\','\X2\94A2\X0\');
#234=PROPERTY_DEFINITION('material property','material name',#644);
#235=PROPERTY_DEFINITION('material property','density of part',#644);
#236=AXIS2_PLACEMENT_3D('',#283,#249,#250);
#237=AXIS2_PLACEMENT_3D('',#284,#251,#252);
#238=AXIS2_PLACEMENT_3D('',#362,#254,#255);
#239=AXIS2_PLACEMENT_3D('',#460,#257,#258);
#240=AXIS2_PLACEMENT_3D('',#538,#260,#261);
#241=AXIS2_PLACEMENT_3D('',#616,#263,#264);
#242=AXIS2_PLACEMENT_3D('',#618,#265,#266);
#243=AXIS2_PLACEMENT_3D('',#622,#269,#270);
#244=AXIS2_PLACEMENT_3D('',#623,#271,#272);
#245=AXIS2_PLACEMENT_3D('',#625,#273,#274);
#246=AXIS2_PLACEMENT_3D('',#626,#275,#276);
#247=AXIS2_PLACEMENT_3D('',#628,#277,#278);
#248=AXIS2_PLACEMENT_3D('',#631,#281,#282);
#249=DIRECTION('axis',(0.,0.,1.));
#250=DIRECTION('refdir',(1.,0.,0.));
#251=DIRECTION('center_axis',(0.,2.22044604925031E-16,1.));
#252=DIRECTION('ref_axis',(1.,0.,0.));
#253=DIRECTION('',(0.,2.22044604925031E-16,1.));
#254=DIRECTION('center_axis',(0.,2.22044604925031E-16,1.));
#255=DIRECTION('ref_axis',(1.,0.,0.));
#256=DIRECTION('',(0.,2.22044604925031E-16,1.));
#257=DIRECTION('center_axis',(0.,1.,0.));
#258=DIRECTION('ref_axis',(1.,0.,0.));
#259=DIRECTION('',(0.,1.,0.));
#260=DIRECTION('center_axis',(0.,1.,0.));
#261=DIRECTION('ref_axis',(1.,0.,0.));
#262=DIRECTION('',(0.,1.,0.));
#263=DIRECTION('center_axis',(1.,0.,0.));
#264=DIRECTION('ref_axis',(0.,0.,-1.));
#265=DIRECTION('center_axis',(1.,0.,0.));
#266=DIRECTION('ref_axis',(0.,0.,-1.));
#267=DIRECTION('',(-1.,0.,0.));
#268=DIRECTION('',(-1.,0.,0.));
#269=DIRECTION('center_axis',(1.,0.,0.));
#270=DIRECTION('ref_axis',(0.,0.,-1.));
#271=DIRECTION('center_axis',(-1.,0.,0.));
#272=DIRECTION('ref_axis',(0.,0.,1.));
#273=DIRECTION('center_axis',(1.,0.,0.));
#274=DIRECTION('ref_axis',(0.,0.,-1.));
#275=DIRECTION('center_axis',(1.,0.,0.));
#276=DIRECTION('ref_axis',(0.,0.,-1.));
#277=DIRECTION('center_axis',(1.,0.,0.));
#278=DIRECTION('ref_axis',(0.,0.,-1.));
#279=DIRECTION('',(-1.,0.,0.));
#280=DIRECTION('',(-1.,0.,0.));
#281=DIRECTION('center_axis',(1.,0.,0.));
#282=DIRECTION('ref_axis',(0.,0.,-1.));
#283=CARTESIAN_POINT('',(0.,0.,0.));
#284=CARTESIAN_POINT('Origin',(470.000007003546,0.00850904022022169,-0.00850904022022169));
#285=CARTESIAN_POINT('',(470.000007003546,-1.99149095977981,-27.6784476399439));
#286=CARTESIAN_POINT('',(468.000007003546,0.00850904022021734,-27.7499986954276));
#287=CARTESIAN_POINT('Ctrl Pts',(470.000007003546,-1.99149095977981,-27.6784476399439));
#288=CARTESIAN_POINT('Ctrl Pts',(470.251224812222,-1.99149095977981,-27.6784476399439));
#289=CARTESIAN_POINT('Ctrl Pts',(470.51912832875,-1.94126723851687,-27.6822044871462));
#290=CARTESIAN_POINT('Ctrl Pts',(471.011862404867,-1.73713214904782,-27.6957638571834));
#291=CARTESIAN_POINT('Ctrl Pts',(471.236700331095,-1.58322552475215,-27.7053693858357));
#292=CARTESIAN_POINT('Ctrl Pts',(471.591745393518,-1.22817892677192,-27.7233777135707));
#293=CARTESIAN_POINT('Ctrl Pts',(471.745650823416,-1.0033415319595,-27.7329505698096));
#294=CARTESIAN_POINT('Ctrl Pts',(471.949784015816,-0.510608993869942,-27.7463965226476));
#295=CARTESIAN_POINT('Ctrl Pts',(472.000007003546,-0.242706600516027,-27.7500757262057));
#296=CARTESIAN_POINT('Ctrl Pts',(472.000007003546,0.259728998995558,-27.7499216633255));
#297=CARTESIAN_POINT('Ctrl Pts',(471.949782472021,0.527633385933717,-27.7460780448802));
#298=CARTESIAN_POINT('Ctrl Pts',(471.745646686574,1.02036701251137,-27.7323294193434));
#299=CARTESIAN_POINT('Ctrl Pts',(471.591740288352,1.24520365450852,-27.7226182923884));
#300=CARTESIAN_POINT('Ctrl Pts',(471.236695892146,1.60024650201034,-27.7043914899079));
#301=CARTESIAN_POINT('Ctrl Pts',(471.011859938868,1.75415144266273,-27.6946911368587));
#302=CARTESIAN_POINT('Ctrl Pts',(470.5191283431,1.95828512147732,-27.6810058317325));
#303=CARTESIAN_POINT('Ctrl Pts',(470.25122525122,2.00850904022024,-27.6772179135721));
#304=CARTESIAN_POINT('Ctrl Pts',(469.748788755871,2.00850904022024,-27.6772179135721));
#305=CARTESIAN_POINT('Ctrl Pts',(469.480885663992,1.95828512147732,-27.6810058317325));
#306=CARTESIAN_POINT('Ctrl Pts',(468.988154068224,1.75415144266273,-27.6946911368587));
#307=CARTESIAN_POINT('Ctrl Pts',(468.763318114946,1.60024650201034,-27.7043914899079));
#308=CARTESIAN_POINT('Ctrl Pts',(468.40827371874,1.24520365450852,-27.7226182923884));
#309=CARTESIAN_POINT('Ctrl Pts',(468.254367320518,1.02036701251137,-27.7323294193434));
#310=CARTESIAN_POINT('Ctrl Pts',(468.050231535071,0.527633385933717,-27.7460780448802));
#311=CARTESIAN_POINT('Ctrl Pts',(468.000007003546,0.259728998995557,-27.7499216633255));
#312=CARTESIAN_POINT('Ctrl Pts',(468.000007003546,0.00850904022021516,-27.7499986954276));
#313=CARTESIAN_POINT('Ctrl Pts',(468.000007003546,0.00850904022021884,-27.7499986954276));
#314=CARTESIAN_POINT('Ctrl Pts',(468.000007003546,-0.242706600516023,-27.7500757262057));
#315=CARTESIAN_POINT('Ctrl Pts',(468.050229991276,-0.510608993869942,-27.7463965226476));
#316=CARTESIAN_POINT('Ctrl Pts',(468.254363183676,-1.0033415319595,-27.7329505698096));
#317=CARTESIAN_POINT('Ctrl Pts',(468.408268613574,-1.22817892677192,-27.7233777135707));
#318=CARTESIAN_POINT('Ctrl Pts',(468.763313675996,-1.58322552475215,-27.7053693858357));
#319=CARTESIAN_POINT('Ctrl Pts',(468.988151602225,-1.73713214904782,-27.6957638571834));
#320=CARTESIAN_POINT('Ctrl Pts',(469.480885678341,-1.94126723851687,-27.6822044871462));
#321=CARTESIAN_POINT('Ctrl Pts',(469.74878919487,-1.99149095977982,-27.6784476399439));
#322=CARTESIAN_POINT('Ctrl Pts',(470.000007003546,-1.99149095977982,-27.6784476399439));
#323=CARTESIAN_POINT('',(468.000007003546,0.00850904022021657,-22.4999983910274));
#324=CARTESIAN_POINT('',(468.000007003546,0.00850904022022145,-0.00850904022022169));
#325=CARTESIAN_POINT('',(470.000007003546,-1.99149095977982,-22.4116925678788));
#326=CARTESIAN_POINT('Ctrl Pts',(470.000007003546,-1.99149095977982,-22.4116925678788));
#327=CARTESIAN_POINT('Ctrl Pts',(469.748740279212,-1.99149095977982,-22.4116925678788));
#328=CARTESIAN_POINT('Ctrl Pts',(469.480815698748,-1.94124816261312,-22.4163343331231));
#329=CARTESIAN_POINT('Ctrl Pts',(468.98809459237,-1.73709861186045,-22.4330777589737));
#330=CARTESIAN_POINT('Ctrl Pts',(468.763286809833,-1.58319905910412,-22.4449350669118));
#331=CARTESIAN_POINT('Ctrl Pts',(468.408293209962,-1.22820312263716,-22.4671570439274));
#332=CARTESIAN_POINT('Ctrl Pts',(468.254395374011,-1.00339609348174,-22.4789670149209));
#333=CARTESIAN_POINT('Ctrl Pts',(468.05024863932,-0.510677139230692,-22.4955544638673));
#334=CARTESIAN_POINT('Ctrl Pts',(468.000007003546,-0.242754203767281,-22.5000934136586));
#335=CARTESIAN_POINT('Ctrl Pts',(468.000007003546,0.00850904022022508,-22.4999983910274));
#336=CARTESIAN_POINT('Ctrl Pts',(468.000007003546,0.00850904022021669,-22.4999983910274));
#337=CARTESIAN_POINT('Ctrl Pts',(468.000007003546,0.259778859593633,-22.4999033659095));
#338=CARTESIAN_POINT('Ctrl Pts',(468.050250990751,0.527704831614943,-22.49516154487));
#339=CARTESIAN_POINT('Ctrl Pts',(468.254401674265,1.02042544311227,-22.478200489255));
#340=CARTESIAN_POINT('Ctrl Pts',(468.408300984357,1.24523132407764,-22.4662197586085));
#341=CARTESIAN_POINT('Ctrl Pts',(468.763293565211,1.60022154831202,-22.4437278916729));
#342=CARTESIAN_POINT('Ctrl Pts',(468.988098341511,1.75411853620535,-22.4317533550012));
#343=CARTESIAN_POINT('Ctrl Pts',(469.480815668224,1.95826593988442,-22.4148541142566));
#344=CARTESIAN_POINT('Ctrl Pts',(469.748739602624,2.00850904022025,-22.4101738376871));
#345=CARTESIAN_POINT('Ctrl Pts',(470.251274404468,2.00850904022025,-22.4101738376871));
#346=CARTESIAN_POINT('Ctrl Pts',(470.519198338868,1.95826593988437,-22.4148541142566));
#347=CARTESIAN_POINT('Ctrl Pts',(471.011915665581,1.7541185362052,-22.4317533550012));
#348=CARTESIAN_POINT('Ctrl Pts',(471.23672044188,1.60022154831202,-22.4437278916729));
#349=CARTESIAN_POINT('Ctrl Pts',(471.591713022735,1.24523132407764,-22.4662197586085));
#350=CARTESIAN_POINT('Ctrl Pts',(471.745612332826,1.02042544311224,-22.478200489255));
#351=CARTESIAN_POINT('Ctrl Pts',(471.949763016341,0.527704831614917,-22.49516154487));
#352=CARTESIAN_POINT('Ctrl Pts',(472.000007003546,0.259778859593634,-22.4999033659095));
#353=CARTESIAN_POINT('Ctrl Pts',(472.000007003546,-0.242754203767288,-22.5000934136586));
#354=CARTESIAN_POINT('Ctrl Pts',(471.949765367772,-0.510677139230691,-22.4955544638673));
#355=CARTESIAN_POINT('Ctrl Pts',(471.745618633081,-1.00339609348174,-22.4789670149209));
#356=CARTESIAN_POINT('Ctrl Pts',(471.591720797129,-1.22820312263715,-22.4671570439274));
#357=CARTESIAN_POINT('Ctrl Pts',(471.236727197258,-1.58319905910412,-22.4449350669118));
#358=CARTESIAN_POINT('Ctrl Pts',(471.011919414721,-1.73709861186045,-22.4330777589737));
#359=CARTESIAN_POINT('Ctrl Pts',(470.519198308343,-1.94124816261312,-22.4163343331231));
#360=CARTESIAN_POINT('Ctrl Pts',(470.25127372788,-1.99149095977981,-22.4116925678788));
#361=CARTESIAN_POINT('Ctrl Pts',(470.000007003546,-1.99149095977981,-22.4116925678788));
#362=CARTESIAN_POINT('Origin',(470.000007003546,0.00850904022022169,-0.00850904022022169));
#363=CARTESIAN_POINT('',(470.000007003546,-1.9914909597798,22.4116925678788));
#364=CARTESIAN_POINT('',(471.999988902503,-2.29571822351809E-9,22.5));
#365=CARTESIAN_POINT('Ctrl Pts',(470.000007003546,-1.9914909597798,22.4116925678788));
#366=CARTESIAN_POINT('Ctrl Pts',(470.25127372788,-1.99149095977979,22.4116925678788));
#367=CARTESIAN_POINT('Ctrl Pts',(470.519198308343,-1.94124816261311,22.4163343331231));
#368=CARTESIAN_POINT('Ctrl Pts',(471.011919414721,-1.73709861186044,22.4330777589737));
#369=CARTESIAN_POINT('Ctrl Pts',(471.236727197258,-1.58319905910411,22.4449350669118));
#370=CARTESIAN_POINT('Ctrl Pts',(471.591720797129,-1.22820312263714,22.4671570439274));
#371=CARTESIAN_POINT('Ctrl Pts',(471.745618633081,-1.00339609348173,22.4789670149209));
#372=CARTESIAN_POINT('Ctrl Pts',(471.948613981896,-0.51345607001075,22.495460910794));
#373=CARTESIAN_POINT('Ctrl Pts',(471.998930384485,-0.248796070644154,22.4999999999492));
#374=CARTESIAN_POINT('Ctrl Pts',(471.999988902503,-4.59142550368608E-9,
22.5));
#375=CARTESIAN_POINT('',(468.000025104589,-2.29571808474021E-9,22.5));
#376=CARTESIAN_POINT('Ctrl Pts',(468.000025104589,-4.59143487119285E-9,
22.5));
#377=CARTESIAN_POINT('Ctrl Pts',(468.001083622606,-0.248796070644164,22.4999999999492));
#378=CARTESIAN_POINT('Ctrl Pts',(468.051400025196,-0.51345607001075,22.495460910794));
#379=CARTESIAN_POINT('Ctrl Pts',(468.254395374011,-1.00339609348173,22.4789670149209));
#380=CARTESIAN_POINT('Ctrl Pts',(468.408293209962,-1.22820312263715,22.4671570439274));
#381=CARTESIAN_POINT('Ctrl Pts',(468.763286809833,-1.58319905910411,22.4449350669118));
#382=CARTESIAN_POINT('Ctrl Pts',(468.98809459237,-1.73709861186044,22.4330777589737));
#383=CARTESIAN_POINT('Ctrl Pts',(469.480815698748,-1.94124816261311,22.4163343331231));
#384=CARTESIAN_POINT('Ctrl Pts',(469.748740279212,-1.9914909597798,22.4116925678788));
#385=CARTESIAN_POINT('Ctrl Pts',(470.000007003546,-1.9914909597798,22.4116925678788));
#386=CARTESIAN_POINT('',(468.000007003546,0.00850904022022927,22.4999983910274));
#387=CARTESIAN_POINT('Ctrl Pts',(468.000007003546,0.00850904022022657,22.4999983910274));
#388=CARTESIAN_POINT('Ctrl Pts',(468.000007003546,0.00567479503200104,22.4999994628811));
#389=CARTESIAN_POINT('Ctrl Pts',(468.000013028303,0.00283842834701711,22.5000000000006));
#390=CARTESIAN_POINT('Ctrl Pts',(468.000025104589,-4.59143846232812E-9,
22.5));
#391=CARTESIAN_POINT('',(468.000007003546,0.00850904022023003,27.7499986954276));
#392=CARTESIAN_POINT('',(468.000007003546,0.00850904022022145,-0.00850904022022169));
#393=CARTESIAN_POINT('',(468.000025104589,-2.29601140100509E-9,27.75));
#394=CARTESIAN_POINT('Ctrl Pts',(468.000025104589,-4.59201712890339E-9,
27.75));
#395=CARTESIAN_POINT('Ctrl Pts',(468.000013028285,0.00283843256804358,27.7500000000005));
#396=CARTESIAN_POINT('Ctrl Pts',(468.000007003546,0.00567479926274921,27.7499995644969));
#397=CARTESIAN_POINT('Ctrl Pts',(468.000007003546,0.00850904022022814,27.7499986954276));
#398=CARTESIAN_POINT('',(470.000007003546,-1.9914909597798,27.6784476399439));
#399=CARTESIAN_POINT('Ctrl Pts',(470.000007003546,-1.9914909597798,27.6784476399439));
#400=CARTESIAN_POINT('Ctrl Pts',(469.74878919487,-1.99149095977979,27.6784476399439));
#401=CARTESIAN_POINT('Ctrl Pts',(469.480885678341,-1.94126723851686,27.6822044871462));
#402=CARTESIAN_POINT('Ctrl Pts',(468.988151602225,-1.7371321490478,27.6957638571834));
#403=CARTESIAN_POINT('Ctrl Pts',(468.763313675996,-1.58322552475214,27.7053693858357));
#404=CARTESIAN_POINT('Ctrl Pts',(468.408268613574,-1.22817892677191,27.7233777135707));
#405=CARTESIAN_POINT('Ctrl Pts',(468.254363183676,-1.00334153195949,27.7329505698097));
#406=CARTESIAN_POINT('Ctrl Pts',(468.051381517218,-0.513388523712187,27.7463206733292));
#407=CARTESIAN_POINT('Ctrl Pts',(468.001083422948,-0.248749142571847,27.7499999999588));
#408=CARTESIAN_POINT('Ctrl Pts',(468.000025104589,-4.59202072200515E-9,
27.75));
#409=CARTESIAN_POINT('',(471.999988902503,-2.29601317042303E-9,27.75));
#410=CARTESIAN_POINT('Ctrl Pts',(471.999988902503,-4.59202023628258E-9,
27.75));
#411=CARTESIAN_POINT('Ctrl Pts',(471.998930584144,-0.248749142571846,27.7499999999588));
#412=CARTESIAN_POINT('Ctrl Pts',(471.948632489874,-0.513388523712161,27.7463206733292));
#413=CARTESIAN_POINT('Ctrl Pts',(471.745650823416,-1.00334153195949,27.7329505698097));
#414=CARTESIAN_POINT('Ctrl Pts',(471.591745393518,-1.22817892677191,27.7233777135707));
#415=CARTESIAN_POINT('Ctrl Pts',(471.236700331095,-1.58322552475214,27.7053693858357));
#416=CARTESIAN_POINT('Ctrl Pts',(471.011862404867,-1.7371321490478,27.6957638571834));
#417=CARTESIAN_POINT('Ctrl Pts',(470.51912832875,-1.94126723851686,27.6822044871462));
#418=CARTESIAN_POINT('Ctrl Pts',(470.251224812222,-1.9914909597798,27.6784476399439));
#419=CARTESIAN_POINT('Ctrl Pts',(470.000007003546,-1.99149095977981,27.6784476399439));
#420=CARTESIAN_POINT('Ctrl Pts',(468.000007003546,0.00850904022023147,27.7499986954276));
#421=CARTESIAN_POINT('Ctrl Pts',(468.000007003546,0.259728998995574,27.7499216633255));
#422=CARTESIAN_POINT('Ctrl Pts',(468.050231535071,0.52763338593373,27.7460780448802));
#423=CARTESIAN_POINT('Ctrl Pts',(468.254367320518,1.02036701251138,27.7323294193434));
#424=CARTESIAN_POINT('Ctrl Pts',(468.40827371874,1.24520365450853,27.7226182923884));
#425=CARTESIAN_POINT('Ctrl Pts',(468.763318114946,1.60024650201035,27.7043914899079));
#426=CARTESIAN_POINT('Ctrl Pts',(468.988154068224,1.75415144266279,27.6946911368587));
#427=CARTESIAN_POINT('Ctrl Pts',(469.480885663992,1.95828512147737,27.6810058317325));
#428=CARTESIAN_POINT('Ctrl Pts',(469.748788755871,2.00850904022026,27.6772179135721));
#429=CARTESIAN_POINT('Ctrl Pts',(470.25122525122,2.00850904022026,27.6772179135721));
#430=CARTESIAN_POINT('Ctrl Pts',(470.5191283431,1.95828512147736,27.6810058317325));
#431=CARTESIAN_POINT('Ctrl Pts',(471.011859938868,1.75415144266271,27.6946911368587));
#432=CARTESIAN_POINT('Ctrl Pts',(471.236695892146,1.60024650201036,27.7043914899079));
#433=CARTESIAN_POINT('Ctrl Pts',(471.591740288352,1.24520365450853,27.7226182923884));
#434=CARTESIAN_POINT('Ctrl Pts',(471.745646686574,1.02036701251138,27.7323294193434));
#435=CARTESIAN_POINT('Ctrl Pts',(471.949782472021,0.52763338593373,27.7460780448802));
#436=CARTESIAN_POINT('Ctrl Pts',(472.000007003546,0.25972899899557,27.7499216633255));
#437=CARTESIAN_POINT('Ctrl Pts',(472.000007003546,0.00567479926274931,27.7499995644969));
#438=CARTESIAN_POINT('Ctrl Pts',(472.000000978807,0.00283843256804435,27.7500000000005));
#439=CARTESIAN_POINT('Ctrl Pts',(471.999988902503,-4.59201597169508E-9,
27.75));
#440=CARTESIAN_POINT('Ctrl Pts',(471.999988902503,-4.59143892658244E-9,
22.5));
#441=CARTESIAN_POINT('Ctrl Pts',(472.000000978789,0.00283842834701701,22.5000000000006));
#442=CARTESIAN_POINT('Ctrl Pts',(472.000007003546,0.00567479503200128,22.4999994628811));
#443=CARTESIAN_POINT('Ctrl Pts',(472.000007003546,0.259778859593643,22.4999033659095));
#444=CARTESIAN_POINT('Ctrl Pts',(471.949763016341,0.527704831614953,22.49516154487));
#445=CARTESIAN_POINT('Ctrl Pts',(471.745612332826,1.02042544311228,22.478200489255));
#446=CARTESIAN_POINT('Ctrl Pts',(471.591713022735,1.24523132407765,22.4662197586085));
#447=CARTESIAN_POINT('Ctrl Pts',(471.23672044188,1.60022154831203,22.4437278916729));
#448=CARTESIAN_POINT('Ctrl Pts',(471.011915665581,1.75411853620524,22.4317533550012));
#449=CARTESIAN_POINT('Ctrl Pts',(470.519198338868,1.95826593988438,22.4148541142566));
#450=CARTESIAN_POINT('Ctrl Pts',(470.251274404468,2.00850904022026,22.4101738376871));
#451=CARTESIAN_POINT('Ctrl Pts',(469.748739602624,2.00850904022026,22.4101738376871));
#452=CARTESIAN_POINT('Ctrl Pts',(469.480815668224,1.95826593988445,22.4148541142566));
#453=CARTESIAN_POINT('Ctrl Pts',(468.988098341511,1.75411853620536,22.4317533550012));
#454=CARTESIAN_POINT('Ctrl Pts',(468.763293565211,1.60022154831203,22.4437278916729));
#455=CARTESIAN_POINT('Ctrl Pts',(468.408300984357,1.24523132407765,22.4662197586085));
#456=CARTESIAN_POINT('Ctrl Pts',(468.254401674265,1.02042544311231,22.478200489255));
#457=CARTESIAN_POINT('Ctrl Pts',(468.050250990751,0.527704831614968,22.49516154487));
#458=CARTESIAN_POINT('Ctrl Pts',(468.000007003546,0.259778859593654,22.4999033659095));
#459=CARTESIAN_POINT('Ctrl Pts',(468.000007003546,0.00850904022023716,22.4999983910274));
#460=CARTESIAN_POINT('Origin',(470.000007003546,0.,0.));
#461=CARTESIAN_POINT('',(470.000007003546,-27.6778340915614,2.00000000000003));
#462=CARTESIAN_POINT('',(468.000007003546,-27.75,2.44929359829474E-16));
#463=CARTESIAN_POINT('Ctrl Pts',(470.000007003546,-27.6778340915614,2.00000000000003));
#464=CARTESIAN_POINT('Ctrl Pts',(470.251225032309,-27.6778340915614,2.00000000000003));
#465=CARTESIAN_POINT('Ctrl Pts',(470.519128338009,-27.6816064736923,1.94977617983271));
#466=CARTESIAN_POINT('Ctrl Pts',(471.011861178731,-27.6952288097648,1.74564179231312));
#467=CARTESIAN_POINT('Ctrl Pts',(471.236698121736,-27.7048817497065,1.5917360065561));
#468=CARTESIAN_POINT('Ctrl Pts',(471.591742847801,-27.7229993128227,1.23669128049148));
#469=CARTESIAN_POINT('Ctrl Pts',(471.745648758591,-27.7326413029688,1.01185426528966));
#470=CARTESIAN_POINT('Ctrl Pts',(471.949783244115,-27.7462385898545,0.519121187709643));
#471=CARTESIAN_POINT('Ctrl Pts',(472.000007003546,-27.75,0.251217799085215));
#472=CARTESIAN_POINT('Ctrl Pts',(472.000007003546,-27.75,-0.251217799085215));
#473=CARTESIAN_POINT('Ctrl Pts',(471.949783244115,-27.7462385898545,-0.519121187709643));
#474=CARTESIAN_POINT('Ctrl Pts',(471.745648758591,-27.7326413029688,-1.01185426528966));
#475=CARTESIAN_POINT('Ctrl Pts',(471.591742847801,-27.7229993128227,-1.23669128049148));
#476=CARTESIAN_POINT('Ctrl Pts',(471.236698121736,-27.7048817497065,-1.5917360065561));
#477=CARTESIAN_POINT('Ctrl Pts',(471.011861178731,-27.6952288097649,-1.74564179231312));
#478=CARTESIAN_POINT('Ctrl Pts',(470.519128338009,-27.6816064736923,-1.94977617983271));
#479=CARTESIAN_POINT('Ctrl Pts',(470.251225032309,-27.6778340915614,-2.00000000000003));
#480=CARTESIAN_POINT('Ctrl Pts',(469.748788974782,-27.6778340915614,-2.00000000000003));
#481=CARTESIAN_POINT('Ctrl Pts',(469.480885669083,-27.6816064736923,-1.94977617983272));
#482=CARTESIAN_POINT('Ctrl Pts',(468.988152828361,-27.6952288097648,-1.7456417923132));
#483=CARTESIAN_POINT('Ctrl Pts',(468.763315885356,-27.7048817497065,-1.5917360065561));
#484=CARTESIAN_POINT('Ctrl Pts',(468.408271159291,-27.7229993128227,-1.23669128049148));
#485=CARTESIAN_POINT('Ctrl Pts',(468.2543652485,-27.7326413029688,-1.01185426528968));
#486=CARTESIAN_POINT('Ctrl Pts',(468.050230762976,-27.7462385898545,-0.51912118770967));
#487=CARTESIAN_POINT('Ctrl Pts',(468.000007003546,-27.75,-0.251217799085218));
#488=CARTESIAN_POINT('Ctrl Pts',(468.000007003546,-27.75,-2.42861286636753E-15));
#489=CARTESIAN_POINT('Ctrl Pts',(468.000007003546,-27.75,-4.02455846426619E-15));
#490=CARTESIAN_POINT('Ctrl Pts',(468.000007003546,-27.75,0.251217799085211));
#491=CARTESIAN_POINT('Ctrl Pts',(468.050230762976,-27.7462385898545,0.519121187709643));
#492=CARTESIAN_POINT('Ctrl Pts',(468.2543652485,-27.7326413029688,1.01185426528966));
#493=CARTESIAN_POINT('Ctrl Pts',(468.408271159291,-27.7229993128227,1.23669128049148));
#494=CARTESIAN_POINT('Ctrl Pts',(468.763315885356,-27.7048817497065,1.5917360065561));
#495=CARTESIAN_POINT('Ctrl Pts',(468.98815282836,-27.6952288097648,1.74564179231312));
#496=CARTESIAN_POINT('Ctrl Pts',(469.480885669083,-27.6816064736923,1.94977617983271));
#497=CARTESIAN_POINT('Ctrl Pts',(469.748788974782,-27.6778340915614,2.00000000000002));
#498=CARTESIAN_POINT('Ctrl Pts',(470.000007003546,-27.6778340915614,2.00000000000002));
#499=CARTESIAN_POINT('',(468.000007003546,-22.5,1.3367711130985E-15));
#500=CARTESIAN_POINT('',(468.000007003546,0.,2.44929359829474E-16));
#501=CARTESIAN_POINT('',(470.000007003546,-22.410934831015,2.00000000000003));
#502=CARTESIAN_POINT('Ctrl Pts',(470.000007003546,-22.410934831015,2.00000000000003));
#503=CARTESIAN_POINT('Ctrl Pts',(469.748739940048,-22.410934831015,2.00000000000003));
#504=CARTESIAN_POINT('Ctrl Pts',(469.48081568034,-22.4155958508801,1.94975705100667));
#505=CARTESIAN_POINT('Ctrl Pts',(468.988096456495,-22.432417181328,1.74560856864433));
#506=CARTESIAN_POINT('Ctrl Pts',(468.763290172108,-22.4443331019186,1.5917102933088));
#507=CARTESIAN_POINT('Ctrl Pts',(468.408297086666,-22.4666900201457,1.23671720786639));
#508=CARTESIAN_POINT('Ctrl Pts',(468.254398518624,-22.4785853682386,1.01191075766178));
#509=CARTESIAN_POINT('Ctrl Pts',(468.050249814718,-22.4953596161935,0.519190982024811));
#510=CARTESIAN_POINT('Ctrl Pts',(468.000007003546,-22.5,0.251266530619376));
#511=CARTESIAN_POINT('Ctrl Pts',(468.000007003546,-22.5,-6.80011602582908E-15));
#512=CARTESIAN_POINT('Ctrl Pts',(468.000007003546,-22.5,2.4980018054066E-15));
#513=CARTESIAN_POINT('Ctrl Pts',(468.000007003546,-22.5,-0.25126653061938));
#514=CARTESIAN_POINT('Ctrl Pts',(468.050249814718,-22.4953596161935,-0.519190982024851));
#515=CARTESIAN_POINT('Ctrl Pts',(468.254398518624,-22.4785853682386,-1.01191075766181));
#516=CARTESIAN_POINT('Ctrl Pts',(468.408297086666,-22.4666900201457,-1.23671720786639));
#517=CARTESIAN_POINT('Ctrl Pts',(468.763290172108,-22.4443331019186,-1.5917102933088));
#518=CARTESIAN_POINT('Ctrl Pts',(468.988096456495,-22.432417181328,-1.74560856864438));
#519=CARTESIAN_POINT('Ctrl Pts',(469.48081568034,-22.4155958508801,-1.94975705100668));
#520=CARTESIAN_POINT('Ctrl Pts',(469.748739940048,-22.410934831015,-2.00000000000003));
#521=CARTESIAN_POINT('Ctrl Pts',(470.251274067044,-22.410934831015,-2.00000000000003));
#522=CARTESIAN_POINT('Ctrl Pts',(470.519198326751,-22.4155958508801,-1.94975705100667));
#523=CARTESIAN_POINT('Ctrl Pts',(471.011917550596,-22.432417181328,-1.74560856864433));
#524=CARTESIAN_POINT('Ctrl Pts',(471.236723834983,-22.4443331019186,-1.5917102933088));
#525=CARTESIAN_POINT('Ctrl Pts',(471.591716920426,-22.4666900201457,-1.23671720786639));
#526=CARTESIAN_POINT('Ctrl Pts',(471.745615488468,-22.4785853682386,-1.01191075766178));
#527=CARTESIAN_POINT('Ctrl Pts',(471.949764192374,-22.4953596161935,-0.519190982024811));
#528=CARTESIAN_POINT('Ctrl Pts',(472.000007003546,-22.5,-0.251266530619383));
#529=CARTESIAN_POINT('Ctrl Pts',(472.000007003546,-22.5,0.251266530619382));
#530=CARTESIAN_POINT('Ctrl Pts',(471.949764192374,-22.4953596161935,0.51919098202481));
#531=CARTESIAN_POINT('Ctrl Pts',(471.745615488468,-22.4785853682386,1.01191075766178));
#532=CARTESIAN_POINT('Ctrl Pts',(471.591716920426,-22.4666900201457,1.23671720786639));
#533=CARTESIAN_POINT('Ctrl Pts',(471.236723834983,-22.4443331019186,1.5917102933088));
#534=CARTESIAN_POINT('Ctrl Pts',(471.011917550596,-22.432417181328,1.74560856864438));
#535=CARTESIAN_POINT('Ctrl Pts',(470.519198326751,-22.4155958508801,1.94975705100668));
#536=CARTESIAN_POINT('Ctrl Pts',(470.251274067044,-22.410934831015,2.00000000000002));
#537=CARTESIAN_POINT('Ctrl Pts',(470.000007003546,-22.410934831015,2.00000000000003));
#538=CARTESIAN_POINT('Origin',(470.000007003546,0.,0.));
#539=CARTESIAN_POINT('',(470.000007003546,22.410934831015,2.00000000000003));
#540=CARTESIAN_POINT('',(468.000007003546,22.5,1.16329876550082E-15));
#541=CARTESIAN_POINT('Ctrl Pts',(470.000007003546,22.410934831015,2.00000000000003));
#542=CARTESIAN_POINT('Ctrl Pts',(470.251274067044,22.410934831015,2.00000000000003));
#543=CARTESIAN_POINT('Ctrl Pts',(470.519198326751,22.4155958508801,1.94975705100667));
#544=CARTESIAN_POINT('Ctrl Pts',(471.011917550596,22.432417181328,1.74560856864433));
#545=CARTESIAN_POINT('Ctrl Pts',(471.236723834983,22.4443331019186,1.5917102933088));
#546=CARTESIAN_POINT('Ctrl Pts',(471.591716920426,22.4666900201457,1.23671720786639));
#547=CARTESIAN_POINT('Ctrl Pts',(471.745615488468,22.4785853682386,1.01191075766178));
#548=CARTESIAN_POINT('Ctrl Pts',(471.949764192374,22.4953596161935,0.51919098202481));
#549=CARTESIAN_POINT('Ctrl Pts',(472.000007003546,22.5,0.251266530619382));
#550=CARTESIAN_POINT('Ctrl Pts',(472.000007003546,22.5,-0.251266530619383));
#551=CARTESIAN_POINT('Ctrl Pts',(471.949764192374,22.4953596161935,-0.519190982024811));
#552=CARTESIAN_POINT('Ctrl Pts',(471.745615488468,22.4785853682386,-1.01191075766178));
#553=CARTESIAN_POINT('Ctrl Pts',(471.591716920426,22.4666900201457,-1.23671720786639));
#554=CARTESIAN_POINT('Ctrl Pts',(471.236723834983,22.4443331019186,-1.5917102933088));
#555=CARTESIAN_POINT('Ctrl Pts',(471.011917550596,22.432417181328,-1.74560856864431));
#556=CARTESIAN_POINT('Ctrl Pts',(470.519198326751,22.4155958508801,-1.94975705100667));
#557=CARTESIAN_POINT('Ctrl Pts',(470.251274067044,22.410934831015,-2.00000000000003));
#558=CARTESIAN_POINT('Ctrl Pts',(469.748739940048,22.410934831015,-2.00000000000003));
#559=CARTESIAN_POINT('Ctrl Pts',(469.48081568034,22.4155958508801,-1.94975705100671));
#560=CARTESIAN_POINT('Ctrl Pts',(468.988096456495,22.432417181328,-1.74560856864441));
#561=CARTESIAN_POINT('Ctrl Pts',(468.763290172108,22.4443331019186,-1.5917102933088));
#562=CARTESIAN_POINT('Ctrl Pts',(468.408297086666,22.4666900201457,-1.23671720786639));
#563=CARTESIAN_POINT('Ctrl Pts',(468.254398518624,22.4785853682386,-1.01191075766181));
#564=CARTESIAN_POINT('Ctrl Pts',(468.050249814718,22.4953596161935,-0.519190982024851));
#565=CARTESIAN_POINT('Ctrl Pts',(468.000007003546,22.5,-0.251266530619382));
#566=CARTESIAN_POINT('Ctrl Pts',(468.000007003546,22.5,1.56125112837913E-16));
#567=CARTESIAN_POINT('Ctrl Pts',(468.000007003546,22.5,2.0122792321331E-15));
#568=CARTESIAN_POINT('Ctrl Pts',(468.000007003546,22.5,0.251266530619384));
#569=CARTESIAN_POINT('Ctrl Pts',(468.050249814718,22.4953596161935,0.519190982024811));
#570=CARTESIAN_POINT('Ctrl Pts',(468.254398518624,22.4785853682386,1.01191075766178));
#571=CARTESIAN_POINT('Ctrl Pts',(468.408297086666,22.4666900201457,1.23671720786639));
#572=CARTESIAN_POINT('Ctrl Pts',(468.763290172108,22.4443331019186,1.5917102933088));
#573=CARTESIAN_POINT('Ctrl Pts',(468.988096456495,22.432417181328,1.74560856864431));
#574=CARTESIAN_POINT('Ctrl Pts',(469.48081568034,22.4155958508801,1.94975705100667));
#575=CARTESIAN_POINT('Ctrl Pts',(469.748739940048,22.410934831015,2.00000000000003));
#576=CARTESIAN_POINT('Ctrl Pts',(470.000007003546,22.410934831015,2.00000000000003));
#577=CARTESIAN_POINT('',(468.000007003546,27.75,2.44929359829474E-16));
#578=CARTESIAN_POINT('',(468.000007003546,0.,2.44929359829474E-16));
#579=CARTESIAN_POINT('',(470.000007003546,27.6778340915614,2.00000000000003));
#580=CARTESIAN_POINT('Ctrl Pts',(470.000007003546,27.6778340915614,2.00000000000003));
#581=CARTESIAN_POINT('Ctrl Pts',(469.748788974782,27.6778340915614,2.00000000000003));
#582=CARTESIAN_POINT('Ctrl Pts',(469.480885669083,27.6816064736923,1.94977617983271));
#583=CARTESIAN_POINT('Ctrl Pts',(468.98815282836,27.6952288097648,1.74564179231312));
#584=CARTESIAN_POINT('Ctrl Pts',(468.763315885356,27.7048817497065,1.5917360065561));
#585=CARTESIAN_POINT('Ctrl Pts',(468.408271159291,27.7229993128227,1.23669128049148));
#586=CARTESIAN_POINT('Ctrl Pts',(468.2543652485,27.7326413029688,1.01185426528966));
#587=CARTESIAN_POINT('Ctrl Pts',(468.050230762976,27.7462385898545,0.519121187709643));
#588=CARTESIAN_POINT('Ctrl Pts',(468.000007003546,27.75,0.251217799085215));
#589=CARTESIAN_POINT('Ctrl Pts',(468.000007003546,27.75,-7.63278329429795E-16));
#590=CARTESIAN_POINT('Ctrl Pts',(468.000007003546,27.75,6.93889390390723E-17));
#591=CARTESIAN_POINT('Ctrl Pts',(468.000007003546,27.75,-0.251217799085215));
#592=CARTESIAN_POINT('Ctrl Pts',(468.050230762976,27.7462385898545,-0.519121187709695));
#593=CARTESIAN_POINT('Ctrl Pts',(468.2543652485,27.7326413029688,-1.01185426528971));
#594=CARTESIAN_POINT('Ctrl Pts',(468.408271159291,27.7229993128227,-1.23669128049148));
#595=CARTESIAN_POINT('Ctrl Pts',(468.763315885356,27.7048817497065,-1.5917360065561));
#596=CARTESIAN_POINT('Ctrl Pts',(468.988152828361,27.6952288097648,-1.7456417923132));
#597=CARTESIAN_POINT('Ctrl Pts',(469.480885669083,27.6816064736923,-1.94977617983272));
#598=CARTESIAN_POINT('Ctrl Pts',(469.748788974782,27.6778340915614,-2.00000000000003));
#599=CARTESIAN_POINT('Ctrl Pts',(470.251225032309,27.6778340915614,-2.00000000000003));
#600=CARTESIAN_POINT('Ctrl Pts',(470.519128338009,27.6816064736923,-1.94977617983271));
#601=CARTESIAN_POINT('Ctrl Pts',(471.011861178731,27.6952288097649,-1.74564179231312));
#602=CARTESIAN_POINT('Ctrl Pts',(471.236698121736,27.7048817497065,-1.5917360065561));
#603=CARTESIAN_POINT('Ctrl Pts',(471.591742847801,27.7229993128227,-1.23669128049148));
#604=CARTESIAN_POINT('Ctrl Pts',(471.745648758591,27.7326413029688,-1.01185426528966));
#605=CARTESIAN_POINT('Ctrl Pts',(471.949783244115,27.7462385898545,-0.519121187709643));
#606=CARTESIAN_POINT('Ctrl Pts',(472.000007003546,27.75,-0.251217799085215));
#607=CARTESIAN_POINT('Ctrl Pts',(472.000007003546,27.75,0.251217799085215));
#608=CARTESIAN_POINT('Ctrl Pts',(471.949783244115,27.7462385898545,0.519121187709643));
#609=CARTESIAN_POINT('Ctrl Pts',(471.745648758591,27.7326413029688,1.01185426528966));
#610=CARTESIAN_POINT('Ctrl Pts',(471.591742847801,27.7229993128227,1.23669128049148));
#611=CARTESIAN_POINT('Ctrl Pts',(471.236698121736,27.7048817497065,1.5917360065561));
#612=CARTESIAN_POINT('Ctrl Pts',(471.011861178731,27.6952288097648,1.74564179231312));
#613=CARTESIAN_POINT('Ctrl Pts',(470.519128338009,27.6816064736923,1.94977617983271));
#614=CARTESIAN_POINT('Ctrl Pts',(470.251225032309,27.6778340915614,2.00000000000003));
#615=CARTESIAN_POINT('Ctrl Pts',(470.000007003546,27.6778340915614,2.00000000000003));
#616=CARTESIAN_POINT('Origin',(469.976174678758,0.,0.));
#617=CARTESIAN_POINT('',(479.976174678758,-2.75545529808154E-15,22.5));
#618=CARTESIAN_POINT('Origin',(479.976174678758,0.,0.));
#619=CARTESIAN_POINT('',(469.976174678758,-2.75545529808154E-15,22.5));
#620=CARTESIAN_POINT('',(459.976174678758,-2.75545529808154E-15,22.5));
#621=CARTESIAN_POINT('',(469.976174678758,-2.75545529808154E-15,22.5));
#622=CARTESIAN_POINT('Origin',(459.976174678758,0.,0.));
#623=CARTESIAN_POINT('Origin',(459.976174678758,0.,-27.75));
#624=CARTESIAN_POINT('',(459.976174678758,-3.39839486763391E-15,27.75));
#625=CARTESIAN_POINT('Origin',(459.976174678758,0.,0.));
#626=CARTESIAN_POINT('Origin',(469.976174678758,0.,0.));
#627=CARTESIAN_POINT('',(479.976174678758,-3.39839486763391E-15,27.75));
#628=CARTESIAN_POINT('Origin',(479.976174678758,0.,0.));
#629=CARTESIAN_POINT('',(469.976174678758,-3.39839486763391E-15,27.75));
#630=CARTESIAN_POINT('',(469.976174678758,-3.39839486763391E-15,27.75));
#631=CARTESIAN_POINT('Origin',(479.976174678758,0.,-22.5));
#632=UNCERTAINTY_MEASURE_WITH_UNIT(LENGTH_MEASURE(0.01),#636,
'DISTANCE_ACCURACY_VALUE',
'Maximum model space distance between geometric entities at asserted c
onnectivities');
#633=UNCERTAINTY_MEASURE_WITH_UNIT(LENGTH_MEASURE(0.01),#636,
'DISTANCE_ACCURACY_VALUE',
'Maximum model space distance between geometric entities at asserted c
onnectivities');
#634=(
GEOMETRIC_REPRESENTATION_CONTEXT(3)
GLOBAL_UNCERTAINTY_ASSIGNED_CONTEXT((#632))
GLOBAL_UNIT_ASSIGNED_CONTEXT((#636,#638,#639))
REPRESENTATION_CONTEXT('','3D')
);
#635=(
GEOMETRIC_REPRESENTATION_CONTEXT(3)
GLOBAL_UNCERTAINTY_ASSIGNED_CONTEXT((#633))
GLOBAL_UNIT_ASSIGNED_CONTEXT((#636,#638,#639))
REPRESENTATION_CONTEXT('','3D')
);
#636=(
LENGTH_UNIT()
NAMED_UNIT(*)
SI_UNIT(.MILLI.,.METRE.)
);
#637=(
LENGTH_UNIT()
NAMED_UNIT(*)
SI_UNIT($,.METRE.)
);
#638=(
NAMED_UNIT(*)
PLANE_ANGLE_UNIT()
SI_UNIT($,.RADIAN.)
);
#639=(
NAMED_UNIT(*)
SI_UNIT($,.STERADIAN.)
SOLID_ANGLE_UNIT()
);
#640=SHAPE_DEFINITION_REPRESENTATION(#641,#642);
#641=PRODUCT_DEFINITION_SHAPE('',$,#644);
#642=SHAPE_REPRESENTATION('',(#236),#634);
#643=PRODUCT_DEFINITION_CONTEXT('part definition',#648,'design');
#644=PRODUCT_DEFINITION('Fusion \X2\96F690E84EF6\X0\',
'Fusion \X2\96F690E84EF6\X0\',#645,#643);
#645=PRODUCT_DEFINITION_FORMATION('',$,#650);
#646=PRODUCT_RELATED_PRODUCT_CATEGORY('Fusion \X2\96F690E84EF6\X0\',
'Fusion \X2\96F690E84EF6\X0\',(#650));
#647=APPLICATION_PROTOCOL_DEFINITION('international standard',
'automotive_design',2009,#648);
#648=APPLICATION_CONTEXT(
'Core Data for Automotive Mechanical Design Process');
#649=PRODUCT_CONTEXT('part definition',#648,'mechanical');
#650=PRODUCT('Fusion \X2\96F690E84EF6\X0\','Fusion \X2\96F690E84EF6\X0\',
$,(#649));
#651=PRESENTATION_STYLE_ASSIGNMENT((#652));
#652=SURFACE_STYLE_USAGE(.BOTH.,#653);
#653=SURFACE_SIDE_STYLE('',(#654));
#654=SURFACE_STYLE_FILL_AREA(#655);
#655=FILL_AREA_STYLE('\X2\94A2\X0\ - \X2\7F0E5149\X0\',(#656));
#656=FILL_AREA_STYLE_COLOUR('\X2\94A2\X0\ - \X2\7F0E5149\X0\',#657);
#657=COLOUR_RGB('\X2\94A2\X0\ - \X2\7F0E5149\X0\',0.627450980392157,0.627450980392157,
0.627450980392157);
ENDSEC;
END-ISO-10303-21;
