ISO-10303-21;
HEADER;
/* Generated by software containing ST-Developer
 * from STEP Tools, Inc. (www.steptools.com) 
 */

FILE_DESCRIPTION(
/* description */ (''),
/* implementation_level */ '2;1');

FILE_NAME(
/* name */ '',
/* time_stamp */ '2026-07-17T12:58:21+08:00',
/* author */ (''),
/* organization */ (''),
/* preprocessor_version */ 'ST-DEVELOPER v20.1',
/* originating_system */ 'Autodesk Translation Framework v14.4.0.0',
/* authorisation */ '');

FILE_SCHEMA (('AUTOMOTIVE_DESIGN { 1 0 10303 214 3 1 1 }'));
ENDSEC;

DATA;
#10=MECHANICAL_DESIGN_GEOMETRIC_PRESENTATION_REPRESENTATION('',(#13),#611);
#11=SHAPE_REPRESENTATION_RELATIONSHIP('SRR','None',#618,#12);
#12=ADVANCED_BREP_SHAPE_REPRESENTATION('',(#14),#610);
#13=STYLED_ITEM('',(#627),#14);
#14=MANIFOLD_SOLID_BREP('\X2\5B9E4F53\X0\1',#213);
#15=PLANE('',#234);
#16=PLANE('',#238);
#17=FACE_BOUND('',#42,.T.);
#18=FACE_BOUND('',#43,.T.);
#19=FACE_BOUND('',#44,.T.);
#20=FACE_BOUND('',#46,.T.);
#21=FACE_BOUND('',#48,.T.);
#22=FACE_BOUND('',#49,.T.);
#23=FACE_BOUND('',#50,.T.);
#24=FACE_BOUND('',#52,.T.);
#25=CIRCLE('',#232,28.);
#26=CIRCLE('',#233,28.0000004172325);
#27=CIRCLE('',#235,30.);
#28=CIRCLE('',#237,30.);
#29=FACE_OUTER_BOUND('',#37,.T.);
#30=FACE_OUTER_BOUND('',#38,.T.);
#31=FACE_OUTER_BOUND('',#39,.T.);
#32=FACE_OUTER_BOUND('',#40,.T.);
#33=FACE_OUTER_BOUND('',#41,.T.);
#34=FACE_OUTER_BOUND('',#45,.T.);
#35=FACE_OUTER_BOUND('',#47,.T.);
#36=FACE_OUTER_BOUND('',#51,.T.);
#37=EDGE_LOOP('',(#139,#140,#141,#142,#143,#144));
#38=EDGE_LOOP('',(#145,#146,#147,#148,#149,#150));
#39=EDGE_LOOP('',(#151,#152,#153,#154,#155,#156));
#40=EDGE_LOOP('',(#157,#158,#159,#160,#161,#162,#163,#164));
#41=EDGE_LOOP('',(#165,#166,#167,#168,#169,#170,#171,#172,#173));
#42=EDGE_LOOP('',(#174,#175));
#43=EDGE_LOOP('',(#176,#177));
#44=EDGE_LOOP('',(#178,#179));
#45=EDGE_LOOP('',(#180));
#46=EDGE_LOOP('',(#181));
#47=EDGE_LOOP('',(#182,#183,#184,#185,#186,#187,#188,#189,#190));
#48=EDGE_LOOP('',(#191,#192));
#49=EDGE_LOOP('',(#193,#194));
#50=EDGE_LOOP('',(#195,#196));
#51=EDGE_LOOP('',(#197));
#52=EDGE_LOOP('',(#198));
#53=LINE('',#314,#61);
#54=LINE('',#392,#62);
#55=LINE('',#470,#63);
#56=LINE('',#533,#64);
#57=LINE('',#595,#65);
#58=LINE('',#597,#66);
#59=LINE('',#605,#67);
#60=LINE('',#606,#68);
#61=VECTOR('',#243,1.99999999999999);
#62=VECTOR('',#246,1.99999999999999);
#63=VECTOR('',#249,1.99999999999999);
#64=VECTOR('',#252,1.99999999999999);
#65=VECTOR('',#257,28.0000002086163);
#66=VECTOR('',#258,28.0000002086163);
#67=VECTOR('',#269,30.);
#68=VECTOR('',#270,30.);
#69=B_SPLINE_CURVE_WITH_KNOTS('',3,(#277,#278,#279,#280,#281,#282,#283,
#284,#285,#286,#287,#288,#289,#290,#291,#292,#293,#294,#295,#296,#297,#298,
#299,#300,#301,#302),.UNSPECIFIED.,.F.,.F.,(4,2,2,2,2,2,2,2,2,2,2,2,4),
(0.,0.0753612869151763,0.150722573830353,0.226083315804909,0.301444057779465,
0.376805907806138,0.452167757832811,0.527529157022814,0.602890556212818,
0.678251955402821,0.753613354592824,0.828975204619497,0.90433705464617),
 .UNSPECIFIED.);
#70=B_SPLINE_CURVE_WITH_KNOTS('',3,(#303,#304,#305,#306,#307,#308,#309,
#310,#311,#312),.UNSPECIFIED.,.F.,.F.,(4,2,2,2,4),(0.90433705464617,0.979697796620726,
1.05505853859528,1.13041982551046,1.20578111242564),.UNSPECIFIED.);
#71=B_SPLINE_CURVE_WITH_KNOTS('',3,(#316,#317,#318,#319,#320,#321,#322,
#323,#324,#325),.UNSPECIFIED.,.F.,.F.,(4,2,2,2,4),(0.,0.0753648429776055,
0.150729685955211,0.226093894796915,0.30145810363862),.UNSPECIFIED.);
#72=B_SPLINE_CURVE_WITH_KNOTS('',3,(#326,#327,#328,#329,#330,#331,#332,
#333,#334,#335,#336,#337,#338,#339,#340,#341,#342,#343,#344,#345,#346,#347,
#348,#349,#350,#351),.UNSPECIFIED.,.F.,.F.,(4,2,2,2,2,2,2,2,2,2,2,2,4),
(0.30145810363862,0.3768235848157,0.452189065992781,0.52755403827062,0.602919010548459,
0.678283982826298,0.753648955104137,0.829014436281217,0.904379917458298,
0.979744126300002,1.05510833514171,1.13047317811931,1.20583802109692),
 .UNSPECIFIED.);
#73=B_SPLINE_CURVE_WITH_KNOTS('',3,(#355,#356,#357,#358,#359,#360,#361,
#362,#363,#364,#365,#366,#367,#368,#369,#370,#371,#372,#373,#374,#375,#376,
#377,#378,#379,#380),.UNSPECIFIED.,.F.,.F.,(4,2,2,2,2,2,2,2,2,2,2,2,4),
(0.,0.0753648429776055,0.150729685955211,0.226093894796915,0.30145810363862,
0.3768235848157,0.452189065992781,0.52755403827062,0.602919010548459,0.678283982826297,
0.753648955104136,0.829014436281217,0.904379917458298),.UNSPECIFIED.);
#74=B_SPLINE_CURVE_WITH_KNOTS('',3,(#381,#382,#383,#384,#385,#386,#387,
#388,#389,#390),.UNSPECIFIED.,.F.,.F.,(4,2,2,2,4),(0.904379917458298,0.979744126300002,
1.05510833514171,1.13047317811931,1.20583802109692),.UNSPECIFIED.);
#75=B_SPLINE_CURVE_WITH_KNOTS('',3,(#394,#395,#396,#397,#398,#399,#400,
#401,#402,#403),.UNSPECIFIED.,.F.,.F.,(4,2,2,2,4),(0.,0.0753612869151763,
0.150722573830353,0.226083315804909,0.301444057779465),.UNSPECIFIED.);
#76=B_SPLINE_CURVE_WITH_KNOTS('',3,(#404,#405,#406,#407,#408,#409,#410,
#411,#412,#413,#414,#415,#416,#417,#418,#419,#420,#421,#422,#423,#424,#425,
#426,#427,#428,#429),.UNSPECIFIED.,.F.,.F.,(4,2,2,2,2,2,2,2,2,2,2,2,4),
(0.301444057779465,0.376805907806138,0.452167757832811,0.527529157022814,
0.602890556212818,0.678251955402821,0.753613354592824,0.828975204619497,
0.90433705464617,0.979697796620726,1.05505853859528,1.13041982551046,1.20578111242564),
 .UNSPECIFIED.);
#77=B_SPLINE_CURVE_WITH_KNOTS('',3,(#433,#434,#435,#436,#437,#438,#439,
#440,#441,#442,#443,#444,#445,#446,#447,#448,#449,#450,#451,#452,#453,#454,
#455,#456,#457,#458),.UNSPECIFIED.,.F.,.F.,(4,2,2,2,2,2,2,2,2,2,2,2,4),
(0.,0.0753613432047296,0.150722686409459,0.226083979208502,0.301445272007546,
0.376806564806589,0.452167857605632,0.527529200810362,0.602890544015091,
0.678251887219821,0.753613230424551,0.828974523223594,0.904335816022637),
 .UNSPECIFIED.);
#78=B_SPLINE_CURVE_WITH_KNOTS('',3,(#459,#460,#461,#462,#463,#464,#465,
#466,#467,#468),.UNSPECIFIED.,.F.,.F.,(4,2,2,2,4),(0.904335816022637,0.97969710882168,
1.05505840162072,1.13041974482545,1.20578108803018),.UNSPECIFIED.);
#79=B_SPLINE_CURVE_WITH_KNOTS('',3,(#472,#473,#474,#475,#476,#477,#478,
#479,#480,#481),.UNSPECIFIED.,.F.,.F.,(4,2,2,2,4),(0.,0.0753649078012071,
0.150729815602414,0.226094656934443,0.301459498266472),.UNSPECIFIED.);
#80=B_SPLINE_CURVE_WITH_KNOTS('',3,(#482,#483,#484,#485,#486,#487,#488,
#489,#490,#491,#492,#493,#494,#495,#496,#497,#498,#499,#500,#501,#502,#503,
#504,#505,#506,#507),.UNSPECIFIED.,.F.,.F.,(4,2,2,2,2,2,2,2,2,2,2,2,4),
(0.301459498266472,0.3768243395985,0.452189180930529,0.527554088731736,
0.602918996532943,0.67828390433415,0.753648812135357,0.829013653467386,
0.904378494799415,0.979743336131444,1.05510817746347,1.13047308526468,1.20583799306589),
 .UNSPECIFIED.);
#81=B_SPLINE_CURVE_WITH_KNOTS('',3,(#511,#512,#513,#514,#515,#516,#517,
#518,#519,#520),.UNSPECIFIED.,.F.,.F.,(4,2,2,2,4),(0.,0.0753649078012071,
0.150729815602414,0.226094656934443,0.301459498266472),.UNSPECIFIED.);
#82=B_SPLINE_CURVE_WITH_KNOTS('',3,(#522,#523,#524,#525,#526,#527,#528,
#529,#530,#531),.UNSPECIFIED.,.F.,.F.,(4,2,2,2,4),(0.904378494799415,0.979743336131444,
1.05510817746347,1.13047308526468,1.20583799306589),.UNSPECIFIED.);
#83=B_SPLINE_CURVE_WITH_KNOTS('',3,(#535,#536,#537,#538,#539,#540,#541,
#542,#543,#544),.UNSPECIFIED.,.F.,.F.,(4,2,2,2,4),(0.,0.0753613432047297,
0.150722686409459,0.226083979208503,0.301445272007546),.UNSPECIFIED.);
#84=B_SPLINE_CURVE_WITH_KNOTS('',3,(#546,#547,#548,#549,#550,#551,#552,
#553,#554,#555),.UNSPECIFIED.,.F.,.F.,(4,2,2,2,4),(0.904335816022637,0.97969710882168,
1.05505840162072,1.13041974482545,1.20578108803018),.UNSPECIFIED.);
#85=B_SPLINE_CURVE_WITH_KNOTS('',3,(#556,#557,#558,#559,#560,#561,#562,
#563,#564,#565,#566,#567,#568,#569,#570,#571,#572,#573),.UNSPECIFIED.,.F.,
 .F.,(4,2,2,2,2,2,2,2,4),(0.301445272007546,0.376806564806589,0.452167857605632,
0.527529200810362,0.602890544015091,0.678251887219821,0.753613230424551,
0.828974523223594,0.904335816022637),.UNSPECIFIED.);
#86=B_SPLINE_CURVE_WITH_KNOTS('',3,(#574,#575,#576,#577,#578,#579,#580,
#581,#582,#583,#584,#585,#586,#587,#588,#589,#590,#591),.UNSPECIFIED.,.F.,
 .F.,(4,2,2,2,2,2,2,2,4),(0.301459498266472,0.3768243395985,0.452189180930529,
0.527554088731736,0.602918996532943,0.67828390433415,0.753648812135357,
0.829013653467386,0.904378494799415),.UNSPECIFIED.);
#87=VERTEX_POINT('',#275);
#88=VERTEX_POINT('',#276);
#89=VERTEX_POINT('',#313);
#90=VERTEX_POINT('',#315);
#91=VERTEX_POINT('',#353);
#92=VERTEX_POINT('',#354);
#93=VERTEX_POINT('',#391);
#94=VERTEX_POINT('',#393);
#95=VERTEX_POINT('',#431);
#96=VERTEX_POINT('',#432);
#97=VERTEX_POINT('',#469);
#98=VERTEX_POINT('',#471);
#99=VERTEX_POINT('',#509);
#100=VERTEX_POINT('',#510);
#101=VERTEX_POINT('',#521);
#102=VERTEX_POINT('',#532);
#103=VERTEX_POINT('',#534);
#104=VERTEX_POINT('',#545);
#105=VERTEX_POINT('',#593);
#106=VERTEX_POINT('',#596);
#107=VERTEX_POINT('',#600);
#108=VERTEX_POINT('',#603);
#109=EDGE_CURVE('',#87,#88,#69,.T.);
#110=EDGE_CURVE('',#88,#87,#70,.T.);
#111=EDGE_CURVE('',#88,#89,#53,.T.);
#112=EDGE_CURVE('',#90,#89,#71,.T.);
#113=EDGE_CURVE('',#89,#90,#72,.T.);
#114=EDGE_CURVE('',#91,#92,#73,.T.);
#115=EDGE_CURVE('',#92,#91,#74,.T.);
#116=EDGE_CURVE('',#92,#93,#54,.T.);
#117=EDGE_CURVE('',#94,#93,#75,.T.);
#118=EDGE_CURVE('',#93,#94,#76,.T.);
#119=EDGE_CURVE('',#95,#96,#77,.T.);
#120=EDGE_CURVE('',#96,#95,#78,.T.);
#121=EDGE_CURVE('',#96,#97,#55,.T.);
#122=EDGE_CURVE('',#98,#97,#79,.T.);
#123=EDGE_CURVE('',#97,#98,#80,.T.);
#124=EDGE_CURVE('',#99,#100,#81,.T.);
#125=EDGE_CURVE('',#101,#99,#82,.T.);
#126=EDGE_CURVE('',#101,#102,#56,.T.);
#127=EDGE_CURVE('',#103,#102,#83,.T.);
#128=EDGE_CURVE('',#104,#103,#84,.T.);
#129=EDGE_CURVE('',#102,#104,#85,.T.);
#130=EDGE_CURVE('',#100,#101,#86,.T.);
#131=EDGE_CURVE('',#105,#105,#25,.T.);
#132=EDGE_CURVE('',#105,#100,#57,.T.);
#133=EDGE_CURVE('',#101,#106,#58,.T.);
#134=EDGE_CURVE('',#106,#106,#26,.T.);
#135=EDGE_CURVE('',#107,#107,#27,.T.);
#136=EDGE_CURVE('',#108,#108,#28,.T.);
#137=EDGE_CURVE('',#108,#104,#59,.T.);
#138=EDGE_CURVE('',#102,#107,#60,.T.);
#139=ORIENTED_EDGE('',*,*,#109,.F.);
#140=ORIENTED_EDGE('',*,*,#110,.F.);
#141=ORIENTED_EDGE('',*,*,#111,.T.);
#142=ORIENTED_EDGE('',*,*,#112,.F.);
#143=ORIENTED_EDGE('',*,*,#113,.F.);
#144=ORIENTED_EDGE('',*,*,#111,.F.);
#145=ORIENTED_EDGE('',*,*,#114,.F.);
#146=ORIENTED_EDGE('',*,*,#115,.F.);
#147=ORIENTED_EDGE('',*,*,#116,.T.);
#148=ORIENTED_EDGE('',*,*,#117,.F.);
#149=ORIENTED_EDGE('',*,*,#118,.F.);
#150=ORIENTED_EDGE('',*,*,#116,.F.);
#151=ORIENTED_EDGE('',*,*,#119,.F.);
#152=ORIENTED_EDGE('',*,*,#120,.F.);
#153=ORIENTED_EDGE('',*,*,#121,.T.);
#154=ORIENTED_EDGE('',*,*,#122,.F.);
#155=ORIENTED_EDGE('',*,*,#123,.F.);
#156=ORIENTED_EDGE('',*,*,#121,.F.);
#157=ORIENTED_EDGE('',*,*,#124,.F.);
#158=ORIENTED_EDGE('',*,*,#125,.F.);
#159=ORIENTED_EDGE('',*,*,#126,.T.);
#160=ORIENTED_EDGE('',*,*,#127,.F.);
#161=ORIENTED_EDGE('',*,*,#128,.F.);
#162=ORIENTED_EDGE('',*,*,#129,.F.);
#163=ORIENTED_EDGE('',*,*,#126,.F.);
#164=ORIENTED_EDGE('',*,*,#130,.F.);
#165=ORIENTED_EDGE('',*,*,#131,.T.);
#166=ORIENTED_EDGE('',*,*,#132,.T.);
#167=ORIENTED_EDGE('',*,*,#130,.T.);
#168=ORIENTED_EDGE('',*,*,#133,.T.);
#169=ORIENTED_EDGE('',*,*,#134,.F.);
#170=ORIENTED_EDGE('',*,*,#133,.F.);
#171=ORIENTED_EDGE('',*,*,#125,.T.);
#172=ORIENTED_EDGE('',*,*,#124,.T.);
#173=ORIENTED_EDGE('',*,*,#132,.F.);
#174=ORIENTED_EDGE('',*,*,#114,.T.);
#175=ORIENTED_EDGE('',*,*,#115,.T.);
#176=ORIENTED_EDGE('',*,*,#112,.T.);
#177=ORIENTED_EDGE('',*,*,#113,.T.);
#178=ORIENTED_EDGE('',*,*,#122,.T.);
#179=ORIENTED_EDGE('',*,*,#123,.T.);
#180=ORIENTED_EDGE('',*,*,#135,.F.);
#181=ORIENTED_EDGE('',*,*,#134,.T.);
#182=ORIENTED_EDGE('',*,*,#136,.F.);
#183=ORIENTED_EDGE('',*,*,#137,.T.);
#184=ORIENTED_EDGE('',*,*,#128,.T.);
#185=ORIENTED_EDGE('',*,*,#127,.T.);
#186=ORIENTED_EDGE('',*,*,#138,.T.);
#187=ORIENTED_EDGE('',*,*,#135,.T.);
#188=ORIENTED_EDGE('',*,*,#138,.F.);
#189=ORIENTED_EDGE('',*,*,#129,.T.);
#190=ORIENTED_EDGE('',*,*,#137,.F.);
#191=ORIENTED_EDGE('',*,*,#117,.T.);
#192=ORIENTED_EDGE('',*,*,#118,.T.);
#193=ORIENTED_EDGE('',*,*,#109,.T.);
#194=ORIENTED_EDGE('',*,*,#110,.T.);
#195=ORIENTED_EDGE('',*,*,#119,.T.);
#196=ORIENTED_EDGE('',*,*,#120,.T.);
#197=ORIENTED_EDGE('',*,*,#136,.T.);
#198=ORIENTED_EDGE('',*,*,#131,.F.);
#199=CYLINDRICAL_SURFACE('',#227,1.99999999999999);
#200=CYLINDRICAL_SURFACE('',#228,1.99999999999999);
#201=CYLINDRICAL_SURFACE('',#229,1.99999999999999);
#202=CYLINDRICAL_SURFACE('',#230,1.99999999999999);
#203=CYLINDRICAL_SURFACE('',#231,28.0000002086163);
#204=CYLINDRICAL_SURFACE('',#236,30.);
#205=ADVANCED_FACE('',(#29),#199,.F.);
#206=ADVANCED_FACE('',(#30),#200,.F.);
#207=ADVANCED_FACE('',(#31),#201,.F.);
#208=ADVANCED_FACE('',(#32),#202,.F.);
#209=ADVANCED_FACE('',(#33,#17,#18,#19),#203,.F.);
#210=ADVANCED_FACE('',(#34,#20),#15,.T.);
#211=ADVANCED_FACE('',(#35,#21,#22,#23),#204,.T.);
#212=ADVANCED_FACE('',(#36,#24),#16,.T.);
#213=CLOSED_SHELL('',(#205,#206,#207,#208,#209,#210,#211,#212));
#214=DERIVED_UNIT_ELEMENT(#216,1.);
#215=DERIVED_UNIT_ELEMENT(#613,-3.);
#216=(
MASS_UNIT()
NAMED_UNIT(*)
SI_UNIT(.KILO.,.GRAM.)
);
#217=DERIVED_UNIT((#214,#215));
#218=MEASURE_REPRESENTATION_ITEM('density measure',
POSITIVE_RATIO_MEASURE(7850.),#217);
#219=PROPERTY_DEFINITION_REPRESENTATION(#224,#221);
#220=PROPERTY_DEFINITION_REPRESENTATION(#225,#222);
#221=REPRESENTATION('material name',(#223),#610);
#222=REPRESENTATION('density',(#218),#610);
#223=DESCRIPTIVE_REPRESENTATION_ITEM('\X2\94A2\X0\','\X2\94A2\X0\');
#224=PROPERTY_DEFINITION('material property','material name',#620);
#225=PROPERTY_DEFINITION('material property','density of part',#620);
#226=AXIS2_PLACEMENT_3D('',#273,#239,#240);
#227=AXIS2_PLACEMENT_3D('',#274,#241,#242);
#228=AXIS2_PLACEMENT_3D('',#352,#244,#245);
#229=AXIS2_PLACEMENT_3D('',#430,#247,#248);
#230=AXIS2_PLACEMENT_3D('',#508,#250,#251);
#231=AXIS2_PLACEMENT_3D('',#592,#253,#254);
#232=AXIS2_PLACEMENT_3D('',#594,#255,#256);
#233=AXIS2_PLACEMENT_3D('',#598,#259,#260);
#234=AXIS2_PLACEMENT_3D('',#599,#261,#262);
#235=AXIS2_PLACEMENT_3D('',#601,#263,#264);
#236=AXIS2_PLACEMENT_3D('',#602,#265,#266);
#237=AXIS2_PLACEMENT_3D('',#604,#267,#268);
#238=AXIS2_PLACEMENT_3D('',#607,#271,#272);
#239=DIRECTION('axis',(0.,0.,1.));
#240=DIRECTION('refdir',(1.,0.,0.));
#241=DIRECTION('center_axis',(0.,1.,0.));
#242=DIRECTION('ref_axis',(1.,0.,0.));
#243=DIRECTION('',(0.,1.,0.));
#244=DIRECTION('center_axis',(0.,1.,0.));
#245=DIRECTION('ref_axis',(1.,0.,0.));
#246=DIRECTION('',(0.,1.,0.));
#247=DIRECTION('center_axis',(0.,2.22044604925031E-16,1.));
#248=DIRECTION('ref_axis',(1.,0.,0.));
#249=DIRECTION('',(0.,2.22044604925031E-16,1.));
#250=DIRECTION('center_axis',(0.,2.22044604925031E-16,1.));
#251=DIRECTION('ref_axis',(1.,0.,0.));
#252=DIRECTION('',(0.,2.22044604925031E-16,1.));
#253=DIRECTION('center_axis',(1.,0.,0.));
#254=DIRECTION('ref_axis',(0.,0.,-1.));
#255=DIRECTION('center_axis',(1.,0.,0.));
#256=DIRECTION('ref_axis',(0.,0.,-1.));
#257=DIRECTION('',(-1.,0.,0.));
#258=DIRECTION('',(-1.,0.,0.));
#259=DIRECTION('center_axis',(1.,0.,0.));
#260=DIRECTION('ref_axis',(0.,0.,-1.));
#261=DIRECTION('center_axis',(-1.,0.,0.));
#262=DIRECTION('ref_axis',(0.,0.,1.));
#263=DIRECTION('center_axis',(1.,0.,0.));
#264=DIRECTION('ref_axis',(0.,0.,-1.));
#265=DIRECTION('center_axis',(1.,0.,0.));
#266=DIRECTION('ref_axis',(0.,0.,-1.));
#267=DIRECTION('center_axis',(1.,0.,0.));
#268=DIRECTION('ref_axis',(0.,0.,-1.));
#269=DIRECTION('',(-1.,0.,0.));
#270=DIRECTION('',(-1.,0.,0.));
#271=DIRECTION('center_axis',(1.,0.,0.));
#272=DIRECTION('ref_axis',(0.,0.,-1.));
#273=CARTESIAN_POINT('',(0.,0.,0.));
#274=CARTESIAN_POINT('Origin',(229.999996379811,0.,-0.00850904022022169));
#275=CARTESIAN_POINT('',(229.999996379811,-29.9338264135596,1.99149095977978));
#276=CARTESIAN_POINT('',(227.999996379811,-29.9999987932705,-0.00850904022022309));
#277=CARTESIAN_POINT('Ctrl Pts',(229.999996379811,-29.9338264135596,1.99149095977978));
#278=CARTESIAN_POINT('Ctrl Pts',(230.251200669528,-29.9338264135596,1.99149095977977));
#279=CARTESIAN_POINT('Ctrl Pts',(230.519098349124,-29.9372997732917,1.94127251318366));
#280=CARTESIAN_POINT('Ctrl Pts',(231.011835998102,-29.9498380014303,1.73714143191018));
#281=CARTESIAN_POINT('Ctrl Pts',(231.236682262618,-29.9587209390642,1.58323285858212));
#282=CARTESIAN_POINT('Ctrl Pts',(231.591741570642,-29.9753762126366,1.22817223682692));
#283=CARTESIAN_POINT('Ctrl Pts',(231.745649106463,-29.9842303886203,1.00332643556534));
#284=CARTESIAN_POINT('Ctrl Pts',(231.949778553754,-29.9966670423739,0.510590131674254));
#285=CARTESIAN_POINT('Ctrl Pts',(231.999996379811,-30.0000700430022,0.242693422923852));
#286=CARTESIAN_POINT('Ctrl Pts',(231.999996379811,-29.9999275424913,-0.259715196871202));
#287=CARTESIAN_POINT('Ctrl Pts',(231.949777233333,-29.9963724773662,-0.52761361074513));
#288=CARTESIAN_POINT('Ctrl Pts',(231.745645568069,-29.9836559157704,-1.02035084573523));
#289=CARTESIAN_POINT('Ctrl Pts',(231.591737203914,-29.9746738862312,-1.24519600334772));
#290=CARTESIAN_POINT('Ctrl Pts',(231.236678465044,-29.9578166142884,-1.60025341724257));
#291=CARTESIAN_POINT('Ctrl Pts',(231.011833887832,-29.9488460218229,-1.75416055060221));
#292=CARTESIAN_POINT('Ctrl Pts',(230.51909836005,-29.9361914061783,-1.95829042508719));
#293=CARTESIAN_POINT('Ctrl Pts',(230.251201043778,-29.932689345185,-2.00850904022021));
#294=CARTESIAN_POINT('Ctrl Pts',(229.748791715844,-29.932689345185,-2.00850904022021));
#295=CARTESIAN_POINT('Ctrl Pts',(229.480894399572,-29.9361914061783,-1.95829042508719));
#296=CARTESIAN_POINT('Ctrl Pts',(228.98815887179,-29.9488460218229,-1.75416055060221));
#297=CARTESIAN_POINT('Ctrl Pts',(228.763314294578,-29.9578166142884,-1.60025341724257));
#298=CARTESIAN_POINT('Ctrl Pts',(228.408255555708,-29.9746738862312,-1.24519600334772));
#299=CARTESIAN_POINT('Ctrl Pts',(228.254347191553,-29.9836559157704,-1.02035084573523));
#300=CARTESIAN_POINT('Ctrl Pts',(228.050215526289,-29.9963724773662,-0.52761361074513));
#301=CARTESIAN_POINT('Ctrl Pts',(227.999996379811,-29.9999275424913,-0.259715196871199));
#302=CARTESIAN_POINT('Ctrl Pts',(227.999996379811,-29.9999987932705,-0.00850904022021884));
#303=CARTESIAN_POINT('Ctrl Pts',(227.999996379811,-29.9999987932705,-0.00850904022022467));
#304=CARTESIAN_POINT('Ctrl Pts',(227.999996379811,-30.0000700430022,0.242693422923849));
#305=CARTESIAN_POINT('Ctrl Pts',(228.050214205869,-29.9966670423739,0.51059013167428));
#306=CARTESIAN_POINT('Ctrl Pts',(228.254343653159,-29.9842303886203,1.00332643556536));
#307=CARTESIAN_POINT('Ctrl Pts',(228.40825118898,-29.9753762126366,1.22817223682692));
#308=CARTESIAN_POINT('Ctrl Pts',(228.763310497004,-29.9587209390642,1.58323285858212));
#309=CARTESIAN_POINT('Ctrl Pts',(228.98815676152,-29.9498380014303,1.73714143191018));
#310=CARTESIAN_POINT('Ctrl Pts',(229.480894410499,-29.9372997732917,1.94127251318366));
#311=CARTESIAN_POINT('Ctrl Pts',(229.748792090094,-29.9338264135596,1.99149095977977));
#312=CARTESIAN_POINT('Ctrl Pts',(229.999996379811,-29.9338264135596,1.99149095977977));
#313=CARTESIAN_POINT('',(227.999996379811,-27.9999989156919,-0.00850904022022361));
#314=CARTESIAN_POINT('',(227.999996379811,0.,-0.00850904022022145));
#315=CARTESIAN_POINT('',(229.999996379811,-27.9290883388561,1.99149095977977));
#316=CARTESIAN_POINT('Ctrl Pts',(229.999996379811,-27.9290883388561,1.99149095977977));
#317=CARTESIAN_POINT('Ctrl Pts',(229.748780236552,-27.9290883388561,1.99149095977977));
#318=CARTESIAN_POINT('Ctrl Pts',(229.480877438722,-27.9328114151916,1.94126788824864));
#319=CARTESIAN_POINT('Ctrl Pts',(228.988142922188,-27.9462491664349,1.73713329228527));
#320=CARTESIAN_POINT('Ctrl Pts',(228.763303968928,-27.9557686441614,1.58322642776053));
#321=CARTESIAN_POINT('Ctrl Pts',(228.408257152105,-27.9736158625196,1.22817810269613));
#322=CARTESIAN_POINT('Ctrl Pts',(228.254351462943,-27.983103152279,1.00333967261558));
#323=CARTESIAN_POINT('Ctrl Pts',(228.050218731852,-27.9964289393619,0.510606670884114));
#324=CARTESIAN_POINT('Ctrl Pts',(227.999996379811,-28.0000752582013,0.242704977652097));
#325=CARTESIAN_POINT('Ctrl Pts',(227.999996379811,-27.9999989156919,-0.00850904022022418));
#326=CARTESIAN_POINT('Ctrl Pts',(227.999996379811,-27.9999989156919,-0.00850904022022383));
#327=CARTESIAN_POINT('Ctrl Pts',(227.999996379811,-27.9999225718935,-0.25972729921027));
#328=CARTESIAN_POINT('Ctrl Pts',(228.050220248134,-27.9961133087016,-0.527630950495616));
#329=CARTESIAN_POINT('Ctrl Pts',(228.254355526075,-27.9824875598557,-1.0203650213309));
#330=CARTESIAN_POINT('Ctrl Pts',(228.408262166319,-27.9728632401245,-1.24520271204698));
#331=CARTESIAN_POINT('Ctrl Pts',(228.763308328894,-27.9547995096695,-1.60024735346842));
#332=CARTESIAN_POINT('Ctrl Pts',(228.988145344391,-27.9451860618143,-1.7541525643655));
#333=CARTESIAN_POINT('Ctrl Pts',(229.480877424819,-27.9316235134296,-1.95828577478091));
#334=CARTESIAN_POINT('Ctrl Pts',(229.748779805552,-27.9278696487552,-2.00850904022021));
#335=CARTESIAN_POINT('Ctrl Pts',(230.251212954071,-27.9278696487552,-2.00850904022021));
#336=CARTESIAN_POINT('Ctrl Pts',(230.519115334804,-27.9316235134296,-1.9582857747809));
#337=CARTESIAN_POINT('Ctrl Pts',(231.011847415232,-27.9451860618143,-1.75415256436547));
#338=CARTESIAN_POINT('Ctrl Pts',(231.236684430728,-27.9547995096695,-1.60024735346842));
#339=CARTESIAN_POINT('Ctrl Pts',(231.591730593303,-27.9728632401245,-1.24520271204698));
#340=CARTESIAN_POINT('Ctrl Pts',(231.745637233548,-27.9824875598557,-1.0203650213309));
#341=CARTESIAN_POINT('Ctrl Pts',(231.949772511489,-27.9961133087016,-0.527630950495616));
#342=CARTESIAN_POINT('Ctrl Pts',(231.999996379811,-27.9999225718935,-0.259727299210268));
#343=CARTESIAN_POINT('Ctrl Pts',(231.999996379811,-28.0000752582013,0.242704977652099));
#344=CARTESIAN_POINT('Ctrl Pts',(231.94977402777,-27.9964289393619,0.510606670884114));
#345=CARTESIAN_POINT('Ctrl Pts',(231.745641296679,-27.983103152279,1.00333967261558));
#346=CARTESIAN_POINT('Ctrl Pts',(231.591735607517,-27.9736158625196,1.22817810269613));
#347=CARTESIAN_POINT('Ctrl Pts',(231.236688790694,-27.9557686441614,1.58322642776053));
#348=CARTESIAN_POINT('Ctrl Pts',(231.011849837434,-27.9462491664349,1.73713329228527));
#349=CARTESIAN_POINT('Ctrl Pts',(230.5191153209,-27.9328114151916,1.94126788824864));
#350=CARTESIAN_POINT('Ctrl Pts',(230.25121252307,-27.9290883388561,1.99149095977977));
#351=CARTESIAN_POINT('Ctrl Pts',(229.999996379811,-27.9290883388561,1.99149095977977));
#352=CARTESIAN_POINT('Origin',(229.999996379811,0.,-0.00850904022022169));
#353=CARTESIAN_POINT('',(229.999996379811,27.9290883388561,1.99149095977977));
#354=CARTESIAN_POINT('',(227.999996379811,27.9999989156919,-0.00850904022022243));
#355=CARTESIAN_POINT('Ctrl Pts',(229.999996379811,27.9290883388561,1.99149095977977));
#356=CARTESIAN_POINT('Ctrl Pts',(230.25121252307,27.9290883388561,1.99149095977977));
#357=CARTESIAN_POINT('Ctrl Pts',(230.5191153209,27.9328114151916,1.94126788824864));
#358=CARTESIAN_POINT('Ctrl Pts',(231.011849837434,27.9462491664349,1.73713329228527));
#359=CARTESIAN_POINT('Ctrl Pts',(231.236688790694,27.9557686441614,1.58322642776053));
#360=CARTESIAN_POINT('Ctrl Pts',(231.591735607517,27.9736158625196,1.22817810269613));
#361=CARTESIAN_POINT('Ctrl Pts',(231.745641296679,27.983103152279,1.00333967261558));
#362=CARTESIAN_POINT('Ctrl Pts',(231.94977402777,27.9964289393619,0.510606670884114));
#363=CARTESIAN_POINT('Ctrl Pts',(231.999996379811,28.0000752582013,0.242704977652099));
#364=CARTESIAN_POINT('Ctrl Pts',(231.999996379811,27.9999225718935,-0.259727299210268));
#365=CARTESIAN_POINT('Ctrl Pts',(231.949772511489,27.9961133087016,-0.527630950495616));
#366=CARTESIAN_POINT('Ctrl Pts',(231.745637233548,27.9824875598557,-1.0203650213309));
#367=CARTESIAN_POINT('Ctrl Pts',(231.591730593303,27.9728632401245,-1.24520271204698));
#368=CARTESIAN_POINT('Ctrl Pts',(231.236684430728,27.9547995096695,-1.60024735346842));
#369=CARTESIAN_POINT('Ctrl Pts',(231.011847415232,27.9451860618143,-1.75415256436546));
#370=CARTESIAN_POINT('Ctrl Pts',(230.519115334804,27.9316235134296,-1.95828577478089));
#371=CARTESIAN_POINT('Ctrl Pts',(230.251212954071,27.9278696487552,-2.00850904022021));
#372=CARTESIAN_POINT('Ctrl Pts',(229.748779805552,27.9278696487552,-2.00850904022021));
#373=CARTESIAN_POINT('Ctrl Pts',(229.480877424819,27.9316235134296,-1.95828577478091));
#374=CARTESIAN_POINT('Ctrl Pts',(228.988145344391,27.9451860618143,-1.7541525643655));
#375=CARTESIAN_POINT('Ctrl Pts',(228.763308328894,27.9547995096695,-1.60024735346842));
#376=CARTESIAN_POINT('Ctrl Pts',(228.408262166319,27.9728632401245,-1.24520271204698));
#377=CARTESIAN_POINT('Ctrl Pts',(228.254355526075,27.9824875598557,-1.02036502133093));
#378=CARTESIAN_POINT('Ctrl Pts',(228.050220248134,27.9961133087016,-0.527630950495655));
#379=CARTESIAN_POINT('Ctrl Pts',(227.999996379811,27.9999225718935,-0.259727299210267));
#380=CARTESIAN_POINT('Ctrl Pts',(227.999996379811,27.9999989156919,-0.00850904022022064));
#381=CARTESIAN_POINT('Ctrl Pts',(227.999996379811,27.9999989156919,-0.00850904022022377));
#382=CARTESIAN_POINT('Ctrl Pts',(227.999996379811,28.0000752582013,0.242704977652098));
#383=CARTESIAN_POINT('Ctrl Pts',(228.050218731852,27.9964289393619,0.510606670884135));
#384=CARTESIAN_POINT('Ctrl Pts',(228.254351462943,27.983103152279,1.0033396726156));
#385=CARTESIAN_POINT('Ctrl Pts',(228.408257152105,27.9736158625196,1.22817810269613));
#386=CARTESIAN_POINT('Ctrl Pts',(228.763303968928,27.9557686441614,1.58322642776053));
#387=CARTESIAN_POINT('Ctrl Pts',(228.988142922188,27.9462491664349,1.73713329228527));
#388=CARTESIAN_POINT('Ctrl Pts',(229.480877438722,27.9328114151916,1.94126788824864));
#389=CARTESIAN_POINT('Ctrl Pts',(229.748780236552,27.9290883388561,1.99149095977977));
#390=CARTESIAN_POINT('Ctrl Pts',(229.999996379811,27.9290883388561,1.99149095977977));
#391=CARTESIAN_POINT('',(227.999996379811,29.9999987932705,-0.00850904022022103));
#392=CARTESIAN_POINT('',(227.999996379811,0.,-0.00850904022022145));
#393=CARTESIAN_POINT('',(229.999996379811,29.9338264135596,1.99149095977978));
#394=CARTESIAN_POINT('Ctrl Pts',(229.999996379811,29.9338264135596,1.99149095977978));
#395=CARTESIAN_POINT('Ctrl Pts',(229.748792090094,29.9338264135596,1.99149095977978));
#396=CARTESIAN_POINT('Ctrl Pts',(229.480894410499,29.9372997732917,1.94127251318366));
#397=CARTESIAN_POINT('Ctrl Pts',(228.98815676152,29.9498380014303,1.73714143191018));
#398=CARTESIAN_POINT('Ctrl Pts',(228.763310497004,29.9587209390642,1.58323285858212));
#399=CARTESIAN_POINT('Ctrl Pts',(228.40825118898,29.9753762126366,1.22817223682692));
#400=CARTESIAN_POINT('Ctrl Pts',(228.254343653159,29.9842303886203,1.00332643556534));
#401=CARTESIAN_POINT('Ctrl Pts',(228.050214205869,29.9966670423739,0.510590131674253));
#402=CARTESIAN_POINT('Ctrl Pts',(227.999996379811,30.0000700430022,0.242693422923852));
#403=CARTESIAN_POINT('Ctrl Pts',(227.999996379811,29.9999987932705,-0.00850904022022224));
#404=CARTESIAN_POINT('Ctrl Pts',(227.999996379811,29.9999987932706,-0.0085090402202205));
#405=CARTESIAN_POINT('Ctrl Pts',(227.999996379811,29.9999275424913,-0.2597151968712));
#406=CARTESIAN_POINT('Ctrl Pts',(228.050215526289,29.9963724773662,-0.52761361074513));
#407=CARTESIAN_POINT('Ctrl Pts',(228.254347191553,29.9836559157704,-1.02035084573523));
#408=CARTESIAN_POINT('Ctrl Pts',(228.408255555708,29.9746738862312,-1.24519600334772));
#409=CARTESIAN_POINT('Ctrl Pts',(228.763314294578,29.9578166142884,-1.60025341724257));
#410=CARTESIAN_POINT('Ctrl Pts',(228.98815887179,29.9488460218229,-1.75416055060223));
#411=CARTESIAN_POINT('Ctrl Pts',(229.480894399572,29.9361914061783,-1.95829042508719));
#412=CARTESIAN_POINT('Ctrl Pts',(229.748791715844,29.932689345185,-2.00850904022021));
#413=CARTESIAN_POINT('Ctrl Pts',(230.251201043778,29.932689345185,-2.00850904022021));
#414=CARTESIAN_POINT('Ctrl Pts',(230.51909836005,29.9361914061783,-1.95829042508719));
#415=CARTESIAN_POINT('Ctrl Pts',(231.011833887832,29.9488460218229,-1.75416055060221));
#416=CARTESIAN_POINT('Ctrl Pts',(231.236678465044,29.9578166142884,-1.60025341724257));
#417=CARTESIAN_POINT('Ctrl Pts',(231.591737203914,29.9746738862312,-1.24519600334772));
#418=CARTESIAN_POINT('Ctrl Pts',(231.745645568069,29.9836559157704,-1.02035084573522));
#419=CARTESIAN_POINT('Ctrl Pts',(231.949777233333,29.9963724773662,-0.527613610745116));
#420=CARTESIAN_POINT('Ctrl Pts',(231.999996379811,29.9999275424913,-0.259715196871201));
#421=CARTESIAN_POINT('Ctrl Pts',(231.999996379811,30.0000700430022,0.242693422923852));
#422=CARTESIAN_POINT('Ctrl Pts',(231.949778553754,29.9966670423739,0.510590131674254));
#423=CARTESIAN_POINT('Ctrl Pts',(231.745649106463,29.9842303886203,1.00332643556534));
#424=CARTESIAN_POINT('Ctrl Pts',(231.591741570642,29.9753762126366,1.22817223682692));
#425=CARTESIAN_POINT('Ctrl Pts',(231.236682262618,29.9587209390642,1.58323285858212));
#426=CARTESIAN_POINT('Ctrl Pts',(231.011835998102,29.9498380014303,1.73714143191018));
#427=CARTESIAN_POINT('Ctrl Pts',(230.519098349124,29.9372997732917,1.94127251318366));
#428=CARTESIAN_POINT('Ctrl Pts',(230.251200669528,29.9338264135596,1.99149095977977));
#429=CARTESIAN_POINT('Ctrl Pts',(229.999996379811,29.9338264135596,1.99149095977977));
#430=CARTESIAN_POINT('Origin',(229.999996379811,0.,-0.00850904022022169));
#431=CARTESIAN_POINT('',(229.999996379811,-2.,-29.9332590941915));
#432=CARTESIAN_POINT('',(227.999996379811,-6.90437812110642E-15,-30.));
#433=CARTESIAN_POINT('Ctrl Pts',(229.999996379811,-2.,-29.9332590941915));
#434=CARTESIAN_POINT('Ctrl Pts',(230.25120085716,-2.,-29.9332590941915));
#435=CARTESIAN_POINT('Ctrl Pts',(230.519098356373,-1.94978146899352,-29.9367468041196));
#436=CARTESIAN_POINT('Ctrl Pts',(231.011834948839,-1.74565098822555,-29.949343224819));
#437=CARTESIAN_POINT('Ctrl Pts',(231.236680372482,-1.5917431320753,-29.9582699891501));
#438=CARTESIAN_POINT('Ctrl Pts',(231.591739393145,-1.23668411141214,-29.9750262603329));
#439=CARTESIAN_POINT('Ctrl Pts',(231.745647340336,-1.01183863471816,-29.9839443619467));
#440=CARTESIAN_POINT('Ctrl Pts',(231.949777893709,-0.519101869343865,-29.9965209678006));
#441=CARTESIAN_POINT('Ctrl Pts',(231.999996379811,-0.251204309330151,-30.));
#442=CARTESIAN_POINT('Ctrl Pts',(231.999996379811,0.251204309330137,-30.));
#443=CARTESIAN_POINT('Ctrl Pts',(231.949777893709,0.519101869343852,-29.9965209678006));
#444=CARTESIAN_POINT('Ctrl Pts',(231.745647340336,1.01183863471815,-29.9839443619467));
#445=CARTESIAN_POINT('Ctrl Pts',(231.591739393145,1.23668411141213,-29.9750262603329));
#446=CARTESIAN_POINT('Ctrl Pts',(231.236680372482,1.59174313207528,-29.9582699891501));
#447=CARTESIAN_POINT('Ctrl Pts',(231.011834948839,1.74565098822553,-29.949343224819));
#448=CARTESIAN_POINT('Ctrl Pts',(230.519098356373,1.94978146899351,-29.9367468041196));
#449=CARTESIAN_POINT('Ctrl Pts',(230.25120085716,1.99999999999999,-29.9332590941915));
#450=CARTESIAN_POINT('Ctrl Pts',(229.748791902462,1.99999999999999,-29.9332590941915));
#451=CARTESIAN_POINT('Ctrl Pts',(229.480894403249,1.94978146899351,-29.9367468041196));
#452=CARTESIAN_POINT('Ctrl Pts',(228.988157810783,1.74565098822553,-29.949343224819));
#453=CARTESIAN_POINT('Ctrl Pts',(228.76331238714,1.59174313207528,-29.9582699891501));
#454=CARTESIAN_POINT('Ctrl Pts',(228.408253366477,1.23668411141213,-29.9750262603329));
#455=CARTESIAN_POINT('Ctrl Pts',(228.254345419286,1.01183863471815,-29.9839443619467));
#456=CARTESIAN_POINT('Ctrl Pts',(228.050214865913,0.519101869343852,-29.9965209678006));
#457=CARTESIAN_POINT('Ctrl Pts',(227.999996379811,0.251204309330137,-30.));
#458=CARTESIAN_POINT('Ctrl Pts',(227.999996379811,-7.35522753814166E-15,
-30.));
#459=CARTESIAN_POINT('Ctrl Pts',(227.999996379811,-5.27355936696949E-15,
-30.));
#460=CARTESIAN_POINT('Ctrl Pts',(227.999996379811,-0.251204309330149,-30.));
#461=CARTESIAN_POINT('Ctrl Pts',(228.050214865913,-0.519101869343865,-29.9965209678006));
#462=CARTESIAN_POINT('Ctrl Pts',(228.254345419286,-1.01183863471816,-29.9839443619467));
#463=CARTESIAN_POINT('Ctrl Pts',(228.408253366477,-1.23668411141214,-29.9750262603329));
#464=CARTESIAN_POINT('Ctrl Pts',(228.76331238714,-1.5917431320753,-29.9582699891501));
#465=CARTESIAN_POINT('Ctrl Pts',(228.988157810783,-1.74565098822555,-29.949343224819));
#466=CARTESIAN_POINT('Ctrl Pts',(229.480894403249,-1.94978146899352,-29.9367468041196));
#467=CARTESIAN_POINT('Ctrl Pts',(229.748791902462,-2.,-29.9332590941915));
#468=CARTESIAN_POINT('Ctrl Pts',(229.999996379811,-2.,-29.9332590941915));
#469=CARTESIAN_POINT('',(227.999996379811,-6.1271326836705E-15,-28.0000002086163));
#470=CARTESIAN_POINT('',(227.999996379811,-2.4492935982947E-16,-0.00850904022022169));
#471=CARTESIAN_POINT('',(229.999996379811,-2.,-27.9284802966884));
#472=CARTESIAN_POINT('Ctrl Pts',(229.999996379811,-2.,-27.9284802966884));
#473=CARTESIAN_POINT('Ctrl Pts',(229.748780020474,-2.,-27.9284802966884));
#474=CARTESIAN_POINT('Ctrl Pts',(229.480877429723,-1.9497768313531,-27.9322187666576));
#475=CARTESIAN_POINT('Ctrl Pts',(228.988144126547,-1.74564292484623,-27.9457189150029));
#476=CARTESIAN_POINT('Ctrl Pts',(228.763306138976,-1.59173688391106,-27.9552853769089));
#477=CARTESIAN_POINT('Ctrl Pts',(228.408259652469,-1.23669039740441,-27.973240849377));
#478=CARTESIAN_POINT('Ctrl Pts',(228.254353490978,-1.01185234015247,-27.9827966527101));
#479=CARTESIAN_POINT('Ctrl Pts',(228.0502194898,-0.519118808538034,-27.996272418434));
#480=CARTESIAN_POINT('Ctrl Pts',(227.999996379811,-0.251216137773439,-28.0000002086163));
#481=CARTESIAN_POINT('Ctrl Pts',(227.999996379811,-9.57567358739198E-15,
-28.0000002086163));
#482=CARTESIAN_POINT('Ctrl Pts',(227.999996379811,-5.86336534880161E-15,
-28.0000002086163));
#483=CARTESIAN_POINT('Ctrl Pts',(227.999996379811,0.251216137773423,-28.0000002086163));
#484=CARTESIAN_POINT('Ctrl Pts',(228.0502194898,0.519118808538042,-27.996272418434));
#485=CARTESIAN_POINT('Ctrl Pts',(228.254353490978,1.01185234015247,-27.9827966527101));
#486=CARTESIAN_POINT('Ctrl Pts',(228.408259652469,1.2366903974044,-27.973240849377));
#487=CARTESIAN_POINT('Ctrl Pts',(228.763306138976,1.59173688391105,-27.9552853769089));
#488=CARTESIAN_POINT('Ctrl Pts',(228.988144126547,1.74564292484622,-27.9457189150029));
#489=CARTESIAN_POINT('Ctrl Pts',(229.480877429723,1.94977683135309,-27.9322187666576));
#490=CARTESIAN_POINT('Ctrl Pts',(229.748780020474,1.99999999999999,-27.9284802966884));
#491=CARTESIAN_POINT('Ctrl Pts',(230.251212739148,1.99999999999999,-27.9284802966884));
#492=CARTESIAN_POINT('Ctrl Pts',(230.519115329899,1.94977683135309,-27.9322187666576));
#493=CARTESIAN_POINT('Ctrl Pts',(231.011848633075,1.74564292484622,-27.9457189150029));
#494=CARTESIAN_POINT('Ctrl Pts',(231.236686620646,1.59173688391105,-27.9552853769089));
#495=CARTESIAN_POINT('Ctrl Pts',(231.591733107153,1.2366903974044,-27.973240849377));
#496=CARTESIAN_POINT('Ctrl Pts',(231.745639268645,1.01185234015244,-27.9827966527101));
#497=CARTESIAN_POINT('Ctrl Pts',(231.949773269822,0.519118808538009,-27.996272418434));
#498=CARTESIAN_POINT('Ctrl Pts',(231.999996379811,0.251216137773423,-28.0000002086163));
#499=CARTESIAN_POINT('Ctrl Pts',(231.999996379811,-0.251216137773435,-28.0000002086163));
#500=CARTESIAN_POINT('Ctrl Pts',(231.949773269822,-0.519118808538033,-27.996272418434));
#501=CARTESIAN_POINT('Ctrl Pts',(231.745639268645,-1.01185234015247,-27.9827966527101));
#502=CARTESIAN_POINT('Ctrl Pts',(231.591733107153,-1.23669039740441,-27.973240849377));
#503=CARTESIAN_POINT('Ctrl Pts',(231.236686620646,-1.59173688391106,-27.9552853769089));
#504=CARTESIAN_POINT('Ctrl Pts',(231.011848633075,-1.74564292484623,-27.9457189150029));
#505=CARTESIAN_POINT('Ctrl Pts',(230.519115329899,-1.9497768313531,-27.9322187666576));
#506=CARTESIAN_POINT('Ctrl Pts',(230.251212739148,-1.99999999999999,-27.9284802966884));
#507=CARTESIAN_POINT('Ctrl Pts',(229.999996379811,-1.99999999999999,-27.9284802966884));
#508=CARTESIAN_POINT('Origin',(229.999996379811,0.,-0.00850904022022169));
#509=CARTESIAN_POINT('',(229.999996379811,-1.99999999999999,27.9284802966884));
#510=CARTESIAN_POINT('',(231.999996379811,2.223316758887E-15,28.0000002086163));
#511=CARTESIAN_POINT('Ctrl Pts',(229.999996379811,-1.99999999999999,27.9284802966884));
#512=CARTESIAN_POINT('Ctrl Pts',(230.251212739148,-1.99999999999999,27.9284802966884));
#513=CARTESIAN_POINT('Ctrl Pts',(230.519115329899,-1.94977683135309,27.9322187666576));
#514=CARTESIAN_POINT('Ctrl Pts',(231.011848633075,-1.74564292484622,27.9457189150029));
#515=CARTESIAN_POINT('Ctrl Pts',(231.236686620646,-1.59173688391105,27.9552853769089));
#516=CARTESIAN_POINT('Ctrl Pts',(231.591733107153,-1.2366903974044,27.973240849377));
#517=CARTESIAN_POINT('Ctrl Pts',(231.745639268645,-1.01185234015246,27.9827966527101));
#518=CARTESIAN_POINT('Ctrl Pts',(231.949773269822,-0.519118808538021,27.996272418434));
#519=CARTESIAN_POINT('Ctrl Pts',(231.999996379811,-0.251216137773421,28.0000002086163));
#520=CARTESIAN_POINT('Ctrl Pts',(231.999996379811,8.39606162372775E-15,
28.0000002086163));
#521=CARTESIAN_POINT('',(227.999996379811,5.58918971939897E-15,28.0000002086163));
#522=CARTESIAN_POINT('Ctrl Pts',(227.999996379811,5.27355936696949E-15,
28.0000002086163));
#523=CARTESIAN_POINT('Ctrl Pts',(227.999996379811,-0.251216137773424,28.0000002086163));
#524=CARTESIAN_POINT('Ctrl Pts',(228.0502194898,-0.519118808538021,27.996272418434));
#525=CARTESIAN_POINT('Ctrl Pts',(228.254353490978,-1.01185234015246,27.9827966527101));
#526=CARTESIAN_POINT('Ctrl Pts',(228.408259652469,-1.2366903974044,27.973240849377));
#527=CARTESIAN_POINT('Ctrl Pts',(228.763306138976,-1.59173688391105,27.9552853769089));
#528=CARTESIAN_POINT('Ctrl Pts',(228.988144126547,-1.74564292484622,27.9457189150029));
#529=CARTESIAN_POINT('Ctrl Pts',(229.480877429723,-1.94977683135309,27.9322187666576));
#530=CARTESIAN_POINT('Ctrl Pts',(229.748780020474,-1.99999999999998,27.9284802966884));
#531=CARTESIAN_POINT('Ctrl Pts',(229.999996379811,-1.99999999999998,27.9284802966884));
#532=CARTESIAN_POINT('',(227.999996379811,6.41829817439546E-15,30.));
#533=CARTESIAN_POINT('',(227.999996379811,-2.4492935982947E-16,-0.00850904022022169));
#534=CARTESIAN_POINT('',(229.999996379811,-1.99999999999999,29.9332590941915));
#535=CARTESIAN_POINT('Ctrl Pts',(229.999996379811,-1.99999999999999,29.9332590941915));
#536=CARTESIAN_POINT('Ctrl Pts',(229.748791902462,-1.99999999999999,29.9332590941915));
#537=CARTESIAN_POINT('Ctrl Pts',(229.480894403249,-1.94978146899351,29.9367468041196));
#538=CARTESIAN_POINT('Ctrl Pts',(228.988157810783,-1.74565098822553,29.949343224819));
#539=CARTESIAN_POINT('Ctrl Pts',(228.76331238714,-1.59174313207528,29.9582699891501));
#540=CARTESIAN_POINT('Ctrl Pts',(228.408253366477,-1.23668411141213,29.9750262603329));
#541=CARTESIAN_POINT('Ctrl Pts',(228.254345419286,-1.01183863471815,29.9839443619467));
#542=CARTESIAN_POINT('Ctrl Pts',(228.050214865913,-0.519101869343852,29.9965209678006));
#543=CARTESIAN_POINT('Ctrl Pts',(227.999996379811,-0.251204309330139,30.));
#544=CARTESIAN_POINT('Ctrl Pts',(227.999996379811,4.57966997657877E-15,
30.));
#545=CARTESIAN_POINT('',(231.999996379811,-1.71635661783295E-16,30.));
#546=CARTESIAN_POINT('Ctrl Pts',(231.999996379811,3.40005801291454E-15,
30.));
#547=CARTESIAN_POINT('Ctrl Pts',(231.999996379811,-0.251204309330141,30.));
#548=CARTESIAN_POINT('Ctrl Pts',(231.949777893709,-0.519101869343852,29.9965209678006));
#549=CARTESIAN_POINT('Ctrl Pts',(231.745647340336,-1.01183863471815,29.9839443619467));
#550=CARTESIAN_POINT('Ctrl Pts',(231.591739393145,-1.23668411141213,29.9750262603329));
#551=CARTESIAN_POINT('Ctrl Pts',(231.236680372482,-1.59174313207528,29.9582699891501));
#552=CARTESIAN_POINT('Ctrl Pts',(231.011834948839,-1.74565098822553,29.949343224819));
#553=CARTESIAN_POINT('Ctrl Pts',(230.519098356373,-1.94978146899351,29.9367468041196));
#554=CARTESIAN_POINT('Ctrl Pts',(230.25120085716,-1.99999999999999,29.9332590941915));
#555=CARTESIAN_POINT('Ctrl Pts',(229.999996379811,-1.99999999999999,29.9332590941915));
#556=CARTESIAN_POINT('Ctrl Pts',(227.999996379811,7.42461647718073E-15,
30.));
#557=CARTESIAN_POINT('Ctrl Pts',(227.999996379811,0.251204309330151,30.));
#558=CARTESIAN_POINT('Ctrl Pts',(228.050214865913,0.519101869343864,29.9965209678006));
#559=CARTESIAN_POINT('Ctrl Pts',(228.254345419286,1.01183863471816,29.9839443619467));
#560=CARTESIAN_POINT('Ctrl Pts',(228.408253366477,1.23668411141214,29.9750262603329));
#561=CARTESIAN_POINT('Ctrl Pts',(228.76331238714,1.5917431320753,29.9582699891501));
#562=CARTESIAN_POINT('Ctrl Pts',(228.988157810783,1.74565098822555,29.949343224819));
#563=CARTESIAN_POINT('Ctrl Pts',(229.480894403249,1.94978146899352,29.9367468041196));
#564=CARTESIAN_POINT('Ctrl Pts',(229.748791902462,2.,29.9332590941915));
#565=CARTESIAN_POINT('Ctrl Pts',(230.25120085716,2.,29.9332590941915));
#566=CARTESIAN_POINT('Ctrl Pts',(230.519098356373,1.94978146899352,29.9367468041196));
#567=CARTESIAN_POINT('Ctrl Pts',(231.011834948839,1.74565098822555,29.949343224819));
#568=CARTESIAN_POINT('Ctrl Pts',(231.236680372482,1.5917431320753,29.9582699891501));
#569=CARTESIAN_POINT('Ctrl Pts',(231.591739393145,1.23668411141214,29.9750262603329));
#570=CARTESIAN_POINT('Ctrl Pts',(231.745647340336,1.01183863471814,29.9839443619467));
#571=CARTESIAN_POINT('Ctrl Pts',(231.949777893709,0.519101869343838,29.9965209678006));
#572=CARTESIAN_POINT('Ctrl Pts',(231.999996379811,0.251204309330153,30.));
#573=CARTESIAN_POINT('Ctrl Pts',(231.999996379811,9.36750677027476E-15,
30.));
#574=CARTESIAN_POINT('Ctrl Pts',(231.999996379811,7.8756445809347E-15,28.0000002086163));
#575=CARTESIAN_POINT('Ctrl Pts',(231.999996379811,0.251216137773437,28.0000002086163));
#576=CARTESIAN_POINT('Ctrl Pts',(231.949773269822,0.519118808538034,27.996272418434));
#577=CARTESIAN_POINT('Ctrl Pts',(231.745639268645,1.01185234015246,27.9827966527101));
#578=CARTESIAN_POINT('Ctrl Pts',(231.591733107153,1.23669039740441,27.973240849377));
#579=CARTESIAN_POINT('Ctrl Pts',(231.236686620646,1.59173688391106,27.9552853769089));
#580=CARTESIAN_POINT('Ctrl Pts',(231.011848633075,1.7456429248462,27.9457189150029));
#581=CARTESIAN_POINT('Ctrl Pts',(230.519115329899,1.94977683135309,27.9322187666576));
#582=CARTESIAN_POINT('Ctrl Pts',(230.251212739148,2.,27.9284802966884));
#583=CARTESIAN_POINT('Ctrl Pts',(229.748780020474,2.,27.9284802966884));
#584=CARTESIAN_POINT('Ctrl Pts',(229.480877429723,1.9497768313531,27.9322187666576));
#585=CARTESIAN_POINT('Ctrl Pts',(228.988144126547,1.74564292484623,27.9457189150029));
#586=CARTESIAN_POINT('Ctrl Pts',(228.763306138976,1.59173688391106,27.9552853769089));
#587=CARTESIAN_POINT('Ctrl Pts',(228.408259652469,1.23669039740441,27.973240849377));
#588=CARTESIAN_POINT('Ctrl Pts',(228.254353490978,1.01185234015248,27.9827966527101));
#589=CARTESIAN_POINT('Ctrl Pts',(228.0502194898,0.519118808538054,27.996272418434));
#590=CARTESIAN_POINT('Ctrl Pts',(227.999996379811,0.251216137773437,28.0000002086163));
#591=CARTESIAN_POINT('Ctrl Pts',(227.999996379811,7.70217223333702E-15,
28.0000002086163));
#592=CARTESIAN_POINT('Origin',(119.988087339379,0.,0.));
#593=CARTESIAN_POINT('',(239.976174678758,-3.42901106316071E-15,28.0000002086163));
#594=CARTESIAN_POINT('Origin',(239.976174678758,0.,0.));
#595=CARTESIAN_POINT('',(119.988087339379,-3.42901106316071E-15,28.0000002086163));
#596=CARTESIAN_POINT('',(0.,-3.42901106316071E-15,28.0000002086163));
#597=CARTESIAN_POINT('',(119.988087339379,-3.42901106316071E-15,28.0000002086163));
#598=CARTESIAN_POINT('Origin',(0.,0.,0.));
#599=CARTESIAN_POINT('Origin',(0.,0.,-30.));
#600=CARTESIAN_POINT('',(0.,-3.67394039744206E-15,30.));
#601=CARTESIAN_POINT('Origin',(0.,0.,0.));
#602=CARTESIAN_POINT('Origin',(119.988087339379,0.,0.));
#603=CARTESIAN_POINT('',(239.976174678758,-3.67394039744206E-15,30.));
#604=CARTESIAN_POINT('Origin',(239.976174678758,0.,0.));
#605=CARTESIAN_POINT('',(119.988087339379,-3.67394039744206E-15,30.));
#606=CARTESIAN_POINT('',(119.988087339379,-3.67394039744206E-15,30.));
#607=CARTESIAN_POINT('Origin',(239.976174678758,0.,-28.));
#608=UNCERTAINTY_MEASURE_WITH_UNIT(LENGTH_MEASURE(0.01),#612,
'DISTANCE_ACCURACY_VALUE',
'Maximum model space distance between geometric entities at asserted c
onnectivities');
#609=UNCERTAINTY_MEASURE_WITH_UNIT(LENGTH_MEASURE(0.01),#612,
'DISTANCE_ACCURACY_VALUE',
'Maximum model space distance between geometric entities at asserted c
onnectivities');
#610=(
GEOMETRIC_REPRESENTATION_CONTEXT(3)
GLOBAL_UNCERTAINTY_ASSIGNED_CONTEXT((#608))
GLOBAL_UNIT_ASSIGNED_CONTEXT((#612,#614,#615))
REPRESENTATION_CONTEXT('','3D')
);
#611=(
GEOMETRIC_REPRESENTATION_CONTEXT(3)
GLOBAL_UNCERTAINTY_ASSIGNED_CONTEXT((#609))
GLOBAL_UNIT_ASSIGNED_CONTEXT((#612,#614,#615))
REPRESENTATION_CONTEXT('','3D')
);
#612=(
LENGTH_UNIT()
NAMED_UNIT(*)
SI_UNIT(.MILLI.,.METRE.)
);
#613=(
LENGTH_UNIT()
NAMED_UNIT(*)
SI_UNIT($,.METRE.)
);
#614=(
NAMED_UNIT(*)
PLANE_ANGLE_UNIT()
SI_UNIT($,.RADIAN.)
);
#615=(
NAMED_UNIT(*)
SI_UNIT($,.STERADIAN.)
SOLID_ANGLE_UNIT()
);
#616=SHAPE_DEFINITION_REPRESENTATION(#617,#618);
#617=PRODUCT_DEFINITION_SHAPE('',$,#620);
#618=SHAPE_REPRESENTATION('',(#226),#610);
#619=PRODUCT_DEFINITION_CONTEXT('part definition',#624,'design');
#620=PRODUCT_DEFINITION('Fusion \X2\96F690E84EF6\X0\',
'Fusion \X2\96F690E84EF6\X0\',#621,#619);
#621=PRODUCT_DEFINITION_FORMATION('',$,#626);
#622=PRODUCT_RELATED_PRODUCT_CATEGORY('Fusion \X2\96F690E84EF6\X0\',
'Fusion \X2\96F690E84EF6\X0\',(#626));
#623=APPLICATION_PROTOCOL_DEFINITION('international standard',
'automotive_design',2009,#624);
#624=APPLICATION_CONTEXT(
'Core Data for Automotive Mechanical Design Process');
#625=PRODUCT_CONTEXT('part definition',#624,'mechanical');
#626=PRODUCT('Fusion \X2\96F690E84EF6\X0\','Fusion \X2\96F690E84EF6\X0\',
$,(#625));
#627=PRESENTATION_STYLE_ASSIGNMENT((#628));
#628=SURFACE_STYLE_USAGE(.BOTH.,#629);
#629=SURFACE_SIDE_STYLE('',(#630));
#630=SURFACE_STYLE_FILL_AREA(#631);
#631=FILL_AREA_STYLE('\X2\94A2\X0\ - \X2\7F0E5149\X0\',(#632));
#632=FILL_AREA_STYLE_COLOUR('\X2\94A2\X0\ - \X2\7F0E5149\X0\',#633);
#633=COLOUR_RGB('\X2\94A2\X0\ - \X2\7F0E5149\X0\',0.627450980392157,0.627450980392157,
0.627450980392157);
ENDSEC;
END-ISO-10303-21;
