ISO-10303-21;
HEADER;
/* Generated by software containing ST-Developer
 * from STEP Tools, Inc. (www.steptools.com) 
 */

FILE_DESCRIPTION(
/* description */ (''),
/* implementation_level */ '2;1');

FILE_NAME(
/* name */ '',
/* time_stamp */ '2026-07-17T12:57:55+08:00',
/* author */ (''),
/* organization */ (''),
/* preprocessor_version */ 'ST-DEVELOPER v20.1',
/* originating_system */ 'Autodesk Translation Framework v14.4.0.0',
/* authorisation */ '');

FILE_SCHEMA (('AUTOMOTIVE_DESIGN { 1 0 10303 214 3 1 1 }'));
ENDSEC;

DATA;
#10=MECHANICAL_DESIGN_GEOMETRIC_PRESENTATION_REPRESENTATION('',(#13),#242);
#11=SHAPE_REPRESENTATION_RELATIONSHIP('SRR','None',#249,#12);
#12=ADVANCED_BREP_SHAPE_REPRESENTATION('',(#14),#241);
#13=STYLED_ITEM('',(#258),#14);
#14=MANIFOLD_SOLID_BREP('\X2\5B9E4F53\X0\1',#102);
#15=CONICAL_SURFACE('',#128,29.0000002086163,1.55888422715563);
#16=(
BOUNDED_SURFACE()
B_SPLINE_SURFACE(2,2,((#177,#178,#179,#180,#181,#182,#183,#184,#185),(#186,
#187,#188,#189,#190,#191,#192,#193,#194),(#195,#196,#197,#198,#199,#200,
#201,#202,#203)),.UNSPECIFIED.,.F.,.T.,.F.)
B_SPLINE_SURFACE_WITH_KNOTS((3,3),(3,2,2,2,3),(-0.422555615704384,0.),(-3.14159265358979,
-1.5707963267949,0.,1.5707963267949,3.14159265358979),.UNSPECIFIED.)
GEOMETRIC_REPRESENTATION_ITEM()
RATIONAL_B_SPLINE_SURFACE(((1.,0.707106781186548,1.,0.707106781186548,1.,
0.707106781186548,1.,0.707106781186548,1.),(0.977763744638887,0.691383374232509,
0.977763744638887,0.691383374232509,0.977763744638887,0.691383374232509,
0.977763744638887,0.691383374232509,0.977763744638887),(1.,0.707106781186548,
1.,0.707106781186548,1.,0.707106781186548,1.,0.707106781186548,1.)))
REPRESENTATION_ITEM('')
SURFACE()
);
#17=(
BOUNDED_SURFACE()
B_SPLINE_SURFACE(2,2,((#206,#207,#208,#209,#210,#211,#212,#213,#214),(#215,
#216,#217,#218,#219,#220,#221,#222,#223),(#224,#225,#226,#227,#228,#229,
#230,#231,#232)),.UNSPECIFIED.,.F.,.T.,.F.)
B_SPLINE_SURFACE_WITH_KNOTS((3,3),(3,2,2,2,3),(-0.453678020156129,0.),(-3.14159265358979,
-1.5707963267949,0.,1.5707963267949,3.14159265358979),.UNSPECIFIED.)
GEOMETRIC_REPRESENTATION_ITEM()
RATIONAL_B_SPLINE_SURFACE(((1.,0.707106781186548,1.,0.707106781186548,1.,
0.707106781186548,1.,0.707106781186548,1.),(0.974382164095837,0.688992235699389,
0.974382164095837,0.688992235699389,0.974382164095837,0.688992235699389,
0.974382164095837,0.688992235699389,0.974382164095837),(1.,0.707106781186548,
1.,0.707106781186548,1.,0.707106781186548,1.,0.707106781186548,1.)))
REPRESENTATION_ITEM('')
SURFACE()
);
#18=FACE_BOUND('',#31,.T.);
#19=FACE_BOUND('',#33,.T.);
#20=PLANE('',#119);
#21=PLANE('',#121);
#22=FACE_OUTER_BOUND('',#29,.T.);
#23=FACE_OUTER_BOUND('',#30,.T.);
#24=FACE_OUTER_BOUND('',#32,.T.);
#25=FACE_OUTER_BOUND('',#34,.T.);
#26=FACE_OUTER_BOUND('',#35,.T.);
#27=FACE_OUTER_BOUND('',#36,.T.);
#28=FACE_OUTER_BOUND('',#37,.T.);
#29=EDGE_LOOP('',(#71,#72,#73,#74));
#30=EDGE_LOOP('',(#75));
#31=EDGE_LOOP('',(#76));
#32=EDGE_LOOP('',(#77));
#33=EDGE_LOOP('',(#78));
#34=EDGE_LOOP('',(#79,#80,#81,#82));
#35=EDGE_LOOP('',(#83,#84,#85));
#36=EDGE_LOOP('',(#86,#87,#88));
#37=EDGE_LOOP('',(#89,#90,#91,#92));
#38=LINE('',#165,#41);
#39=LINE('',#175,#42);
#40=LINE('',#238,#43);
#41=VECTOR('',#135,27.7500004172325);
#42=VECTOR('',#148,26.5000004172325);
#43=VECTOR('',#159,29.0000002086163);
#44=CIRCLE('',#117,27.7500004172325);
#45=CIRCLE('',#118,27.7500004172325);
#46=CIRCLE('',#120,28.0000004172325);
#47=CIRCLE('',#122,26.5000004172325);
#48=CIRCLE('',#124,26.5000004172325);
#49=CIRCLE('',#125,301.286603095208);
#50=CIRCLE('',#126,30.);
#51=CIRCLE('',#127,296.563433068718);
#52=VERTEX_POINT('',#162);
#53=VERTEX_POINT('',#164);
#54=VERTEX_POINT('',#168);
#55=VERTEX_POINT('',#171);
#56=VERTEX_POINT('',#174);
#57=VERTEX_POINT('',#204);
#58=VERTEX_POINT('',#233);
#59=VERTEX_POINT('',#235);
#60=EDGE_CURVE('',#52,#52,#44,.T.);
#61=EDGE_CURVE('',#52,#53,#38,.T.);
#62=EDGE_CURVE('',#53,#53,#45,.T.);
#63=EDGE_CURVE('',#54,#54,#46,.T.);
#64=EDGE_CURVE('',#55,#55,#47,.T.);
#65=EDGE_CURVE('',#55,#56,#39,.T.);
#66=EDGE_CURVE('',#56,#56,#48,.T.);
#67=EDGE_CURVE('',#56,#57,#49,.T.);
#68=EDGE_CURVE('',#58,#58,#50,.T.);
#69=EDGE_CURVE('',#58,#59,#51,.T.);
#70=EDGE_CURVE('',#54,#58,#40,.T.);
#71=ORIENTED_EDGE('',*,*,#60,.T.);
#72=ORIENTED_EDGE('',*,*,#61,.T.);
#73=ORIENTED_EDGE('',*,*,#62,.F.);
#74=ORIENTED_EDGE('',*,*,#61,.F.);
#75=ORIENTED_EDGE('',*,*,#63,.T.);
#76=ORIENTED_EDGE('',*,*,#60,.F.);
#77=ORIENTED_EDGE('',*,*,#62,.T.);
#78=ORIENTED_EDGE('',*,*,#64,.F.);
#79=ORIENTED_EDGE('',*,*,#64,.T.);
#80=ORIENTED_EDGE('',*,*,#65,.T.);
#81=ORIENTED_EDGE('',*,*,#66,.F.);
#82=ORIENTED_EDGE('',*,*,#65,.F.);
#83=ORIENTED_EDGE('',*,*,#66,.T.);
#84=ORIENTED_EDGE('',*,*,#67,.T.);
#85=ORIENTED_EDGE('',*,*,#67,.F.);
#86=ORIENTED_EDGE('',*,*,#68,.F.);
#87=ORIENTED_EDGE('',*,*,#69,.T.);
#88=ORIENTED_EDGE('',*,*,#69,.F.);
#89=ORIENTED_EDGE('',*,*,#63,.F.);
#90=ORIENTED_EDGE('',*,*,#70,.T.);
#91=ORIENTED_EDGE('',*,*,#68,.T.);
#92=ORIENTED_EDGE('',*,*,#70,.F.);
#93=CYLINDRICAL_SURFACE('',#116,27.7500004172325);
#94=CYLINDRICAL_SURFACE('',#123,26.5000004172325);
#95=ADVANCED_FACE('',(#22),#93,.T.);
#96=ADVANCED_FACE('',(#23,#18),#20,.F.);
#97=ADVANCED_FACE('',(#24,#19),#21,.T.);
#98=ADVANCED_FACE('',(#25),#94,.F.);
#99=ADVANCED_FACE('',(#26),#16,.T.);
#100=ADVANCED_FACE('',(#27),#17,.F.);
#101=ADVANCED_FACE('',(#28),#15,.T.);
#102=CLOSED_SHELL('',(#95,#96,#97,#98,#99,#100,#101));
#103=DERIVED_UNIT_ELEMENT(#105,1.);
#104=DERIVED_UNIT_ELEMENT(#244,-3.);
#105=(
MASS_UNIT()
NAMED_UNIT(*)
SI_UNIT(.KILO.,.GRAM.)
);
#106=DERIVED_UNIT((#103,#104));
#107=MEASURE_REPRESENTATION_ITEM('density measure',
POSITIVE_RATIO_MEASURE(7850.),#106);
#108=PROPERTY_DEFINITION_REPRESENTATION(#113,#110);
#109=PROPERTY_DEFINITION_REPRESENTATION(#114,#111);
#110=REPRESENTATION('material name',(#112),#241);
#111=REPRESENTATION('density',(#107),#241);
#112=DESCRIPTIVE_REPRESENTATION_ITEM('\X2\94A2\X0\','\X2\94A2\X0\');
#113=PROPERTY_DEFINITION('material property','material name',#251);
#114=PROPERTY_DEFINITION('material property','density of part',#251);
#115=AXIS2_PLACEMENT_3D('',#160,#129,#130);
#116=AXIS2_PLACEMENT_3D('',#161,#131,#132);
#117=AXIS2_PLACEMENT_3D('',#163,#133,#134);
#118=AXIS2_PLACEMENT_3D('',#166,#136,#137);
#119=AXIS2_PLACEMENT_3D('',#167,#138,#139);
#120=AXIS2_PLACEMENT_3D('',#169,#140,#141);
#121=AXIS2_PLACEMENT_3D('',#170,#142,#143);
#122=AXIS2_PLACEMENT_3D('',#172,#144,#145);
#123=AXIS2_PLACEMENT_3D('',#173,#146,#147);
#124=AXIS2_PLACEMENT_3D('',#176,#149,#150);
#125=AXIS2_PLACEMENT_3D('',#205,#151,#152);
#126=AXIS2_PLACEMENT_3D('',#234,#153,#154);
#127=AXIS2_PLACEMENT_3D('',#236,#155,#156);
#128=AXIS2_PLACEMENT_3D('',#237,#157,#158);
#129=DIRECTION('axis',(0.,0.,1.));
#130=DIRECTION('refdir',(1.,0.,0.));
#131=DIRECTION('center_axis',(1.,0.,0.));
#132=DIRECTION('ref_axis',(0.,0.,-1.));
#133=DIRECTION('center_axis',(1.,0.,0.));
#134=DIRECTION('ref_axis',(0.,0.,-1.));
#135=DIRECTION('',(1.,0.,0.));
#136=DIRECTION('center_axis',(1.,0.,0.));
#137=DIRECTION('ref_axis',(0.,0.,-1.));
#138=DIRECTION('center_axis',(-1.,0.,0.));
#139=DIRECTION('ref_axis',(0.,0.,1.));
#140=DIRECTION('center_axis',(1.,0.,0.));
#141=DIRECTION('ref_axis',(0.,0.,-1.));
#142=DIRECTION('center_axis',(1.,0.,0.));
#143=DIRECTION('ref_axis',(0.,0.,-1.));
#144=DIRECTION('center_axis',(1.,0.,0.));
#145=DIRECTION('ref_axis',(0.,0.,-1.));
#146=DIRECTION('center_axis',(1.,0.,0.));
#147=DIRECTION('ref_axis',(0.,0.,-1.));
#148=DIRECTION('',(-1.,0.,0.));
#149=DIRECTION('center_axis',(1.,0.,0.));
#150=DIRECTION('ref_axis',(0.,0.,-1.));
#151=DIRECTION('center_axis',(0.,-1.,-1.22464679914735E-16));
#152=DIRECTION('ref_axis',(0.,-1.22464679914735E-16,1.));
#153=DIRECTION('center_axis',(1.,0.,0.));
#154=DIRECTION('ref_axis',(0.,0.,-1.));
#155=DIRECTION('center_axis',(0.,-1.,-1.22464679914735E-16));
#156=DIRECTION('ref_axis',(0.,-1.22464679914735E-16,1.));
#157=DIRECTION('center_axis',(-1.,0.,0.));
#158=DIRECTION('ref_axis',(0.,0.,-1.));
#159=DIRECTION('',(-0.0119118179238484,-1.22455991263689E-16,0.99992905178005));
#160=CARTESIAN_POINT('',(0.,0.,0.));
#161=CARTESIAN_POINT('Origin',(10.,0.,0.));
#162=CARTESIAN_POINT('',(0.,-3.39839491873015E-15,27.7500004172325));
#163=CARTESIAN_POINT('Origin',(0.,0.,0.));
#164=CARTESIAN_POINT('',(20.,-3.39839491873015E-15,27.7500004172325));
#165=CARTESIAN_POINT('',(10.,-3.39839491873015E-15,27.7500004172325));
#166=CARTESIAN_POINT('Origin',(20.,0.,0.));
#167=CARTESIAN_POINT('Origin',(0.,0.,-28.0000004172325));
#168=CARTESIAN_POINT('',(-9.04224611852911E-16,-3.42901108870884E-15,28.0000004172325));
#169=CARTESIAN_POINT('Origin',(0.,0.,0.));
#170=CARTESIAN_POINT('Origin',(20.,0.,-26.5000004172325));
#171=CARTESIAN_POINT('',(20.,-3.24531406883673E-15,26.5000004172325));
#172=CARTESIAN_POINT('Origin',(20.,0.,0.));
#173=CARTESIAN_POINT('Origin',(9.27770672610357,0.,0.));
#174=CARTESIAN_POINT('',(-1.44458654779286,-3.24531406883673E-15,26.5000004172325));
#175=CARTESIAN_POINT('',(9.27770672610357,-3.24531406883673E-15,26.5000004172325));
#176=CARTESIAN_POINT('Origin',(-1.44458654779286,0.,0.));
#177=CARTESIAN_POINT('Ctrl Pts',(-125.,0.,0.));
#178=CARTESIAN_POINT('Ctrl Pts',(-125.,0.,0.));
#179=CARTESIAN_POINT('Ctrl Pts',(-125.,0.,0.));
#180=CARTESIAN_POINT('Ctrl Pts',(-125.,0.,0.));
#181=CARTESIAN_POINT('Ctrl Pts',(-125.,0.,0.));
#182=CARTESIAN_POINT('Ctrl Pts',(-125.,0.,0.));
#183=CARTESIAN_POINT('Ctrl Pts',(-125.,0.,0.));
#184=CARTESIAN_POINT('Ctrl Pts',(-125.,0.,0.));
#185=CARTESIAN_POINT('Ctrl Pts',(-125.,0.,0.));
#186=CARTESIAN_POINT('Ctrl Pts',(-66.0641356606121,0.,26.5000004172325));
#187=CARTESIAN_POINT('Ctrl Pts',(-66.0641356606121,-26.5000004172325,26.5000004172325));
#188=CARTESIAN_POINT('Ctrl Pts',(-66.0641356606121,-26.5000004172325,0.));
#189=CARTESIAN_POINT('Ctrl Pts',(-66.0641356606121,-26.5000004172325,-26.5000004172325));
#190=CARTESIAN_POINT('Ctrl Pts',(-66.0641356606121,0.,-26.5000004172325));
#191=CARTESIAN_POINT('Ctrl Pts',(-66.0641356606121,26.5000004172325,-26.5000004172325));
#192=CARTESIAN_POINT('Ctrl Pts',(-66.0641356606121,26.5000004172325,0.));
#193=CARTESIAN_POINT('Ctrl Pts',(-66.0641356606121,26.5000004172325,26.5000004172325));
#194=CARTESIAN_POINT('Ctrl Pts',(-66.0641356606121,0.,26.5000004172325));
#195=CARTESIAN_POINT('Ctrl Pts',(-1.44458654779286,0.,26.5000004172325));
#196=CARTESIAN_POINT('Ctrl Pts',(-1.44458654779286,-26.5000004172325,26.5000004172325));
#197=CARTESIAN_POINT('Ctrl Pts',(-1.44458654779286,-26.5000004172325,0.));
#198=CARTESIAN_POINT('Ctrl Pts',(-1.44458654779286,-26.5000004172325,-26.5000004172325));
#199=CARTESIAN_POINT('Ctrl Pts',(-1.44458654779286,0.,-26.5000004172325));
#200=CARTESIAN_POINT('Ctrl Pts',(-1.44458654779286,26.5000004172325,-26.5000004172325));
#201=CARTESIAN_POINT('Ctrl Pts',(-1.44458654779286,26.5000004172325,0.));
#202=CARTESIAN_POINT('Ctrl Pts',(-1.44458654779286,26.5000004172325,26.5000004172325));
#203=CARTESIAN_POINT('Ctrl Pts',(-1.44458654779286,0.,26.5000004172325));
#204=CARTESIAN_POINT('',(-125.,0.,0.));
#205=CARTESIAN_POINT('Origin',(-1.44458654779286,3.36516533418159E-14,-274.786602677976));
#206=CARTESIAN_POINT('Ctrl Pts',(-130.,0.,0.));
#207=CARTESIAN_POINT('Ctrl Pts',(-130.,0.,0.));
#208=CARTESIAN_POINT('Ctrl Pts',(-130.,0.,0.));
#209=CARTESIAN_POINT('Ctrl Pts',(-130.,0.,0.));
#210=CARTESIAN_POINT('Ctrl Pts',(-130.,0.,0.));
#211=CARTESIAN_POINT('Ctrl Pts',(-130.,0.,0.));
#212=CARTESIAN_POINT('Ctrl Pts',(-130.,0.,0.));
#213=CARTESIAN_POINT('Ctrl Pts',(-130.,0.,0.));
#214=CARTESIAN_POINT('Ctrl Pts',(-130.,0.,0.));
#215=CARTESIAN_POINT('Ctrl Pts',(-68.4740856404935,0.,30.));
#216=CARTESIAN_POINT('Ctrl Pts',(-68.4740856404935,-30.,30.));
#217=CARTESIAN_POINT('Ctrl Pts',(-68.4740856404935,-30.,0.));
#218=CARTESIAN_POINT('Ctrl Pts',(-68.4740856404935,-30.,-30.));
#219=CARTESIAN_POINT('Ctrl Pts',(-68.4740856404935,0.,-30.));
#220=CARTESIAN_POINT('Ctrl Pts',(-68.4740856404935,30.,-30.));
#221=CARTESIAN_POINT('Ctrl Pts',(-68.4740856404935,30.,0.));
#222=CARTESIAN_POINT('Ctrl Pts',(-68.4740856404935,30.,30.));
#223=CARTESIAN_POINT('Ctrl Pts',(-68.4740856404935,0.,30.));
#224=CARTESIAN_POINT('Ctrl Pts',(-0.0238253212418305,0.,30.));
#225=CARTESIAN_POINT('Ctrl Pts',(-0.0238253212418305,-30.,30.));
#226=CARTESIAN_POINT('Ctrl Pts',(-0.0238253212418305,-30.,0.));
#227=CARTESIAN_POINT('Ctrl Pts',(-0.0238253212418305,-30.,-30.));
#228=CARTESIAN_POINT('Ctrl Pts',(-0.0238253212418305,0.,-30.));
#229=CARTESIAN_POINT('Ctrl Pts',(-0.0238253212418305,30.,-30.));
#230=CARTESIAN_POINT('Ctrl Pts',(-0.0238253212418305,30.,0.));
#231=CARTESIAN_POINT('Ctrl Pts',(-0.0238253212418305,30.,30.));
#232=CARTESIAN_POINT('Ctrl Pts',(-0.0238253212418305,0.,30.));
#233=CARTESIAN_POINT('',(-0.0238253212418305,-3.67394039744206E-15,30.));
#234=CARTESIAN_POINT('Origin',(-0.0238253212418305,0.,0.));
#235=CARTESIAN_POINT('',(-130.,0.,0.));
#236=CARTESIAN_POINT('Origin',(-0.0238253212418305,3.26446055077335E-14,
-266.563433068718));
#237=CARTESIAN_POINT('Origin',(-0.0119126606209163,0.,0.));
#238=CARTESIAN_POINT('',(-0.0119126606209163,-3.55147574307545E-15,29.0000002086163));
#239=UNCERTAINTY_MEASURE_WITH_UNIT(LENGTH_MEASURE(0.01),#243,
'DISTANCE_ACCURACY_VALUE',
'Maximum model space distance between geometric entities at asserted c
onnectivities');
#240=UNCERTAINTY_MEASURE_WITH_UNIT(LENGTH_MEASURE(0.01),#243,
'DISTANCE_ACCURACY_VALUE',
'Maximum model space distance between geometric entities at asserted c
onnectivities');
#241=(
GEOMETRIC_REPRESENTATION_CONTEXT(3)
GLOBAL_UNCERTAINTY_ASSIGNED_CONTEXT((#239))
GLOBAL_UNIT_ASSIGNED_CONTEXT((#243,#245,#246))
REPRESENTATION_CONTEXT('','3D')
);
#242=(
GEOMETRIC_REPRESENTATION_CONTEXT(3)
GLOBAL_UNCERTAINTY_ASSIGNED_CONTEXT((#240))
GLOBAL_UNIT_ASSIGNED_CONTEXT((#243,#245,#246))
REPRESENTATION_CONTEXT('','3D')
);
#243=(
LENGTH_UNIT()
NAMED_UNIT(*)
SI_UNIT(.MILLI.,.METRE.)
);
#244=(
LENGTH_UNIT()
NAMED_UNIT(*)
SI_UNIT($,.METRE.)
);
#245=(
NAMED_UNIT(*)
PLANE_ANGLE_UNIT()
SI_UNIT($,.RADIAN.)
);
#246=(
NAMED_UNIT(*)
SI_UNIT($,.STERADIAN.)
SOLID_ANGLE_UNIT()
);
#247=SHAPE_DEFINITION_REPRESENTATION(#248,#249);
#248=PRODUCT_DEFINITION_SHAPE('',$,#251);
#249=SHAPE_REPRESENTATION('',(#115),#241);
#250=PRODUCT_DEFINITION_CONTEXT('part definition',#255,'design');
#251=PRODUCT_DEFINITION('Fusion \X2\96F690E84EF6\X0\',
'Fusion \X2\96F690E84EF6\X0\',#252,#250);
#252=PRODUCT_DEFINITION_FORMATION('',$,#257);
#253=PRODUCT_RELATED_PRODUCT_CATEGORY('Fusion \X2\96F690E84EF6\X0\',
'Fusion \X2\96F690E84EF6\X0\',(#257));
#254=APPLICATION_PROTOCOL_DEFINITION('international standard',
'automotive_design',2009,#255);
#255=APPLICATION_CONTEXT(
'Core Data for Automotive Mechanical Design Process');
#256=PRODUCT_CONTEXT('part definition',#255,'mechanical');
#257=PRODUCT('Fusion \X2\96F690E84EF6\X0\','Fusion \X2\96F690E84EF6\X0\',
$,(#256));
#258=PRESENTATION_STYLE_ASSIGNMENT((#259));
#259=SURFACE_STYLE_USAGE(.BOTH.,#260);
#260=SURFACE_SIDE_STYLE('',(#261));
#261=SURFACE_STYLE_FILL_AREA(#262);
#262=FILL_AREA_STYLE('\X2\94A2\X0\ - \X2\7F0E5149\X0\',(#263));
#263=FILL_AREA_STYLE_COLOUR('\X2\94A2\X0\ - \X2\7F0E5149\X0\',#264);
#264=COLOUR_RGB('\X2\94A2\X0\ - \X2\7F0E5149\X0\',0.627450980392157,0.627450980392157,
0.627450980392157);
ENDSEC;
END-ISO-10303-21;
