ISO-10303-21;
HEADER;
/* Generated by software containing ST-Developer
 * from STEP Tools, Inc. (www.steptools.com) 
 */

FILE_DESCRIPTION(
/* description */ (''),
/* implementation_level */ '2;1');

FILE_NAME(
/* name */ '',
/* time_stamp */ '2026-07-17T13:00:20+08:00',
/* author */ (''),
/* organization */ (''),
/* preprocessor_version */ 'ST-DEVELOPER v20.1',
/* originating_system */ 'Autodesk Translation Framework v14.4.0.0',
/* authorisation */ '');

FILE_SCHEMA (('AUTOMOTIVE_DESIGN { 1 0 10303 214 3 1 1 }'));
ENDSEC;

DATA;
#10=MECHANICAL_DESIGN_GEOMETRIC_PRESENTATION_REPRESENTATION('',(#14,#15,
#16,#17,#18,#19),#1621);
#11=SHAPE_REPRESENTATION_RELATIONSHIP('SRR','None',#1628,#12);
#12=ADVANCED_BREP_SHAPE_REPRESENTATION('',(#20,#21,#22,#23,#24,#25),#1620);
#13=CONICAL_SURFACE('',#900,30.7500004470348,1.54757192685326);
#14=STYLED_ITEM('',(#1637),#20);
#15=STYLED_ITEM('',(#1637),#21);
#16=STYLED_ITEM('',(#1637),#22);
#17=STYLED_ITEM('',(#1637),#23);
#18=STYLED_ITEM('',(#1637),#24);
#19=STYLED_ITEM('',(#1637),#25);
#20=MANIFOLD_SOLID_BREP('\X2\5B9E4F53\X0\1',#826);
#21=MANIFOLD_SOLID_BREP('\X2\5B9E4F53\X0\1',#827);
#22=MANIFOLD_SOLID_BREP('\X2\5B9E4F53\X0\1',#828);
#23=MANIFOLD_SOLID_BREP('\X2\5B9E4F53\X0\1',#829);
#24=MANIFOLD_SOLID_BREP('\X2\5B9E4F53\X0\1',#830);
#25=MANIFOLD_SOLID_BREP('\X2\5B9E4F53\X0\1',#831);
#26=PLANE('',#859);
#27=PLANE('',#863);
#28=PLANE('',#864);
#29=PLANE('',#865);
#30=PLANE('',#866);
#31=PLANE('',#867);
#32=PLANE('',#868);
#33=PLANE('',#869);
#34=PLANE('',#870);
#35=PLANE('',#871);
#36=PLANE('',#872);
#37=PLANE('',#873);
#38=PLANE('',#874);
#39=PLANE('',#875);
#40=PLANE('',#876);
#41=PLANE('',#877);
#42=PLANE('',#878);
#43=PLANE('',#879);
#44=PLANE('',#880);
#45=PLANE('',#881);
#46=PLANE('',#896);
#47=PLANE('',#901);
#48=PLANE('',#902);
#49=PLANE('',#903);
#50=PLANE('',#904);
#51=PLANE('',#905);
#52=PLANE('',#906);
#53=FACE_BOUND('',#127,.T.);
#54=FACE_BOUND('',#128,.T.);
#55=FACE_BOUND('',#133,.T.);
#56=FACE_BOUND('',#136,.T.);
#57=FACE_BOUND('',#138,.T.);
#58=FACE_BOUND('',#140,.T.);
#59=FACE_BOUND('',#144,.T.);
#60=FACE_BOUND('',#152,.T.);
#61=FACE_BOUND('',#158,.T.);
#62=FACE_BOUND('',#163,.T.);
#63=FACE_BOUND('',#164,.T.);
#64=FACE_BOUND('',#168,.T.);
#65=FACE_BOUND('',#172,.T.);
#66=FACE_BOUND('',#174,.T.);
#67=FACE_BOUND('',#179,.T.);
#68=B_SPLINE_CURVE_WITH_KNOTS('',3,(#1117,#1118,#1119,#1120,#1121,#1122,
#1123,#1124,#1125,#1126),.UNSPECIFIED.,.F.,.F.,(4,2,2,2,4),(0.,0.0753608684918205,
0.150721736983641,0.226081870780166,0.301442004576692),.UNSPECIFIED.);
#69=B_SPLINE_CURVE_WITH_KNOTS('',3,(#1127,#1128,#1129,#1130,#1131,#1132,
#1133,#1134,#1135,#1136,#1137,#1138,#1139,#1140,#1141,#1142,#1143,#1144,
#1145,#1146,#1147,#1148,#1149,#1150,#1151,#1152),.UNSPECIFIED.,.F.,.F.,
(4,2,2,2,2,2,2,2,2,2,2,2,4),(0.301442004576692,0.376803679556149,0.452165354535607,
0.527526379138748,0.602887403741889,0.678248428345029,0.75360945294817,
0.828971127927628,0.904332802907085,0.979692936703611,1.05505307050014,
1.13041393899196,1.20577480748378),.UNSPECIFIED.);
#70=B_SPLINE_CURVE_WITH_KNOTS('',3,(#1155,#1156,#1157,#1158,#1159,#1160,
#1161,#1162,#1163,#1164,#1165,#1166,#1167,#1168,#1169,#1170,#1171,#1172,
#1173,#1174,#1175,#1176,#1177,#1178,#1179,#1180),.UNSPECIFIED.,.F.,.F.,
(4,2,2,2,2,2,2,2,2,2,2,2,4),(0.,0.0753608684918205,0.150721736983641,0.226081870780166,
0.301442004576692,0.376803679556149,0.452165354535607,0.527526379138748,
0.602887403741889,0.67824842834503,0.75360945294817,0.828971127927628,0.904332802907086),
 .UNSPECIFIED.);
#71=B_SPLINE_CURVE_WITH_KNOTS('',3,(#1181,#1182,#1183,#1184,#1185,#1186,
#1187,#1188,#1189,#1190),.UNSPECIFIED.,.F.,.F.,(4,2,2,2,4),(0.904332802907086,
0.979692936703611,1.05505307050014,1.13041393899196,1.20577480748378),
 .UNSPECIFIED.);
#72=B_SPLINE_CURVE_WITH_KNOTS('',3,(#1194,#1195,#1196,#1197,#1198,#1199,
#1200,#1201,#1202,#1203,#1204,#1205,#1206,#1207,#1208,#1209,#1210,#1211,
#1212,#1213,#1214,#1215,#1216,#1217,#1218,#1219),.UNSPECIFIED.,.F.,.F.,
(4,2,2,2,2,2,2,2,2,2,2,2,4),(0.,0.0753590329628827,0.150718065925765,0.226076424834771,
0.301434783743777,0.37679456375201,0.452154343760242,0.527513520452015,
0.602872697143787,0.678231873835559,0.753591050527332,0.828950830535564,
0.904310610543797),.UNSPECIFIED.);
#73=B_SPLINE_CURVE_WITH_KNOTS('',3,(#1220,#1221,#1222,#1223,#1224,#1225,
#1226,#1227,#1228,#1229),.UNSPECIFIED.,.F.,.F.,(4,2,2,2,4),(0.904310610543797,
0.979668969452803,1.05502732836181,1.13038636132469,1.20574539428757),
 .UNSPECIFIED.);
#74=B_SPLINE_CURVE_WITH_KNOTS('',3,(#1235,#1236,#1237,#1238,#1239,#1240,
#1241,#1242,#1243,#1244),.UNSPECIFIED.,.F.,.F.,(4,2,2,2,4),(0.,0.0753590329628828,
0.150718065925766,0.226076424834772,0.301434783743777),.UNSPECIFIED.);
#75=B_SPLINE_CURVE_WITH_KNOTS('',3,(#1245,#1246,#1247,#1248,#1249,#1250,
#1251,#1252,#1253,#1254,#1255,#1256,#1257,#1258,#1259,#1260,#1261,#1262,
#1263,#1264,#1265,#1266,#1267,#1268,#1269,#1270),.UNSPECIFIED.,.F.,.F.,
(4,2,2,2,2,2,2,2,2,2,2,2,4),(0.301434783743777,0.37679456375201,0.452154343760242,
0.527513520452014,0.602872697143786,0.678231873835559,0.753591050527331,
0.828950830535563,0.904310610543795,0.979668969452801,1.05502732836181,
1.13038636132469,1.20574539428757),.UNSPECIFIED.);
#76=B_SPLINE_CURVE_WITH_KNOTS('',3,(#1404,#1405,#1406,#1407,#1408,#1409,
#1410,#1411,#1412,#1413,#1414,#1415,#1416,#1417,#1418,#1419,#1420,#1421,
#1422,#1423,#1424,#1425,#1426,#1427,#1428,#1429),.UNSPECIFIED.,.F.,.F.,
(4,2,2,2,2,2,2,2,2,2,2,2,4),(0.,0.075360946846973,0.150721893693946,0.226082791784593,
0.301443689875239,0.376804587965886,0.452165486056533,0.527526432903506,
0.602887379750479,0.678248326597452,0.753609273444425,0.828970171535071,
0.904331069625718),.UNSPECIFIED.);
#77=B_SPLINE_CURVE_WITH_KNOTS('',3,(#1430,#1431,#1432,#1433,#1434,#1435,
#1436,#1437,#1438,#1439),.UNSPECIFIED.,.F.,.F.,(4,2,2,2,4),(0.904331069625718,
0.979691967716365,1.05505286580701,1.13041381265398,1.20577475950096),
 .UNSPECIFIED.);
#78=B_SPLINE_CURVE_WITH_KNOTS('',3,(#1442,#1443,#1444,#1445,#1446,#1447,
#1448,#1449,#1450,#1451),.UNSPECIFIED.,.F.,.F.,(4,2,2,2,4),(0.,0.075360946846973,
0.150721893693946,0.226082791784593,0.301443689875239),.UNSPECIFIED.);
#79=B_SPLINE_CURVE_WITH_KNOTS('',3,(#1452,#1453,#1454,#1455,#1456,#1457,
#1458,#1459,#1460,#1461,#1462,#1463,#1464,#1465,#1466,#1467,#1468,#1469,
#1470,#1471,#1472,#1473,#1474,#1475,#1476,#1477),.UNSPECIFIED.,.F.,.F.,
(4,2,2,2,2,2,2,2,2,2,2,2,4),(0.301443689875239,0.376804587965886,0.452165486056533,
0.527526432903506,0.602887379750479,0.678248326597452,0.753609273444425,
0.828970171535071,0.904331069625718,0.979691967716365,1.05505286580701,
1.13041381265398,1.20577475950096),.UNSPECIFIED.);
#80=B_SPLINE_CURVE_WITH_KNOTS('',3,(#1481,#1482,#1483,#1484,#1485,#1486,
#1487,#1488,#1489,#1490,#1491,#1492,#1493,#1494,#1495,#1496,#1497,#1498,
#1499,#1500,#1501,#1502,#1503,#1504,#1505,#1506),.UNSPECIFIED.,.F.,.F.,
(4,2,2,2,2,2,2,2,2,2,2,2,4),(0.,0.0753591051044707,0.150718210208941,0.226077273861796,
0.301436337514651,0.376795401167505,0.45215446482036,0.527513569924831,
0.602872675029301,0.678231780133772,0.753590885238243,0.828949948891098,
0.904309012543952),.UNSPECIFIED.);
#81=B_SPLINE_CURVE_WITH_KNOTS('',3,(#1507,#1508,#1509,#1510,#1511,#1512,
#1513,#1514,#1515,#1516),.UNSPECIFIED.,.F.,.F.,(4,2,2,2,4),(0.904309012543952,
0.979668076196807,1.05502713984966,1.13038624495413,1.2057453500586),
 .UNSPECIFIED.);
#82=B_SPLINE_CURVE_WITH_KNOTS('',3,(#1522,#1523,#1524,#1525,#1526,#1527,
#1528,#1529,#1530,#1531),.UNSPECIFIED.,.F.,.F.,(4,2,2,2,4),(0.,0.0753591051044707,
0.150718210208941,0.226077273861796,0.301436337514651),.UNSPECIFIED.);
#83=B_SPLINE_CURVE_WITH_KNOTS('',3,(#1532,#1533,#1534,#1535,#1536,#1537,
#1538,#1539,#1540,#1541,#1542,#1543,#1544,#1545,#1546,#1547,#1548,#1549,
#1550,#1551,#1552,#1553,#1554,#1555,#1556,#1557),.UNSPECIFIED.,.F.,.F.,
(4,2,2,2,2,2,2,2,2,2,2,2,4),(0.301436337514651,0.376795401167505,0.45215446482036,
0.527513569924831,0.602872675029301,0.678231780133772,0.753590885238243,
0.828949948891098,0.904309012543952,0.979668076196807,1.05502713984966,
1.13038624495413,1.2057453500586),.UNSPECIFIED.);
#84=FACE_OUTER_BOUND('',#126,.T.);
#85=FACE_OUTER_BOUND('',#129,.T.);
#86=FACE_OUTER_BOUND('',#130,.T.);
#87=FACE_OUTER_BOUND('',#131,.T.);
#88=FACE_OUTER_BOUND('',#132,.T.);
#89=FACE_OUTER_BOUND('',#134,.T.);
#90=FACE_OUTER_BOUND('',#135,.T.);
#91=FACE_OUTER_BOUND('',#137,.T.);
#92=FACE_OUTER_BOUND('',#139,.T.);
#93=FACE_OUTER_BOUND('',#141,.T.);
#94=FACE_OUTER_BOUND('',#142,.T.);
#95=FACE_OUTER_BOUND('',#143,.T.);
#96=FACE_OUTER_BOUND('',#145,.T.);
#97=FACE_OUTER_BOUND('',#146,.T.);
#98=FACE_OUTER_BOUND('',#147,.T.);
#99=FACE_OUTER_BOUND('',#148,.T.);
#100=FACE_OUTER_BOUND('',#149,.T.);
#101=FACE_OUTER_BOUND('',#150,.T.);
#102=FACE_OUTER_BOUND('',#151,.T.);
#103=FACE_OUTER_BOUND('',#153,.T.);
#104=FACE_OUTER_BOUND('',#154,.T.);
#105=FACE_OUTER_BOUND('',#155,.T.);
#106=FACE_OUTER_BOUND('',#156,.T.);
#107=FACE_OUTER_BOUND('',#157,.T.);
#108=FACE_OUTER_BOUND('',#159,.T.);
#109=FACE_OUTER_BOUND('',#160,.T.);
#110=FACE_OUTER_BOUND('',#161,.T.);
#111=FACE_OUTER_BOUND('',#162,.T.);
#112=FACE_OUTER_BOUND('',#165,.T.);
#113=FACE_OUTER_BOUND('',#166,.T.);
#114=FACE_OUTER_BOUND('',#167,.T.);
#115=FACE_OUTER_BOUND('',#169,.T.);
#116=FACE_OUTER_BOUND('',#170,.T.);
#117=FACE_OUTER_BOUND('',#171,.T.);
#118=FACE_OUTER_BOUND('',#173,.T.);
#119=FACE_OUTER_BOUND('',#175,.T.);
#120=FACE_OUTER_BOUND('',#176,.T.);
#121=FACE_OUTER_BOUND('',#177,.T.);
#122=FACE_OUTER_BOUND('',#178,.T.);
#123=FACE_OUTER_BOUND('',#180,.T.);
#124=FACE_OUTER_BOUND('',#181,.T.);
#125=FACE_OUTER_BOUND('',#182,.T.);
#126=EDGE_LOOP('',(#548,#549,#550,#551));
#127=EDGE_LOOP('',(#552,#553));
#128=EDGE_LOOP('',(#554,#555));
#129=EDGE_LOOP('',(#556,#557,#558,#559,#560,#561));
#130=EDGE_LOOP('',(#562,#563,#564,#565,#566,#567));
#131=EDGE_LOOP('',(#568,#569,#570,#571));
#132=EDGE_LOOP('',(#572,#573,#574,#575));
#133=EDGE_LOOP('',(#576,#577));
#134=EDGE_LOOP('',(#578,#579,#580,#581));
#135=EDGE_LOOP('',(#582,#583,#584,#585));
#136=EDGE_LOOP('',(#586));
#137=EDGE_LOOP('',(#587,#588,#589,#590));
#138=EDGE_LOOP('',(#591,#592));
#139=EDGE_LOOP('',(#593,#594,#595,#596));
#140=EDGE_LOOP('',(#597));
#141=EDGE_LOOP('',(#598,#599,#600,#601));
#142=EDGE_LOOP('',(#602,#603,#604,#605,#606));
#143=EDGE_LOOP('',(#607,#608,#609,#610,#611,#612,#613));
#144=EDGE_LOOP('',(#614,#615));
#145=EDGE_LOOP('',(#616,#617,#618,#619));
#146=EDGE_LOOP('',(#620,#621,#622,#623));
#147=EDGE_LOOP('',(#624,#625,#626,#627));
#148=EDGE_LOOP('',(#628,#629,#630,#631));
#149=EDGE_LOOP('',(#632,#633,#634,#635));
#150=EDGE_LOOP('',(#636,#637,#638,#639));
#151=EDGE_LOOP('',(#640,#641,#642,#643,#644,#645,#646));
#152=EDGE_LOOP('',(#647,#648));
#153=EDGE_LOOP('',(#649,#650,#651,#652,#653));
#154=EDGE_LOOP('',(#654,#655,#656,#657));
#155=EDGE_LOOP('',(#658,#659,#660,#661));
#156=EDGE_LOOP('',(#662,#663,#664,#665,#666));
#157=EDGE_LOOP('',(#667,#668,#669,#670,#671,#672,#673));
#158=EDGE_LOOP('',(#674,#675));
#159=EDGE_LOOP('',(#676,#677,#678,#679));
#160=EDGE_LOOP('',(#680,#681,#682,#683));
#161=EDGE_LOOP('',(#684,#685,#686,#687));
#162=EDGE_LOOP('',(#688,#689,#690,#691));
#163=EDGE_LOOP('',(#692,#693));
#164=EDGE_LOOP('',(#694,#695));
#165=EDGE_LOOP('',(#696,#697,#698,#699,#700,#701));
#166=EDGE_LOOP('',(#702,#703,#704,#705,#706,#707));
#167=EDGE_LOOP('',(#708,#709,#710,#711));
#168=EDGE_LOOP('',(#712,#713));
#169=EDGE_LOOP('',(#714,#715,#716,#717));
#170=EDGE_LOOP('',(#718,#719,#720,#721));
#171=EDGE_LOOP('',(#722,#723,#724,#725));
#172=EDGE_LOOP('',(#726));
#173=EDGE_LOOP('',(#727,#728,#729,#730));
#174=EDGE_LOOP('',(#731,#732));
#175=EDGE_LOOP('',(#733,#734,#735,#736,#737,#738,#739));
#176=EDGE_LOOP('',(#740,#741,#742,#743));
#177=EDGE_LOOP('',(#744,#745,#746,#747,#748));
#178=EDGE_LOOP('',(#749,#750,#751,#752,#753,#754,#755));
#179=EDGE_LOOP('',(#756,#757));
#180=EDGE_LOOP('',(#758,#759,#760,#761));
#181=EDGE_LOOP('',(#762,#763,#764,#765));
#182=EDGE_LOOP('',(#766,#767,#768,#769));
#183=LINE('',#1113,#258);
#184=LINE('',#1230,#259);
#185=LINE('',#1233,#260);
#186=LINE('',#1274,#261);
#187=LINE('',#1278,#262);
#188=LINE('',#1284,#263);
#189=LINE('',#1290,#264);
#190=LINE('',#1300,#265);
#191=LINE('',#1302,#266);
#192=LINE('',#1304,#267);
#193=LINE('',#1305,#268);
#194=LINE('',#1309,#269);
#195=LINE('',#1310,#270);
#196=LINE('',#1312,#271);
#197=LINE('',#1313,#272);
#198=LINE('',#1316,#273);
#199=LINE('',#1318,#274);
#200=LINE('',#1319,#275);
#201=LINE('',#1322,#276);
#202=LINE('',#1325,#277);
#203=LINE('',#1326,#278);
#204=LINE('',#1328,#279);
#205=LINE('',#1333,#280);
#206=LINE('',#1335,#281);
#207=LINE('',#1337,#282);
#208=LINE('',#1338,#283);
#209=LINE('',#1341,#284);
#210=LINE('',#1343,#285);
#211=LINE('',#1344,#286);
#212=LINE('',#1347,#287);
#213=LINE('',#1348,#288);
#214=LINE('',#1351,#289);
#215=LINE('',#1353,#290);
#216=LINE('',#1355,#291);
#217=LINE('',#1356,#292);
#218=LINE('',#1359,#293);
#219=LINE('',#1361,#294);
#220=LINE('',#1366,#295);
#221=LINE('',#1368,#296);
#222=LINE('',#1370,#297);
#223=LINE('',#1371,#298);
#224=LINE('',#1375,#299);
#225=LINE('',#1376,#300);
#226=LINE('',#1378,#301);
#227=LINE('',#1379,#302);
#228=LINE('',#1382,#303);
#229=LINE('',#1384,#304);
#230=LINE('',#1385,#305);
#231=LINE('',#1388,#306);
#232=LINE('',#1391,#307);
#233=LINE('',#1392,#308);
#234=LINE('',#1394,#309);
#235=LINE('',#1400,#310);
#236=LINE('',#1517,#311);
#237=LINE('',#1520,#312);
#238=LINE('',#1561,#313);
#239=LINE('',#1565,#314);
#240=LINE('',#1570,#315);
#241=LINE('',#1576,#316);
#242=LINE('',#1584,#317);
#243=LINE('',#1588,#318);
#244=LINE('',#1590,#319);
#245=LINE('',#1592,#320);
#246=LINE('',#1593,#321);
#247=LINE('',#1597,#322);
#248=LINE('',#1598,#323);
#249=LINE('',#1600,#324);
#250=LINE('',#1601,#325);
#251=LINE('',#1604,#326);
#252=LINE('',#1606,#327);
#253=LINE('',#1607,#328);
#254=LINE('',#1610,#329);
#255=LINE('',#1613,#330);
#256=LINE('',#1614,#331);
#257=LINE('',#1616,#332);
#258=VECTOR('',#913,30.2500004470348);
#259=VECTOR('',#918,2.00000000000003);
#260=VECTOR('',#921,2.00000000000003);
#261=VECTOR('',#924,10.);
#262=VECTOR('',#927,10.);
#263=VECTOR('',#934,10.);
#264=VECTOR('',#941,10.);
#265=VECTOR('',#956,10.);
#266=VECTOR('',#957,10.);
#267=VECTOR('',#958,10.);
#268=VECTOR('',#959,10.);
#269=VECTOR('',#962,10.);
#270=VECTOR('',#963,10.);
#271=VECTOR('',#964,10.);
#272=VECTOR('',#965,10.);
#273=VECTOR('',#968,10.);
#274=VECTOR('',#969,10.);
#275=VECTOR('',#970,10.);
#276=VECTOR('',#971,10.);
#277=VECTOR('',#974,10.);
#278=VECTOR('',#975,10.);
#279=VECTOR('',#978,10.);
#280=VECTOR('',#983,10.);
#281=VECTOR('',#984,10.);
#282=VECTOR('',#985,10.);
#283=VECTOR('',#986,10.);
#284=VECTOR('',#989,10.);
#285=VECTOR('',#990,10.);
#286=VECTOR('',#991,10.);
#287=VECTOR('',#994,10.);
#288=VECTOR('',#995,10.);
#289=VECTOR('',#998,10.);
#290=VECTOR('',#999,10.);
#291=VECTOR('',#1000,10.);
#292=VECTOR('',#1001,10.);
#293=VECTOR('',#1002,10.);
#294=VECTOR('',#1005,10.);
#295=VECTOR('',#1010,10.);
#296=VECTOR('',#1011,10.);
#297=VECTOR('',#1012,10.);
#298=VECTOR('',#1013,10.);
#299=VECTOR('',#1016,10.);
#300=VECTOR('',#1017,10.);
#301=VECTOR('',#1018,10.);
#302=VECTOR('',#1019,10.);
#303=VECTOR('',#1022,10.);
#304=VECTOR('',#1023,10.);
#305=VECTOR('',#1024,10.);
#306=VECTOR('',#1025,10.);
#307=VECTOR('',#1028,10.);
#308=VECTOR('',#1029,10.);
#309=VECTOR('',#1032,10.);
#310=VECTOR('',#1039,30.2500004470348);
#311=VECTOR('',#1044,2.00000000000003);
#312=VECTOR('',#1047,2.00000000000003);
#313=VECTOR('',#1050,10.);
#314=VECTOR('',#1053,10.);
#315=VECTOR('',#1058,10.);
#316=VECTOR('',#1065,10.);
#317=VECTOR('',#1080,30.7500004470348);
#318=VECTOR('',#1083,10.);
#319=VECTOR('',#1084,10.);
#320=VECTOR('',#1085,10.);
#321=VECTOR('',#1086,10.);
#322=VECTOR('',#1089,10.);
#323=VECTOR('',#1090,10.);
#324=VECTOR('',#1091,10.);
#325=VECTOR('',#1092,10.);
#326=VECTOR('',#1095,10.);
#327=VECTOR('',#1096,10.);
#328=VECTOR('',#1097,10.);
#329=VECTOR('',#1098,10.);
#330=VECTOR('',#1101,10.);
#331=VECTOR('',#1102,10.);
#332=VECTOR('',#1105,10.);
#333=CIRCLE('',#846,30.2500004470348);
#334=CIRCLE('',#847,30.2500004470348);
#335=CIRCLE('',#851,31.5000004470348);
#336=CIRCLE('',#852,31.5000004470348);
#337=CIRCLE('',#854,31.5000004470348);
#338=CIRCLE('',#855,31.5000004470348);
#339=CIRCLE('',#857,31.5000004470348);
#340=CIRCLE('',#858,31.5000004470348);
#341=CIRCLE('',#860,31.5000004470348);
#342=CIRCLE('',#862,31.5000004470348);
#343=CIRCLE('',#883,30.2500004470348);
#344=CIRCLE('',#884,30.2500004470348);
#345=CIRCLE('',#888,31.5000004470348);
#346=CIRCLE('',#889,31.5000004470348);
#347=CIRCLE('',#891,31.5000004470348);
#348=CIRCLE('',#892,31.5000004470348);
#349=CIRCLE('',#894,31.5000004470348);
#350=CIRCLE('',#895,31.5000004470348);
#351=CIRCLE('',#897,31.5000004470348);
#352=CIRCLE('',#899,31.5000004470348);
#353=VERTEX_POINT('',#1110);
#354=VERTEX_POINT('',#1112);
#355=VERTEX_POINT('',#1115);
#356=VERTEX_POINT('',#1116);
#357=VERTEX_POINT('',#1153);
#358=VERTEX_POINT('',#1154);
#359=VERTEX_POINT('',#1192);
#360=VERTEX_POINT('',#1193);
#361=VERTEX_POINT('',#1232);
#362=VERTEX_POINT('',#1234);
#363=VERTEX_POINT('',#1272);
#364=VERTEX_POINT('',#1273);
#365=VERTEX_POINT('',#1275);
#366=VERTEX_POINT('',#1277);
#367=VERTEX_POINT('',#1281);
#368=VERTEX_POINT('',#1283);
#369=VERTEX_POINT('',#1287);
#370=VERTEX_POINT('',#1289);
#371=VERTEX_POINT('',#1298);
#372=VERTEX_POINT('',#1299);
#373=VERTEX_POINT('',#1301);
#374=VERTEX_POINT('',#1303);
#375=VERTEX_POINT('',#1307);
#376=VERTEX_POINT('',#1308);
#377=VERTEX_POINT('',#1311);
#378=VERTEX_POINT('',#1315);
#379=VERTEX_POINT('',#1317);
#380=VERTEX_POINT('',#1320);
#381=VERTEX_POINT('',#1321);
#382=VERTEX_POINT('',#1324);
#383=VERTEX_POINT('',#1331);
#384=VERTEX_POINT('',#1332);
#385=VERTEX_POINT('',#1334);
#386=VERTEX_POINT('',#1336);
#387=VERTEX_POINT('',#1340);
#388=VERTEX_POINT('',#1342);
#389=VERTEX_POINT('',#1346);
#390=VERTEX_POINT('',#1350);
#391=VERTEX_POINT('',#1352);
#392=VERTEX_POINT('',#1354);
#393=VERTEX_POINT('',#1357);
#394=VERTEX_POINT('',#1358);
#395=VERTEX_POINT('',#1364);
#396=VERTEX_POINT('',#1365);
#397=VERTEX_POINT('',#1367);
#398=VERTEX_POINT('',#1369);
#399=VERTEX_POINT('',#1373);
#400=VERTEX_POINT('',#1374);
#401=VERTEX_POINT('',#1377);
#402=VERTEX_POINT('',#1381);
#403=VERTEX_POINT('',#1383);
#404=VERTEX_POINT('',#1386);
#405=VERTEX_POINT('',#1387);
#406=VERTEX_POINT('',#1390);
#407=VERTEX_POINT('',#1397);
#408=VERTEX_POINT('',#1399);
#409=VERTEX_POINT('',#1402);
#410=VERTEX_POINT('',#1403);
#411=VERTEX_POINT('',#1440);
#412=VERTEX_POINT('',#1441);
#413=VERTEX_POINT('',#1479);
#414=VERTEX_POINT('',#1480);
#415=VERTEX_POINT('',#1519);
#416=VERTEX_POINT('',#1521);
#417=VERTEX_POINT('',#1559);
#418=VERTEX_POINT('',#1560);
#419=VERTEX_POINT('',#1562);
#420=VERTEX_POINT('',#1564);
#421=VERTEX_POINT('',#1568);
#422=VERTEX_POINT('',#1569);
#423=VERTEX_POINT('',#1574);
#424=VERTEX_POINT('',#1575);
#425=VERTEX_POINT('',#1586);
#426=VERTEX_POINT('',#1587);
#427=VERTEX_POINT('',#1589);
#428=VERTEX_POINT('',#1591);
#429=VERTEX_POINT('',#1595);
#430=VERTEX_POINT('',#1596);
#431=VERTEX_POINT('',#1599);
#432=VERTEX_POINT('',#1603);
#433=VERTEX_POINT('',#1605);
#434=VERTEX_POINT('',#1608);
#435=VERTEX_POINT('',#1609);
#436=VERTEX_POINT('',#1612);
#437=EDGE_CURVE('',#353,#353,#333,.T.);
#438=EDGE_CURVE('',#353,#354,#183,.T.);
#439=EDGE_CURVE('',#354,#354,#334,.T.);
#440=EDGE_CURVE('',#355,#356,#68,.T.);
#441=EDGE_CURVE('',#356,#355,#69,.T.);
#442=EDGE_CURVE('',#357,#358,#70,.T.);
#443=EDGE_CURVE('',#358,#357,#71,.T.);
#444=EDGE_CURVE('',#359,#360,#72,.T.);
#445=EDGE_CURVE('',#360,#359,#73,.T.);
#446=EDGE_CURVE('',#360,#358,#184,.T.);
#447=EDGE_CURVE('',#356,#361,#185,.T.);
#448=EDGE_CURVE('',#362,#361,#74,.T.);
#449=EDGE_CURVE('',#361,#362,#75,.T.);
#450=EDGE_CURVE('',#363,#364,#186,.T.);
#451=EDGE_CURVE('',#363,#365,#335,.T.);
#452=EDGE_CURVE('',#365,#366,#187,.T.);
#453=EDGE_CURVE('',#364,#366,#336,.T.);
#454=EDGE_CURVE('',#367,#364,#337,.T.);
#455=EDGE_CURVE('',#368,#367,#188,.T.);
#456=EDGE_CURVE('',#368,#363,#338,.T.);
#457=EDGE_CURVE('',#369,#367,#339,.T.);
#458=EDGE_CURVE('',#370,#369,#189,.T.);
#459=EDGE_CURVE('',#370,#368,#340,.T.);
#460=EDGE_CURVE('',#365,#370,#341,.T.);
#461=EDGE_CURVE('',#366,#369,#342,.T.);
#462=EDGE_CURVE('',#371,#372,#190,.T.);
#463=EDGE_CURVE('',#372,#373,#191,.T.);
#464=EDGE_CURVE('',#373,#374,#192,.T.);
#465=EDGE_CURVE('',#374,#371,#193,.T.);
#466=EDGE_CURVE('',#375,#376,#194,.T.);
#467=EDGE_CURVE('',#376,#372,#195,.T.);
#468=EDGE_CURVE('',#371,#377,#196,.T.);
#469=EDGE_CURVE('',#375,#377,#197,.T.);
#470=EDGE_CURVE('',#378,#373,#198,.T.);
#471=EDGE_CURVE('',#376,#379,#199,.T.);
#472=EDGE_CURVE('',#378,#375,#200,.T.);
#473=EDGE_CURVE('',#380,#381,#201,.T.);
#474=EDGE_CURVE('',#382,#374,#202,.T.);
#475=EDGE_CURVE('',#382,#378,#203,.T.);
#476=EDGE_CURVE('',#377,#382,#204,.T.);
#477=EDGE_CURVE('',#383,#384,#205,.T.);
#478=EDGE_CURVE('',#384,#385,#206,.T.);
#479=EDGE_CURVE('',#385,#386,#207,.T.);
#480=EDGE_CURVE('',#386,#383,#208,.T.);
#481=EDGE_CURVE('',#387,#384,#209,.T.);
#482=EDGE_CURVE('',#388,#387,#210,.T.);
#483=EDGE_CURVE('',#385,#388,#211,.T.);
#484=EDGE_CURVE('',#389,#388,#212,.T.);
#485=EDGE_CURVE('',#386,#389,#213,.T.);
#486=EDGE_CURVE('',#390,#389,#214,.T.);
#487=EDGE_CURVE('',#391,#390,#215,.T.);
#488=EDGE_CURVE('',#391,#392,#216,.T.);
#489=EDGE_CURVE('',#383,#391,#217,.T.);
#490=EDGE_CURVE('',#393,#394,#218,.T.);
#491=EDGE_CURVE('',#387,#390,#219,.T.);
#492=EDGE_CURVE('',#395,#396,#220,.T.);
#493=EDGE_CURVE('',#396,#397,#221,.T.);
#494=EDGE_CURVE('',#397,#398,#222,.T.);
#495=EDGE_CURVE('',#398,#395,#223,.T.);
#496=EDGE_CURVE('',#399,#400,#224,.T.);
#497=EDGE_CURVE('',#400,#396,#225,.T.);
#498=EDGE_CURVE('',#395,#401,#226,.T.);
#499=EDGE_CURVE('',#399,#401,#227,.T.);
#500=EDGE_CURVE('',#402,#397,#228,.T.);
#501=EDGE_CURVE('',#400,#403,#229,.T.);
#502=EDGE_CURVE('',#402,#399,#230,.T.);
#503=EDGE_CURVE('',#404,#405,#231,.T.);
#504=EDGE_CURVE('',#406,#398,#232,.T.);
#505=EDGE_CURVE('',#406,#402,#233,.T.);
#506=EDGE_CURVE('',#401,#406,#234,.T.);
#507=EDGE_CURVE('',#407,#407,#343,.T.);
#508=EDGE_CURVE('',#407,#408,#235,.T.);
#509=EDGE_CURVE('',#408,#408,#344,.T.);
#510=EDGE_CURVE('',#409,#410,#76,.T.);
#511=EDGE_CURVE('',#410,#409,#77,.T.);
#512=EDGE_CURVE('',#411,#412,#78,.T.);
#513=EDGE_CURVE('',#412,#411,#79,.T.);
#514=EDGE_CURVE('',#413,#414,#80,.T.);
#515=EDGE_CURVE('',#414,#413,#81,.T.);
#516=EDGE_CURVE('',#414,#410,#236,.T.);
#517=EDGE_CURVE('',#412,#415,#237,.T.);
#518=EDGE_CURVE('',#416,#415,#82,.T.);
#519=EDGE_CURVE('',#415,#416,#83,.T.);
#520=EDGE_CURVE('',#417,#418,#238,.T.);
#521=EDGE_CURVE('',#419,#418,#345,.T.);
#522=EDGE_CURVE('',#420,#419,#239,.T.);
#523=EDGE_CURVE('',#420,#417,#346,.T.);
#524=EDGE_CURVE('',#421,#422,#240,.T.);
#525=EDGE_CURVE('',#418,#422,#347,.T.);
#526=EDGE_CURVE('',#417,#421,#348,.T.);
#527=EDGE_CURVE('',#423,#424,#241,.T.);
#528=EDGE_CURVE('',#423,#420,#349,.T.);
#529=EDGE_CURVE('',#424,#419,#350,.T.);
#530=EDGE_CURVE('',#421,#423,#351,.T.);
#531=EDGE_CURVE('',#422,#424,#352,.T.);
#532=EDGE_CURVE('',#408,#418,#242,.T.);
#533=EDGE_CURVE('',#425,#426,#243,.T.);
#534=EDGE_CURVE('',#426,#427,#244,.T.);
#535=EDGE_CURVE('',#427,#428,#245,.T.);
#536=EDGE_CURVE('',#428,#425,#246,.T.);
#537=EDGE_CURVE('',#429,#430,#247,.T.);
#538=EDGE_CURVE('',#430,#426,#248,.T.);
#539=EDGE_CURVE('',#425,#431,#249,.T.);
#540=EDGE_CURVE('',#429,#431,#250,.T.);
#541=EDGE_CURVE('',#432,#427,#251,.T.);
#542=EDGE_CURVE('',#430,#433,#252,.T.);
#543=EDGE_CURVE('',#432,#429,#253,.T.);
#544=EDGE_CURVE('',#434,#435,#254,.T.);
#545=EDGE_CURVE('',#436,#428,#255,.T.);
#546=EDGE_CURVE('',#436,#432,#256,.T.);
#547=EDGE_CURVE('',#431,#436,#257,.T.);
#548=ORIENTED_EDGE('',*,*,#437,.F.);
#549=ORIENTED_EDGE('',*,*,#438,.T.);
#550=ORIENTED_EDGE('',*,*,#439,.F.);
#551=ORIENTED_EDGE('',*,*,#438,.F.);
#552=ORIENTED_EDGE('',*,*,#440,.F.);
#553=ORIENTED_EDGE('',*,*,#441,.F.);
#554=ORIENTED_EDGE('',*,*,#442,.F.);
#555=ORIENTED_EDGE('',*,*,#443,.F.);
#556=ORIENTED_EDGE('',*,*,#444,.F.);
#557=ORIENTED_EDGE('',*,*,#445,.F.);
#558=ORIENTED_EDGE('',*,*,#446,.T.);
#559=ORIENTED_EDGE('',*,*,#443,.T.);
#560=ORIENTED_EDGE('',*,*,#442,.T.);
#561=ORIENTED_EDGE('',*,*,#446,.F.);
#562=ORIENTED_EDGE('',*,*,#440,.T.);
#563=ORIENTED_EDGE('',*,*,#447,.T.);
#564=ORIENTED_EDGE('',*,*,#448,.F.);
#565=ORIENTED_EDGE('',*,*,#449,.F.);
#566=ORIENTED_EDGE('',*,*,#447,.F.);
#567=ORIENTED_EDGE('',*,*,#441,.T.);
#568=ORIENTED_EDGE('',*,*,#450,.F.);
#569=ORIENTED_EDGE('',*,*,#451,.T.);
#570=ORIENTED_EDGE('',*,*,#452,.T.);
#571=ORIENTED_EDGE('',*,*,#453,.F.);
#572=ORIENTED_EDGE('',*,*,#450,.T.);
#573=ORIENTED_EDGE('',*,*,#454,.F.);
#574=ORIENTED_EDGE('',*,*,#455,.F.);
#575=ORIENTED_EDGE('',*,*,#456,.T.);
#576=ORIENTED_EDGE('',*,*,#444,.T.);
#577=ORIENTED_EDGE('',*,*,#445,.T.);
#578=ORIENTED_EDGE('',*,*,#455,.T.);
#579=ORIENTED_EDGE('',*,*,#457,.F.);
#580=ORIENTED_EDGE('',*,*,#458,.F.);
#581=ORIENTED_EDGE('',*,*,#459,.T.);
#582=ORIENTED_EDGE('',*,*,#460,.F.);
#583=ORIENTED_EDGE('',*,*,#451,.F.);
#584=ORIENTED_EDGE('',*,*,#456,.F.);
#585=ORIENTED_EDGE('',*,*,#459,.F.);
#586=ORIENTED_EDGE('',*,*,#437,.T.);
#587=ORIENTED_EDGE('',*,*,#458,.T.);
#588=ORIENTED_EDGE('',*,*,#461,.F.);
#589=ORIENTED_EDGE('',*,*,#452,.F.);
#590=ORIENTED_EDGE('',*,*,#460,.T.);
#591=ORIENTED_EDGE('',*,*,#448,.T.);
#592=ORIENTED_EDGE('',*,*,#449,.T.);
#593=ORIENTED_EDGE('',*,*,#461,.T.);
#594=ORIENTED_EDGE('',*,*,#457,.T.);
#595=ORIENTED_EDGE('',*,*,#454,.T.);
#596=ORIENTED_EDGE('',*,*,#453,.T.);
#597=ORIENTED_EDGE('',*,*,#439,.T.);
#598=ORIENTED_EDGE('',*,*,#462,.T.);
#599=ORIENTED_EDGE('',*,*,#463,.T.);
#600=ORIENTED_EDGE('',*,*,#464,.T.);
#601=ORIENTED_EDGE('',*,*,#465,.T.);
#602=ORIENTED_EDGE('',*,*,#466,.T.);
#603=ORIENTED_EDGE('',*,*,#467,.T.);
#604=ORIENTED_EDGE('',*,*,#462,.F.);
#605=ORIENTED_EDGE('',*,*,#468,.T.);
#606=ORIENTED_EDGE('',*,*,#469,.F.);
#607=ORIENTED_EDGE('',*,*,#470,.T.);
#608=ORIENTED_EDGE('',*,*,#463,.F.);
#609=ORIENTED_EDGE('',*,*,#467,.F.);
#610=ORIENTED_EDGE('',*,*,#471,.T.);
#611=ORIENTED_EDGE('',*,*,#471,.F.);
#612=ORIENTED_EDGE('',*,*,#466,.F.);
#613=ORIENTED_EDGE('',*,*,#472,.F.);
#614=ORIENTED_EDGE('',*,*,#473,.T.);
#615=ORIENTED_EDGE('',*,*,#473,.F.);
#616=ORIENTED_EDGE('',*,*,#474,.T.);
#617=ORIENTED_EDGE('',*,*,#464,.F.);
#618=ORIENTED_EDGE('',*,*,#470,.F.);
#619=ORIENTED_EDGE('',*,*,#475,.F.);
#620=ORIENTED_EDGE('',*,*,#468,.F.);
#621=ORIENTED_EDGE('',*,*,#465,.F.);
#622=ORIENTED_EDGE('',*,*,#474,.F.);
#623=ORIENTED_EDGE('',*,*,#476,.F.);
#624=ORIENTED_EDGE('',*,*,#469,.T.);
#625=ORIENTED_EDGE('',*,*,#476,.T.);
#626=ORIENTED_EDGE('',*,*,#475,.T.);
#627=ORIENTED_EDGE('',*,*,#472,.T.);
#628=ORIENTED_EDGE('',*,*,#477,.T.);
#629=ORIENTED_EDGE('',*,*,#478,.T.);
#630=ORIENTED_EDGE('',*,*,#479,.T.);
#631=ORIENTED_EDGE('',*,*,#480,.T.);
#632=ORIENTED_EDGE('',*,*,#481,.F.);
#633=ORIENTED_EDGE('',*,*,#482,.F.);
#634=ORIENTED_EDGE('',*,*,#483,.F.);
#635=ORIENTED_EDGE('',*,*,#478,.F.);
#636=ORIENTED_EDGE('',*,*,#483,.T.);
#637=ORIENTED_EDGE('',*,*,#484,.F.);
#638=ORIENTED_EDGE('',*,*,#485,.F.);
#639=ORIENTED_EDGE('',*,*,#479,.F.);
#640=ORIENTED_EDGE('',*,*,#485,.T.);
#641=ORIENTED_EDGE('',*,*,#486,.F.);
#642=ORIENTED_EDGE('',*,*,#487,.F.);
#643=ORIENTED_EDGE('',*,*,#488,.T.);
#644=ORIENTED_EDGE('',*,*,#488,.F.);
#645=ORIENTED_EDGE('',*,*,#489,.F.);
#646=ORIENTED_EDGE('',*,*,#480,.F.);
#647=ORIENTED_EDGE('',*,*,#490,.T.);
#648=ORIENTED_EDGE('',*,*,#490,.F.);
#649=ORIENTED_EDGE('',*,*,#489,.T.);
#650=ORIENTED_EDGE('',*,*,#487,.T.);
#651=ORIENTED_EDGE('',*,*,#491,.F.);
#652=ORIENTED_EDGE('',*,*,#481,.T.);
#653=ORIENTED_EDGE('',*,*,#477,.F.);
#654=ORIENTED_EDGE('',*,*,#491,.T.);
#655=ORIENTED_EDGE('',*,*,#486,.T.);
#656=ORIENTED_EDGE('',*,*,#484,.T.);
#657=ORIENTED_EDGE('',*,*,#482,.T.);
#658=ORIENTED_EDGE('',*,*,#492,.T.);
#659=ORIENTED_EDGE('',*,*,#493,.T.);
#660=ORIENTED_EDGE('',*,*,#494,.T.);
#661=ORIENTED_EDGE('',*,*,#495,.T.);
#662=ORIENTED_EDGE('',*,*,#496,.T.);
#663=ORIENTED_EDGE('',*,*,#497,.T.);
#664=ORIENTED_EDGE('',*,*,#492,.F.);
#665=ORIENTED_EDGE('',*,*,#498,.T.);
#666=ORIENTED_EDGE('',*,*,#499,.F.);
#667=ORIENTED_EDGE('',*,*,#500,.T.);
#668=ORIENTED_EDGE('',*,*,#493,.F.);
#669=ORIENTED_EDGE('',*,*,#497,.F.);
#670=ORIENTED_EDGE('',*,*,#501,.T.);
#671=ORIENTED_EDGE('',*,*,#501,.F.);
#672=ORIENTED_EDGE('',*,*,#496,.F.);
#673=ORIENTED_EDGE('',*,*,#502,.F.);
#674=ORIENTED_EDGE('',*,*,#503,.T.);
#675=ORIENTED_EDGE('',*,*,#503,.F.);
#676=ORIENTED_EDGE('',*,*,#504,.T.);
#677=ORIENTED_EDGE('',*,*,#494,.F.);
#678=ORIENTED_EDGE('',*,*,#500,.F.);
#679=ORIENTED_EDGE('',*,*,#505,.F.);
#680=ORIENTED_EDGE('',*,*,#498,.F.);
#681=ORIENTED_EDGE('',*,*,#495,.F.);
#682=ORIENTED_EDGE('',*,*,#504,.F.);
#683=ORIENTED_EDGE('',*,*,#506,.F.);
#684=ORIENTED_EDGE('',*,*,#499,.T.);
#685=ORIENTED_EDGE('',*,*,#506,.T.);
#686=ORIENTED_EDGE('',*,*,#505,.T.);
#687=ORIENTED_EDGE('',*,*,#502,.T.);
#688=ORIENTED_EDGE('',*,*,#507,.F.);
#689=ORIENTED_EDGE('',*,*,#508,.T.);
#690=ORIENTED_EDGE('',*,*,#509,.F.);
#691=ORIENTED_EDGE('',*,*,#508,.F.);
#692=ORIENTED_EDGE('',*,*,#510,.F.);
#693=ORIENTED_EDGE('',*,*,#511,.F.);
#694=ORIENTED_EDGE('',*,*,#512,.F.);
#695=ORIENTED_EDGE('',*,*,#513,.F.);
#696=ORIENTED_EDGE('',*,*,#514,.F.);
#697=ORIENTED_EDGE('',*,*,#515,.F.);
#698=ORIENTED_EDGE('',*,*,#516,.T.);
#699=ORIENTED_EDGE('',*,*,#511,.T.);
#700=ORIENTED_EDGE('',*,*,#510,.T.);
#701=ORIENTED_EDGE('',*,*,#516,.F.);
#702=ORIENTED_EDGE('',*,*,#512,.T.);
#703=ORIENTED_EDGE('',*,*,#517,.T.);
#704=ORIENTED_EDGE('',*,*,#518,.F.);
#705=ORIENTED_EDGE('',*,*,#519,.F.);
#706=ORIENTED_EDGE('',*,*,#517,.F.);
#707=ORIENTED_EDGE('',*,*,#513,.T.);
#708=ORIENTED_EDGE('',*,*,#520,.T.);
#709=ORIENTED_EDGE('',*,*,#521,.F.);
#710=ORIENTED_EDGE('',*,*,#522,.F.);
#711=ORIENTED_EDGE('',*,*,#523,.T.);
#712=ORIENTED_EDGE('',*,*,#518,.T.);
#713=ORIENTED_EDGE('',*,*,#519,.T.);
#714=ORIENTED_EDGE('',*,*,#524,.T.);
#715=ORIENTED_EDGE('',*,*,#525,.F.);
#716=ORIENTED_EDGE('',*,*,#520,.F.);
#717=ORIENTED_EDGE('',*,*,#526,.T.);
#718=ORIENTED_EDGE('',*,*,#527,.F.);
#719=ORIENTED_EDGE('',*,*,#528,.T.);
#720=ORIENTED_EDGE('',*,*,#522,.T.);
#721=ORIENTED_EDGE('',*,*,#529,.F.);
#722=ORIENTED_EDGE('',*,*,#528,.F.);
#723=ORIENTED_EDGE('',*,*,#530,.F.);
#724=ORIENTED_EDGE('',*,*,#526,.F.);
#725=ORIENTED_EDGE('',*,*,#523,.F.);
#726=ORIENTED_EDGE('',*,*,#507,.T.);
#727=ORIENTED_EDGE('',*,*,#527,.T.);
#728=ORIENTED_EDGE('',*,*,#531,.F.);
#729=ORIENTED_EDGE('',*,*,#524,.F.);
#730=ORIENTED_EDGE('',*,*,#530,.T.);
#731=ORIENTED_EDGE('',*,*,#514,.T.);
#732=ORIENTED_EDGE('',*,*,#515,.T.);
#733=ORIENTED_EDGE('',*,*,#509,.T.);
#734=ORIENTED_EDGE('',*,*,#532,.T.);
#735=ORIENTED_EDGE('',*,*,#525,.T.);
#736=ORIENTED_EDGE('',*,*,#531,.T.);
#737=ORIENTED_EDGE('',*,*,#529,.T.);
#738=ORIENTED_EDGE('',*,*,#521,.T.);
#739=ORIENTED_EDGE('',*,*,#532,.F.);
#740=ORIENTED_EDGE('',*,*,#533,.T.);
#741=ORIENTED_EDGE('',*,*,#534,.T.);
#742=ORIENTED_EDGE('',*,*,#535,.T.);
#743=ORIENTED_EDGE('',*,*,#536,.T.);
#744=ORIENTED_EDGE('',*,*,#537,.T.);
#745=ORIENTED_EDGE('',*,*,#538,.T.);
#746=ORIENTED_EDGE('',*,*,#533,.F.);
#747=ORIENTED_EDGE('',*,*,#539,.T.);
#748=ORIENTED_EDGE('',*,*,#540,.F.);
#749=ORIENTED_EDGE('',*,*,#541,.T.);
#750=ORIENTED_EDGE('',*,*,#534,.F.);
#751=ORIENTED_EDGE('',*,*,#538,.F.);
#752=ORIENTED_EDGE('',*,*,#542,.T.);
#753=ORIENTED_EDGE('',*,*,#542,.F.);
#754=ORIENTED_EDGE('',*,*,#537,.F.);
#755=ORIENTED_EDGE('',*,*,#543,.F.);
#756=ORIENTED_EDGE('',*,*,#544,.T.);
#757=ORIENTED_EDGE('',*,*,#544,.F.);
#758=ORIENTED_EDGE('',*,*,#545,.T.);
#759=ORIENTED_EDGE('',*,*,#535,.F.);
#760=ORIENTED_EDGE('',*,*,#541,.F.);
#761=ORIENTED_EDGE('',*,*,#546,.F.);
#762=ORIENTED_EDGE('',*,*,#539,.F.);
#763=ORIENTED_EDGE('',*,*,#536,.F.);
#764=ORIENTED_EDGE('',*,*,#545,.F.);
#765=ORIENTED_EDGE('',*,*,#547,.F.);
#766=ORIENTED_EDGE('',*,*,#540,.T.);
#767=ORIENTED_EDGE('',*,*,#547,.T.);
#768=ORIENTED_EDGE('',*,*,#546,.T.);
#769=ORIENTED_EDGE('',*,*,#543,.T.);
#770=CYLINDRICAL_SURFACE('',#845,30.2500004470348);
#771=CYLINDRICAL_SURFACE('',#848,2.00000000000003);
#772=CYLINDRICAL_SURFACE('',#849,2.00000000000003);
#773=CYLINDRICAL_SURFACE('',#850,31.5000004470348);
#774=CYLINDRICAL_SURFACE('',#853,31.5000004470348);
#775=CYLINDRICAL_SURFACE('',#856,31.5000004470348);
#776=CYLINDRICAL_SURFACE('',#861,31.5000004470348);
#777=CYLINDRICAL_SURFACE('',#882,30.2500004470348);
#778=CYLINDRICAL_SURFACE('',#885,2.00000000000003);
#779=CYLINDRICAL_SURFACE('',#886,2.00000000000003);
#780=CYLINDRICAL_SURFACE('',#887,31.5000004470348);
#781=CYLINDRICAL_SURFACE('',#890,31.5000004470348);
#782=CYLINDRICAL_SURFACE('',#893,31.5000004470348);
#783=CYLINDRICAL_SURFACE('',#898,31.5000004470348);
#784=ADVANCED_FACE('',(#84,#53,#54),#770,.F.);
#785=ADVANCED_FACE('',(#85),#771,.F.);
#786=ADVANCED_FACE('',(#86),#772,.F.);
#787=ADVANCED_FACE('',(#87),#773,.T.);
#788=ADVANCED_FACE('',(#88,#55),#774,.T.);
#789=ADVANCED_FACE('',(#89),#775,.T.);
#790=ADVANCED_FACE('',(#90,#56),#26,.T.);
#791=ADVANCED_FACE('',(#91,#57),#776,.T.);
#792=ADVANCED_FACE('',(#92,#58),#27,.T.);
#793=ADVANCED_FACE('',(#93),#28,.T.);
#794=ADVANCED_FACE('',(#94),#29,.T.);
#795=ADVANCED_FACE('',(#95,#59),#30,.T.);
#796=ADVANCED_FACE('',(#96),#31,.T.);
#797=ADVANCED_FACE('',(#97),#32,.T.);
#798=ADVANCED_FACE('',(#98),#33,.T.);
#799=ADVANCED_FACE('',(#99),#34,.T.);
#800=ADVANCED_FACE('',(#100),#35,.T.);
#801=ADVANCED_FACE('',(#101),#36,.T.);
#802=ADVANCED_FACE('',(#102,#60),#37,.T.);
#803=ADVANCED_FACE('',(#103),#38,.T.);
#804=ADVANCED_FACE('',(#104),#39,.T.);
#805=ADVANCED_FACE('',(#105),#40,.T.);
#806=ADVANCED_FACE('',(#106),#41,.T.);
#807=ADVANCED_FACE('',(#107,#61),#42,.T.);
#808=ADVANCED_FACE('',(#108),#43,.T.);
#809=ADVANCED_FACE('',(#109),#44,.T.);
#810=ADVANCED_FACE('',(#110),#45,.T.);
#811=ADVANCED_FACE('',(#111,#62,#63),#777,.F.);
#812=ADVANCED_FACE('',(#112),#778,.F.);
#813=ADVANCED_FACE('',(#113),#779,.F.);
#814=ADVANCED_FACE('',(#114,#64),#780,.T.);
#815=ADVANCED_FACE('',(#115),#781,.T.);
#816=ADVANCED_FACE('',(#116),#782,.T.);
#817=ADVANCED_FACE('',(#117,#65),#46,.T.);
#818=ADVANCED_FACE('',(#118,#66),#783,.T.);
#819=ADVANCED_FACE('',(#119),#13,.T.);
#820=ADVANCED_FACE('',(#120),#47,.T.);
#821=ADVANCED_FACE('',(#121),#48,.T.);
#822=ADVANCED_FACE('',(#122,#67),#49,.T.);
#823=ADVANCED_FACE('',(#123),#50,.T.);
#824=ADVANCED_FACE('',(#124),#51,.T.);
#825=ADVANCED_FACE('',(#125),#52,.T.);
#826=CLOSED_SHELL('',(#784,#785,#786,#787,#788,#789,#790,#791,#792));
#827=CLOSED_SHELL('',(#793,#794,#795,#796,#797,#798));
#828=CLOSED_SHELL('',(#799,#800,#801,#802,#803,#804));
#829=CLOSED_SHELL('',(#805,#806,#807,#808,#809,#810));
#830=CLOSED_SHELL('',(#811,#812,#813,#814,#815,#816,#817,#818,#819));
#831=CLOSED_SHELL('',(#820,#821,#822,#823,#824,#825));
#832=DERIVED_UNIT_ELEMENT(#834,1.);
#833=DERIVED_UNIT_ELEMENT(#1623,-3.);
#834=(
MASS_UNIT()
NAMED_UNIT(*)
SI_UNIT(.KILO.,.GRAM.)
);
#835=DERIVED_UNIT((#832,#833));
#836=MEASURE_REPRESENTATION_ITEM('density measure',
POSITIVE_RATIO_MEASURE(7850.),#835);
#837=PROPERTY_DEFINITION_REPRESENTATION(#842,#839);
#838=PROPERTY_DEFINITION_REPRESENTATION(#843,#840);
#839=REPRESENTATION('material name',(#841),#1620);
#840=REPRESENTATION('density',(#836),#1620);
#841=DESCRIPTIVE_REPRESENTATION_ITEM('\X2\94A2\X0\','\X2\94A2\X0\');
#842=PROPERTY_DEFINITION('material property','material name',#1630);
#843=PROPERTY_DEFINITION('material property','density of part',#1630);
#844=AXIS2_PLACEMENT_3D('',#1108,#907,#908);
#845=AXIS2_PLACEMENT_3D('',#1109,#909,#910);
#846=AXIS2_PLACEMENT_3D('',#1111,#911,#912);
#847=AXIS2_PLACEMENT_3D('',#1114,#914,#915);
#848=AXIS2_PLACEMENT_3D('',#1191,#916,#917);
#849=AXIS2_PLACEMENT_3D('',#1231,#919,#920);
#850=AXIS2_PLACEMENT_3D('',#1271,#922,#923);
#851=AXIS2_PLACEMENT_3D('',#1276,#925,#926);
#852=AXIS2_PLACEMENT_3D('',#1279,#928,#929);
#853=AXIS2_PLACEMENT_3D('',#1280,#930,#931);
#854=AXIS2_PLACEMENT_3D('',#1282,#932,#933);
#855=AXIS2_PLACEMENT_3D('',#1285,#935,#936);
#856=AXIS2_PLACEMENT_3D('',#1286,#937,#938);
#857=AXIS2_PLACEMENT_3D('',#1288,#939,#940);
#858=AXIS2_PLACEMENT_3D('',#1291,#942,#943);
#859=AXIS2_PLACEMENT_3D('',#1292,#944,#945);
#860=AXIS2_PLACEMENT_3D('',#1293,#946,#947);
#861=AXIS2_PLACEMENT_3D('',#1294,#948,#949);
#862=AXIS2_PLACEMENT_3D('',#1295,#950,#951);
#863=AXIS2_PLACEMENT_3D('',#1296,#952,#953);
#864=AXIS2_PLACEMENT_3D('',#1297,#954,#955);
#865=AXIS2_PLACEMENT_3D('',#1306,#960,#961);
#866=AXIS2_PLACEMENT_3D('',#1314,#966,#967);
#867=AXIS2_PLACEMENT_3D('',#1323,#972,#973);
#868=AXIS2_PLACEMENT_3D('',#1327,#976,#977);
#869=AXIS2_PLACEMENT_3D('',#1329,#979,#980);
#870=AXIS2_PLACEMENT_3D('',#1330,#981,#982);
#871=AXIS2_PLACEMENT_3D('',#1339,#987,#988);
#872=AXIS2_PLACEMENT_3D('',#1345,#992,#993);
#873=AXIS2_PLACEMENT_3D('',#1349,#996,#997);
#874=AXIS2_PLACEMENT_3D('',#1360,#1003,#1004);
#875=AXIS2_PLACEMENT_3D('',#1362,#1006,#1007);
#876=AXIS2_PLACEMENT_3D('',#1363,#1008,#1009);
#877=AXIS2_PLACEMENT_3D('',#1372,#1014,#1015);
#878=AXIS2_PLACEMENT_3D('',#1380,#1020,#1021);
#879=AXIS2_PLACEMENT_3D('',#1389,#1026,#1027);
#880=AXIS2_PLACEMENT_3D('',#1393,#1030,#1031);
#881=AXIS2_PLACEMENT_3D('',#1395,#1033,#1034);
#882=AXIS2_PLACEMENT_3D('',#1396,#1035,#1036);
#883=AXIS2_PLACEMENT_3D('',#1398,#1037,#1038);
#884=AXIS2_PLACEMENT_3D('',#1401,#1040,#1041);
#885=AXIS2_PLACEMENT_3D('',#1478,#1042,#1043);
#886=AXIS2_PLACEMENT_3D('',#1518,#1045,#1046);
#887=AXIS2_PLACEMENT_3D('',#1558,#1048,#1049);
#888=AXIS2_PLACEMENT_3D('',#1563,#1051,#1052);
#889=AXIS2_PLACEMENT_3D('',#1566,#1054,#1055);
#890=AXIS2_PLACEMENT_3D('',#1567,#1056,#1057);
#891=AXIS2_PLACEMENT_3D('',#1571,#1059,#1060);
#892=AXIS2_PLACEMENT_3D('',#1572,#1061,#1062);
#893=AXIS2_PLACEMENT_3D('',#1573,#1063,#1064);
#894=AXIS2_PLACEMENT_3D('',#1577,#1066,#1067);
#895=AXIS2_PLACEMENT_3D('',#1578,#1068,#1069);
#896=AXIS2_PLACEMENT_3D('',#1579,#1070,#1071);
#897=AXIS2_PLACEMENT_3D('',#1580,#1072,#1073);
#898=AXIS2_PLACEMENT_3D('',#1581,#1074,#1075);
#899=AXIS2_PLACEMENT_3D('',#1582,#1076,#1077);
#900=AXIS2_PLACEMENT_3D('',#1583,#1078,#1079);
#901=AXIS2_PLACEMENT_3D('',#1585,#1081,#1082);
#902=AXIS2_PLACEMENT_3D('',#1594,#1087,#1088);
#903=AXIS2_PLACEMENT_3D('',#1602,#1093,#1094);
#904=AXIS2_PLACEMENT_3D('',#1611,#1099,#1100);
#905=AXIS2_PLACEMENT_3D('',#1615,#1103,#1104);
#906=AXIS2_PLACEMENT_3D('',#1617,#1106,#1107);
#907=DIRECTION('axis',(0.,0.,1.));
#908=DIRECTION('refdir',(1.,0.,0.));
#909=DIRECTION('center_axis',(1.,0.,0.));
#910=DIRECTION('ref_axis',(0.,0.,-1.));
#911=DIRECTION('center_axis',(1.,0.,0.));
#912=DIRECTION('ref_axis',(0.,0.,-1.));
#913=DIRECTION('',(1.,0.,0.));
#914=DIRECTION('center_axis',(-1.,0.,0.));
#915=DIRECTION('ref_axis',(0.,0.,-1.));
#916=DIRECTION('center_axis',(0.,0.707106781186548,0.707106781186547));
#917=DIRECTION('ref_axis',(1.,0.,0.));
#918=DIRECTION('',(0.,0.707106781186548,0.707106781186547));
#919=DIRECTION('center_axis',(0.,0.707106781186548,0.707106781186547));
#920=DIRECTION('ref_axis',(1.,0.,0.));
#921=DIRECTION('',(0.,0.707106781186548,0.707106781186547));
#922=DIRECTION('center_axis',(1.,0.,0.));
#923=DIRECTION('ref_axis',(0.,0.,-1.));
#924=DIRECTION('',(1.,0.,0.));
#925=DIRECTION('center_axis',(1.,0.,0.));
#926=DIRECTION('ref_axis',(0.,0.,-1.));
#927=DIRECTION('',(1.,0.,0.));
#928=DIRECTION('center_axis',(1.,0.,0.));
#929=DIRECTION('ref_axis',(0.,0.,-1.));
#930=DIRECTION('center_axis',(1.,0.,0.));
#931=DIRECTION('ref_axis',(0.,0.,-1.));
#932=DIRECTION('center_axis',(1.,0.,0.));
#933=DIRECTION('ref_axis',(0.,0.,-1.));
#934=DIRECTION('',(1.,0.,0.));
#935=DIRECTION('center_axis',(1.,0.,0.));
#936=DIRECTION('ref_axis',(0.,0.,-1.));
#937=DIRECTION('center_axis',(1.,0.,0.));
#938=DIRECTION('ref_axis',(0.,0.,-1.));
#939=DIRECTION('center_axis',(1.,0.,0.));
#940=DIRECTION('ref_axis',(0.,0.,-1.));
#941=DIRECTION('',(1.,0.,0.));
#942=DIRECTION('center_axis',(1.,0.,0.));
#943=DIRECTION('ref_axis',(0.,0.,-1.));
#944=DIRECTION('center_axis',(-1.,0.,0.));
#945=DIRECTION('ref_axis',(0.,0.,1.));
#946=DIRECTION('center_axis',(1.,0.,0.));
#947=DIRECTION('ref_axis',(0.,0.,-1.));
#948=DIRECTION('center_axis',(1.,0.,0.));
#949=DIRECTION('ref_axis',(0.,0.,-1.));
#950=DIRECTION('center_axis',(1.,0.,0.));
#951=DIRECTION('ref_axis',(0.,0.,-1.));
#952=DIRECTION('center_axis',(1.,0.,0.));
#953=DIRECTION('ref_axis',(0.,0.,-1.));
#954=DIRECTION('center_axis',(0.,6.12323399573677E-17,-1.));
#955=DIRECTION('ref_axis',(0.,1.,6.12323399573677E-17));
#956=DIRECTION('',(-0.478852130680573,0.877895572914384,5.37556001677616E-17));
#957=DIRECTION('',(1.,0.,0.));
#958=DIRECTION('',(0.478852130680573,-0.877895572914384,-5.37556001677616E-17));
#959=DIRECTION('',(-1.,0.,0.));
#960=DIRECTION('center_axis',(-0.877895572914384,-0.478852130680573,-2.93212364551427E-17));
#961=DIRECTION('ref_axis',(-0.478852130680573,0.877895572914384,5.37556001677616E-17));
#962=DIRECTION('',(0.,6.12323399573677E-17,-1.));
#963=DIRECTION('',(0.,6.12323399573677E-17,-1.));
#964=DIRECTION('',(0.,-6.12323399573677E-17,1.));
#965=DIRECTION('',(0.478852130680573,-0.877895572914384,-5.37556001677616E-17));
#966=DIRECTION('center_axis',(0.,1.,6.12323399573677E-17));
#967=DIRECTION('ref_axis',(1.,0.,0.));
#968=DIRECTION('',(0.,6.12323399573677E-17,-1.));
#969=DIRECTION('',(1.,0.,0.));
#970=DIRECTION('',(-1.,0.,0.));
#971=DIRECTION('',(1.,0.,0.));
#972=DIRECTION('center_axis',(0.877895572914384,0.478852130680573,2.93212364551427E-17));
#973=DIRECTION('ref_axis',(0.478852130680573,-0.877895572914384,-5.37556001677616E-17));
#974=DIRECTION('',(0.,6.12323399573677E-17,-1.));
#975=DIRECTION('',(-0.478852130680573,0.877895572914384,5.37556001677616E-17));
#976=DIRECTION('center_axis',(0.,-1.,-6.12323399573677E-17));
#977=DIRECTION('ref_axis',(-1.,0.,0.));
#978=DIRECTION('',(1.,0.,0.));
#979=DIRECTION('center_axis',(0.,-6.12323399573677E-17,1.));
#980=DIRECTION('ref_axis',(0.,-1.,-6.12323399573677E-17));
#981=DIRECTION('center_axis',(0.,-1.,0.));
#982=DIRECTION('ref_axis',(0.,0.,-1.));
#983=DIRECTION('',(0.478852130680573,0.,-0.877895572914384));
#984=DIRECTION('',(1.,0.,0.));
#985=DIRECTION('',(-0.478852130680573,0.,0.877895572914384));
#986=DIRECTION('',(-1.,0.,0.));
#987=DIRECTION('center_axis',(0.,0.,-1.));
#988=DIRECTION('ref_axis',(-1.,0.,0.));
#989=DIRECTION('',(0.,-1.,0.));
#990=DIRECTION('',(-1.,0.,0.));
#991=DIRECTION('',(0.,1.,0.));
#992=DIRECTION('center_axis',(0.877895572914384,0.,0.478852130680573));
#993=DIRECTION('ref_axis',(0.478852130680573,0.,-0.877895572914384));
#994=DIRECTION('',(0.478852130680573,0.,-0.877895572914384));
#995=DIRECTION('',(0.,1.,0.));
#996=DIRECTION('center_axis',(0.,0.,1.));
#997=DIRECTION('ref_axis',(1.,0.,0.));
#998=DIRECTION('',(1.,0.,0.));
#999=DIRECTION('',(0.,1.,0.));
#1000=DIRECTION('',(1.,0.,0.));
#1001=DIRECTION('',(0.,1.,0.));
#1002=DIRECTION('',(1.,0.,0.));
#1003=DIRECTION('center_axis',(-0.877895572914384,0.,-0.478852130680573));
#1004=DIRECTION('ref_axis',(-0.478852130680573,0.,0.877895572914384));
#1005=DIRECTION('',(-0.478852130680573,0.,0.877895572914384));
#1006=DIRECTION('center_axis',(0.,1.,0.));
#1007=DIRECTION('ref_axis',(0.,0.,1.));
#1008=DIRECTION('center_axis',(0.,-1.,-1.22464679914735E-16));
#1009=DIRECTION('ref_axis',(0.,1.22464679914735E-16,-1.));
#1010=DIRECTION('',(-0.478852130680573,1.07511200335523E-16,-0.877895572914384));
#1011=DIRECTION('',(1.,0.,0.));
#1012=DIRECTION('',(0.478852130680573,-1.07511200335523E-16,0.877895572914384));
#1013=DIRECTION('',(-1.,0.,0.));
#1014=DIRECTION('center_axis',(-0.877895572914384,-5.86424729102854E-17,
0.478852130680573));
#1015=DIRECTION('ref_axis',(-0.478852130680573,1.07511200335523E-16,-0.877895572914384));
#1016=DIRECTION('',(0.,-1.,-1.22464679914735E-16));
#1017=DIRECTION('',(0.,-1.,-1.22464679914735E-16));
#1018=DIRECTION('',(0.,1.,1.22464679914735E-16));
#1019=DIRECTION('',(0.478852130680573,-1.07511200335523E-16,0.877895572914384));
#1020=DIRECTION('center_axis',(0.,1.22464679914735E-16,-1.));
#1021=DIRECTION('ref_axis',(1.,0.,0.));
#1022=DIRECTION('',(0.,-1.,-1.22464679914735E-16));
#1023=DIRECTION('',(1.,0.,0.));
#1024=DIRECTION('',(-1.,0.,0.));
#1025=DIRECTION('',(1.,0.,0.));
#1026=DIRECTION('center_axis',(0.877895572914384,5.86424729102854E-17,-0.478852130680573));
#1027=DIRECTION('ref_axis',(0.478852130680573,-1.07511200335523E-16,0.877895572914384));
#1028=DIRECTION('',(0.,-1.,-1.22464679914735E-16));
#1029=DIRECTION('',(-0.478852130680573,1.07511200335523E-16,-0.877895572914384));
#1030=DIRECTION('center_axis',(0.,-1.22464679914735E-16,1.));
#1031=DIRECTION('ref_axis',(-1.,0.,0.));
#1032=DIRECTION('',(1.,0.,0.));
#1033=DIRECTION('center_axis',(0.,1.,1.22464679914735E-16));
#1034=DIRECTION('ref_axis',(0.,-1.22464679914735E-16,1.));
#1035=DIRECTION('center_axis',(1.,0.,0.));
#1036=DIRECTION('ref_axis',(0.,0.,-1.));
#1037=DIRECTION('center_axis',(1.,0.,0.));
#1038=DIRECTION('ref_axis',(0.,0.,-1.));
#1039=DIRECTION('',(1.,0.,0.));
#1040=DIRECTION('center_axis',(-1.,0.,0.));
#1041=DIRECTION('ref_axis',(0.,0.,-1.));
#1042=DIRECTION('center_axis',(0.,0.707106781186547,0.707106781186548));
#1043=DIRECTION('ref_axis',(1.,0.,0.));
#1044=DIRECTION('',(0.,0.707106781186547,0.707106781186548));
#1045=DIRECTION('center_axis',(0.,0.707106781186547,0.707106781186548));
#1046=DIRECTION('ref_axis',(1.,0.,0.));
#1047=DIRECTION('',(0.,0.707106781186547,0.707106781186548));
#1048=DIRECTION('center_axis',(1.,0.,0.));
#1049=DIRECTION('ref_axis',(0.,0.,-1.));
#1050=DIRECTION('',(1.,0.,0.));
#1051=DIRECTION('center_axis',(1.,0.,0.));
#1052=DIRECTION('ref_axis',(0.,0.,-1.));
#1053=DIRECTION('',(1.,0.,0.));
#1054=DIRECTION('center_axis',(1.,0.,0.));
#1055=DIRECTION('ref_axis',(0.,0.,-1.));
#1056=DIRECTION('center_axis',(1.,0.,0.));
#1057=DIRECTION('ref_axis',(0.,0.,-1.));
#1058=DIRECTION('',(1.,0.,0.));
#1059=DIRECTION('center_axis',(1.,0.,0.));
#1060=DIRECTION('ref_axis',(0.,0.,-1.));
#1061=DIRECTION('center_axis',(1.,0.,0.));
#1062=DIRECTION('ref_axis',(0.,0.,-1.));
#1063=DIRECTION('center_axis',(1.,0.,0.));
#1064=DIRECTION('ref_axis',(0.,0.,-1.));
#1065=DIRECTION('',(1.,0.,0.));
#1066=DIRECTION('center_axis',(1.,0.,0.));
#1067=DIRECTION('ref_axis',(0.,0.,-1.));
#1068=DIRECTION('center_axis',(1.,0.,0.));
#1069=DIRECTION('ref_axis',(0.,0.,-1.));
#1070=DIRECTION('center_axis',(-1.,0.,0.));
#1071=DIRECTION('ref_axis',(0.,0.,1.));
#1072=DIRECTION('center_axis',(1.,0.,0.));
#1073=DIRECTION('ref_axis',(0.,0.,-1.));
#1074=DIRECTION('center_axis',(1.,0.,0.));
#1075=DIRECTION('ref_axis',(0.,0.,-1.));
#1076=DIRECTION('center_axis',(1.,0.,0.));
#1077=DIRECTION('ref_axis',(0.,0.,-1.));
#1078=DIRECTION('center_axis',(-1.,0.,0.));
#1079=DIRECTION('ref_axis',(0.,0.,-1.));
#1080=DIRECTION('',(-0.0232223122298551,-1.22431654343446E-16,0.999730325745248));
#1081=DIRECTION('center_axis',(0.,-1.83697019872103E-16,1.));
#1082=DIRECTION('ref_axis',(0.,-1.,-1.83697019872103E-16));
#1083=DIRECTION('',(-0.478852130680573,-0.877895572914384,-1.61266800503285E-16));
#1084=DIRECTION('',(1.,0.,0.));
#1085=DIRECTION('',(0.478852130680573,0.877895572914384,1.61266800503285E-16));
#1086=DIRECTION('',(-1.,0.,0.));
#1087=DIRECTION('center_axis',(-0.877895572914384,0.478852130680573,8.79637093654281E-17));
#1088=DIRECTION('ref_axis',(-0.478852130680573,-0.877895572914384,-1.61266800503285E-16));
#1089=DIRECTION('',(0.,-1.83697019872103E-16,1.));
#1090=DIRECTION('',(0.,-1.83697019872103E-16,1.));
#1091=DIRECTION('',(0.,1.83697019872103E-16,-1.));
#1092=DIRECTION('',(0.478852130680573,0.877895572914384,1.61266800503285E-16));
#1093=DIRECTION('center_axis',(0.,-1.,-1.83697019872103E-16));
#1094=DIRECTION('ref_axis',(1.,0.,0.));
#1095=DIRECTION('',(0.,-1.83697019872103E-16,1.));
#1096=DIRECTION('',(1.,0.,0.));
#1097=DIRECTION('',(-1.,0.,0.));
#1098=DIRECTION('',(1.,0.,0.));
#1099=DIRECTION('center_axis',(0.877895572914384,-0.478852130680573,-8.79637093654281E-17));
#1100=DIRECTION('ref_axis',(0.478852130680573,0.877895572914384,1.61266800503285E-16));
#1101=DIRECTION('',(0.,-1.83697019872103E-16,1.));
#1102=DIRECTION('',(-0.478852130680573,-0.877895572914384,-1.61266800503285E-16));
#1103=DIRECTION('center_axis',(0.,1.,1.83697019872103E-16));
#1104=DIRECTION('ref_axis',(-1.,0.,0.));
#1105=DIRECTION('',(1.,0.,0.));
#1106=DIRECTION('center_axis',(0.,1.83697019872103E-16,-1.));
#1107=DIRECTION('ref_axis',(0.,1.,1.83697019872103E-16));
#1108=CARTESIAN_POINT('',(0.,0.,0.));
#1109=CARTESIAN_POINT('Origin',(615.997106128609,0.,0.));
#1110=CARTESIAN_POINT('',(595.000009909272,-3.70455662216672E-15,30.2500004470348));
#1111=CARTESIAN_POINT('Origin',(595.000009909272,0.,0.));
#1112=CARTESIAN_POINT('',(610.000009089708,3.70455662216672E-15,30.2500004470348));
#1113=CARTESIAN_POINT('',(615.997106128609,-3.70455662216672E-15,30.2500004470348));
#1114=CARTESIAN_POINT('Origin',(610.000009089708,0.,0.));
#1115=CARTESIAN_POINT('',(603.0000089854,19.9380359728776,22.7494450171833));
#1116=CARTESIAN_POINT('',(601.0000089854,21.3984877947454,21.3814697143049));
#1117=CARTESIAN_POINT('Ctrl Pts',(603.0000089854,19.9380359728776,22.7494450171833));
#1118=CARTESIAN_POINT('Ctrl Pts',(602.748806090427,19.9380359728776,22.7494450171833));
#1119=CARTESIAN_POINT('Ctrl Pts',(602.480908907515,19.975976841863,22.7163670540016));
#1120=CARTESIAN_POINT('Ctrl Pts',(601.988170482424,20.129094615512,22.5808000934181));
#1121=CARTESIAN_POINT('Ctrl Pts',(601.76332306384,20.2441411476573,22.4781863543467));
#1122=CARTESIAN_POINT('Ctrl Pts',(601.408262247748,20.5068585726263,22.2387693781256));
#1123=CARTESIAN_POINT('Ctrl Pts',(601.254354672418,20.6720397265428,22.0859692016918));
#1124=CARTESIAN_POINT('Ctrl Pts',(601.050226039241,21.0291376919911,21.7462325464567));
#1125=CARTESIAN_POINT('Ctrl Pts',(601.0000089854,21.220932930324,21.5591658993655));
#1126=CARTESIAN_POINT('Ctrl Pts',(601.0000089854,21.3984877947454,21.3814697143049));
#1127=CARTESIAN_POINT('Ctrl Pts',(601.0000089854,21.3984877947454,21.3814697143049));
#1128=CARTESIAN_POINT('Ctrl Pts',(601.0000089854,21.5760462903245,21.2037698951966));
#1129=CARTESIAN_POINT('Ctrl Pts',(601.050227875793,21.7629638085049,21.0118221739627));
#1130=CARTESIAN_POINT('Ctrl Pts',(601.254359593932,22.1024237911554,20.6544457044303));
#1131=CARTESIAN_POINT('Ctrl Pts',(601.408268321395,22.2550965421933,20.4891383911348));
#1132=CARTESIAN_POINT('Ctrl Pts',(601.763328345949,22.4943100432783,20.2262238009247));
#1133=CARTESIAN_POINT('Ctrl Pts',(601.988173417713,22.5968354413113,20.1110917601574));
#1134=CARTESIAN_POINT('Ctrl Pts',(602.480908892501,22.7322857992657,19.9578597576887));
#1135=CARTESIAN_POINT('Ctrl Pts',(602.748805570056,22.7653354679122,19.9198902627255));
#1136=CARTESIAN_POINT('Ctrl Pts',(603.251212400744,22.7653354679122,19.9198902627255));
#1137=CARTESIAN_POINT('Ctrl Pts',(603.519109078299,22.7322857992656,19.9578597576887));
#1138=CARTESIAN_POINT('Ctrl Pts',(604.011844553087,22.5968354413112,20.1110917601575));
#1139=CARTESIAN_POINT('Ctrl Pts',(604.236689624852,22.4943100432783,20.2262238009247));
#1140=CARTESIAN_POINT('Ctrl Pts',(604.591749649405,22.2550965421933,20.4891383911348));
#1141=CARTESIAN_POINT('Ctrl Pts',(604.745658376868,22.1024237911553,20.6544457044303));
#1142=CARTESIAN_POINT('Ctrl Pts',(604.949790095007,21.7629638085049,21.0118221739627));
#1143=CARTESIAN_POINT('Ctrl Pts',(605.0000089854,21.5760462903245,21.2037698951966));
#1144=CARTESIAN_POINT('Ctrl Pts',(605.0000089854,21.220932930324,21.5591658993655));
#1145=CARTESIAN_POINT('Ctrl Pts',(604.94979193156,21.0291376919911,21.7462325464567));
#1146=CARTESIAN_POINT('Ctrl Pts',(604.745663298382,20.6720397265428,22.0859692016918));
#1147=CARTESIAN_POINT('Ctrl Pts',(604.591755723052,20.5068585726263,22.2387693781256));
#1148=CARTESIAN_POINT('Ctrl Pts',(604.23669490696,20.2441411476573,22.4781863543467));
#1149=CARTESIAN_POINT('Ctrl Pts',(604.011847488377,20.129094615512,22.5808000934181));
#1150=CARTESIAN_POINT('Ctrl Pts',(603.519109063285,19.975976841863,22.7163670540016));
#1151=CARTESIAN_POINT('Ctrl Pts',(603.251211880373,19.9380359728776,22.7494450171833));
#1152=CARTESIAN_POINT('Ctrl Pts',(603.0000089854,19.9380359728776,22.7494450171833));
#1153=CARTESIAN_POINT('',(603.0000089854,-22.7494450171833,-19.9380359728776));
#1154=CARTESIAN_POINT('',(601.0000089854,-21.381469714305,-21.3984877947454));
#1155=CARTESIAN_POINT('Ctrl Pts',(603.0000089854,-22.7494450171833,-19.9380359728776));
#1156=CARTESIAN_POINT('Ctrl Pts',(603.251211880373,-22.7494450171833,-19.9380359728776));
#1157=CARTESIAN_POINT('Ctrl Pts',(603.519109063285,-22.7163670540016,-19.975976841863));
#1158=CARTESIAN_POINT('Ctrl Pts',(604.011847488377,-22.5808000934181,-20.1290946155119));
#1159=CARTESIAN_POINT('Ctrl Pts',(604.23669490696,-22.4781863543467,-20.2441411476572));
#1160=CARTESIAN_POINT('Ctrl Pts',(604.591755723052,-22.2387693781256,-20.5068585726263));
#1161=CARTESIAN_POINT('Ctrl Pts',(604.745663298382,-22.0859692016918,-20.6720397265428));
#1162=CARTESIAN_POINT('Ctrl Pts',(604.94979193156,-21.7462325464567,-21.0291376919911));
#1163=CARTESIAN_POINT('Ctrl Pts',(605.0000089854,-21.5591658993655,-21.220932930324));
#1164=CARTESIAN_POINT('Ctrl Pts',(605.0000089854,-21.2037698951966,-21.5760462903245));
#1165=CARTESIAN_POINT('Ctrl Pts',(604.949790095007,-21.0118221739627,-21.7629638085049));
#1166=CARTESIAN_POINT('Ctrl Pts',(604.745658376868,-20.6544457044303,-22.1024237911553));
#1167=CARTESIAN_POINT('Ctrl Pts',(604.591749649405,-20.4891383911348,-22.2550965421933));
#1168=CARTESIAN_POINT('Ctrl Pts',(604.236689624852,-20.2262238009247,-22.4943100432783));
#1169=CARTESIAN_POINT('Ctrl Pts',(604.011844553087,-20.1110917601575,-22.5968354413113));
#1170=CARTESIAN_POINT('Ctrl Pts',(603.519109078299,-19.9578597576887,-22.7322857992656));
#1171=CARTESIAN_POINT('Ctrl Pts',(603.251212400744,-19.9198902627255,-22.7653354679122));
#1172=CARTESIAN_POINT('Ctrl Pts',(602.748805570056,-19.9198902627255,-22.7653354679122));
#1173=CARTESIAN_POINT('Ctrl Pts',(602.480908892501,-19.9578597576887,-22.7322857992656));
#1174=CARTESIAN_POINT('Ctrl Pts',(601.988173417713,-20.1110917601574,-22.5968354413113));
#1175=CARTESIAN_POINT('Ctrl Pts',(601.763328345949,-20.2262238009247,-22.4943100432783));
#1176=CARTESIAN_POINT('Ctrl Pts',(601.408268321395,-20.4891383911348,-22.2550965421933));
#1177=CARTESIAN_POINT('Ctrl Pts',(601.254359593932,-20.6544457044303,-22.1024237911553));
#1178=CARTESIAN_POINT('Ctrl Pts',(601.050227875793,-21.0118221739627,-21.7629638085049));
#1179=CARTESIAN_POINT('Ctrl Pts',(601.0000089854,-21.2037698951966,-21.5760462903245));
#1180=CARTESIAN_POINT('Ctrl Pts',(601.0000089854,-21.381469714305,-21.3984877947454));
#1181=CARTESIAN_POINT('Ctrl Pts',(601.0000089854,-21.381469714305,-21.3984877947454));
#1182=CARTESIAN_POINT('Ctrl Pts',(601.0000089854,-21.5591658993655,-21.220932930324));
#1183=CARTESIAN_POINT('Ctrl Pts',(601.050226039241,-21.7462325464567,-21.0291376919911));
#1184=CARTESIAN_POINT('Ctrl Pts',(601.254354672418,-22.0859692016918,-20.6720397265428));
#1185=CARTESIAN_POINT('Ctrl Pts',(601.408262247748,-22.2387693781256,-20.5068585726263));
#1186=CARTESIAN_POINT('Ctrl Pts',(601.76332306384,-22.4781863543467,-20.2441411476572));
#1187=CARTESIAN_POINT('Ctrl Pts',(601.988170482424,-22.5808000934181,-20.1290946155119));
#1188=CARTESIAN_POINT('Ctrl Pts',(602.480908907515,-22.7163670540016,-19.975976841863));
#1189=CARTESIAN_POINT('Ctrl Pts',(602.748806090427,-22.7494450171833,-19.9380359728776));
#1190=CARTESIAN_POINT('Ctrl Pts',(603.0000089854,-22.7494450171833,-19.9380359728776));
#1191=CARTESIAN_POINT('Origin',(603.0000089854,0.00850904022022169,-0.00850904022022169));
#1192=CARTESIAN_POINT('',(603.0000089854,-23.6351671534896,-20.8237581091838));
#1193=CARTESIAN_POINT('',(601.0000089854,-22.2653532579496,-22.2823713383901));
#1194=CARTESIAN_POINT('Ctrl Pts',(603.0000089854,-23.6351671534896,-20.8237581091838));
#1195=CARTESIAN_POINT('Ctrl Pts',(603.251205761943,-23.6351671534896,-20.8237581091838));
#1196=CARTESIAN_POINT('Ctrl Pts',(603.519100292387,-23.6019938687455,-20.8616002804649));
#1197=CARTESIAN_POINT('Ctrl Pts',(604.01184030083,-23.4660787046203,-21.0143672532071));
#1198=CARTESIAN_POINT('Ctrl Pts',(604.236691471522,-23.3632170148175,-21.1291670500718));
#1199=CARTESIAN_POINT('Ctrl Pts',(604.591758735694,-23.1233325330971,-21.3914258877279));
#1200=CARTESIAN_POINT('Ctrl Pts',(604.745667279161,-22.9702837994882,-21.5563638588162));
#1201=CARTESIAN_POINT('Ctrl Pts',(604.949794250281,-22.6302011996306,-21.9131183154392));
#1202=CARTESIAN_POINT('Ctrl Pts',(605.0000089854,-22.4430424550747,-22.104817850746));
#1203=CARTESIAN_POINT('Ctrl Pts',(605.0000089854,-22.0876607099822,-22.4599281743173));
#1204=CARTESIAN_POINT('Ctrl Pts',(604.949792556879,-21.895814815171,-22.6469436519272));
#1205=CARTESIAN_POINT('Ctrl Pts',(604.745662741185,-21.5387929690091,-22.9867605510762));
#1206=CARTESIAN_POINT('Ctrl Pts',(604.59175313532,-21.3737338407733,-23.1396869603981));
#1207=CARTESIAN_POINT('Ctrl Pts',(604.236686600603,-21.1112855803646,-23.3793762012598));
#1208=CARTESIAN_POINT('Ctrl Pts',(604.011837593703,-20.9964036387699,-23.4821531347427));
#1209=CARTESIAN_POINT('Ctrl Pts',(603.519100305448,-20.8435269689658,-23.6179564128225));
#1210=CARTESIAN_POINT('Ctrl Pts',(603.251206241039,-20.8056573311235,-23.6511025363102));
#1211=CARTESIAN_POINT('Ctrl Pts',(602.748811729761,-20.8056573311235,-23.6511025363102));
#1212=CARTESIAN_POINT('Ctrl Pts',(602.480917665353,-20.8435269689658,-23.6179564128225));
#1213=CARTESIAN_POINT('Ctrl Pts',(601.988180377097,-20.9964036387698,-23.4821531347427));
#1214=CARTESIAN_POINT('Ctrl Pts',(601.763331370198,-21.1112855803646,-23.3793762012598));
#1215=CARTESIAN_POINT('Ctrl Pts',(601.40826483548,-21.3737338407733,-23.1396869603981));
#1216=CARTESIAN_POINT('Ctrl Pts',(601.254355229615,-21.5387929690091,-22.9867605510762));
#1217=CARTESIAN_POINT('Ctrl Pts',(601.050225413921,-21.895814815171,-22.6469436519272));
#1218=CARTESIAN_POINT('Ctrl Pts',(601.0000089854,-22.0876607099822,-22.4599281743173));
#1219=CARTESIAN_POINT('Ctrl Pts',(601.0000089854,-22.2653532579496,-22.2823713383901));
#1220=CARTESIAN_POINT('Ctrl Pts',(601.0000089854,-22.2653532579496,-22.2823713383901));
#1221=CARTESIAN_POINT('Ctrl Pts',(601.0000089854,-22.4430424550747,-22.104817850746));
#1222=CARTESIAN_POINT('Ctrl Pts',(601.050223720519,-22.6302011996306,-21.9131183154392));
#1223=CARTESIAN_POINT('Ctrl Pts',(601.25435069164,-22.9702837994882,-21.5563638588162));
#1224=CARTESIAN_POINT('Ctrl Pts',(601.408259235107,-23.1233325330971,-21.3914258877279));
#1225=CARTESIAN_POINT('Ctrl Pts',(601.763326499278,-23.3632170148175,-21.1291670500718));
#1226=CARTESIAN_POINT('Ctrl Pts',(601.98817766997,-23.4660787046203,-21.0143672532071));
#1227=CARTESIAN_POINT('Ctrl Pts',(602.480917678413,-23.6019938687455,-20.8616002804649));
#1228=CARTESIAN_POINT('Ctrl Pts',(602.748812208857,-23.6351671534896,-20.8237581091838));
#1229=CARTESIAN_POINT('Ctrl Pts',(603.0000089854,-23.6351671534896,-20.8237581091838));
#1230=CARTESIAN_POINT('',(601.0000089854,0.00850904022022152,-0.00850904022022152));
#1231=CARTESIAN_POINT('Origin',(603.0000089854,0.00850904022022169,-0.00850904022022169));
#1232=CARTESIAN_POINT('',(601.0000089854,22.2823713383901,22.2653532579496));
#1233=CARTESIAN_POINT('',(601.0000089854,0.00850904022022152,-0.00850904022022152));
#1234=CARTESIAN_POINT('',(603.0000089854,20.8237581091838,23.6351671534896));
#1235=CARTESIAN_POINT('Ctrl Pts',(603.0000089854,20.8237581091838,23.6351671534896));
#1236=CARTESIAN_POINT('Ctrl Pts',(602.748812208857,20.8237581091838,23.6351671534896));
#1237=CARTESIAN_POINT('Ctrl Pts',(602.480917678413,20.8616002804649,23.6019938687455));
#1238=CARTESIAN_POINT('Ctrl Pts',(601.98817766997,21.0143672532071,23.4660787046203));
#1239=CARTESIAN_POINT('Ctrl Pts',(601.763326499278,21.1291670500718,23.3632170148175));
#1240=CARTESIAN_POINT('Ctrl Pts',(601.408259235107,21.3914258877279,23.1233325330971));
#1241=CARTESIAN_POINT('Ctrl Pts',(601.25435069164,21.5563638588162,22.9702837994882));
#1242=CARTESIAN_POINT('Ctrl Pts',(601.050223720519,21.9131183154393,22.6302011996306));
#1243=CARTESIAN_POINT('Ctrl Pts',(601.0000089854,22.104817850746,22.4430424550747));
#1244=CARTESIAN_POINT('Ctrl Pts',(601.0000089854,22.2823713383901,22.2653532579496));
#1245=CARTESIAN_POINT('Ctrl Pts',(601.0000089854,22.2823713383901,22.2653532579496));
#1246=CARTESIAN_POINT('Ctrl Pts',(601.0000089854,22.4599281743173,22.0876607099822));
#1247=CARTESIAN_POINT('Ctrl Pts',(601.050225413921,22.6469436519273,21.895814815171));
#1248=CARTESIAN_POINT('Ctrl Pts',(601.254355229615,22.9867605510763,21.5387929690091));
#1249=CARTESIAN_POINT('Ctrl Pts',(601.40826483548,23.1396869603981,21.3737338407732));
#1250=CARTESIAN_POINT('Ctrl Pts',(601.763331370198,23.3793762012598,21.1112855803646));
#1251=CARTESIAN_POINT('Ctrl Pts',(601.988180377097,23.4821531347427,20.9964036387698));
#1252=CARTESIAN_POINT('Ctrl Pts',(602.480917665352,23.6179564128225,20.8435269689658));
#1253=CARTESIAN_POINT('Ctrl Pts',(602.748811729761,23.6511025363102,20.8056573311235));
#1254=CARTESIAN_POINT('Ctrl Pts',(603.251206241039,23.6511025363102,20.8056573311235));
#1255=CARTESIAN_POINT('Ctrl Pts',(603.519100305448,23.6179564128225,20.8435269689658));
#1256=CARTESIAN_POINT('Ctrl Pts',(604.011837593703,23.4821531347427,20.9964036387699));
#1257=CARTESIAN_POINT('Ctrl Pts',(604.236686600603,23.3793762012598,21.1112855803646));
#1258=CARTESIAN_POINT('Ctrl Pts',(604.59175313532,23.1396869603981,21.3737338407732));
#1259=CARTESIAN_POINT('Ctrl Pts',(604.745662741185,22.9867605510763,21.5387929690091));
#1260=CARTESIAN_POINT('Ctrl Pts',(604.949792556879,22.6469436519272,21.895814815171));
#1261=CARTESIAN_POINT('Ctrl Pts',(605.0000089854,22.4599281743173,22.0876607099822));
#1262=CARTESIAN_POINT('Ctrl Pts',(605.0000089854,22.104817850746,22.4430424550747));
#1263=CARTESIAN_POINT('Ctrl Pts',(604.949794250281,21.9131183154393,22.6302011996306));
#1264=CARTESIAN_POINT('Ctrl Pts',(604.745667279161,21.5563638588162,22.9702837994882));
#1265=CARTESIAN_POINT('Ctrl Pts',(604.591758735694,21.3914258877279,23.1233325330971));
#1266=CARTESIAN_POINT('Ctrl Pts',(604.236691471522,21.1291670500718,23.3632170148175));
#1267=CARTESIAN_POINT('Ctrl Pts',(604.01184030083,21.0143672532071,23.4660787046203));
#1268=CARTESIAN_POINT('Ctrl Pts',(603.519100292387,20.8616002804649,23.6019938687455));
#1269=CARTESIAN_POINT('Ctrl Pts',(603.251205761943,20.8237581091838,23.6351671534896));
#1270=CARTESIAN_POINT('Ctrl Pts',(603.0000089854,20.8237581091838,23.6351671534896));
#1271=CARTESIAN_POINT('Origin',(602.50000949949,0.,0.));
#1272=CARTESIAN_POINT('',(595.000009909272,0.,-31.5000004470348));
#1273=CARTESIAN_POINT('',(610.000009089708,0.,-31.5000004470348));
#1274=CARTESIAN_POINT('',(602.50000949949,0.,-31.5000004470348));
#1275=CARTESIAN_POINT('',(595.000009909272,31.5000004470348,5.78645620809021E-15));
#1276=CARTESIAN_POINT('Origin',(595.000009909272,0.,0.));
#1277=CARTESIAN_POINT('',(610.000009089708,31.5000004470348,5.78645620809021E-15));
#1278=CARTESIAN_POINT('',(602.50000949949,31.5000004470348,5.78645620809021E-15));
#1279=CARTESIAN_POINT('Origin',(610.000009089708,0.,0.));
#1280=CARTESIAN_POINT('Origin',(602.50000949949,0.,0.));
#1281=CARTESIAN_POINT('',(610.000009089708,-31.5000004470348,-1.92881873603007E-15));
#1282=CARTESIAN_POINT('Origin',(610.000009089708,0.,0.));
#1283=CARTESIAN_POINT('',(595.000009909272,-31.5000004470348,-1.92881873603007E-15));
#1284=CARTESIAN_POINT('',(602.50000949949,-31.5000004470348,-1.92881873603007E-15));
#1285=CARTESIAN_POINT('Origin',(595.000009909272,0.,0.));
#1286=CARTESIAN_POINT('Origin',(602.50000949949,0.,0.));
#1287=CARTESIAN_POINT('',(610.000009089708,-3.85763747206014E-15,31.5000004470348));
#1288=CARTESIAN_POINT('Origin',(610.000009089708,0.,0.));
#1289=CARTESIAN_POINT('',(595.000009909272,-3.85763747206014E-15,31.5000004470348));
#1290=CARTESIAN_POINT('',(602.50000949949,-3.85763747206014E-15,31.5000004470348));
#1291=CARTESIAN_POINT('Origin',(595.000009909272,0.,0.));
#1292=CARTESIAN_POINT('Origin',(595.000009909272,0.,-31.5000004470348));
#1293=CARTESIAN_POINT('Origin',(595.000009909272,0.,0.));
#1294=CARTESIAN_POINT('Origin',(602.50000949949,0.,0.));
#1295=CARTESIAN_POINT('Origin',(610.000009089708,0.,0.));
#1296=CARTESIAN_POINT('Origin',(610.000009089708,0.,-30.0000004470348));
#1297=CARTESIAN_POINT('Origin',(645.000009909272,-59.0000004470348,-1.));
#1298=CARTESIAN_POINT('',(625.000009909272,-86.5000004470348,-1.00000000000001));
#1299=CARTESIAN_POINT('',(595.000009909272,-31.5000004470348,-1.));
#1300=CARTESIAN_POINT('',(625.000009909272,-86.5000004470348,-1.00000000000001));
#1301=CARTESIAN_POINT('',(665.000009909272,-31.5000004470348,-1.));
#1302=CARTESIAN_POINT('',(595.000009909272,-31.5000004470348,-1.));
#1303=CARTESIAN_POINT('',(695.000009909272,-86.5000004470348,-1.00000000000001));
#1304=CARTESIAN_POINT('',(695.000009909272,-86.5000004470348,-1.00000000000001));
#1305=CARTESIAN_POINT('',(625.000009909272,-86.5000004470348,-1.00000000000001));
#1306=CARTESIAN_POINT('Origin',(625.000009909272,-86.5000004470348,-5.29659743368529E-15));
#1307=CARTESIAN_POINT('',(595.000009909272,-31.5000004470348,0.999999999999998));
#1308=CARTESIAN_POINT('',(595.000009909272,-31.5000004470348,-1.92881873603007E-15));
#1309=CARTESIAN_POINT('',(595.000009909272,-31.5000004470348,-1.92881873603007E-15));
#1310=CARTESIAN_POINT('',(595.000009909272,-31.5000004470348,-1.92881873603007E-15));
#1311=CARTESIAN_POINT('',(625.000009909272,-86.5000004470348,0.999999999999995));
#1312=CARTESIAN_POINT('',(625.000009909272,-86.5000004470348,-5.29659743368529E-15));
#1313=CARTESIAN_POINT('',(625.000009909272,-86.5000004470348,0.999999999999995));
#1314=CARTESIAN_POINT('Origin',(595.000009909272,-31.5000004470348,-1.92881873603007E-15));
#1315=CARTESIAN_POINT('',(665.000009909272,-31.5000004470348,0.999999999999998));
#1316=CARTESIAN_POINT('',(665.000009909272,-31.5000004470348,-1.92881873603007E-15));
#1317=CARTESIAN_POINT('',(610.000009089708,-31.5000004470348,-1.92881873603007E-15));
#1318=CARTESIAN_POINT('',(602.50000949949,-31.5000004470348,-1.92881873603007E-15));
#1319=CARTESIAN_POINT('',(595.000009909272,-31.5000004470348,0.999999999999998));
#1320=CARTESIAN_POINT('',(620.00000923872,-31.5000004470348,-1.92881873603007E-15));
#1321=CARTESIAN_POINT('',(636.965166627471,-31.5000004470348,-1.92881873603007E-15));
#1322=CARTESIAN_POINT('',(628.482587933096,-31.5000004470348,-1.92881873603007E-15));
#1323=CARTESIAN_POINT('Origin',(665.000009909272,-31.5000004470348,-1.92881873603007E-15));
#1324=CARTESIAN_POINT('',(695.000009909272,-86.5000004470348,0.999999999999995));
#1325=CARTESIAN_POINT('',(695.000009909272,-86.5000004470348,-5.29659743368529E-15));
#1326=CARTESIAN_POINT('',(695.000009909272,-86.5000004470348,0.999999999999995));
#1327=CARTESIAN_POINT('Origin',(695.000009909272,-86.5000004470348,-5.29659743368529E-15));
#1328=CARTESIAN_POINT('',(625.000009909272,-86.5000004470348,0.999999999999995));
#1329=CARTESIAN_POINT('Origin',(645.000009909272,-59.0000004470348,0.999999999999996));
#1330=CARTESIAN_POINT('Origin',(645.000009909272,-1.,-59.0000004470348));
#1331=CARTESIAN_POINT('',(595.000009909272,-1.,-31.5000004470348));
#1332=CARTESIAN_POINT('',(625.000009909272,-1.,-86.5000004470348));
#1333=CARTESIAN_POINT('',(625.000009909272,-1.,-86.5000004470348));
#1334=CARTESIAN_POINT('',(695.000009909272,-1.,-86.5000004470348));
#1335=CARTESIAN_POINT('',(625.000009909272,-1.,-86.5000004470348));
#1336=CARTESIAN_POINT('',(665.000009909272,-1.,-31.5000004470348));
#1337=CARTESIAN_POINT('',(695.000009909272,-1.,-86.5000004470348));
#1338=CARTESIAN_POINT('',(595.000009909272,-1.,-31.5000004470348));
#1339=CARTESIAN_POINT('Origin',(695.000009909272,0.,-86.5000004470348));
#1340=CARTESIAN_POINT('',(625.000009909272,1.,-86.5000004470348));
#1341=CARTESIAN_POINT('',(625.000009909272,0.,-86.5000004470348));
#1342=CARTESIAN_POINT('',(695.000009909272,1.,-86.5000004470348));
#1343=CARTESIAN_POINT('',(625.000009909272,1.,-86.5000004470348));
#1344=CARTESIAN_POINT('',(695.000009909272,0.,-86.5000004470348));
#1345=CARTESIAN_POINT('Origin',(665.000009909272,0.,-31.5000004470348));
#1346=CARTESIAN_POINT('',(665.000009909272,1.,-31.5000004470348));
#1347=CARTESIAN_POINT('',(695.000009909272,1.,-86.5000004470348));
#1348=CARTESIAN_POINT('',(665.000009909272,0.,-31.5000004470348));
#1349=CARTESIAN_POINT('Origin',(595.000009909272,0.,-31.5000004470348));
#1350=CARTESIAN_POINT('',(595.000009909272,1.,-31.5000004470348));
#1351=CARTESIAN_POINT('',(595.000009909272,1.,-31.5000004470348));
#1352=CARTESIAN_POINT('',(595.000009909272,0.,-31.5000004470348));
#1353=CARTESIAN_POINT('',(595.000009909272,0.,-31.5000004470348));
#1354=CARTESIAN_POINT('',(610.000009089708,0.,-31.5000004470348));
#1355=CARTESIAN_POINT('',(602.50000949949,0.,-31.5000004470348));
#1356=CARTESIAN_POINT('',(595.000009909272,0.,-31.5000004470348));
#1357=CARTESIAN_POINT('',(620.00000923872,0.,-31.5000004470348));
#1358=CARTESIAN_POINT('',(636.965166627471,0.,-31.5000004470348));
#1359=CARTESIAN_POINT('',(628.482587933096,0.,-31.5000004470348));
#1360=CARTESIAN_POINT('Origin',(625.000009909272,0.,-86.5000004470348));
#1361=CARTESIAN_POINT('',(625.000009909272,1.,-86.5000004470348));
#1362=CARTESIAN_POINT('Origin',(645.000009909272,1.,-59.0000004470348));
#1363=CARTESIAN_POINT('Origin',(645.000009909272,-1.00000000000001,59.0000004470348));
#1364=CARTESIAN_POINT('',(625.000009909272,-1.00000000000001,86.5000004470348));
#1365=CARTESIAN_POINT('',(595.000009909272,-1.,31.5000004470348));
#1366=CARTESIAN_POINT('',(625.000009909272,-1.00000000000001,86.5000004470348));
#1367=CARTESIAN_POINT('',(665.000009909272,-1.,31.5000004470348));
#1368=CARTESIAN_POINT('',(595.000009909272,-1.,31.5000004470348));
#1369=CARTESIAN_POINT('',(695.000009909272,-1.00000000000001,86.5000004470348));
#1370=CARTESIAN_POINT('',(695.000009909272,-1.00000000000001,86.5000004470348));
#1371=CARTESIAN_POINT('',(625.000009909272,-1.00000000000001,86.5000004470348));
#1372=CARTESIAN_POINT('Origin',(625.000009909272,-1.05931948673706E-14,
86.5000004470348));
#1373=CARTESIAN_POINT('',(595.000009909272,0.999999999999996,31.5000004470348));
#1374=CARTESIAN_POINT('',(595.000009909272,-3.85763747206014E-15,31.5000004470348));
#1375=CARTESIAN_POINT('',(595.000009909272,-3.85763747206014E-15,31.5000004470348));
#1376=CARTESIAN_POINT('',(595.000009909272,-3.85763747206014E-15,31.5000004470348));
#1377=CARTESIAN_POINT('',(625.000009909272,0.99999999999999,86.5000004470348));
#1378=CARTESIAN_POINT('',(625.000009909272,-1.05931948673706E-14,86.5000004470348));
#1379=CARTESIAN_POINT('',(625.000009909272,0.99999999999999,86.5000004470348));
#1380=CARTESIAN_POINT('Origin',(595.000009909272,-3.85763747206014E-15,
31.5000004470348));
#1381=CARTESIAN_POINT('',(665.000009909272,0.999999999999996,31.5000004470348));
#1382=CARTESIAN_POINT('',(665.000009909272,-3.85763747206014E-15,31.5000004470348));
#1383=CARTESIAN_POINT('',(610.000009089708,-3.85763747206014E-15,31.5000004470348));
#1384=CARTESIAN_POINT('',(602.50000949949,-3.85763747206014E-15,31.5000004470348));
#1385=CARTESIAN_POINT('',(595.000009909272,0.999999999999996,31.5000004470348));
#1386=CARTESIAN_POINT('',(620.00000923872,-3.85763747206014E-15,31.5000004470348));
#1387=CARTESIAN_POINT('',(636.965166627471,-3.85763747206014E-15,31.5000004470348));
#1388=CARTESIAN_POINT('',(628.482587933096,-3.85763747206014E-15,31.5000004470348));
#1389=CARTESIAN_POINT('Origin',(665.000009909272,-3.85763747206014E-15,
31.5000004470348));
#1390=CARTESIAN_POINT('',(695.000009909272,0.99999999999999,86.5000004470348));
#1391=CARTESIAN_POINT('',(695.000009909272,-1.05931948673706E-14,86.5000004470348));
#1392=CARTESIAN_POINT('',(695.000009909272,0.99999999999999,86.5000004470348));
#1393=CARTESIAN_POINT('Origin',(695.000009909272,-1.05931948673706E-14,
86.5000004470348));
#1394=CARTESIAN_POINT('',(625.000009909272,0.99999999999999,86.5000004470348));
#1395=CARTESIAN_POINT('Origin',(645.000009909272,0.999999999999993,59.0000004470348));
#1396=CARTESIAN_POINT('Origin',(615.997106128609,0.,0.));
#1397=CARTESIAN_POINT('',(620.00000923872,-3.70455662216672E-15,30.2500004470348));
#1398=CARTESIAN_POINT('Origin',(620.00000923872,0.,0.));
#1399=CARTESIAN_POINT('',(636.994202347945,-3.70455662216672E-15,30.2500004470348));
#1400=CARTESIAN_POINT('',(615.997106128609,-3.70455662216672E-15,30.2500004470348));
#1401=CARTESIAN_POINT('Origin',(636.994202347945,0.,0.));
#1402=CARTESIAN_POINT('',(630.000009909272,-22.7573919461754,-19.9289648214291));
#1403=CARTESIAN_POINT('',(628.000009909272,-21.3899804469944,-21.3899804469944));
#1404=CARTESIAN_POINT('Ctrl Pts',(630.000009909272,-22.7573919461754,-19.9289648214291));
#1405=CARTESIAN_POINT('Ctrl Pts',(630.251213065429,-22.7573919461754,-19.9289648214291));
#1406=CARTESIAN_POINT('Ctrl Pts',(630.519109998179,-22.7243281294642,-19.9669200030016));
#1407=CARTESIAN_POINT('Ctrl Pts',(631.011846956155,-22.5888194645331,-20.120094893434));
#1408=CARTESIAN_POINT('Ctrl Pts',(631.236693206794,-22.4862498910867,-20.2351841828024));
#1409=CARTESIAN_POINT('Ctrl Pts',(631.59175362164,-22.2469346463146,-20.4980001921667));
#1410=CARTESIAN_POINT('Ctrl Pts',(631.745661767535,-22.0941981848114,-20.663244420374));
#1411=CARTESIAN_POINT('Ctrl Pts',(631.949791937481,-21.7545998690129,-21.0204816296969));
#1412=CARTESIAN_POINT('Ctrl Pts',(632.000009909272,-21.5676077872484,-21.2123531067404));
#1413=CARTESIAN_POINT('Ctrl Pts',(632.000009909272,-21.2123531067404,-21.5676077872484));
#1414=CARTESIAN_POINT('Ctrl Pts',(631.949791937481,-21.0204816296969,-21.754599869013));
#1415=CARTESIAN_POINT('Ctrl Pts',(631.745661767535,-20.6632444203739,-22.0941981848115));
#1416=CARTESIAN_POINT('Ctrl Pts',(631.59175362164,-20.4980001921667,-22.2469346463146));
#1417=CARTESIAN_POINT('Ctrl Pts',(631.236693206794,-20.2351841828024,-22.4862498910867));
#1418=CARTESIAN_POINT('Ctrl Pts',(631.011846956155,-20.1200948934341,-22.5888194645331));
#1419=CARTESIAN_POINT('Ctrl Pts',(630.519109998179,-19.9669200030016,-22.7243281294641));
#1420=CARTESIAN_POINT('Ctrl Pts',(630.251213065429,-19.9289648214291,-22.7573919461754));
#1421=CARTESIAN_POINT('Ctrl Pts',(629.748806753116,-19.9289648214291,-22.7573919461754));
#1422=CARTESIAN_POINT('Ctrl Pts',(629.480909820366,-19.9669200030016,-22.7243281294642));
#1423=CARTESIAN_POINT('Ctrl Pts',(628.98817286239,-20.120094893434,-22.5888194645332));
#1424=CARTESIAN_POINT('Ctrl Pts',(628.76332661175,-20.2351841828024,-22.4862498910867));
#1425=CARTESIAN_POINT('Ctrl Pts',(628.408266196905,-20.4980001921667,-22.2469346463146));
#1426=CARTESIAN_POINT('Ctrl Pts',(628.254358051009,-20.6632444203739,-22.0941981848115));
#1427=CARTESIAN_POINT('Ctrl Pts',(628.050227881064,-21.0204816296969,-21.754599869013));
#1428=CARTESIAN_POINT('Ctrl Pts',(628.000009909272,-21.2123531067404,-21.5676077872484));
#1429=CARTESIAN_POINT('Ctrl Pts',(628.000009909272,-21.3899804469944,-21.3899804469944));
#1430=CARTESIAN_POINT('Ctrl Pts',(628.000009909272,-21.3899804469944,-21.3899804469944));
#1431=CARTESIAN_POINT('Ctrl Pts',(628.000009909272,-21.5676077872484,-21.2123531067404));
#1432=CARTESIAN_POINT('Ctrl Pts',(628.050227881064,-21.7545998690129,-21.0204816296969));
#1433=CARTESIAN_POINT('Ctrl Pts',(628.254358051009,-22.0941981848114,-20.663244420374));
#1434=CARTESIAN_POINT('Ctrl Pts',(628.408266196905,-22.2469346463146,-20.4980001921667));
#1435=CARTESIAN_POINT('Ctrl Pts',(628.76332661175,-22.4862498910867,-20.2351841828024));
#1436=CARTESIAN_POINT('Ctrl Pts',(628.98817286239,-22.5888194645331,-20.120094893434));
#1437=CARTESIAN_POINT('Ctrl Pts',(629.480909820366,-22.7243281294642,-19.9669200030016));
#1438=CARTESIAN_POINT('Ctrl Pts',(629.748806753116,-22.7573919461754,-19.9289648214291));
#1439=CARTESIAN_POINT('Ctrl Pts',(630.000009909272,-22.7573919461754,-19.9289648214291));
#1440=CARTESIAN_POINT('',(630.000009909272,19.9289648214291,22.7573919461754));
#1441=CARTESIAN_POINT('',(628.000009909272,21.3899804469944,21.3899804469944));
#1442=CARTESIAN_POINT('Ctrl Pts',(630.000009909272,19.9289648214291,22.7573919461754));
#1443=CARTESIAN_POINT('Ctrl Pts',(629.748806753116,19.9289648214291,22.7573919461754));
#1444=CARTESIAN_POINT('Ctrl Pts',(629.480909820366,19.9669200030016,22.7243281294642));
#1445=CARTESIAN_POINT('Ctrl Pts',(628.98817286239,20.120094893434,22.5888194645331));
#1446=CARTESIAN_POINT('Ctrl Pts',(628.76332661175,20.2351841828024,22.4862498910867));
#1447=CARTESIAN_POINT('Ctrl Pts',(628.408266196905,20.4980001921667,22.2469346463146));
#1448=CARTESIAN_POINT('Ctrl Pts',(628.254358051009,20.6632444203739,22.0941981848115));
#1449=CARTESIAN_POINT('Ctrl Pts',(628.050227881064,21.0204816296969,21.754599869013));
#1450=CARTESIAN_POINT('Ctrl Pts',(628.000009909272,21.2123531067404,21.5676077872484));
#1451=CARTESIAN_POINT('Ctrl Pts',(628.000009909272,21.3899804469944,21.3899804469944));
#1452=CARTESIAN_POINT('Ctrl Pts',(628.000009909272,21.3899804469944,21.3899804469944));
#1453=CARTESIAN_POINT('Ctrl Pts',(628.000009909272,21.5676077872484,21.2123531067404));
#1454=CARTESIAN_POINT('Ctrl Pts',(628.050227881064,21.754599869013,21.0204816296969));
#1455=CARTESIAN_POINT('Ctrl Pts',(628.254358051009,22.0941981848115,20.6632444203739));
#1456=CARTESIAN_POINT('Ctrl Pts',(628.408266196905,22.2469346463146,20.4980001921667));
#1457=CARTESIAN_POINT('Ctrl Pts',(628.76332661175,22.4862498910867,20.2351841828024));
#1458=CARTESIAN_POINT('Ctrl Pts',(628.98817286239,22.5888194645332,20.120094893434));
#1459=CARTESIAN_POINT('Ctrl Pts',(629.480909820366,22.7243281294642,19.9669200030016));
#1460=CARTESIAN_POINT('Ctrl Pts',(629.748806753116,22.7573919461754,19.9289648214291));
#1461=CARTESIAN_POINT('Ctrl Pts',(630.251213065429,22.7573919461754,19.9289648214291));
#1462=CARTESIAN_POINT('Ctrl Pts',(630.519109998179,22.7243281294641,19.9669200030016));
#1463=CARTESIAN_POINT('Ctrl Pts',(631.011846956155,22.5888194645331,20.1200948934341));
#1464=CARTESIAN_POINT('Ctrl Pts',(631.236693206794,22.4862498910867,20.2351841828024));
#1465=CARTESIAN_POINT('Ctrl Pts',(631.59175362164,22.2469346463146,20.4980001921667));
#1466=CARTESIAN_POINT('Ctrl Pts',(631.745661767535,22.0941981848114,20.663244420374));
#1467=CARTESIAN_POINT('Ctrl Pts',(631.949791937481,21.7545998690129,21.0204816296969));
#1468=CARTESIAN_POINT('Ctrl Pts',(632.000009909272,21.5676077872484,21.2123531067404));
#1469=CARTESIAN_POINT('Ctrl Pts',(632.000009909272,21.2123531067404,21.5676077872484));
#1470=CARTESIAN_POINT('Ctrl Pts',(631.949791937481,21.0204816296969,21.754599869013));
#1471=CARTESIAN_POINT('Ctrl Pts',(631.745661767535,20.6632444203739,22.0941981848115));
#1472=CARTESIAN_POINT('Ctrl Pts',(631.59175362164,20.4980001921667,22.2469346463146));
#1473=CARTESIAN_POINT('Ctrl Pts',(631.236693206794,20.2351841828024,22.4862498910867));
#1474=CARTESIAN_POINT('Ctrl Pts',(631.011846956155,20.120094893434,22.5888194645331));
#1475=CARTESIAN_POINT('Ctrl Pts',(630.519109998179,19.9669200030016,22.7243281294642));
#1476=CARTESIAN_POINT('Ctrl Pts',(630.251213065429,19.9289648214291,22.7573919461754));
#1477=CARTESIAN_POINT('Ctrl Pts',(630.000009909272,19.9289648214291,22.7573919461754));
#1478=CARTESIAN_POINT('Origin',(630.000009909272,0.,0.));
#1479=CARTESIAN_POINT('',(630.000009909272,-23.6431364800855,-20.8147093553392));
#1480=CARTESIAN_POINT('',(628.000009909272,-22.2738639234776,-22.2738639234776));
#1481=CARTESIAN_POINT('Ctrl Pts',(630.000009909272,-23.6431364800855,-20.8147093553392));
#1482=CARTESIAN_POINT('Ctrl Pts',(630.251206926287,-23.6431364800855,-20.8147093553392));
#1483=CARTESIAN_POINT('Ctrl Pts',(630.519101226033,-23.6099767752563,-20.8525652595535));
#1484=CARTESIAN_POINT('Ctrl Pts',(631.01183988179,-23.4741175489943,-21.0053870830761));
#1485=CARTESIAN_POINT('Ctrl Pts',(631.236689975623,-23.3712982328763,-21.1202279550268));
#1486=CARTESIAN_POINT('Ctrl Pts',(631.591756870014,-23.1315113660258,-21.3825815057729));
#1487=CARTESIAN_POINT('Ctrl Pts',(631.745665939608,-22.9785237966792,-21.547580050513));
#1488=CARTESIAN_POINT('Ctrl Pts',(631.94979432775,-22.6385740501673,-21.9044681944664));
#1489=CARTESIAN_POINT('Ctrl Pts',(632.000009909272,-22.4514869399203,-22.0962409070349));
#1490=CARTESIAN_POINT('Ctrl Pts',(632.000009909272,-22.0962409070349,-22.4514869399203));
#1491=CARTESIAN_POINT('Ctrl Pts',(631.94979432775,-21.9044681944664,-22.6385740501673));
#1492=CARTESIAN_POINT('Ctrl Pts',(631.745665939608,-21.547580050513,-22.9785237966792));
#1493=CARTESIAN_POINT('Ctrl Pts',(631.591756870014,-21.3825815057729,-23.1315113660258));
#1494=CARTESIAN_POINT('Ctrl Pts',(631.236689975623,-21.1202279550268,-23.3712982328763));
#1495=CARTESIAN_POINT('Ctrl Pts',(631.01183988179,-21.0053870830761,-23.4741175489943));
#1496=CARTESIAN_POINT('Ctrl Pts',(630.519101226033,-20.8525652595535,-23.6099767752563));
#1497=CARTESIAN_POINT('Ctrl Pts',(630.251206926287,-20.8147093553392,-23.6431364800855));
#1498=CARTESIAN_POINT('Ctrl Pts',(629.748812892257,-20.8147093553392,-23.6431364800855));
#1499=CARTESIAN_POINT('Ctrl Pts',(629.480918592511,-20.8525652595535,-23.6099767752563));
#1500=CARTESIAN_POINT('Ctrl Pts',(628.988179936754,-21.0053870830761,-23.4741175489943));
#1501=CARTESIAN_POINT('Ctrl Pts',(628.763329842921,-21.1202279550268,-23.3712982328763));
#1502=CARTESIAN_POINT('Ctrl Pts',(628.40826294853,-21.3825815057729,-23.1315113660258));
#1503=CARTESIAN_POINT('Ctrl Pts',(628.254353878936,-21.547580050513,-22.9785237966792));
#1504=CARTESIAN_POINT('Ctrl Pts',(628.050225490794,-21.9044681944664,-22.6385740501673));
#1505=CARTESIAN_POINT('Ctrl Pts',(628.000009909272,-22.0962409070349,-22.4514869399203));
#1506=CARTESIAN_POINT('Ctrl Pts',(628.000009909272,-22.2738639234776,-22.2738639234776));
#1507=CARTESIAN_POINT('Ctrl Pts',(628.000009909272,-22.2738639234776,-22.2738639234776));
#1508=CARTESIAN_POINT('Ctrl Pts',(628.000009909272,-22.4514869399203,-22.0962409070349));
#1509=CARTESIAN_POINT('Ctrl Pts',(628.050225490794,-22.6385740501673,-21.9044681944664));
#1510=CARTESIAN_POINT('Ctrl Pts',(628.254353878936,-22.9785237966792,-21.547580050513));
#1511=CARTESIAN_POINT('Ctrl Pts',(628.40826294853,-23.1315113660258,-21.3825815057729));
#1512=CARTESIAN_POINT('Ctrl Pts',(628.763329842921,-23.3712982328763,-21.1202279550268));
#1513=CARTESIAN_POINT('Ctrl Pts',(628.988179936754,-23.4741175489943,-21.0053870830762));
#1514=CARTESIAN_POINT('Ctrl Pts',(629.480918592511,-23.6099767752562,-20.8525652595535));
#1515=CARTESIAN_POINT('Ctrl Pts',(629.748812892257,-23.6431364800855,-20.8147093553392));
#1516=CARTESIAN_POINT('Ctrl Pts',(630.000009909272,-23.6431364800855,-20.8147093553392));
#1517=CARTESIAN_POINT('',(628.000009909272,-1.73191211247101E-16,1.73191211247101E-16));
#1518=CARTESIAN_POINT('Origin',(630.000009909272,0.,0.));
#1519=CARTESIAN_POINT('',(628.000009909272,22.2738639234776,22.2738639234776));
#1520=CARTESIAN_POINT('',(628.000009909272,-1.73191211247101E-16,1.73191211247101E-16));
#1521=CARTESIAN_POINT('',(630.000009909272,20.8147093553392,23.6431364800855));
#1522=CARTESIAN_POINT('Ctrl Pts',(630.000009909272,20.8147093553392,23.6431364800855));
#1523=CARTESIAN_POINT('Ctrl Pts',(629.748812892257,20.8147093553392,23.6431364800855));
#1524=CARTESIAN_POINT('Ctrl Pts',(629.480918592511,20.8525652595535,23.6099767752563));
#1525=CARTESIAN_POINT('Ctrl Pts',(628.988179936754,21.0053870830761,23.4741175489943));
#1526=CARTESIAN_POINT('Ctrl Pts',(628.763329842921,21.1202279550268,23.3712982328763));
#1527=CARTESIAN_POINT('Ctrl Pts',(628.40826294853,21.3825815057729,23.1315113660258));
#1528=CARTESIAN_POINT('Ctrl Pts',(628.254353878936,21.547580050513,22.9785237966792));
#1529=CARTESIAN_POINT('Ctrl Pts',(628.050225490794,21.9044681944664,22.6385740501673));
#1530=CARTESIAN_POINT('Ctrl Pts',(628.000009909272,22.0962409070349,22.4514869399203));
#1531=CARTESIAN_POINT('Ctrl Pts',(628.000009909272,22.2738639234776,22.2738639234776));
#1532=CARTESIAN_POINT('Ctrl Pts',(628.000009909272,22.2738639234776,22.2738639234776));
#1533=CARTESIAN_POINT('Ctrl Pts',(628.000009909272,22.4514869399203,22.0962409070349));
#1534=CARTESIAN_POINT('Ctrl Pts',(628.050225490794,22.6385740501674,21.9044681944663));
#1535=CARTESIAN_POINT('Ctrl Pts',(628.254353878936,22.9785237966792,21.5475800505129));
#1536=CARTESIAN_POINT('Ctrl Pts',(628.40826294853,23.1315113660258,21.3825815057729));
#1537=CARTESIAN_POINT('Ctrl Pts',(628.763329842921,23.3712982328763,21.1202279550268));
#1538=CARTESIAN_POINT('Ctrl Pts',(628.988179936754,23.4741175489943,21.0053870830761));
#1539=CARTESIAN_POINT('Ctrl Pts',(629.480918592511,23.6099767752563,20.8525652595535));
#1540=CARTESIAN_POINT('Ctrl Pts',(629.748812892257,23.6431364800855,20.8147093553392));
#1541=CARTESIAN_POINT('Ctrl Pts',(630.251206926287,23.6431364800855,20.8147093553392));
#1542=CARTESIAN_POINT('Ctrl Pts',(630.519101226033,23.6099767752563,20.8525652595535));
#1543=CARTESIAN_POINT('Ctrl Pts',(631.01183988179,23.4741175489943,21.0053870830761));
#1544=CARTESIAN_POINT('Ctrl Pts',(631.236689975623,23.3712982328763,21.1202279550268));
#1545=CARTESIAN_POINT('Ctrl Pts',(631.591756870014,23.1315113660258,21.3825815057729));
#1546=CARTESIAN_POINT('Ctrl Pts',(631.745665939608,22.9785237966792,21.547580050513));
#1547=CARTESIAN_POINT('Ctrl Pts',(631.94979432775,22.6385740501673,21.9044681944664));
#1548=CARTESIAN_POINT('Ctrl Pts',(632.000009909272,22.4514869399203,22.0962409070349));
#1549=CARTESIAN_POINT('Ctrl Pts',(632.000009909272,22.0962409070349,22.4514869399203));
#1550=CARTESIAN_POINT('Ctrl Pts',(631.94979432775,21.9044681944664,22.6385740501673));
#1551=CARTESIAN_POINT('Ctrl Pts',(631.745665939608,21.547580050513,22.9785237966792));
#1552=CARTESIAN_POINT('Ctrl Pts',(631.591756870014,21.3825815057729,23.1315113660258));
#1553=CARTESIAN_POINT('Ctrl Pts',(631.236689975623,21.1202279550268,23.3712982328763));
#1554=CARTESIAN_POINT('Ctrl Pts',(631.01183988179,21.0053870830761,23.4741175489943));
#1555=CARTESIAN_POINT('Ctrl Pts',(630.519101226033,20.8525652595535,23.6099767752563));
#1556=CARTESIAN_POINT('Ctrl Pts',(630.251206926287,20.8147093553392,23.6431364800855));
#1557=CARTESIAN_POINT('Ctrl Pts',(630.000009909272,20.8147093553392,23.6431364800855));
#1558=CARTESIAN_POINT('Origin',(628.482587933096,0.,0.));
#1559=CARTESIAN_POINT('',(620.00000923872,-3.85763747206014E-15,31.5000004470348));
#1560=CARTESIAN_POINT('',(636.965166627471,-3.85763747206014E-15,31.5000004470348));
#1561=CARTESIAN_POINT('',(628.482587933096,-3.85763747206014E-15,31.5000004470348));
#1562=CARTESIAN_POINT('',(636.965166627471,31.5000004470348,5.78645620809021E-15));
#1563=CARTESIAN_POINT('Origin',(636.965166627471,0.,0.));
#1564=CARTESIAN_POINT('',(620.00000923872,31.5000004470348,5.78645620809021E-15));
#1565=CARTESIAN_POINT('',(628.482587933096,31.5000004470348,5.78645620809021E-15));
#1566=CARTESIAN_POINT('Origin',(620.00000923872,0.,0.));
#1567=CARTESIAN_POINT('Origin',(628.482587933096,0.,0.));
#1568=CARTESIAN_POINT('',(620.00000923872,-31.5000004470348,-1.92881873603007E-15));
#1569=CARTESIAN_POINT('',(636.965166627471,-31.5000004470348,-1.92881873603007E-15));
#1570=CARTESIAN_POINT('',(628.482587933096,-31.5000004470348,-1.92881873603007E-15));
#1571=CARTESIAN_POINT('Origin',(636.965166627471,0.,0.));
#1572=CARTESIAN_POINT('Origin',(620.00000923872,0.,0.));
#1573=CARTESIAN_POINT('Origin',(628.482587933096,0.,0.));
#1574=CARTESIAN_POINT('',(620.00000923872,0.,-31.5000004470348));
#1575=CARTESIAN_POINT('',(636.965166627471,0.,-31.5000004470348));
#1576=CARTESIAN_POINT('',(628.482587933096,0.,-31.5000004470348));
#1577=CARTESIAN_POINT('Origin',(620.00000923872,0.,0.));
#1578=CARTESIAN_POINT('Origin',(636.965166627471,0.,0.));
#1579=CARTESIAN_POINT('Origin',(620.00000923872,0.,-31.5000004470348));
#1580=CARTESIAN_POINT('Origin',(620.00000923872,0.,0.));
#1581=CARTESIAN_POINT('Origin',(628.482587933096,0.,0.));
#1582=CARTESIAN_POINT('Origin',(636.965166627471,0.,0.));
#1583=CARTESIAN_POINT('Origin',(636.982588059756,0.,0.));
#1584=CARTESIAN_POINT('',(636.982588059756,-3.76578896212409E-15,30.7500004470348));
#1585=CARTESIAN_POINT('Origin',(645.000009909272,59.0000004470348,1.00000000000001));
#1586=CARTESIAN_POINT('',(625.000009909272,86.5000004470348,1.00000000000002));
#1587=CARTESIAN_POINT('',(595.000009909272,31.5000004470348,1.00000000000001));
#1588=CARTESIAN_POINT('',(625.000009909272,86.5000004470348,1.00000000000002));
#1589=CARTESIAN_POINT('',(665.000009909272,31.5000004470348,1.00000000000001));
#1590=CARTESIAN_POINT('',(595.000009909272,31.5000004470348,1.00000000000001));
#1591=CARTESIAN_POINT('',(695.000009909272,86.5000004470348,1.00000000000002));
#1592=CARTESIAN_POINT('',(695.000009909272,86.5000004470348,1.00000000000002));
#1593=CARTESIAN_POINT('',(625.000009909272,86.5000004470348,1.00000000000002));
#1594=CARTESIAN_POINT('Origin',(625.000009909272,86.5000004470348,1.58897923010559E-14));
#1595=CARTESIAN_POINT('',(595.000009909272,31.5000004470348,-0.999999999999994));
#1596=CARTESIAN_POINT('',(595.000009909272,31.5000004470348,5.78645620809021E-15));
#1597=CARTESIAN_POINT('',(595.000009909272,31.5000004470348,5.78645620809021E-15));
#1598=CARTESIAN_POINT('',(595.000009909272,31.5000004470348,5.78645620809021E-15));
#1599=CARTESIAN_POINT('',(625.000009909272,86.5000004470348,-0.999999999999984));
#1600=CARTESIAN_POINT('',(625.000009909272,86.5000004470348,1.58897923010559E-14));
#1601=CARTESIAN_POINT('',(625.000009909272,86.5000004470348,-0.999999999999984));
#1602=CARTESIAN_POINT('Origin',(595.000009909272,31.5000004470348,5.78645620809021E-15));
#1603=CARTESIAN_POINT('',(665.000009909272,31.5000004470348,-0.999999999999994));
#1604=CARTESIAN_POINT('',(665.000009909272,31.5000004470348,5.78645620809021E-15));
#1605=CARTESIAN_POINT('',(610.000009089708,31.5000004470348,5.78645620809021E-15));
#1606=CARTESIAN_POINT('',(602.50000949949,31.5000004470348,5.78645620809021E-15));
#1607=CARTESIAN_POINT('',(595.000009909272,31.5000004470348,-0.999999999999994));
#1608=CARTESIAN_POINT('',(620.00000923872,31.5000004470348,5.78645620809021E-15));
#1609=CARTESIAN_POINT('',(636.965166627471,31.5000004470348,5.78645620809021E-15));
#1610=CARTESIAN_POINT('',(628.482587933096,31.5000004470348,5.78645620809021E-15));
#1611=CARTESIAN_POINT('Origin',(665.000009909272,31.5000004470348,5.78645620809021E-15));
#1612=CARTESIAN_POINT('',(695.000009909272,86.5000004470348,-0.999999999999984));
#1613=CARTESIAN_POINT('',(695.000009909272,86.5000004470348,1.58897923010559E-14));
#1614=CARTESIAN_POINT('',(695.000009909272,86.5000004470348,-0.999999999999984));
#1615=CARTESIAN_POINT('Origin',(695.000009909272,86.5000004470348,1.58897923010559E-14));
#1616=CARTESIAN_POINT('',(625.000009909272,86.5000004470348,-0.999999999999984));
#1617=CARTESIAN_POINT('Origin',(645.000009909272,59.0000004470348,-0.999999999999989));
#1618=UNCERTAINTY_MEASURE_WITH_UNIT(LENGTH_MEASURE(0.01),#1622,
'DISTANCE_ACCURACY_VALUE',
'Maximum model space distance between geometric entities at asserted c
onnectivities');
#1619=UNCERTAINTY_MEASURE_WITH_UNIT(LENGTH_MEASURE(0.01),#1622,
'DISTANCE_ACCURACY_VALUE',
'Maximum model space distance between geometric entities at asserted c
onnectivities');
#1620=(
GEOMETRIC_REPRESENTATION_CONTEXT(3)
GLOBAL_UNCERTAINTY_ASSIGNED_CONTEXT((#1618))
GLOBAL_UNIT_ASSIGNED_CONTEXT((#1622,#1624,#1625))
REPRESENTATION_CONTEXT('','3D')
);
#1621=(
GEOMETRIC_REPRESENTATION_CONTEXT(3)
GLOBAL_UNCERTAINTY_ASSIGNED_CONTEXT((#1619))
GLOBAL_UNIT_ASSIGNED_CONTEXT((#1622,#1624,#1625))
REPRESENTATION_CONTEXT('','3D')
);
#1622=(
LENGTH_UNIT()
NAMED_UNIT(*)
SI_UNIT(.MILLI.,.METRE.)
);
#1623=(
LENGTH_UNIT()
NAMED_UNIT(*)
SI_UNIT($,.METRE.)
);
#1624=(
NAMED_UNIT(*)
PLANE_ANGLE_UNIT()
SI_UNIT($,.RADIAN.)
);
#1625=(
NAMED_UNIT(*)
SI_UNIT($,.STERADIAN.)
SOLID_ANGLE_UNIT()
);
#1626=SHAPE_DEFINITION_REPRESENTATION(#1627,#1628);
#1627=PRODUCT_DEFINITION_SHAPE('',$,#1630);
#1628=SHAPE_REPRESENTATION('',(#844),#1620);
#1629=PRODUCT_DEFINITION_CONTEXT('part definition',#1634,'design');
#1630=PRODUCT_DEFINITION('Fusion \X2\96F690E84EF6\X0\',
'Fusion \X2\96F690E84EF6\X0\',#1631,#1629);
#1631=PRODUCT_DEFINITION_FORMATION('',$,#1636);
#1632=PRODUCT_RELATED_PRODUCT_CATEGORY('Fusion \X2\96F690E84EF6\X0\',
'Fusion \X2\96F690E84EF6\X0\',(#1636));
#1633=APPLICATION_PROTOCOL_DEFINITION('international standard',
'automotive_design',2009,#1634);
#1634=APPLICATION_CONTEXT(
'Core Data for Automotive Mechanical Design Process');
#1635=PRODUCT_CONTEXT('part definition',#1634,'mechanical');
#1636=PRODUCT('Fusion \X2\96F690E84EF6\X0\','Fusion \X2\96F690E84EF6\X0\',
$,(#1635));
#1637=PRESENTATION_STYLE_ASSIGNMENT((#1638));
#1638=SURFACE_STYLE_USAGE(.BOTH.,#1639);
#1639=SURFACE_SIDE_STYLE('',(#1640));
#1640=SURFACE_STYLE_FILL_AREA(#1641);
#1641=FILL_AREA_STYLE('\X2\94A2\X0\ - \X2\7F0E5149\X0\',(#1642));
#1642=FILL_AREA_STYLE_COLOUR('\X2\94A2\X0\ - \X2\7F0E5149\X0\',#1643);
#1643=COLOUR_RGB('\X2\94A2\X0\ - \X2\7F0E5149\X0\',0.627450980392157,0.627450980392157,
0.627450980392157);
ENDSEC;
END-ISO-10303-21;
