ISO-10303-21;
HEADER;
/* Generated by software containing ST-Developer
 * from STEP Tools, Inc. (www.steptools.com) 
 */

FILE_DESCRIPTION(
/* description */ (''),
/* implementation_level */ '2;1');

FILE_NAME(
/* name */ '',
/* time_stamp */ '2026-07-17T12:59:02+08:00',
/* author */ (''),
/* organization */ (''),
/* preprocessor_version */ 'ST-DEVELOPER v20.1',
/* originating_system */ 'Autodesk Translation Framework v14.4.0.0',
/* authorisation */ '');

FILE_SCHEMA (('AUTOMOTIVE_DESIGN { 1 0 10303 214 3 1 1 }'));
ENDSEC;

DATA;
#10=MECHANICAL_DESIGN_GEOMETRIC_PRESENTATION_REPRESENTATION('',(#13),#1145);
#11=SHAPE_REPRESENTATION_RELATIONSHIP('SRR','None',#1152,#12);
#12=ADVANCED_BREP_SHAPE_REPRESENTATION('',(#14),#1144);
#13=STYLED_ITEM('',(#1161),#14);
#14=MANIFOLD_SOLID_BREP('\X2\5B9E4F53\X0\1',#381);
#15=FACE_BOUND('',#56,.T.);
#16=FACE_BOUND('',#58,.T.);
#17=FACE_BOUND('',#59,.T.);
#18=FACE_BOUND('',#60,.T.);
#19=FACE_BOUND('',#61,.T.);
#20=FACE_BOUND('',#62,.T.);
#21=FACE_BOUND('',#63,.T.);
#22=FACE_BOUND('',#65,.T.);
#23=FACE_BOUND('',#67,.T.);
#24=FACE_BOUND('',#68,.T.);
#25=FACE_BOUND('',#69,.T.);
#26=FACE_BOUND('',#70,.T.);
#27=FACE_BOUND('',#71,.T.);
#28=FACE_BOUND('',#72,.T.);
#29=CIRCLE('',#404,30.);
#30=CIRCLE('',#405,28.);
#31=CIRCLE('',#407,30.);
#32=CIRCLE('',#409,28.);
#33=PLANE('',#403);
#34=PLANE('',#408);
#35=FACE_OUTER_BOUND('',#47,.T.);
#36=FACE_OUTER_BOUND('',#48,.T.);
#37=FACE_OUTER_BOUND('',#49,.T.);
#38=FACE_OUTER_BOUND('',#50,.T.);
#39=FACE_OUTER_BOUND('',#51,.T.);
#40=FACE_OUTER_BOUND('',#52,.T.);
#41=FACE_OUTER_BOUND('',#53,.T.);
#42=FACE_OUTER_BOUND('',#54,.T.);
#43=FACE_OUTER_BOUND('',#55,.T.);
#44=FACE_OUTER_BOUND('',#57,.T.);
#45=FACE_OUTER_BOUND('',#64,.T.);
#46=FACE_OUTER_BOUND('',#66,.T.);
#47=EDGE_LOOP('',(#243,#244,#245,#246,#247,#248));
#48=EDGE_LOOP('',(#249,#250,#251,#252,#253,#254,#255,#256,#257,#258));
#49=EDGE_LOOP('',(#259,#260,#261,#262,#263,#264));
#50=EDGE_LOOP('',(#265,#266,#267,#268,#269,#270));
#51=EDGE_LOOP('',(#271,#272,#273,#274,#275,#276));
#52=EDGE_LOOP('',(#277,#278,#279,#280,#281,#282,#283,#284,#285,#286));
#53=EDGE_LOOP('',(#287,#288,#289,#290,#291,#292));
#54=EDGE_LOOP('',(#293,#294,#295,#296,#297,#298));
#55=EDGE_LOOP('',(#299));
#56=EDGE_LOOP('',(#300));
#57=EDGE_LOOP('',(#301,#302,#303,#304,#305,#306,#307,#308,#309,#310,#311,
#312,#313,#314,#315,#316));
#58=EDGE_LOOP('',(#317,#318));
#59=EDGE_LOOP('',(#319,#320));
#60=EDGE_LOOP('',(#321,#322));
#61=EDGE_LOOP('',(#323,#324));
#62=EDGE_LOOP('',(#325,#326));
#63=EDGE_LOOP('',(#327,#328));
#64=EDGE_LOOP('',(#329));
#65=EDGE_LOOP('',(#330));
#66=EDGE_LOOP('',(#331,#332,#333,#334,#335,#336,#337,#338,#339,#340,#341,
#342,#343,#344,#345,#346));
#67=EDGE_LOOP('',(#347,#348));
#68=EDGE_LOOP('',(#349,#350));
#69=EDGE_LOOP('',(#351,#352));
#70=EDGE_LOOP('',(#353,#354));
#71=EDGE_LOOP('',(#355,#356));
#72=EDGE_LOOP('',(#357,#358));
#73=LINE('',#500,#87);
#74=LINE('',#568,#88);
#75=LINE('',#676,#89);
#76=LINE('',#754,#90);
#77=LINE('',#832,#91);
#78=LINE('',#900,#92);
#79=LINE('',#1008,#93);
#80=LINE('',#1086,#94);
#81=LINE('',#1132,#95);
#82=LINE('',#1133,#96);
#83=LINE('',#1134,#97);
#84=LINE('',#1139,#98);
#85=LINE('',#1140,#99);
#86=LINE('',#1141,#100);
#87=VECTOR('',#415,2.00000000000003);
#88=VECTOR('',#418,2.00000000000003);
#89=VECTOR('',#421,2.00000000000003);
#90=VECTOR('',#424,2.00000000000003);
#91=VECTOR('',#427,1.99999999999999);
#92=VECTOR('',#430,1.99999999999999);
#93=VECTOR('',#433,1.99999999999999);
#94=VECTOR('',#436,1.99999999999999);
#95=VECTOR('',#447,30.);
#96=VECTOR('',#448,30.);
#97=VECTOR('',#449,30.);
#98=VECTOR('',#456,28.);
#99=VECTOR('',#457,28.);
#100=VECTOR('',#458,28.);
#101=B_SPLINE_CURVE_WITH_KNOTS('',3,(#463,#464,#465,#466,#467,#468,#469,
#470,#471,#472,#473,#474,#475,#476,#477,#478,#479,#480,#481,#482,#483,#484,
#485,#486,#487,#488),.UNSPECIFIED.,.F.,.F.,(4,2,2,2,2,2,2,2,2,2,2,2,4),
(0.,0.0753612869151764,0.150722573830353,0.226083315804911,0.301444057779469,
0.376805907806143,0.452167757832817,0.527529157022822,0.602890556212827,
0.678251955402833,0.753613354592838,0.828975204619512,0.904337054646186),
 .UNSPECIFIED.);
#102=B_SPLINE_CURVE_WITH_KNOTS('',3,(#489,#490,#491,#492,#493,#494,#495,
#496,#497,#498),.UNSPECIFIED.,.F.,.F.,(4,2,2,2,4),(0.904337054646186,0.979697796620744,
1.0550585385953,1.13041982551048,1.20578111242565),.UNSPECIFIED.);
#103=B_SPLINE_CURVE_WITH_KNOTS('',3,(#502,#503,#504,#505,#506,#507,#508,
#509,#510,#511),.UNSPECIFIED.,.F.,.F.,(4,2,2,2,4),(0.,0.07536484297802,
0.15072968595604,0.226093894798146,0.301458103640251),.UNSPECIFIED.);
#104=B_SPLINE_CURVE_WITH_KNOTS('',3,(#512,#513,#514,#515,#516,#517,#518,
#519,#520,#521,#522,#523,#524,#525,#526,#527,#528,#529,#530,#531,#532,#533,
#534,#535,#536,#537),.UNSPECIFIED.,.F.,.F.,(4,2,2,2,2,2,2,2,2,2,2,2,4),
(0.301458103640251,0.376823584817753,0.452189065995254,0.527554038273509,
0.602919010551763,0.678283982830018,0.753648955108272,0.829014436285773,
0.904379917463275,0.979744126305381,1.05510833514749,1.13047317812551,1.20583802110353),
 .UNSPECIFIED.);
#105=B_SPLINE_CURVE_WITH_KNOTS('',3,(#541,#542,#543,#544,#545,#546,#547,
#548,#549,#550),.UNSPECIFIED.,.F.,.F.,(4,2,2,2,4),(0.,0.07536484297802,
0.15072968595604,0.226093894798146,0.300607831357039),.UNSPECIFIED.);
#106=B_SPLINE_CURVE_WITH_KNOTS('',3,(#552,#553,#554,#555,#556,#557,#558,
#559,#560,#561),.UNSPECIFIED.,.F.,.F.,(4,2,2,2,4),(0.905230189746488,0.979744126305381,
1.05510833514749,1.13047317812551,1.20583802110353),.UNSPECIFIED.);
#107=B_SPLINE_CURVE_WITH_KNOTS('',3,(#563,#564,#565,#566),.UNSPECIFIED.,
 .F.,.F.,(4,4),(0.904379917463275,0.905230189746488),.UNSPECIFIED.);
#108=B_SPLINE_CURVE_WITH_KNOTS('',3,(#570,#571,#572,#573),.UNSPECIFIED.,
 .F.,.F.,(4,4),(0.300593785809605,0.301444057779469),.UNSPECIFIED.);
#109=B_SPLINE_CURVE_WITH_KNOTS('',3,(#575,#576,#577,#578,#579,#580,#581,
#582,#583,#584),.UNSPECIFIED.,.F.,.F.,(4,2,2,2,4),(0.,0.0753612869151764,
0.150722573830353,0.226083315804911,0.300593785809605),.UNSPECIFIED.);
#110=B_SPLINE_CURVE_WITH_KNOTS('',3,(#586,#587,#588,#589,#590,#591,#592,
#593,#594,#595),.UNSPECIFIED.,.F.,.F.,(4,2,2,2,4),(0.90518732661605,0.979697796620744,
1.0550585385953,1.13041982551048,1.20578111242565),.UNSPECIFIED.);
#111=B_SPLINE_CURVE_WITH_KNOTS('',3,(#596,#597,#598,#599,#600,#601,#602,
#603,#604,#605,#606,#607,#608,#609,#610,#611,#612,#613,#614,#615),
 .UNSPECIFIED.,.F.,.F.,(4,2,2,2,2,2,2,2,2,4),(0.301444057779469,0.376805907806143,
0.452167757832817,0.527529157022822,0.602890556212827,0.678251955402833,
0.753613354592838,0.828975204619512,0.904337054646186,0.90518732661605),
 .UNSPECIFIED.);
#112=B_SPLINE_CURVE_WITH_KNOTS('',3,(#616,#617,#618,#619,#620,#621,#622,
#623,#624,#625,#626,#627,#628,#629,#630,#631,#632,#633,#634,#635),
 .UNSPECIFIED.,.F.,.F.,(4,2,2,2,2,2,2,2,2,4),(0.300607831357039,0.301458103640251,
0.376823584817753,0.452189065995254,0.527554038273509,0.602919010551763,
0.678283982830018,0.753648955108272,0.829014436285774,0.904379917463275),
 .UNSPECIFIED.);
#113=B_SPLINE_CURVE_WITH_KNOTS('',3,(#639,#640,#641,#642,#643,#644,#645,
#646,#647,#648,#649,#650,#651,#652,#653,#654,#655,#656,#657,#658,#659,#660,
#661,#662,#663,#664),.UNSPECIFIED.,.F.,.F.,(4,2,2,2,2,2,2,2,2,2,2,2,4),
(0.,0.0753613432047298,0.15072268640946,0.226083979208505,0.30144527200755,
0.376806564806595,0.45216785760564,0.52752920081037,0.6028905440151,0.678251887219829,
0.753613230424559,0.828974523223604,0.904335816022649),.UNSPECIFIED.);
#114=B_SPLINE_CURVE_WITH_KNOTS('',3,(#665,#666,#667,#668,#669,#670,#671,
#672,#673,#674),.UNSPECIFIED.,.F.,.F.,(4,2,2,2,4),(0.904335816022649,0.979697108821694,
1.05505840162074,1.13041974482547,1.2057810880302),.UNSPECIFIED.);
#115=B_SPLINE_CURVE_WITH_KNOTS('',3,(#678,#679,#680,#681,#682,#683,#684,
#685,#686,#687),.UNSPECIFIED.,.F.,.F.,(4,2,2,2,4),(0.,0.0753649078016195,
0.150729815603239,0.22609465693568,0.301459498268121),.UNSPECIFIED.);
#116=B_SPLINE_CURVE_WITH_KNOTS('',3,(#688,#689,#690,#691,#692,#693,#694,
#695,#696,#697,#698,#699,#700,#701,#702,#703,#704,#705,#706,#707,#708,#709,
#710,#711,#712,#713),.UNSPECIFIED.,.F.,.F.,(4,2,2,2,2,2,2,2,2,2,2,2,4),
(0.301459498268121,0.376824339600562,0.452189180933003,0.527554088734623,
0.602918996536242,0.678283904337862,0.753648812139481,0.829013653471922,
0.904378494804363,0.979743336136804,1.05510817746925,1.13047308527086,1.20583799307248),
 .UNSPECIFIED.);
#117=B_SPLINE_CURVE_WITH_KNOTS('',3,(#717,#718,#719,#720,#721,#722,#723,
#724,#725,#726,#727,#728,#729,#730,#731,#732,#733,#734,#735,#736,#737,#738,
#739,#740,#741,#742),.UNSPECIFIED.,.F.,.F.,(4,2,2,2,2,2,2,2,2,2,2,2,4),
(0.,0.0753649078016195,0.150729815603239,0.22609465693568,0.301459498268121,
0.376824339600562,0.452189180933003,0.527554088734623,0.602918996536242,
0.678283904337862,0.753648812139481,0.829013653471922,0.904378494804363),
 .UNSPECIFIED.);
#118=B_SPLINE_CURVE_WITH_KNOTS('',3,(#743,#744,#745,#746,#747,#748,#749,
#750,#751,#752),.UNSPECIFIED.,.F.,.F.,(4,2,2,2,4),(0.904378494804363,0.979743336136804,
1.05510817746925,1.13047308527086,1.20583799307248),.UNSPECIFIED.);
#119=B_SPLINE_CURVE_WITH_KNOTS('',3,(#756,#757,#758,#759,#760,#761,#762,
#763,#764,#765),.UNSPECIFIED.,.F.,.F.,(4,2,2,2,4),(0.,0.0753613432047298,
0.15072268640946,0.226083979208505,0.30144527200755),.UNSPECIFIED.);
#120=B_SPLINE_CURVE_WITH_KNOTS('',3,(#766,#767,#768,#769,#770,#771,#772,
#773,#774,#775,#776,#777,#778,#779,#780,#781,#782,#783,#784,#785,#786,#787,
#788,#789,#790,#791),.UNSPECIFIED.,.F.,.F.,(4,2,2,2,2,2,2,2,2,2,2,2,4),
(0.30144527200755,0.376806564806595,0.45216785760564,0.52752920081037,0.6028905440151,
0.678251887219829,0.753613230424559,0.828974523223604,0.904335816022649,
0.979697108821694,1.05505840162074,1.13041974482547,1.2057810880302),
 .UNSPECIFIED.);
#121=B_SPLINE_CURVE_WITH_KNOTS('',3,(#795,#796,#797,#798,#799,#800,#801,
#802,#803,#804,#805,#806,#807,#808,#809,#810,#811,#812,#813,#814,#815,#816,
#817,#818,#819,#820),.UNSPECIFIED.,.F.,.F.,(4,2,2,2,2,2,2,2,2,2,2,2,4),
(0.,0.0753612869151763,0.150722573830353,0.226083315804909,0.301444057779465,
0.376805907806138,0.452167757832811,0.527529157022814,0.602890556212817,
0.678251955402821,0.753613354592824,0.828975204619497,0.904337054646169),
 .UNSPECIFIED.);
#122=B_SPLINE_CURVE_WITH_KNOTS('',3,(#821,#822,#823,#824,#825,#826,#827,
#828,#829,#830),.UNSPECIFIED.,.F.,.F.,(4,2,2,2,4),(0.904337054646169,0.979697796620726,
1.05505853859528,1.13041982551046,1.20578111242563),.UNSPECIFIED.);
#123=B_SPLINE_CURVE_WITH_KNOTS('',3,(#834,#835,#836,#837,#838,#839,#840,
#841,#842,#843),.UNSPECIFIED.,.F.,.F.,(4,2,2,2,4),(0.,0.0753648429780164,
0.150729685956033,0.226093894798138,0.301458103640244),.UNSPECIFIED.);
#124=B_SPLINE_CURVE_WITH_KNOTS('',3,(#844,#845,#846,#847,#848,#849,#850,
#851,#852,#853,#854,#855,#856,#857,#858,#859,#860,#861,#862,#863,#864,#865,
#866,#867,#868,#869),.UNSPECIFIED.,.F.,.F.,(4,2,2,2,2,2,2,2,2,2,2,2,4),
(0.301458103640244,0.376823584817745,0.452189065995246,0.527554038273497,
0.602919010551747,0.678283982829998,0.753648955108249,0.82901443628575,
0.904379917463251,0.979744126305357,1.05510833514746,1.13047317812548,1.20583802110349),
 .UNSPECIFIED.);
#125=B_SPLINE_CURVE_WITH_KNOTS('',3,(#873,#874,#875,#876,#877,#878,#879,
#880,#881,#882),.UNSPECIFIED.,.F.,.F.,(4,2,2,2,4),(0.,0.0753648429780164,
0.150729685956033,0.226093894798138,0.300607831357031),.UNSPECIFIED.);
#126=B_SPLINE_CURVE_WITH_KNOTS('',3,(#884,#885,#886,#887,#888,#889,#890,
#891,#892,#893),.UNSPECIFIED.,.F.,.F.,(4,2,2,2,4),(0.905230189746464,0.979744126305357,
1.05510833514746,1.13047317812548,1.2058380211035),.UNSPECIFIED.);
#127=B_SPLINE_CURVE_WITH_KNOTS('',3,(#895,#896,#897,#898),.UNSPECIFIED.,
 .F.,.F.,(4,4),(0.904379917463252,0.905230189746464),.UNSPECIFIED.);
#128=B_SPLINE_CURVE_WITH_KNOTS('',3,(#902,#903,#904,#905),.UNSPECIFIED.,
 .F.,.F.,(4,4),(0.300593785809601,0.301444057779465),.UNSPECIFIED.);
#129=B_SPLINE_CURVE_WITH_KNOTS('',3,(#907,#908,#909,#910,#911,#912,#913,
#914,#915,#916),.UNSPECIFIED.,.F.,.F.,(4,2,2,2,4),(0.,0.0753612869151763,
0.150722573830353,0.226083315804909,0.300593785809601),.UNSPECIFIED.);
#130=B_SPLINE_CURVE_WITH_KNOTS('',3,(#918,#919,#920,#921,#922,#923,#924,
#925,#926,#927),.UNSPECIFIED.,.F.,.F.,(4,2,2,2,4),(0.905187326616034,0.979697796620726,
1.05505853859528,1.13041982551046,1.20578111242564),.UNSPECIFIED.);
#131=B_SPLINE_CURVE_WITH_KNOTS('',3,(#928,#929,#930,#931,#932,#933,#934,
#935,#936,#937,#938,#939,#940,#941,#942,#943,#944,#945,#946,#947),
 .UNSPECIFIED.,.F.,.F.,(4,2,2,2,2,2,2,2,2,4),(0.301444057779465,0.376805907806138,
0.452167757832811,0.527529157022814,0.602890556212818,0.678251955402821,
0.753613354592824,0.828975204619497,0.90433705464617,0.905187326616034),
 .UNSPECIFIED.);
#132=B_SPLINE_CURVE_WITH_KNOTS('',3,(#948,#949,#950,#951,#952,#953,#954,
#955,#956,#957,#958,#959,#960,#961,#962,#963,#964,#965,#966,#967),
 .UNSPECIFIED.,.F.,.F.,(4,2,2,2,2,2,2,2,2,4),(0.300607831357031,0.301458103640244,
0.376823584817745,0.452189065995246,0.527554038273497,0.602919010551748,
0.678283982829998,0.753648955108249,0.82901443628575,0.904379917463252),
 .UNSPECIFIED.);
#133=B_SPLINE_CURVE_WITH_KNOTS('',3,(#971,#972,#973,#974,#975,#976,#977,
#978,#979,#980,#981,#982,#983,#984,#985,#986,#987,#988,#989,#990,#991,#992,
#993,#994,#995,#996),.UNSPECIFIED.,.F.,.F.,(4,2,2,2,2,2,2,2,2,2,2,2,4),
(0.,0.0753613432047296,0.150722686409459,0.226083979208502,0.301445272007546,
0.376806564806589,0.452167857605632,0.527529200810362,0.602890544015091,
0.678251887219821,0.753613230424551,0.828974523223594,0.904335816022637),
 .UNSPECIFIED.);
#134=B_SPLINE_CURVE_WITH_KNOTS('',3,(#997,#998,#999,#1000,#1001,#1002,#1003,
#1004,#1005,#1006),.UNSPECIFIED.,.F.,.F.,(4,2,2,2,4),(0.904335816022637,
0.97969710882168,1.05505840162072,1.13041974482545,1.20578108803018),
 .UNSPECIFIED.);
#135=B_SPLINE_CURVE_WITH_KNOTS('',3,(#1010,#1011,#1012,#1013,#1014,#1015,
#1016,#1017,#1018,#1019),.UNSPECIFIED.,.F.,.F.,(4,2,2,2,4),(0.,0.0753649078016194,
0.150729815603239,0.226094656935678,0.301459498268117),.UNSPECIFIED.);
#136=B_SPLINE_CURVE_WITH_KNOTS('',3,(#1020,#1021,#1022,#1023,#1024,#1025,
#1026,#1027,#1028,#1029,#1030,#1031,#1032,#1033,#1034,#1035,#1036,#1037,
#1038,#1039,#1040,#1041,#1042,#1043,#1044,#1045),.UNSPECIFIED.,.F.,.F.,
(4,2,2,2,2,2,2,2,2,2,2,2,4),(0.301459498268117,0.376824339600556,0.452189180932995,
0.527554088734615,0.602918996536234,0.678283904337853,0.753648812139473,
0.829013653471912,0.904378494804351,0.97974333613679,1.05510817746923,1.13047308527085,
1.20583799307247),.UNSPECIFIED.);
#137=B_SPLINE_CURVE_WITH_KNOTS('',3,(#1049,#1050,#1051,#1052,#1053,#1054,
#1055,#1056,#1057,#1058,#1059,#1060,#1061,#1062,#1063,#1064,#1065,#1066,
#1067,#1068,#1069,#1070,#1071,#1072,#1073,#1074),.UNSPECIFIED.,.F.,.F.,
(4,2,2,2,2,2,2,2,2,2,2,2,4),(0.,0.0753649078016194,0.150729815603239,0.226094656935678,
0.301459498268117,0.376824339600556,0.452189180932995,0.527554088734615,
0.602918996536234,0.678283904337853,0.753648812139473,0.829013653471912,
0.904378494804351),.UNSPECIFIED.);
#138=B_SPLINE_CURVE_WITH_KNOTS('',3,(#1075,#1076,#1077,#1078,#1079,#1080,
#1081,#1082,#1083,#1084),.UNSPECIFIED.,.F.,.F.,(4,2,2,2,4),(0.904378494804351,
0.97974333613679,1.05510817746923,1.13047308527085,1.20583799307247),
 .UNSPECIFIED.);
#139=B_SPLINE_CURVE_WITH_KNOTS('',3,(#1088,#1089,#1090,#1091,#1092,#1093,
#1094,#1095,#1096,#1097),.UNSPECIFIED.,.F.,.F.,(4,2,2,2,4),(0.,0.0753613432047297,
0.150722686409459,0.226083979208503,0.301445272007546),.UNSPECIFIED.);
#140=B_SPLINE_CURVE_WITH_KNOTS('',3,(#1098,#1099,#1100,#1101,#1102,#1103,
#1104,#1105,#1106,#1107,#1108,#1109,#1110,#1111,#1112,#1113,#1114,#1115,
#1116,#1117,#1118,#1119,#1120,#1121,#1122,#1123),.UNSPECIFIED.,.F.,.F.,
(4,2,2,2,2,2,2,2,2,2,2,2,4),(0.301445272007546,0.376806564806589,0.452167857605632,
0.527529200810362,0.602890544015091,0.678251887219821,0.753613230424551,
0.828974523223594,0.904335816022637,0.97969710882168,1.05505840162072,1.13041974482545,
1.20578108803018),.UNSPECIFIED.);
#141=VERTEX_POINT('',#461);
#142=VERTEX_POINT('',#462);
#143=VERTEX_POINT('',#499);
#144=VERTEX_POINT('',#501);
#145=VERTEX_POINT('',#539);
#146=VERTEX_POINT('',#540);
#147=VERTEX_POINT('',#551);
#148=VERTEX_POINT('',#562);
#149=VERTEX_POINT('',#567);
#150=VERTEX_POINT('',#569);
#151=VERTEX_POINT('',#574);
#152=VERTEX_POINT('',#585);
#153=VERTEX_POINT('',#637);
#154=VERTEX_POINT('',#638);
#155=VERTEX_POINT('',#675);
#156=VERTEX_POINT('',#677);
#157=VERTEX_POINT('',#715);
#158=VERTEX_POINT('',#716);
#159=VERTEX_POINT('',#753);
#160=VERTEX_POINT('',#755);
#161=VERTEX_POINT('',#793);
#162=VERTEX_POINT('',#794);
#163=VERTEX_POINT('',#831);
#164=VERTEX_POINT('',#833);
#165=VERTEX_POINT('',#871);
#166=VERTEX_POINT('',#872);
#167=VERTEX_POINT('',#883);
#168=VERTEX_POINT('',#894);
#169=VERTEX_POINT('',#899);
#170=VERTEX_POINT('',#901);
#171=VERTEX_POINT('',#906);
#172=VERTEX_POINT('',#917);
#173=VERTEX_POINT('',#969);
#174=VERTEX_POINT('',#970);
#175=VERTEX_POINT('',#1007);
#176=VERTEX_POINT('',#1009);
#177=VERTEX_POINT('',#1047);
#178=VERTEX_POINT('',#1048);
#179=VERTEX_POINT('',#1085);
#180=VERTEX_POINT('',#1087);
#181=VERTEX_POINT('',#1125);
#182=VERTEX_POINT('',#1127);
#183=VERTEX_POINT('',#1130);
#184=VERTEX_POINT('',#1136);
#185=EDGE_CURVE('',#141,#142,#101,.T.);
#186=EDGE_CURVE('',#142,#141,#102,.T.);
#187=EDGE_CURVE('',#142,#143,#73,.T.);
#188=EDGE_CURVE('',#144,#143,#103,.T.);
#189=EDGE_CURVE('',#143,#144,#104,.T.);
#190=EDGE_CURVE('',#145,#146,#105,.T.);
#191=EDGE_CURVE('',#147,#145,#106,.T.);
#192=EDGE_CURVE('',#148,#147,#107,.T.);
#193=EDGE_CURVE('',#148,#149,#74,.T.);
#194=EDGE_CURVE('',#150,#149,#108,.T.);
#195=EDGE_CURVE('',#151,#150,#109,.T.);
#196=EDGE_CURVE('',#152,#151,#110,.T.);
#197=EDGE_CURVE('',#149,#152,#111,.T.);
#198=EDGE_CURVE('',#146,#148,#112,.T.);
#199=EDGE_CURVE('',#153,#154,#113,.T.);
#200=EDGE_CURVE('',#154,#153,#114,.T.);
#201=EDGE_CURVE('',#154,#155,#75,.T.);
#202=EDGE_CURVE('',#156,#155,#115,.T.);
#203=EDGE_CURVE('',#155,#156,#116,.T.);
#204=EDGE_CURVE('',#157,#158,#117,.T.);
#205=EDGE_CURVE('',#158,#157,#118,.T.);
#206=EDGE_CURVE('',#158,#159,#76,.T.);
#207=EDGE_CURVE('',#160,#159,#119,.T.);
#208=EDGE_CURVE('',#159,#160,#120,.T.);
#209=EDGE_CURVE('',#161,#162,#121,.T.);
#210=EDGE_CURVE('',#162,#161,#122,.T.);
#211=EDGE_CURVE('',#162,#163,#77,.T.);
#212=EDGE_CURVE('',#164,#163,#123,.T.);
#213=EDGE_CURVE('',#163,#164,#124,.T.);
#214=EDGE_CURVE('',#165,#166,#125,.T.);
#215=EDGE_CURVE('',#167,#165,#126,.T.);
#216=EDGE_CURVE('',#168,#167,#127,.T.);
#217=EDGE_CURVE('',#168,#169,#78,.T.);
#218=EDGE_CURVE('',#170,#169,#128,.T.);
#219=EDGE_CURVE('',#171,#170,#129,.T.);
#220=EDGE_CURVE('',#172,#171,#130,.T.);
#221=EDGE_CURVE('',#169,#172,#131,.T.);
#222=EDGE_CURVE('',#166,#168,#132,.T.);
#223=EDGE_CURVE('',#173,#174,#133,.T.);
#224=EDGE_CURVE('',#174,#173,#134,.T.);
#225=EDGE_CURVE('',#174,#175,#79,.T.);
#226=EDGE_CURVE('',#176,#175,#135,.T.);
#227=EDGE_CURVE('',#175,#176,#136,.T.);
#228=EDGE_CURVE('',#177,#178,#137,.T.);
#229=EDGE_CURVE('',#178,#177,#138,.T.);
#230=EDGE_CURVE('',#178,#179,#80,.T.);
#231=EDGE_CURVE('',#180,#179,#139,.T.);
#232=EDGE_CURVE('',#179,#180,#140,.T.);
#233=EDGE_CURVE('',#181,#181,#29,.T.);
#234=EDGE_CURVE('',#182,#182,#30,.T.);
#235=EDGE_CURVE('',#183,#183,#31,.T.);
#236=EDGE_CURVE('',#183,#152,#81,.T.);
#237=EDGE_CURVE('',#150,#172,#82,.T.);
#238=EDGE_CURVE('',#170,#181,#83,.T.);
#239=EDGE_CURVE('',#184,#184,#32,.T.);
#240=EDGE_CURVE('',#184,#146,#84,.T.);
#241=EDGE_CURVE('',#147,#166,#85,.T.);
#242=EDGE_CURVE('',#167,#182,#86,.T.);
#243=ORIENTED_EDGE('',*,*,#185,.F.);
#244=ORIENTED_EDGE('',*,*,#186,.F.);
#245=ORIENTED_EDGE('',*,*,#187,.T.);
#246=ORIENTED_EDGE('',*,*,#188,.F.);
#247=ORIENTED_EDGE('',*,*,#189,.F.);
#248=ORIENTED_EDGE('',*,*,#187,.F.);
#249=ORIENTED_EDGE('',*,*,#190,.F.);
#250=ORIENTED_EDGE('',*,*,#191,.F.);
#251=ORIENTED_EDGE('',*,*,#192,.F.);
#252=ORIENTED_EDGE('',*,*,#193,.T.);
#253=ORIENTED_EDGE('',*,*,#194,.F.);
#254=ORIENTED_EDGE('',*,*,#195,.F.);
#255=ORIENTED_EDGE('',*,*,#196,.F.);
#256=ORIENTED_EDGE('',*,*,#197,.F.);
#257=ORIENTED_EDGE('',*,*,#193,.F.);
#258=ORIENTED_EDGE('',*,*,#198,.F.);
#259=ORIENTED_EDGE('',*,*,#199,.F.);
#260=ORIENTED_EDGE('',*,*,#200,.F.);
#261=ORIENTED_EDGE('',*,*,#201,.T.);
#262=ORIENTED_EDGE('',*,*,#202,.F.);
#263=ORIENTED_EDGE('',*,*,#203,.F.);
#264=ORIENTED_EDGE('',*,*,#201,.F.);
#265=ORIENTED_EDGE('',*,*,#204,.F.);
#266=ORIENTED_EDGE('',*,*,#205,.F.);
#267=ORIENTED_EDGE('',*,*,#206,.T.);
#268=ORIENTED_EDGE('',*,*,#207,.F.);
#269=ORIENTED_EDGE('',*,*,#208,.F.);
#270=ORIENTED_EDGE('',*,*,#206,.F.);
#271=ORIENTED_EDGE('',*,*,#209,.F.);
#272=ORIENTED_EDGE('',*,*,#210,.F.);
#273=ORIENTED_EDGE('',*,*,#211,.T.);
#274=ORIENTED_EDGE('',*,*,#212,.F.);
#275=ORIENTED_EDGE('',*,*,#213,.F.);
#276=ORIENTED_EDGE('',*,*,#211,.F.);
#277=ORIENTED_EDGE('',*,*,#214,.F.);
#278=ORIENTED_EDGE('',*,*,#215,.F.);
#279=ORIENTED_EDGE('',*,*,#216,.F.);
#280=ORIENTED_EDGE('',*,*,#217,.T.);
#281=ORIENTED_EDGE('',*,*,#218,.F.);
#282=ORIENTED_EDGE('',*,*,#219,.F.);
#283=ORIENTED_EDGE('',*,*,#220,.F.);
#284=ORIENTED_EDGE('',*,*,#221,.F.);
#285=ORIENTED_EDGE('',*,*,#217,.F.);
#286=ORIENTED_EDGE('',*,*,#222,.F.);
#287=ORIENTED_EDGE('',*,*,#223,.F.);
#288=ORIENTED_EDGE('',*,*,#224,.F.);
#289=ORIENTED_EDGE('',*,*,#225,.T.);
#290=ORIENTED_EDGE('',*,*,#226,.F.);
#291=ORIENTED_EDGE('',*,*,#227,.F.);
#292=ORIENTED_EDGE('',*,*,#225,.F.);
#293=ORIENTED_EDGE('',*,*,#228,.F.);
#294=ORIENTED_EDGE('',*,*,#229,.F.);
#295=ORIENTED_EDGE('',*,*,#230,.T.);
#296=ORIENTED_EDGE('',*,*,#231,.F.);
#297=ORIENTED_EDGE('',*,*,#232,.F.);
#298=ORIENTED_EDGE('',*,*,#230,.F.);
#299=ORIENTED_EDGE('',*,*,#233,.F.);
#300=ORIENTED_EDGE('',*,*,#234,.T.);
#301=ORIENTED_EDGE('',*,*,#235,.F.);
#302=ORIENTED_EDGE('',*,*,#236,.T.);
#303=ORIENTED_EDGE('',*,*,#196,.T.);
#304=ORIENTED_EDGE('',*,*,#195,.T.);
#305=ORIENTED_EDGE('',*,*,#237,.T.);
#306=ORIENTED_EDGE('',*,*,#220,.T.);
#307=ORIENTED_EDGE('',*,*,#219,.T.);
#308=ORIENTED_EDGE('',*,*,#238,.T.);
#309=ORIENTED_EDGE('',*,*,#233,.T.);
#310=ORIENTED_EDGE('',*,*,#238,.F.);
#311=ORIENTED_EDGE('',*,*,#218,.T.);
#312=ORIENTED_EDGE('',*,*,#221,.T.);
#313=ORIENTED_EDGE('',*,*,#237,.F.);
#314=ORIENTED_EDGE('',*,*,#194,.T.);
#315=ORIENTED_EDGE('',*,*,#197,.T.);
#316=ORIENTED_EDGE('',*,*,#236,.F.);
#317=ORIENTED_EDGE('',*,*,#185,.T.);
#318=ORIENTED_EDGE('',*,*,#186,.T.);
#319=ORIENTED_EDGE('',*,*,#207,.T.);
#320=ORIENTED_EDGE('',*,*,#208,.T.);
#321=ORIENTED_EDGE('',*,*,#199,.T.);
#322=ORIENTED_EDGE('',*,*,#200,.T.);
#323=ORIENTED_EDGE('',*,*,#209,.T.);
#324=ORIENTED_EDGE('',*,*,#210,.T.);
#325=ORIENTED_EDGE('',*,*,#231,.T.);
#326=ORIENTED_EDGE('',*,*,#232,.T.);
#327=ORIENTED_EDGE('',*,*,#223,.T.);
#328=ORIENTED_EDGE('',*,*,#224,.T.);
#329=ORIENTED_EDGE('',*,*,#235,.T.);
#330=ORIENTED_EDGE('',*,*,#239,.F.);
#331=ORIENTED_EDGE('',*,*,#239,.T.);
#332=ORIENTED_EDGE('',*,*,#240,.T.);
#333=ORIENTED_EDGE('',*,*,#198,.T.);
#334=ORIENTED_EDGE('',*,*,#192,.T.);
#335=ORIENTED_EDGE('',*,*,#241,.T.);
#336=ORIENTED_EDGE('',*,*,#222,.T.);
#337=ORIENTED_EDGE('',*,*,#216,.T.);
#338=ORIENTED_EDGE('',*,*,#242,.T.);
#339=ORIENTED_EDGE('',*,*,#234,.F.);
#340=ORIENTED_EDGE('',*,*,#242,.F.);
#341=ORIENTED_EDGE('',*,*,#215,.T.);
#342=ORIENTED_EDGE('',*,*,#214,.T.);
#343=ORIENTED_EDGE('',*,*,#241,.F.);
#344=ORIENTED_EDGE('',*,*,#191,.T.);
#345=ORIENTED_EDGE('',*,*,#190,.T.);
#346=ORIENTED_EDGE('',*,*,#240,.F.);
#347=ORIENTED_EDGE('',*,*,#188,.T.);
#348=ORIENTED_EDGE('',*,*,#189,.T.);
#349=ORIENTED_EDGE('',*,*,#204,.T.);
#350=ORIENTED_EDGE('',*,*,#205,.T.);
#351=ORIENTED_EDGE('',*,*,#202,.T.);
#352=ORIENTED_EDGE('',*,*,#203,.T.);
#353=ORIENTED_EDGE('',*,*,#212,.T.);
#354=ORIENTED_EDGE('',*,*,#213,.T.);
#355=ORIENTED_EDGE('',*,*,#228,.T.);
#356=ORIENTED_EDGE('',*,*,#229,.T.);
#357=ORIENTED_EDGE('',*,*,#226,.T.);
#358=ORIENTED_EDGE('',*,*,#227,.T.);
#359=CYLINDRICAL_SURFACE('',#395,2.00000000000003);
#360=CYLINDRICAL_SURFACE('',#396,2.00000000000003);
#361=CYLINDRICAL_SURFACE('',#397,2.00000000000003);
#362=CYLINDRICAL_SURFACE('',#398,2.00000000000003);
#363=CYLINDRICAL_SURFACE('',#399,1.99999999999999);
#364=CYLINDRICAL_SURFACE('',#400,1.99999999999999);
#365=CYLINDRICAL_SURFACE('',#401,1.99999999999999);
#366=CYLINDRICAL_SURFACE('',#402,1.99999999999999);
#367=CYLINDRICAL_SURFACE('',#406,30.);
#368=CYLINDRICAL_SURFACE('',#410,28.);
#369=ADVANCED_FACE('',(#35),#359,.F.);
#370=ADVANCED_FACE('',(#36),#360,.F.);
#371=ADVANCED_FACE('',(#37),#361,.F.);
#372=ADVANCED_FACE('',(#38),#362,.F.);
#373=ADVANCED_FACE('',(#39),#363,.F.);
#374=ADVANCED_FACE('',(#40),#364,.F.);
#375=ADVANCED_FACE('',(#41),#365,.F.);
#376=ADVANCED_FACE('',(#42),#366,.F.);
#377=ADVANCED_FACE('',(#43,#15),#33,.T.);
#378=ADVANCED_FACE('',(#44,#16,#17,#18,#19,#20,#21),#367,.T.);
#379=ADVANCED_FACE('',(#45,#22),#34,.T.);
#380=ADVANCED_FACE('',(#46,#23,#24,#25,#26,#27,#28),#368,.F.);
#381=CLOSED_SHELL('',(#369,#370,#371,#372,#373,#374,#375,#376,#377,#378,
#379,#380));
#382=DERIVED_UNIT_ELEMENT(#384,1.);
#383=DERIVED_UNIT_ELEMENT(#1147,-3.);
#384=(
MASS_UNIT()
NAMED_UNIT(*)
SI_UNIT(.KILO.,.GRAM.)
);
#385=DERIVED_UNIT((#382,#383));
#386=MEASURE_REPRESENTATION_ITEM('density measure',
POSITIVE_RATIO_MEASURE(7850.),#385);
#387=PROPERTY_DEFINITION_REPRESENTATION(#392,#389);
#388=PROPERTY_DEFINITION_REPRESENTATION(#393,#390);
#389=REPRESENTATION('material name',(#391),#1144);
#390=REPRESENTATION('density',(#386),#1144);
#391=DESCRIPTIVE_REPRESENTATION_ITEM('\X2\94A2\X0\','\X2\94A2\X0\');
#392=PROPERTY_DEFINITION('material property','material name',#1154);
#393=PROPERTY_DEFINITION('material property','density of part',#1154);
#394=AXIS2_PLACEMENT_3D('',#459,#411,#412);
#395=AXIS2_PLACEMENT_3D('',#460,#413,#414);
#396=AXIS2_PLACEMENT_3D('',#538,#416,#417);
#397=AXIS2_PLACEMENT_3D('',#636,#419,#420);
#398=AXIS2_PLACEMENT_3D('',#714,#422,#423);
#399=AXIS2_PLACEMENT_3D('',#792,#425,#426);
#400=AXIS2_PLACEMENT_3D('',#870,#428,#429);
#401=AXIS2_PLACEMENT_3D('',#968,#431,#432);
#402=AXIS2_PLACEMENT_3D('',#1046,#434,#435);
#403=AXIS2_PLACEMENT_3D('',#1124,#437,#438);
#404=AXIS2_PLACEMENT_3D('',#1126,#439,#440);
#405=AXIS2_PLACEMENT_3D('',#1128,#441,#442);
#406=AXIS2_PLACEMENT_3D('',#1129,#443,#444);
#407=AXIS2_PLACEMENT_3D('',#1131,#445,#446);
#408=AXIS2_PLACEMENT_3D('',#1135,#450,#451);
#409=AXIS2_PLACEMENT_3D('',#1137,#452,#453);
#410=AXIS2_PLACEMENT_3D('',#1138,#454,#455);
#411=DIRECTION('axis',(0.,0.,1.));
#412=DIRECTION('refdir',(1.,0.,0.));
#413=DIRECTION('center_axis',(0.,2.22044604925031E-16,1.));
#414=DIRECTION('ref_axis',(1.,0.,0.));
#415=DIRECTION('',(0.,2.22044604925031E-16,1.));
#416=DIRECTION('center_axis',(0.,2.22044604925031E-16,1.));
#417=DIRECTION('ref_axis',(1.,0.,0.));
#418=DIRECTION('',(0.,2.22044604925031E-16,1.));
#419=DIRECTION('center_axis',(0.,1.,0.));
#420=DIRECTION('ref_axis',(1.,0.,0.));
#421=DIRECTION('',(0.,1.,0.));
#422=DIRECTION('center_axis',(0.,1.,0.));
#423=DIRECTION('ref_axis',(1.,0.,0.));
#424=DIRECTION('',(0.,1.,0.));
#425=DIRECTION('center_axis',(0.,2.22044604925031E-16,1.));
#426=DIRECTION('ref_axis',(1.,0.,0.));
#427=DIRECTION('',(0.,2.22044604925031E-16,1.));
#428=DIRECTION('center_axis',(0.,2.22044604925031E-16,1.));
#429=DIRECTION('ref_axis',(1.,0.,0.));
#430=DIRECTION('',(0.,2.22044604925031E-16,1.));
#431=DIRECTION('center_axis',(0.,1.,0.));
#432=DIRECTION('ref_axis',(1.,0.,0.));
#433=DIRECTION('',(0.,1.,0.));
#434=DIRECTION('center_axis',(0.,1.,0.));
#435=DIRECTION('ref_axis',(1.,0.,0.));
#436=DIRECTION('',(0.,1.,0.));
#437=DIRECTION('center_axis',(-1.,0.,0.));
#438=DIRECTION('ref_axis',(0.,0.,1.));
#439=DIRECTION('center_axis',(1.,0.,0.));
#440=DIRECTION('ref_axis',(0.,0.,-1.));
#441=DIRECTION('center_axis',(1.,0.,0.));
#442=DIRECTION('ref_axis',(0.,0.,-1.));
#443=DIRECTION('center_axis',(1.,0.,0.));
#444=DIRECTION('ref_axis',(0.,0.,-1.));
#445=DIRECTION('center_axis',(1.,0.,0.));
#446=DIRECTION('ref_axis',(0.,0.,-1.));
#447=DIRECTION('',(-1.,0.,0.));
#448=DIRECTION('',(-1.,0.,0.));
#449=DIRECTION('',(-1.,0.,0.));
#450=DIRECTION('center_axis',(1.,0.,0.));
#451=DIRECTION('ref_axis',(0.,0.,-1.));
#452=DIRECTION('center_axis',(1.,0.,0.));
#453=DIRECTION('ref_axis',(0.,0.,-1.));
#454=DIRECTION('center_axis',(1.,0.,0.));
#455=DIRECTION('ref_axis',(0.,0.,-1.));
#456=DIRECTION('',(-1.,0.,0.));
#457=DIRECTION('',(-1.,0.,0.));
#458=DIRECTION('',(-1.,0.,0.));
#459=CARTESIAN_POINT('',(0.,0.,0.));
#460=CARTESIAN_POINT('Origin',(404.976174678758,0.00850904022022169,-0.00850904022022169));
#461=CARTESIAN_POINT('',(404.976174678758,-1.99149095977982,-29.9338264135595));
#462=CARTESIAN_POINT('',(402.976174678758,0.00850904022021154,-29.9999987932705));
#463=CARTESIAN_POINT('Ctrl Pts',(404.976174678758,-1.99149095977982,-29.9338264135595));
#464=CARTESIAN_POINT('Ctrl Pts',(405.227378968475,-1.99149095977982,-29.9338264135595));
#465=CARTESIAN_POINT('Ctrl Pts',(405.495276648071,-1.94127251318373,-29.9372997732917));
#466=CARTESIAN_POINT('Ctrl Pts',(405.98801429705,-1.73714143191026,-29.9498380014303));
#467=CARTESIAN_POINT('Ctrl Pts',(406.212860561565,-1.58323285858215,-29.9587209390642));
#468=CARTESIAN_POINT('Ctrl Pts',(406.567919869589,-1.22817223682695,-29.9753762126366));
#469=CARTESIAN_POINT('Ctrl Pts',(406.72182740541,-1.00332643556537,-29.9842303886203));
#470=CARTESIAN_POINT('Ctrl Pts',(406.9259568527,-0.510590131674279,-29.9966670423739));
#471=CARTESIAN_POINT('Ctrl Pts',(406.976174678758,-0.242693422923865,-30.0000700430022));
#472=CARTESIAN_POINT('Ctrl Pts',(406.976174678758,0.259715196871199,-29.9999275424913));
#473=CARTESIAN_POINT('Ctrl Pts',(406.92595553228,0.527613610745106,-29.9963724773662));
#474=CARTESIAN_POINT('Ctrl Pts',(406.721823867016,1.02035084573524,-29.9836559157704));
#475=CARTESIAN_POINT('Ctrl Pts',(406.567915502862,1.24519600334773,-29.9746738862312));
#476=CARTESIAN_POINT('Ctrl Pts',(406.212856763991,1.60025341724259,-29.9578166142884));
#477=CARTESIAN_POINT('Ctrl Pts',(405.988012186779,1.75416055060223,-29.9488460218229));
#478=CARTESIAN_POINT('Ctrl Pts',(405.495276658997,1.9582904250872,-29.9361914061783));
#479=CARTESIAN_POINT('Ctrl Pts',(405.227379342725,2.00850904022024,-29.932689345185));
#480=CARTESIAN_POINT('Ctrl Pts',(404.724970014791,2.00850904022024,-29.932689345185));
#481=CARTESIAN_POINT('Ctrl Pts',(404.457072698519,1.9582904250872,-29.9361914061783));
#482=CARTESIAN_POINT('Ctrl Pts',(403.964337170737,1.75416055060223,-29.9488460218229));
#483=CARTESIAN_POINT('Ctrl Pts',(403.739492593525,1.60025341724259,-29.9578166142884));
#484=CARTESIAN_POINT('Ctrl Pts',(403.384433854655,1.24519600334773,-29.9746738862312));
#485=CARTESIAN_POINT('Ctrl Pts',(403.2305254905,1.02035084573524,-29.9836559157704));
#486=CARTESIAN_POINT('Ctrl Pts',(403.026393825236,0.527613610745106,-29.9963724773662));
#487=CARTESIAN_POINT('Ctrl Pts',(402.976174678758,0.259715196871202,-29.9999275424913));
#488=CARTESIAN_POINT('Ctrl Pts',(402.976174678758,0.00850904022021842,-29.9999987932705));
#489=CARTESIAN_POINT('Ctrl Pts',(402.976174678758,0.00850904022020836,-29.9999987932705));
#490=CARTESIAN_POINT('Ctrl Pts',(402.976174678758,-0.242693422923872,-30.0000700430022));
#491=CARTESIAN_POINT('Ctrl Pts',(403.026392504816,-0.510590131674279,-29.9966670423739));
#492=CARTESIAN_POINT('Ctrl Pts',(403.230521952106,-1.00332643556537,-29.9842303886203));
#493=CARTESIAN_POINT('Ctrl Pts',(403.384429487927,-1.22817223682695,-29.9753762126366));
#494=CARTESIAN_POINT('Ctrl Pts',(403.739488795951,-1.58323285858215,-29.9587209390642));
#495=CARTESIAN_POINT('Ctrl Pts',(403.964335060467,-1.73714143191026,-29.9498380014303));
#496=CARTESIAN_POINT('Ctrl Pts',(404.457072709446,-1.94127251318373,-29.9372997732917));
#497=CARTESIAN_POINT('Ctrl Pts',(404.724970389041,-1.99149095977981,-29.9338264135595));
#498=CARTESIAN_POINT('Ctrl Pts',(404.976174678758,-1.99149095977981,-29.9338264135595));
#499=CARTESIAN_POINT('',(402.976174678758,0.00850904022021131,-27.9999987070756));
#500=CARTESIAN_POINT('',(402.976174678758,0.00850904022022145,-0.00850904022022169));
#501=CARTESIAN_POINT('',(404.976174678758,-1.99149095977981,-27.9290881297101));
#502=CARTESIAN_POINT('Ctrl Pts',(404.976174678758,-1.99149095977981,-27.9290881297101));
#503=CARTESIAN_POINT('Ctrl Pts',(404.724958535498,-1.99149095977981,-27.9290881297101));
#504=CARTESIAN_POINT('Ctrl Pts',(404.457055737667,-1.94126788824816,-27.9328112060736));
#505=CARTESIAN_POINT('Ctrl Pts',(403.964321221133,-1.73713329228436,-27.9462489574175));
#506=CARTESIAN_POINT('Ctrl Pts',(403.739482267875,-1.58322642775983,-27.9557684352151));
#507=CARTESIAN_POINT('Ctrl Pts',(403.384435451053,-1.22817810269684,-27.9736156537066));
#508=CARTESIAN_POINT('Ctrl Pts',(403.230529761891,-1.0033396726171,-27.9831029435367));
#509=CARTESIAN_POINT('Ctrl Pts',(403.0263970308,-0.510606670886015,-27.996428730719));
#510=CARTESIAN_POINT('Ctrl Pts',(402.976174678758,-0.242704977653443,-28.0000750495856));
#511=CARTESIAN_POINT('Ctrl Pts',(402.976174678758,0.00850904022021565,-27.9999987070756));
#512=CARTESIAN_POINT('Ctrl Pts',(402.976174678758,0.00850904022020718,-27.9999987070756));
#513=CARTESIAN_POINT('Ctrl Pts',(402.976174678758,0.259727299211656,-27.9999223632767));
#514=CARTESIAN_POINT('Ctrl Pts',(403.026398547081,0.527630950497679,-27.9961131000564));
#515=CARTESIAN_POINT('Ctrl Pts',(403.230533825023,1.02036502133263,-27.9824873511088));
#516=CARTESIAN_POINT('Ctrl Pts',(403.384440465267,1.24520271204777,-27.9728630313059));
#517=CARTESIAN_POINT('Ctrl Pts',(403.73948662784,1.60024735346775,-27.954799300716));
#518=CARTESIAN_POINT('Ctrl Pts',(403.964323643336,1.75415256436459,-27.9451858527889));
#519=CARTESIAN_POINT('Ctrl Pts',(404.457055723764,1.9582857747804,-27.9316233043027));
#520=CARTESIAN_POINT('Ctrl Pts',(404.724958104497,2.00850904022024,-27.9278694396002));
#521=CARTESIAN_POINT('Ctrl Pts',(405.227391253019,2.00850904022024,-27.9278694396002));
#522=CARTESIAN_POINT('Ctrl Pts',(405.495293633753,1.95828577478038,-27.9316233043027));
#523=CARTESIAN_POINT('Ctrl Pts',(405.98802571418,1.75415256436456,-27.9451858527889));
#524=CARTESIAN_POINT('Ctrl Pts',(406.212862729676,1.60024735346775,-27.954799300716));
#525=CARTESIAN_POINT('Ctrl Pts',(406.56790889225,1.24520271204777,-27.9728630313059));
#526=CARTESIAN_POINT('Ctrl Pts',(406.721815532494,1.02036502133258,-27.9824873511088));
#527=CARTESIAN_POINT('Ctrl Pts',(406.925950810435,0.527630950497628,-27.9961131000564));
#528=CARTESIAN_POINT('Ctrl Pts',(406.976174678758,0.259727299211665,-27.9999223632767));
#529=CARTESIAN_POINT('Ctrl Pts',(406.976174678758,-0.242704977653443,-28.0000750495856));
#530=CARTESIAN_POINT('Ctrl Pts',(406.925952326717,-0.510606670886015,-27.996428730719));
#531=CARTESIAN_POINT('Ctrl Pts',(406.721819595625,-1.0033396726171,-27.9831029435367));
#532=CARTESIAN_POINT('Ctrl Pts',(406.567913906464,-1.22817810269683,-27.9736156537066));
#533=CARTESIAN_POINT('Ctrl Pts',(406.212867089642,-1.58322642775983,-27.9557684352151));
#534=CARTESIAN_POINT('Ctrl Pts',(405.988028136383,-1.73713329228436,-27.9462489574175));
#535=CARTESIAN_POINT('Ctrl Pts',(405.495293619849,-1.94126788824816,-27.9328112060736));
#536=CARTESIAN_POINT('Ctrl Pts',(405.227390822018,-1.99149095977981,-27.9290881297101));
#537=CARTESIAN_POINT('Ctrl Pts',(404.976174678758,-1.99149095977981,-27.9290881297101));
#538=CARTESIAN_POINT('Origin',(404.976174678758,0.00850904022022169,-0.00850904022022169));
#539=CARTESIAN_POINT('',(404.976174678758,-1.9914909597798,27.9290881297101));
#540=CARTESIAN_POINT('',(406.976156577715,-2.29601859806836E-9,28.));
#541=CARTESIAN_POINT('Ctrl Pts',(404.976174678758,-1.9914909597798,27.9290881297101));
#542=CARTESIAN_POINT('Ctrl Pts',(405.227390822018,-1.9914909597798,27.9290881297101));
#543=CARTESIAN_POINT('Ctrl Pts',(405.495293619849,-1.94126788824815,27.9328112060736));
#544=CARTESIAN_POINT('Ctrl Pts',(405.988028136383,-1.73713329228435,27.9462489574175));
#545=CARTESIAN_POINT('Ctrl Pts',(406.212867089642,-1.58322642775982,27.9557684352151));
#546=CARTESIAN_POINT('Ctrl Pts',(406.567913906464,-1.22817810269682,27.9736156537066));
#547=CARTESIAN_POINT('Ctrl Pts',(406.721819595625,-1.00333967261709,27.9831029435367));
#548=CARTESIAN_POINT('Ctrl Pts',(406.924800795997,-0.513386221158162,27.9963535587795));
#549=CARTESIAN_POINT('Ctrl Pts',(406.975098266163,-0.248747542735715,27.9999999999592));
#550=CARTESIAN_POINT('Ctrl Pts',(406.976156577715,-4.5920362651275E-9,28.));
#551=CARTESIAN_POINT('',(402.976192779801,-2.29602019401396E-9,28.));
#552=CARTESIAN_POINT('Ctrl Pts',(402.976192779801,-4.59203564062705E-9,
28.));
#553=CARTESIAN_POINT('Ctrl Pts',(402.977251091354,-0.248747542735715,27.9999999999592));
#554=CARTESIAN_POINT('Ctrl Pts',(403.02754856152,-0.513386221158162,27.9963535587795));
#555=CARTESIAN_POINT('Ctrl Pts',(403.230529761891,-1.00333967261709,27.9831029435367));
#556=CARTESIAN_POINT('Ctrl Pts',(403.384435451053,-1.22817810269682,27.9736156537066));
#557=CARTESIAN_POINT('Ctrl Pts',(403.739482267875,-1.58322642775982,27.9557684352151));
#558=CARTESIAN_POINT('Ctrl Pts',(403.964321221133,-1.73713329228435,27.9462489574175));
#559=CARTESIAN_POINT('Ctrl Pts',(404.457055737667,-1.94126788824815,27.9328112060736));
#560=CARTESIAN_POINT('Ctrl Pts',(404.724958535498,-1.9914909597798,27.9290881297101));
#561=CARTESIAN_POINT('Ctrl Pts',(404.976174678758,-1.9914909597798,27.9290881297101));
#562=CARTESIAN_POINT('',(402.976174678758,0.00850904022022742,27.9999987070756));
#563=CARTESIAN_POINT('Ctrl Pts',(402.976174678758,0.00850904022022767,27.9999987070756));
#564=CARTESIAN_POINT('Ctrl Pts',(402.976174678758,0.00567479940705827,27.9999995683852));
#565=CARTESIAN_POINT('Ctrl Pts',(402.976180703496,0.00283843271202147,28.0000000000005));
#566=CARTESIAN_POINT('Ctrl Pts',(402.976192779801,-4.59203701942728E-9,
28.));
#567=CARTESIAN_POINT('',(402.976174678758,0.008509040220225,29.9999987932705));
#568=CARTESIAN_POINT('',(402.976174678758,0.00850904022022145,-0.00850904022022169));
#569=CARTESIAN_POINT('',(402.976192779801,-2.29608915030617E-9,30.));
#570=CARTESIAN_POINT('Ctrl Pts',(402.976192779801,-4.5921770218331E-9,30.));
#571=CARTESIAN_POINT('Ctrl Pts',(402.976180703492,0.00283843373728716,30.0000000000004));
#572=CARTESIAN_POINT('Ctrl Pts',(402.976174678758,0.00567480043468478,29.9999995971593));
#573=CARTESIAN_POINT('Ctrl Pts',(402.976174678758,0.00850904022022862,29.9999987932705));
#574=CARTESIAN_POINT('',(404.976174678758,-1.9914909597798,29.9338264135595));
#575=CARTESIAN_POINT('Ctrl Pts',(404.976174678758,-1.9914909597798,29.9338264135595));
#576=CARTESIAN_POINT('Ctrl Pts',(404.724970389041,-1.9914909597798,29.9338264135595));
#577=CARTESIAN_POINT('Ctrl Pts',(404.457072709446,-1.94127251318372,29.9372997732917));
#578=CARTESIAN_POINT('Ctrl Pts',(403.964335060467,-1.73714143191025,29.9498380014303));
#579=CARTESIAN_POINT('Ctrl Pts',(403.739488795951,-1.58323285858214,29.9587209390642));
#580=CARTESIAN_POINT('Ctrl Pts',(403.384429487927,-1.22817223682694,29.9753762126366));
#581=CARTESIAN_POINT('Ctrl Pts',(403.230521952106,-1.00332643556535,29.9842303886203));
#582=CARTESIAN_POINT('Ctrl Pts',(403.027544069561,-0.513369827420061,29.9965968829128));
#583=CARTESIAN_POINT('Ctrl Pts',(402.977251042891,-0.248736151970261,29.9999999999619));
#584=CARTESIAN_POINT('Ctrl Pts',(402.976192779801,-4.59218094106539E-9,
30.));
#585=CARTESIAN_POINT('',(406.976156577715,-2.2960899135845E-9,30.));
#586=CARTESIAN_POINT('Ctrl Pts',(406.976156577715,-4.59217927573086E-9,
30.));
#587=CARTESIAN_POINT('Ctrl Pts',(406.975098314625,-0.248736151970258,29.9999999999619));
#588=CARTESIAN_POINT('Ctrl Pts',(406.924805287955,-0.513369827420043,29.9965968829128));
#589=CARTESIAN_POINT('Ctrl Pts',(406.72182740541,-1.00332643556534,29.9842303886202));
#590=CARTESIAN_POINT('Ctrl Pts',(406.567919869589,-1.22817223682694,29.9753762126366));
#591=CARTESIAN_POINT('Ctrl Pts',(406.212860561565,-1.58323285858214,29.9587209390642));
#592=CARTESIAN_POINT('Ctrl Pts',(405.98801429705,-1.73714143191025,29.9498380014303));
#593=CARTESIAN_POINT('Ctrl Pts',(405.495276648071,-1.94127251318372,29.9372997732917));
#594=CARTESIAN_POINT('Ctrl Pts',(405.227378968475,-1.9914909597798,29.9338264135595));
#595=CARTESIAN_POINT('Ctrl Pts',(404.976174678758,-1.9914909597798,29.9338264135595));
#596=CARTESIAN_POINT('Ctrl Pts',(402.976174678758,0.00850904022022418,29.9999987932705));
#597=CARTESIAN_POINT('Ctrl Pts',(402.976174678758,0.259715196871208,29.9999275424913));
#598=CARTESIAN_POINT('Ctrl Pts',(403.026393825236,0.527613610745119,29.9963724773662));
#599=CARTESIAN_POINT('Ctrl Pts',(403.2305254905,1.02035084573525,29.9836559157704));
#600=CARTESIAN_POINT('Ctrl Pts',(403.384433854655,1.24519600334775,29.9746738862312));
#601=CARTESIAN_POINT('Ctrl Pts',(403.739492593525,1.6002534172426,29.9578166142884));
#602=CARTESIAN_POINT('Ctrl Pts',(403.964337170738,1.75416055060232,29.9488460218229));
#603=CARTESIAN_POINT('Ctrl Pts',(404.457072698519,1.95829042508725,29.9361914061783));
#604=CARTESIAN_POINT('Ctrl Pts',(404.724970014791,2.00850904022026,29.932689345185));
#605=CARTESIAN_POINT('Ctrl Pts',(405.227379342725,2.00850904022026,29.932689345185));
#606=CARTESIAN_POINT('Ctrl Pts',(405.495276658997,1.95829042508722,29.9361914061783));
#607=CARTESIAN_POINT('Ctrl Pts',(405.988012186779,1.75416055060225,29.9488460218229));
#608=CARTESIAN_POINT('Ctrl Pts',(406.212856763991,1.6002534172426,29.9578166142884));
#609=CARTESIAN_POINT('Ctrl Pts',(406.567915502862,1.24519600334775,29.9746738862312));
#610=CARTESIAN_POINT('Ctrl Pts',(406.721823867016,1.02035084573521,29.9836559157704));
#611=CARTESIAN_POINT('Ctrl Pts',(406.92595553228,0.527613610745079,29.9963724773662));
#612=CARTESIAN_POINT('Ctrl Pts',(406.976174678758,0.259715196871212,29.9999275424913));
#613=CARTESIAN_POINT('Ctrl Pts',(406.976174678758,0.0056748004346845,29.9999995971593));
#614=CARTESIAN_POINT('Ctrl Pts',(406.976168654024,0.00283843373728686,30.0000000000004));
#615=CARTESIAN_POINT('Ctrl Pts',(406.976156577715,-4.5921773066721E-9,30.));
#616=CARTESIAN_POINT('Ctrl Pts',(406.976156577715,-4.59203715962174E-9,
28.));
#617=CARTESIAN_POINT('Ctrl Pts',(406.97616865402,0.00283843271202152,28.0000000000005));
#618=CARTESIAN_POINT('Ctrl Pts',(406.976174678758,0.00567479940705882,27.9999995683852));
#619=CARTESIAN_POINT('Ctrl Pts',(406.976174678758,0.259727299211677,27.9999223632767));
#620=CARTESIAN_POINT('Ctrl Pts',(406.925950810435,0.52763095049764,27.9961131000564));
#621=CARTESIAN_POINT('Ctrl Pts',(406.721815532494,1.02036502133259,27.9824873511088));
#622=CARTESIAN_POINT('Ctrl Pts',(406.56790889225,1.24520271204778,27.9728630313059));
#623=CARTESIAN_POINT('Ctrl Pts',(406.212862729676,1.60024735346776,27.954799300716));
#624=CARTESIAN_POINT('Ctrl Pts',(405.98802571418,1.75415256436457,27.945185852789));
#625=CARTESIAN_POINT('Ctrl Pts',(405.495293633753,1.95828577478039,27.9316233043027));
#626=CARTESIAN_POINT('Ctrl Pts',(405.227391253019,2.00850904022026,27.9278694396002));
#627=CARTESIAN_POINT('Ctrl Pts',(404.724958104497,2.00850904022026,27.9278694396002));
#628=CARTESIAN_POINT('Ctrl Pts',(404.457055723764,1.95828577478041,27.9316233043027));
#629=CARTESIAN_POINT('Ctrl Pts',(403.964323643336,1.75415256436461,27.9451858527889));
#630=CARTESIAN_POINT('Ctrl Pts',(403.73948662784,1.60024735346776,27.954799300716));
#631=CARTESIAN_POINT('Ctrl Pts',(403.384440465267,1.24520271204778,27.9728630313059));
#632=CARTESIAN_POINT('Ctrl Pts',(403.230533825023,1.02036502133259,27.9824873511088));
#633=CARTESIAN_POINT('Ctrl Pts',(403.026398547081,0.527630950497639,27.9961131000564));
#634=CARTESIAN_POINT('Ctrl Pts',(402.976174678758,0.259727299211674,27.9999223632767));
#635=CARTESIAN_POINT('Ctrl Pts',(402.976174678758,0.00850904022022501,27.9999987070756));
#636=CARTESIAN_POINT('Origin',(404.976174678758,0.,0.));
#637=CARTESIAN_POINT('',(404.976174678758,-29.9332590941915,2.00000000000003));
#638=CARTESIAN_POINT('',(402.976174678758,-30.,2.44929359829474E-16));
#639=CARTESIAN_POINT('Ctrl Pts',(404.976174678758,-29.9332590941915,2.00000000000003));
#640=CARTESIAN_POINT('Ctrl Pts',(405.227379156107,-29.9332590941915,2.00000000000003));
#641=CARTESIAN_POINT('Ctrl Pts',(405.49527665532,-29.9367468041196,1.94978146899356));
#642=CARTESIAN_POINT('Ctrl Pts',(405.988013247786,-29.949343224819,1.74565098822557));
#643=CARTESIAN_POINT('Ctrl Pts',(406.212858671429,-29.9582699891501,1.59174313207532));
#644=CARTESIAN_POINT('Ctrl Pts',(406.567917692092,-29.9750262603329,1.23668411141216));
#645=CARTESIAN_POINT('Ctrl Pts',(406.721825639284,-29.9839443619467,1.01183863471817));
#646=CARTESIAN_POINT('Ctrl Pts',(406.925956192656,-29.9965209678006,0.51910186934387));
#647=CARTESIAN_POINT('Ctrl Pts',(406.976174678758,-30.,0.251204309330151));
#648=CARTESIAN_POINT('Ctrl Pts',(406.976174678758,-30.,-0.25120430933015));
#649=CARTESIAN_POINT('Ctrl Pts',(406.925956192656,-29.9965209678006,-0.51910186934387));
#650=CARTESIAN_POINT('Ctrl Pts',(406.721825639284,-29.9839443619467,-1.01183863471817));
#651=CARTESIAN_POINT('Ctrl Pts',(406.567917692092,-29.9750262603329,-1.23668411141216));
#652=CARTESIAN_POINT('Ctrl Pts',(406.212858671429,-29.9582699891501,-1.59174313207532));
#653=CARTESIAN_POINT('Ctrl Pts',(405.988013247786,-29.949343224819,-1.74565098822557));
#654=CARTESIAN_POINT('Ctrl Pts',(405.49527665532,-29.9367468041196,-1.94978146899356));
#655=CARTESIAN_POINT('Ctrl Pts',(405.227379156107,-29.9332590941915,-2.00000000000003));
#656=CARTESIAN_POINT('Ctrl Pts',(404.724970201409,-29.9332590941915,-2.00000000000003));
#657=CARTESIAN_POINT('Ctrl Pts',(404.457072702196,-29.9367468041196,-1.94978146899356));
#658=CARTESIAN_POINT('Ctrl Pts',(403.96433610973,-29.949343224819,-1.74565098822557));
#659=CARTESIAN_POINT('Ctrl Pts',(403.739490686087,-29.9582699891501,-1.59174313207532));
#660=CARTESIAN_POINT('Ctrl Pts',(403.384431665424,-29.9750262603329,-1.23668411141216));
#661=CARTESIAN_POINT('Ctrl Pts',(403.230523718233,-29.9839443619467,-1.01183863471817));
#662=CARTESIAN_POINT('Ctrl Pts',(403.02639316486,-29.9965209678006,-0.51910186934387));
#663=CARTESIAN_POINT('Ctrl Pts',(402.976174678758,-30.,-0.251204309330153));
#664=CARTESIAN_POINT('Ctrl Pts',(402.976174678758,-30.,-2.70616862252382E-15));
#665=CARTESIAN_POINT('Ctrl Pts',(402.976174678758,-30.,2.35922392732846E-15));
#666=CARTESIAN_POINT('Ctrl Pts',(402.976174678758,-30.,0.251204309330153));
#667=CARTESIAN_POINT('Ctrl Pts',(403.02639316486,-29.9965209678006,0.51910186934387));
#668=CARTESIAN_POINT('Ctrl Pts',(403.230523718233,-29.9839443619467,1.01183863471817));
#669=CARTESIAN_POINT('Ctrl Pts',(403.384431665424,-29.9750262603329,1.23668411141216));
#670=CARTESIAN_POINT('Ctrl Pts',(403.739490686087,-29.9582699891501,1.59174313207531));
#671=CARTESIAN_POINT('Ctrl Pts',(403.96433610973,-29.949343224819,1.74565098822557));
#672=CARTESIAN_POINT('Ctrl Pts',(404.457072702196,-29.9367468041196,1.94978146899356));
#673=CARTESIAN_POINT('Ctrl Pts',(404.724970201409,-29.9332590941915,2.00000000000003));
#674=CARTESIAN_POINT('Ctrl Pts',(404.976174678758,-29.9332590941915,2.00000000000003));
#675=CARTESIAN_POINT('',(402.976174678758,-28.,-2.0285924302965E-15));
#676=CARTESIAN_POINT('',(402.976174678758,0.,2.44929359829474E-16));
#677=CARTESIAN_POINT('',(404.976174678758,-27.9284800875379,2.00000000000003));
#678=CARTESIAN_POINT('Ctrl Pts',(404.976174678758,-27.9284800875379,2.00000000000003));
#679=CARTESIAN_POINT('Ctrl Pts',(404.724958319419,-27.9284800875379,2.00000000000003));
#680=CARTESIAN_POINT('Ctrl Pts',(404.457055728668,-27.9322185575352,1.94977683135258));
#681=CARTESIAN_POINT('Ctrl Pts',(403.964322425493,-27.9457187059815,1.7456429248453));
#682=CARTESIAN_POINT('Ctrl Pts',(403.739484437922,-27.955285167959,1.59173688391035));
#683=CARTESIAN_POINT('Ctrl Pts',(403.384437951417,-27.9732406405612,1.23669039740516));
#684=CARTESIAN_POINT('Ctrl Pts',(403.230531789926,-27.9827964439655,1.0118523401541));
#685=CARTESIAN_POINT('Ctrl Pts',(403.026397788747,-27.99627220979,0.519118808540026));
#686=CARTESIAN_POINT('Ctrl Pts',(402.976174678758,-28.,0.25121613777481));
#687=CARTESIAN_POINT('Ctrl Pts',(402.976174678758,-28.,6.73072708679001E-15));
#688=CARTESIAN_POINT('Ctrl Pts',(402.976174678758,-28.,-4.30211422042248E-15));
#689=CARTESIAN_POINT('Ctrl Pts',(402.976174678758,-28.,-0.251216137774808));
#690=CARTESIAN_POINT('Ctrl Pts',(403.026397788747,-27.99627220979,-0.519118808540025));
#691=CARTESIAN_POINT('Ctrl Pts',(403.230531789926,-27.9827964439655,-1.0118523401541));
#692=CARTESIAN_POINT('Ctrl Pts',(403.384437951417,-27.9732406405612,-1.23669039740516));
#693=CARTESIAN_POINT('Ctrl Pts',(403.739484437922,-27.955285167959,-1.59173688391035));
#694=CARTESIAN_POINT('Ctrl Pts',(403.964322425493,-27.9457187059815,-1.7456429248453));
#695=CARTESIAN_POINT('Ctrl Pts',(404.457055728668,-27.9322185575352,-1.94977683135258));
#696=CARTESIAN_POINT('Ctrl Pts',(404.724958319419,-27.9284800875379,-2.00000000000003));
#697=CARTESIAN_POINT('Ctrl Pts',(405.227391038097,-27.9284800875379,-2.00000000000003));
#698=CARTESIAN_POINT('Ctrl Pts',(405.495293628848,-27.9322185575352,-1.94977683135258));
#699=CARTESIAN_POINT('Ctrl Pts',(405.988026932023,-27.9457187059815,-1.7456429248453));
#700=CARTESIAN_POINT('Ctrl Pts',(406.212864919594,-27.955285167959,-1.59173688391035));
#701=CARTESIAN_POINT('Ctrl Pts',(406.567911406099,-27.9732406405612,-1.23669039740516));
#702=CARTESIAN_POINT('Ctrl Pts',(406.721817567591,-27.9827964439655,-1.01185234015402));
#703=CARTESIAN_POINT('Ctrl Pts',(406.925951568769,-27.99627220979,-0.519118808539941));
#704=CARTESIAN_POINT('Ctrl Pts',(406.976174678758,-28.,-0.251216137774804));
#705=CARTESIAN_POINT('Ctrl Pts',(406.976174678758,-28.,0.251216137774803));
#706=CARTESIAN_POINT('Ctrl Pts',(406.925951568769,-27.99627220979,0.519118808539965));
#707=CARTESIAN_POINT('Ctrl Pts',(406.721817567591,-27.9827964439655,1.01185234015402));
#708=CARTESIAN_POINT('Ctrl Pts',(406.567911406099,-27.9732406405612,1.23669039740516));
#709=CARTESIAN_POINT('Ctrl Pts',(406.212864919594,-27.955285167959,1.59173688391035));
#710=CARTESIAN_POINT('Ctrl Pts',(405.988026932023,-27.9457187059815,1.7456429248453));
#711=CARTESIAN_POINT('Ctrl Pts',(405.495293628848,-27.9322185575352,1.94977683135258));
#712=CARTESIAN_POINT('Ctrl Pts',(405.227391038097,-27.9284800875379,2.00000000000003));
#713=CARTESIAN_POINT('Ctrl Pts',(404.976174678758,-27.9284800875379,2.00000000000003));
#714=CARTESIAN_POINT('Origin',(404.976174678758,0.,0.));
#715=CARTESIAN_POINT('',(404.976174678758,27.9284800875379,2.00000000000002));
#716=CARTESIAN_POINT('',(402.976174678758,28.,2.20413285108691E-15));
#717=CARTESIAN_POINT('Ctrl Pts',(404.976174678758,27.9284800875379,2.00000000000002));
#718=CARTESIAN_POINT('Ctrl Pts',(405.227391038097,27.9284800875379,2.00000000000002));
#719=CARTESIAN_POINT('Ctrl Pts',(405.495293628848,27.9322185575352,1.94977683135258));
#720=CARTESIAN_POINT('Ctrl Pts',(405.988026932023,27.9457187059815,1.7456429248453));
#721=CARTESIAN_POINT('Ctrl Pts',(406.212864919594,27.955285167959,1.59173688391035));
#722=CARTESIAN_POINT('Ctrl Pts',(406.567911406099,27.9732406405612,1.23669039740516));
#723=CARTESIAN_POINT('Ctrl Pts',(406.721817567591,27.9827964439655,1.0118523401541));
#724=CARTESIAN_POINT('Ctrl Pts',(406.925951568769,27.99627220979,0.519118808540025));
#725=CARTESIAN_POINT('Ctrl Pts',(406.976174678758,28.,0.251216137774803));
#726=CARTESIAN_POINT('Ctrl Pts',(406.976174678758,28.,-0.251216137774804));
#727=CARTESIAN_POINT('Ctrl Pts',(406.925951568769,27.99627220979,-0.519118808540026));
#728=CARTESIAN_POINT('Ctrl Pts',(406.721817567591,27.9827964439655,-1.0118523401541));
#729=CARTESIAN_POINT('Ctrl Pts',(406.567911406099,27.9732406405612,-1.23669039740516));
#730=CARTESIAN_POINT('Ctrl Pts',(406.212864919594,27.955285167959,-1.59173688391035));
#731=CARTESIAN_POINT('Ctrl Pts',(405.988026932023,27.9457187059815,-1.7456429248453));
#732=CARTESIAN_POINT('Ctrl Pts',(405.495293628848,27.9322185575352,-1.94977683135258));
#733=CARTESIAN_POINT('Ctrl Pts',(405.227391038097,27.9284800875379,-2.00000000000003));
#734=CARTESIAN_POINT('Ctrl Pts',(404.724958319419,27.9284800875379,-2.00000000000003));
#735=CARTESIAN_POINT('Ctrl Pts',(404.457055728668,27.9322185575352,-1.94977683135258));
#736=CARTESIAN_POINT('Ctrl Pts',(403.964322425493,27.9457187059815,-1.7456429248453));
#737=CARTESIAN_POINT('Ctrl Pts',(403.739484437922,27.955285167959,-1.59173688391035));
#738=CARTESIAN_POINT('Ctrl Pts',(403.384437951417,27.9732406405612,-1.23669039740516));
#739=CARTESIAN_POINT('Ctrl Pts',(403.230531789926,27.9827964439655,-1.0118523401541));
#740=CARTESIAN_POINT('Ctrl Pts',(403.026397788747,27.99627220979,-0.519118808540025));
#741=CARTESIAN_POINT('Ctrl Pts',(402.976174678758,28.,-0.251216137774809));
#742=CARTESIAN_POINT('Ctrl Pts',(402.976174678758,28.,-5.759281940243E-15));
#743=CARTESIAN_POINT('Ctrl Pts',(402.976174678758,28.,5.20417042793042E-15));
#744=CARTESIAN_POINT('Ctrl Pts',(402.976174678758,28.,0.251216137774808));
#745=CARTESIAN_POINT('Ctrl Pts',(403.026397788747,27.99627220979,0.519118808540025));
#746=CARTESIAN_POINT('Ctrl Pts',(403.230531789926,27.9827964439655,1.0118523401541));
#747=CARTESIAN_POINT('Ctrl Pts',(403.384437951417,27.9732406405612,1.23669039740516));
#748=CARTESIAN_POINT('Ctrl Pts',(403.739484437922,27.955285167959,1.59173688391035));
#749=CARTESIAN_POINT('Ctrl Pts',(403.964322425493,27.9457187059815,1.7456429248453));
#750=CARTESIAN_POINT('Ctrl Pts',(404.457055728668,27.9322185575352,1.94977683135258));
#751=CARTESIAN_POINT('Ctrl Pts',(404.724958319419,27.9284800875379,2.00000000000002));
#752=CARTESIAN_POINT('Ctrl Pts',(404.976174678758,27.9284800875379,2.00000000000002));
#753=CARTESIAN_POINT('',(402.976174678758,30.,2.44929359829474E-16));
#754=CARTESIAN_POINT('',(402.976174678758,0.,2.44929359829474E-16));
#755=CARTESIAN_POINT('',(404.976174678758,29.9332590941915,2.00000000000002));
#756=CARTESIAN_POINT('Ctrl Pts',(404.976174678758,29.9332590941915,2.00000000000002));
#757=CARTESIAN_POINT('Ctrl Pts',(404.724970201409,29.9332590941915,2.00000000000002));
#758=CARTESIAN_POINT('Ctrl Pts',(404.457072702196,29.9367468041196,1.94978146899356));
#759=CARTESIAN_POINT('Ctrl Pts',(403.96433610973,29.949343224819,1.74565098822557));
#760=CARTESIAN_POINT('Ctrl Pts',(403.739490686087,29.9582699891501,1.59174313207531));
#761=CARTESIAN_POINT('Ctrl Pts',(403.384431665424,29.9750262603329,1.23668411141216));
#762=CARTESIAN_POINT('Ctrl Pts',(403.230523718233,29.9839443619467,1.01183863471817));
#763=CARTESIAN_POINT('Ctrl Pts',(403.02639316486,29.9965209678006,0.51910186934387));
#764=CARTESIAN_POINT('Ctrl Pts',(402.976174678758,30.,0.251204309330151));
#765=CARTESIAN_POINT('Ctrl Pts',(402.976174678758,30.,7.63278329429795E-16));
#766=CARTESIAN_POINT('Ctrl Pts',(402.976174678758,30.,1.2490009027033E-15));
#767=CARTESIAN_POINT('Ctrl Pts',(402.976174678758,30.,-0.251204309330149));
#768=CARTESIAN_POINT('Ctrl Pts',(403.02639316486,29.9965209678006,-0.519101869343893));
#769=CARTESIAN_POINT('Ctrl Pts',(403.230523718233,29.9839443619467,-1.0118386347182));
#770=CARTESIAN_POINT('Ctrl Pts',(403.384431665424,29.9750262603329,-1.23668411141216));
#771=CARTESIAN_POINT('Ctrl Pts',(403.739490686087,29.9582699891501,-1.59174313207532));
#772=CARTESIAN_POINT('Ctrl Pts',(403.96433610973,29.949343224819,-1.74565098822557));
#773=CARTESIAN_POINT('Ctrl Pts',(404.457072702196,29.9367468041196,-1.94978146899356));
#774=CARTESIAN_POINT('Ctrl Pts',(404.724970201409,29.9332590941915,-2.00000000000003));
#775=CARTESIAN_POINT('Ctrl Pts',(405.227379156107,29.9332590941915,-2.00000000000003));
#776=CARTESIAN_POINT('Ctrl Pts',(405.49527665532,29.9367468041196,-1.94978146899356));
#777=CARTESIAN_POINT('Ctrl Pts',(405.988013247786,29.949343224819,-1.74565098822557));
#778=CARTESIAN_POINT('Ctrl Pts',(406.212858671429,29.9582699891501,-1.59174313207532));
#779=CARTESIAN_POINT('Ctrl Pts',(406.567917692092,29.9750262603329,-1.23668411141216));
#780=CARTESIAN_POINT('Ctrl Pts',(406.721825639284,29.9839443619467,-1.01183863471817));
#781=CARTESIAN_POINT('Ctrl Pts',(406.925956192656,29.9965209678006,-0.51910186934387));
#782=CARTESIAN_POINT('Ctrl Pts',(406.976174678758,30.,-0.25120430933015));
#783=CARTESIAN_POINT('Ctrl Pts',(406.976174678758,30.,0.25120430933015));
#784=CARTESIAN_POINT('Ctrl Pts',(406.925956192656,29.9965209678006,0.51910186934387));
#785=CARTESIAN_POINT('Ctrl Pts',(406.721825639284,29.9839443619467,1.01183863471817));
#786=CARTESIAN_POINT('Ctrl Pts',(406.567917692092,29.9750262603329,1.23668411141216));
#787=CARTESIAN_POINT('Ctrl Pts',(406.212858671429,29.9582699891501,1.59174313207532));
#788=CARTESIAN_POINT('Ctrl Pts',(405.988013247786,29.949343224819,1.74565098822557));
#789=CARTESIAN_POINT('Ctrl Pts',(405.49527665532,29.9367468041196,1.94978146899356));
#790=CARTESIAN_POINT('Ctrl Pts',(405.227379156107,29.9332590941915,2.00000000000002));
#791=CARTESIAN_POINT('Ctrl Pts',(404.976174678758,29.9332590941915,2.00000000000003));
#792=CARTESIAN_POINT('Origin',(274.976174678758,0.00850904022022169,-0.00850904022022169));
#793=CARTESIAN_POINT('',(274.976174678758,-1.99149095977978,-29.9338264135596));
#794=CARTESIAN_POINT('',(272.976174678758,0.00850904022021546,-29.9999987932705));
#795=CARTESIAN_POINT('Ctrl Pts',(274.976174678758,-1.99149095977978,-29.9338264135596));
#796=CARTESIAN_POINT('Ctrl Pts',(275.227378968475,-1.99149095977977,-29.9338264135596));
#797=CARTESIAN_POINT('Ctrl Pts',(275.495276648071,-1.94127251318367,-29.9372997732917));
#798=CARTESIAN_POINT('Ctrl Pts',(275.98801429705,-1.73714143191019,-29.9498380014303));
#799=CARTESIAN_POINT('Ctrl Pts',(276.212860561565,-1.58323285858213,-29.9587209390642));
#800=CARTESIAN_POINT('Ctrl Pts',(276.567919869589,-1.22817223682693,-29.9753762126366));
#801=CARTESIAN_POINT('Ctrl Pts',(276.72182740541,-1.00332643556534,-29.9842303886203));
#802=CARTESIAN_POINT('Ctrl Pts',(276.925956852701,-0.51059013167426,-29.9966670423739));
#803=CARTESIAN_POINT('Ctrl Pts',(276.976174678758,-0.242693422923859,-30.0000700430022));
#804=CARTESIAN_POINT('Ctrl Pts',(276.976174678758,0.259715196871195,-29.9999275424913));
#805=CARTESIAN_POINT('Ctrl Pts',(276.92595553228,0.527613610745123,-29.9963724773662));
#806=CARTESIAN_POINT('Ctrl Pts',(276.721823867016,1.02035084573522,-29.9836559157704));
#807=CARTESIAN_POINT('Ctrl Pts',(276.567915502862,1.24519600334771,-29.9746738862312));
#808=CARTESIAN_POINT('Ctrl Pts',(276.212856763991,1.60025341724256,-29.9578166142884));
#809=CARTESIAN_POINT('Ctrl Pts',(275.988012186779,1.7541605506022,-29.9488460218229));
#810=CARTESIAN_POINT('Ctrl Pts',(275.495276658997,1.95829042508718,-29.9361914061783));
#811=CARTESIAN_POINT('Ctrl Pts',(275.227379342725,2.00850904022021,-29.932689345185));
#812=CARTESIAN_POINT('Ctrl Pts',(274.724970014791,2.00850904022021,-29.932689345185));
#813=CARTESIAN_POINT('Ctrl Pts',(274.457072698519,1.95829042508718,-29.9361914061783));
#814=CARTESIAN_POINT('Ctrl Pts',(273.964337170738,1.7541605506022,-29.9488460218229));
#815=CARTESIAN_POINT('Ctrl Pts',(273.739492593525,1.60025341724256,-29.9578166142884));
#816=CARTESIAN_POINT('Ctrl Pts',(273.384433854655,1.24519600334771,-29.9746738862312));
#817=CARTESIAN_POINT('Ctrl Pts',(273.2305254905,1.02035084573522,-29.9836559157704));
#818=CARTESIAN_POINT('Ctrl Pts',(273.026393825236,0.527613610745123,-29.9963724773662));
#819=CARTESIAN_POINT('Ctrl Pts',(272.976174678758,0.259715196871195,-29.9999275424913));
#820=CARTESIAN_POINT('Ctrl Pts',(272.976174678758,0.00850904022021509,-29.9999987932705));
#821=CARTESIAN_POINT('Ctrl Pts',(272.976174678758,0.00850904022021606,-29.9999987932705));
#822=CARTESIAN_POINT('Ctrl Pts',(272.976174678758,-0.242693422923858,-30.0000700430022));
#823=CARTESIAN_POINT('Ctrl Pts',(273.026392504816,-0.510590131674286,-29.9966670423739));
#824=CARTESIAN_POINT('Ctrl Pts',(273.230521952106,-1.00332643556537,-29.9842303886203));
#825=CARTESIAN_POINT('Ctrl Pts',(273.384429487927,-1.22817223682693,-29.9753762126366));
#826=CARTESIAN_POINT('Ctrl Pts',(273.739488795951,-1.58323285858213,-29.9587209390642));
#827=CARTESIAN_POINT('Ctrl Pts',(273.964335060467,-1.73714143191019,-29.9498380014303));
#828=CARTESIAN_POINT('Ctrl Pts',(274.457072709446,-1.94127251318367,-29.9372997732917));
#829=CARTESIAN_POINT('Ctrl Pts',(274.724970389041,-1.99149095977978,-29.9338264135596));
#830=CARTESIAN_POINT('Ctrl Pts',(274.976174678758,-1.99149095977978,-29.9338264135596));
#831=CARTESIAN_POINT('',(272.976174678758,0.00850904022021627,-27.9999987070756));
#832=CARTESIAN_POINT('',(272.976174678758,0.00850904022022145,-0.00850904022022169));
#833=CARTESIAN_POINT('',(274.976174678758,-1.99149095977978,-27.9290881297101));
#834=CARTESIAN_POINT('Ctrl Pts',(274.976174678758,-1.99149095977978,-27.9290881297101));
#835=CARTESIAN_POINT('Ctrl Pts',(274.724958535498,-1.99149095977978,-27.9290881297101));
#836=CARTESIAN_POINT('Ctrl Pts',(274.457055737667,-1.94126788824812,-27.9328112060736));
#837=CARTESIAN_POINT('Ctrl Pts',(273.964321221133,-1.73713329228437,-27.9462489574174));
#838=CARTESIAN_POINT('Ctrl Pts',(273.739482267875,-1.58322642775979,-27.9557684352151));
#839=CARTESIAN_POINT('Ctrl Pts',(273.384435451053,-1.22817810269681,-27.9736156537066));
#840=CARTESIAN_POINT('Ctrl Pts',(273.230529761891,-1.0033396726171,-27.9831029435367));
#841=CARTESIAN_POINT('Ctrl Pts',(273.0263970308,-0.510606670886016,-27.996428730719));
#842=CARTESIAN_POINT('Ctrl Pts',(272.976174678758,-0.242704977653443,-28.0000750495856));
#843=CARTESIAN_POINT('Ctrl Pts',(272.976174678758,0.00850904022021523,-27.9999987070756));
#844=CARTESIAN_POINT('Ctrl Pts',(272.976174678758,0.00850904022021749,-27.9999987070756));
#845=CARTESIAN_POINT('Ctrl Pts',(272.976174678758,0.259727299211665,-27.9999223632767));
#846=CARTESIAN_POINT('Ctrl Pts',(273.026398547081,0.527630950497633,-27.9961131000564));
#847=CARTESIAN_POINT('Ctrl Pts',(273.230533825023,1.02036502133255,-27.9824873511088));
#848=CARTESIAN_POINT('Ctrl Pts',(273.384440465267,1.24520271204775,-27.9728630313059));
#849=CARTESIAN_POINT('Ctrl Pts',(273.73948662784,1.60024735346771,-27.954799300716));
#850=CARTESIAN_POINT('Ctrl Pts',(273.964323643336,1.7541525643646,-27.945185852789));
#851=CARTESIAN_POINT('Ctrl Pts',(274.457055723764,1.95828577478039,-27.9316233043027));
#852=CARTESIAN_POINT('Ctrl Pts',(274.724958104497,2.00850904022021,-27.9278694396002));
#853=CARTESIAN_POINT('Ctrl Pts',(275.227391253019,2.00850904022021,-27.9278694396002));
#854=CARTESIAN_POINT('Ctrl Pts',(275.495293633753,1.95828577478035,-27.9316233043027));
#855=CARTESIAN_POINT('Ctrl Pts',(275.98802571418,1.75415256436455,-27.945185852789));
#856=CARTESIAN_POINT('Ctrl Pts',(276.212862729676,1.60024735346771,-27.954799300716));
#857=CARTESIAN_POINT('Ctrl Pts',(276.56790889225,1.24520271204775,-27.9728630313059));
#858=CARTESIAN_POINT('Ctrl Pts',(276.721815532494,1.02036502133254,-27.9824873511088));
#859=CARTESIAN_POINT('Ctrl Pts',(276.925950810435,0.527630950497622,-27.9961131000564));
#860=CARTESIAN_POINT('Ctrl Pts',(276.976174678758,0.259727299211664,-27.9999223632767));
#861=CARTESIAN_POINT('Ctrl Pts',(276.976174678758,-0.242704977653442,-28.0000750495856));
#862=CARTESIAN_POINT('Ctrl Pts',(276.925952326717,-0.510606670886015,-27.996428730719));
#863=CARTESIAN_POINT('Ctrl Pts',(276.721819595625,-1.0033396726171,-27.9831029435367));
#864=CARTESIAN_POINT('Ctrl Pts',(276.567913906464,-1.22817810269681,-27.9736156537066));
#865=CARTESIAN_POINT('Ctrl Pts',(276.212867089642,-1.58322642775979,-27.9557684352151));
#866=CARTESIAN_POINT('Ctrl Pts',(275.988028136383,-1.73713329228437,-27.9462489574174));
#867=CARTESIAN_POINT('Ctrl Pts',(275.495293619849,-1.94126788824812,-27.9328112060736));
#868=CARTESIAN_POINT('Ctrl Pts',(275.227390822018,-1.99149095977978,-27.9290881297101));
#869=CARTESIAN_POINT('Ctrl Pts',(274.976174678758,-1.99149095977978,-27.9290881297101));
#870=CARTESIAN_POINT('Origin',(274.976174678758,0.00850904022022169,-0.00850904022022169));
#871=CARTESIAN_POINT('',(274.976174678758,-1.99149095977977,27.9290881297101));
#872=CARTESIAN_POINT('',(276.976156577715,-2.29601877154071E-9,28.));
#873=CARTESIAN_POINT('Ctrl Pts',(274.976174678758,-1.99149095977977,27.9290881297101));
#874=CARTESIAN_POINT('Ctrl Pts',(275.227390822018,-1.99149095977977,27.9290881297101));
#875=CARTESIAN_POINT('Ctrl Pts',(275.495293619849,-1.94126788824811,27.9328112060736));
#876=CARTESIAN_POINT('Ctrl Pts',(275.988028136383,-1.73713329228435,27.9462489574174));
#877=CARTESIAN_POINT('Ctrl Pts',(276.212867089642,-1.58322642775978,27.9557684352151));
#878=CARTESIAN_POINT('Ctrl Pts',(276.567913906464,-1.2281781026968,27.9736156537066));
#879=CARTESIAN_POINT('Ctrl Pts',(276.721819595625,-1.00333967261709,27.9831029435367));
#880=CARTESIAN_POINT('Ctrl Pts',(276.924800795997,-0.513386221158162,27.9963535587795));
#881=CARTESIAN_POINT('Ctrl Pts',(276.975098266163,-0.248747542735716,27.9999999999592));
#882=CARTESIAN_POINT('Ctrl Pts',(276.976156577715,-4.59203772229522E-9,
28.));
#883=CARTESIAN_POINT('',(272.976192779801,-2.29602008993055E-9,28.));
#884=CARTESIAN_POINT('Ctrl Pts',(272.976192779801,-4.5920407060196E-9,28.));
#885=CARTESIAN_POINT('Ctrl Pts',(272.977251091354,-0.248747542735719,27.9999999999592));
#886=CARTESIAN_POINT('Ctrl Pts',(273.02754856152,-0.513386221158163,27.9963535587795));
#887=CARTESIAN_POINT('Ctrl Pts',(273.230529761891,-1.00333967261709,27.9831029435367));
#888=CARTESIAN_POINT('Ctrl Pts',(273.384435451053,-1.2281781026968,27.9736156537066));
#889=CARTESIAN_POINT('Ctrl Pts',(273.739482267875,-1.58322642775978,27.9557684352151));
#890=CARTESIAN_POINT('Ctrl Pts',(273.964321221133,-1.73713329228432,27.9462489574175));
#891=CARTESIAN_POINT('Ctrl Pts',(274.457055737667,-1.9412678882481,27.9328112060736));
#892=CARTESIAN_POINT('Ctrl Pts',(274.724958535498,-1.99149095977977,27.9290881297101));
#893=CARTESIAN_POINT('Ctrl Pts',(274.976174678758,-1.99149095977976,27.9290881297101));
#894=CARTESIAN_POINT('',(272.976174678758,0.00850904022022787,27.9999987070756));
#895=CARTESIAN_POINT('Ctrl Pts',(272.976174678758,0.00850904022022768,27.9999987070756));
#896=CARTESIAN_POINT('Ctrl Pts',(272.976174678758,0.00567479940705829,27.9999995683852));
#897=CARTESIAN_POINT('Ctrl Pts',(272.976180703497,0.0028384327120218,28.0000000000005));
#898=CARTESIAN_POINT('Ctrl Pts',(272.976192779801,-4.59203652205286E-9,
28.));
#899=CARTESIAN_POINT('',(272.976174678758,0.00850904022022785,29.9999987932705));
#900=CARTESIAN_POINT('',(272.976174678758,0.00850904022022145,-0.00850904022022169));
#901=CARTESIAN_POINT('',(272.976192779801,-2.29609091972411E-9,30.));
#902=CARTESIAN_POINT('Ctrl Pts',(272.976192779801,-4.59217676578159E-9,
30.));
#903=CARTESIAN_POINT('Ctrl Pts',(272.976180703492,0.00283843373728752,30.0000000000004));
#904=CARTESIAN_POINT('Ctrl Pts',(272.976174678758,0.005674800434685,29.9999995971593));
#905=CARTESIAN_POINT('Ctrl Pts',(272.976174678758,0.00850904022022864,29.9999987932705));
#906=CARTESIAN_POINT('',(274.976174678758,-1.99149095977976,29.9338264135596));
#907=CARTESIAN_POINT('Ctrl Pts',(274.976174678758,-1.99149095977976,29.9338264135596));
#908=CARTESIAN_POINT('Ctrl Pts',(274.724970389041,-1.99149095977976,29.9338264135596));
#909=CARTESIAN_POINT('Ctrl Pts',(274.457072709446,-1.94127251318365,29.9372997732917));
#910=CARTESIAN_POINT('Ctrl Pts',(273.964335060467,-1.73714143191018,29.9498380014303));
#911=CARTESIAN_POINT('Ctrl Pts',(273.739488795951,-1.58323285858211,29.9587209390642));
#912=CARTESIAN_POINT('Ctrl Pts',(273.384429487927,-1.22817223682692,29.9753762126366));
#913=CARTESIAN_POINT('Ctrl Pts',(273.230521952106,-1.00332643556533,29.9842303886203));
#914=CARTESIAN_POINT('Ctrl Pts',(273.027544069561,-0.513369827420042,29.9965968829128));
#915=CARTESIAN_POINT('Ctrl Pts',(272.977251042891,-0.248736151970253,29.9999999999619));
#916=CARTESIAN_POINT('Ctrl Pts',(272.976192779801,-4.59217941450873E-9,
30.));
#917=CARTESIAN_POINT('',(276.976156577715,-2.29609008705685E-9,30.));
#918=CARTESIAN_POINT('Ctrl Pts',(276.976156577715,-4.59217830428571E-9,
30.));
#919=CARTESIAN_POINT('Ctrl Pts',(276.975098314625,-0.248736151970251,29.9999999999619));
#920=CARTESIAN_POINT('Ctrl Pts',(276.924805287955,-0.513369827420043,29.9965968829128));
#921=CARTESIAN_POINT('Ctrl Pts',(276.72182740541,-1.00332643556533,29.9842303886203));
#922=CARTESIAN_POINT('Ctrl Pts',(276.567919869589,-1.22817223682692,29.9753762126366));
#923=CARTESIAN_POINT('Ctrl Pts',(276.212860561565,-1.58323285858211,29.9587209390642));
#924=CARTESIAN_POINT('Ctrl Pts',(275.98801429705,-1.73714143191018,29.9498380014303));
#925=CARTESIAN_POINT('Ctrl Pts',(275.495276648071,-1.94127251318365,29.9372997732917));
#926=CARTESIAN_POINT('Ctrl Pts',(275.227378968475,-1.99149095977976,29.9338264135596));
#927=CARTESIAN_POINT('Ctrl Pts',(274.976174678758,-1.99149095977976,29.9338264135596));
#928=CARTESIAN_POINT('Ctrl Pts',(272.976174678758,0.00850904022022723,29.9999987932705));
#929=CARTESIAN_POINT('Ctrl Pts',(272.976174678758,0.259715196871207,29.9999275424913));
#930=CARTESIAN_POINT('Ctrl Pts',(273.026393825236,0.527613610745137,29.9963724773662));
#931=CARTESIAN_POINT('Ctrl Pts',(273.2305254905,1.02035084573523,29.9836559157704));
#932=CARTESIAN_POINT('Ctrl Pts',(273.384433854655,1.24519600334772,29.9746738862312));
#933=CARTESIAN_POINT('Ctrl Pts',(273.739492593525,1.60025341724257,29.9578166142884));
#934=CARTESIAN_POINT('Ctrl Pts',(273.964337170738,1.75416055060222,29.9488460218229));
#935=CARTESIAN_POINT('Ctrl Pts',(274.457072698519,1.95829042508719,29.9361914061783));
#936=CARTESIAN_POINT('Ctrl Pts',(274.724970014791,2.00850904022022,29.932689345185));
#937=CARTESIAN_POINT('Ctrl Pts',(275.227379342725,2.00850904022022,29.932689345185));
#938=CARTESIAN_POINT('Ctrl Pts',(275.495276658997,1.95829042508719,29.9361914061783));
#939=CARTESIAN_POINT('Ctrl Pts',(275.988012186779,1.75416055060222,29.9488460218229));
#940=CARTESIAN_POINT('Ctrl Pts',(276.212856763991,1.60025341724257,29.9578166142884));
#941=CARTESIAN_POINT('Ctrl Pts',(276.567915502862,1.24519600334772,29.9746738862312));
#942=CARTESIAN_POINT('Ctrl Pts',(276.721823867016,1.02035084573523,29.9836559157704));
#943=CARTESIAN_POINT('Ctrl Pts',(276.92595553228,0.527613610745136,29.9963724773662));
#944=CARTESIAN_POINT('Ctrl Pts',(276.976174678758,0.259715196871208,29.9999275424913));
#945=CARTESIAN_POINT('Ctrl Pts',(276.976174678758,0.00567480043468465,29.9999995971593));
#946=CARTESIAN_POINT('Ctrl Pts',(276.976168654024,0.00283843373728717,30.0000000000004));
#947=CARTESIAN_POINT('Ctrl Pts',(276.976156577715,-4.5921773130126E-9,30.));
#948=CARTESIAN_POINT('Ctrl Pts',(276.976156577715,-4.59203647391296E-9,
28.));
#949=CARTESIAN_POINT('Ctrl Pts',(276.97616865402,0.00283843271202202,28.0000000000005));
#950=CARTESIAN_POINT('Ctrl Pts',(276.976174678758,0.00567479940705898,27.9999995683852));
#951=CARTESIAN_POINT('Ctrl Pts',(276.976174678758,0.259727299211676,27.9999223632767));
#952=CARTESIAN_POINT('Ctrl Pts',(276.925950810435,0.527630950497646,27.9961131000564));
#953=CARTESIAN_POINT('Ctrl Pts',(276.721815532494,1.02036502133256,27.9824873511088));
#954=CARTESIAN_POINT('Ctrl Pts',(276.56790889225,1.24520271204776,27.9728630313059));
#955=CARTESIAN_POINT('Ctrl Pts',(276.212862729676,1.60024735346772,27.954799300716));
#956=CARTESIAN_POINT('Ctrl Pts',(275.98802571418,1.75415256436453,27.945185852789));
#957=CARTESIAN_POINT('Ctrl Pts',(275.495293633753,1.95828577478037,27.9316233043027));
#958=CARTESIAN_POINT('Ctrl Pts',(275.227391253019,2.00850904022022,27.9278694396002));
#959=CARTESIAN_POINT('Ctrl Pts',(274.724958104497,2.00850904022022,27.9278694396002));
#960=CARTESIAN_POINT('Ctrl Pts',(274.457055723764,1.95828577478038,27.9316233043027));
#961=CARTESIAN_POINT('Ctrl Pts',(273.964323643336,1.75415256436461,27.945185852789));
#962=CARTESIAN_POINT('Ctrl Pts',(273.73948662784,1.60024735346772,27.954799300716));
#963=CARTESIAN_POINT('Ctrl Pts',(273.384440465267,1.24520271204776,27.9728630313059));
#964=CARTESIAN_POINT('Ctrl Pts',(273.230533825023,1.02036502133256,27.9824873511088));
#965=CARTESIAN_POINT('Ctrl Pts',(273.026398547081,0.527630950497645,27.9961131000564));
#966=CARTESIAN_POINT('Ctrl Pts',(272.976174678758,0.259727299211675,27.9999223632767));
#967=CARTESIAN_POINT('Ctrl Pts',(272.976174678758,0.00850904022022768,27.9999987070756));
#968=CARTESIAN_POINT('Origin',(274.976174678758,0.,0.));
#969=CARTESIAN_POINT('',(274.976174678758,-29.9332590941915,1.99999999999999));
#970=CARTESIAN_POINT('',(272.976174678758,-30.,2.4492935982947E-16));
#971=CARTESIAN_POINT('Ctrl Pts',(274.976174678758,-29.9332590941915,1.99999999999999));
#972=CARTESIAN_POINT('Ctrl Pts',(275.227379156107,-29.9332590941915,1.99999999999999));
#973=CARTESIAN_POINT('Ctrl Pts',(275.49527665532,-29.9367468041196,1.94978146899351));
#974=CARTESIAN_POINT('Ctrl Pts',(275.988013247786,-29.949343224819,1.74565098822554));
#975=CARTESIAN_POINT('Ctrl Pts',(276.212858671429,-29.9582699891501,1.59174313207529));
#976=CARTESIAN_POINT('Ctrl Pts',(276.567917692092,-29.9750262603329,1.23668411141214));
#977=CARTESIAN_POINT('Ctrl Pts',(276.721825639284,-29.9839443619467,1.01183863471816));
#978=CARTESIAN_POINT('Ctrl Pts',(276.925956192656,-29.9965209678006,0.519101869343858));
#979=CARTESIAN_POINT('Ctrl Pts',(276.976174678758,-30.,0.251204309330144));
#980=CARTESIAN_POINT('Ctrl Pts',(276.976174678758,-30.,-0.251204309330144));
#981=CARTESIAN_POINT('Ctrl Pts',(276.925956192656,-29.9965209678006,-0.519101869343858));
#982=CARTESIAN_POINT('Ctrl Pts',(276.721825639284,-29.9839443619467,-1.01183863471816));
#983=CARTESIAN_POINT('Ctrl Pts',(276.567917692092,-29.9750262603329,-1.23668411141214));
#984=CARTESIAN_POINT('Ctrl Pts',(276.212858671429,-29.9582699891501,-1.59174313207529));
#985=CARTESIAN_POINT('Ctrl Pts',(275.988013247786,-29.949343224819,-1.74565098822554));
#986=CARTESIAN_POINT('Ctrl Pts',(275.49527665532,-29.9367468041196,-1.94978146899351));
#987=CARTESIAN_POINT('Ctrl Pts',(275.227379156107,-29.9332590941915,-1.99999999999999));
#988=CARTESIAN_POINT('Ctrl Pts',(274.724970201409,-29.9332590941915,-1.99999999999999));
#989=CARTESIAN_POINT('Ctrl Pts',(274.457072702196,-29.9367468041196,-1.94978146899351));
#990=CARTESIAN_POINT('Ctrl Pts',(273.96433610973,-29.949343224819,-1.74565098822554));
#991=CARTESIAN_POINT('Ctrl Pts',(273.739490686087,-29.9582699891501,-1.59174313207529));
#992=CARTESIAN_POINT('Ctrl Pts',(273.384431665424,-29.9750262603329,-1.23668411141214));
#993=CARTESIAN_POINT('Ctrl Pts',(273.230523718233,-29.9839443619467,-1.01183863471815));
#994=CARTESIAN_POINT('Ctrl Pts',(273.02639316486,-29.9965209678006,-0.519101869343857));
#995=CARTESIAN_POINT('Ctrl Pts',(272.976174678758,-30.,-0.251204309330143));
#996=CARTESIAN_POINT('Ctrl Pts',(272.976174678758,-30.,2.77555756156289E-16));
#997=CARTESIAN_POINT('Ctrl Pts',(272.976174678758,-30.,-8.32667268468867E-16));
#998=CARTESIAN_POINT('Ctrl Pts',(272.976174678758,-30.,0.251204309330143));
#999=CARTESIAN_POINT('Ctrl Pts',(273.02639316486,-29.9965209678006,0.519101869343856));
#1000=CARTESIAN_POINT('Ctrl Pts',(273.230523718233,-29.9839443619467,1.01183863471815));
#1001=CARTESIAN_POINT('Ctrl Pts',(273.384431665424,-29.9750262603329,1.23668411141214));
#1002=CARTESIAN_POINT('Ctrl Pts',(273.739490686087,-29.9582699891501,1.59174313207529));
#1003=CARTESIAN_POINT('Ctrl Pts',(273.96433610973,-29.949343224819,1.74565098822548));
#1004=CARTESIAN_POINT('Ctrl Pts',(274.457072702196,-29.9367468041196,1.94978146899349));
#1005=CARTESIAN_POINT('Ctrl Pts',(274.724970201409,-29.9332590941915,1.99999999999999));
#1006=CARTESIAN_POINT('Ctrl Pts',(274.976174678758,-29.9332590941915,1.99999999999999));
#1007=CARTESIAN_POINT('',(272.976174678758,-28.,-1.55091076241554E-16));
#1008=CARTESIAN_POINT('',(272.976174678758,0.,2.4492935982947E-16));
#1009=CARTESIAN_POINT('',(274.976174678758,-27.9284800875379,2.));
#1010=CARTESIAN_POINT('Ctrl Pts',(274.976174678758,-27.9284800875379,2.));
#1011=CARTESIAN_POINT('Ctrl Pts',(274.724958319419,-27.9284800875379,1.99999999999999));
#1012=CARTESIAN_POINT('Ctrl Pts',(274.457055728668,-27.9322185575352,1.94977683135257));
#1013=CARTESIAN_POINT('Ctrl Pts',(273.964322425493,-27.9457187059815,1.74564292484531));
#1014=CARTESIAN_POINT('Ctrl Pts',(273.739484437922,-27.955285167959,1.59173688391033));
#1015=CARTESIAN_POINT('Ctrl Pts',(273.384437951417,-27.9732406405612,1.23669039740513));
#1016=CARTESIAN_POINT('Ctrl Pts',(273.230531789926,-27.9827964439655,1.01185234015404));
#1017=CARTESIAN_POINT('Ctrl Pts',(273.026397788747,-27.99627220979,0.519118808539998));
#1018=CARTESIAN_POINT('Ctrl Pts',(272.976174678758,-28.,0.251216137774797));
#1019=CARTESIAN_POINT('Ctrl Pts',(272.976174678758,-28.,0.));
#1020=CARTESIAN_POINT('Ctrl Pts',(272.976174678758,-28.,-5.55111512312578E-16));
#1021=CARTESIAN_POINT('Ctrl Pts',(272.976174678758,-28.,-0.251216137774798));
#1022=CARTESIAN_POINT('Ctrl Pts',(273.026397788747,-27.99627220979,-0.519118808539998));
#1023=CARTESIAN_POINT('Ctrl Pts',(273.230531789926,-27.9827964439655,-1.01185234015404));
#1024=CARTESIAN_POINT('Ctrl Pts',(273.384437951417,-27.9732406405612,-1.23669039740513));
#1025=CARTESIAN_POINT('Ctrl Pts',(273.739484437922,-27.955285167959,-1.59173688391033));
#1026=CARTESIAN_POINT('Ctrl Pts',(273.964322425493,-27.9457187059815,-1.74564292484531));
#1027=CARTESIAN_POINT('Ctrl Pts',(274.457055728668,-27.9322185575352,-1.94977683135257));
#1028=CARTESIAN_POINT('Ctrl Pts',(274.724958319419,-27.9284800875379,-1.99999999999999));
#1029=CARTESIAN_POINT('Ctrl Pts',(275.227391038097,-27.9284800875379,-1.99999999999999));
#1030=CARTESIAN_POINT('Ctrl Pts',(275.495293628848,-27.9322185575352,-1.94977683135257));
#1031=CARTESIAN_POINT('Ctrl Pts',(275.988026932023,-27.9457187059815,-1.74564292484531));
#1032=CARTESIAN_POINT('Ctrl Pts',(276.212864919594,-27.955285167959,-1.59173688391033));
#1033=CARTESIAN_POINT('Ctrl Pts',(276.567911406099,-27.9732406405612,-1.23669039740513));
#1034=CARTESIAN_POINT('Ctrl Pts',(276.721817567591,-27.9827964439655,-1.01185234015404));
#1035=CARTESIAN_POINT('Ctrl Pts',(276.925951568769,-27.99627220979,-0.519118808539998));
#1036=CARTESIAN_POINT('Ctrl Pts',(276.976174678758,-28.,-0.251216137774797));
#1037=CARTESIAN_POINT('Ctrl Pts',(276.976174678758,-28.,0.251216137774796));
#1038=CARTESIAN_POINT('Ctrl Pts',(276.925951568769,-27.99627220979,0.519118808539998));
#1039=CARTESIAN_POINT('Ctrl Pts',(276.721817567591,-27.9827964439655,1.01185234015404));
#1040=CARTESIAN_POINT('Ctrl Pts',(276.567911406099,-27.9732406405612,1.23669039740513));
#1041=CARTESIAN_POINT('Ctrl Pts',(276.212864919594,-27.955285167959,1.59173688391033));
#1042=CARTESIAN_POINT('Ctrl Pts',(275.988026932023,-27.9457187059815,1.74564292484531));
#1043=CARTESIAN_POINT('Ctrl Pts',(275.495293628848,-27.9322185575352,1.94977683135257));
#1044=CARTESIAN_POINT('Ctrl Pts',(275.227391038097,-27.9284800875379,1.99999999999999));
#1045=CARTESIAN_POINT('Ctrl Pts',(274.976174678758,-27.9284800875379,1.99999999999999));
#1046=CARTESIAN_POINT('Origin',(274.976174678758,0.,0.));
#1047=CARTESIAN_POINT('',(274.976174678758,27.9284800875379,1.99999999999999));
#1048=CARTESIAN_POINT('',(272.976174678758,28.,1.09390982646175E-15));
#1049=CARTESIAN_POINT('Ctrl Pts',(274.976174678758,27.9284800875379,1.99999999999999));
#1050=CARTESIAN_POINT('Ctrl Pts',(275.227391038097,27.9284800875379,1.99999999999999));
#1051=CARTESIAN_POINT('Ctrl Pts',(275.495293628848,27.9322185575352,1.94977683135257));
#1052=CARTESIAN_POINT('Ctrl Pts',(275.988026932023,27.9457187059815,1.74564292484531));
#1053=CARTESIAN_POINT('Ctrl Pts',(276.212864919594,27.955285167959,1.59173688391033));
#1054=CARTESIAN_POINT('Ctrl Pts',(276.567911406099,27.9732406405612,1.23669039740513));
#1055=CARTESIAN_POINT('Ctrl Pts',(276.721817567591,27.9827964439655,1.01185234015404));
#1056=CARTESIAN_POINT('Ctrl Pts',(276.925951568769,27.99627220979,0.519118808539998));
#1057=CARTESIAN_POINT('Ctrl Pts',(276.976174678758,28.,0.251216137774796));
#1058=CARTESIAN_POINT('Ctrl Pts',(276.976174678758,28.,-0.251216137774797));
#1059=CARTESIAN_POINT('Ctrl Pts',(276.925951568769,27.99627220979,-0.519118808539998));
#1060=CARTESIAN_POINT('Ctrl Pts',(276.721817567591,27.9827964439655,-1.01185234015404));
#1061=CARTESIAN_POINT('Ctrl Pts',(276.567911406099,27.9732406405612,-1.23669039740513));
#1062=CARTESIAN_POINT('Ctrl Pts',(276.212864919594,27.955285167959,-1.59173688391033));
#1063=CARTESIAN_POINT('Ctrl Pts',(275.988026932023,27.9457187059815,-1.74564292484531));
#1064=CARTESIAN_POINT('Ctrl Pts',(275.495293628848,27.9322185575352,-1.94977683135257));
#1065=CARTESIAN_POINT('Ctrl Pts',(275.227391038097,27.9284800875379,-1.99999999999999));
#1066=CARTESIAN_POINT('Ctrl Pts',(274.724958319419,27.9284800875379,-1.99999999999999));
#1067=CARTESIAN_POINT('Ctrl Pts',(274.457055728668,27.9322185575352,-1.94977683135257));
#1068=CARTESIAN_POINT('Ctrl Pts',(273.964322425493,27.9457187059815,-1.74564292484531));
#1069=CARTESIAN_POINT('Ctrl Pts',(273.739484437922,27.955285167959,-1.59173688391033));
#1070=CARTESIAN_POINT('Ctrl Pts',(273.384437951417,27.9732406405612,-1.23669039740513));
#1071=CARTESIAN_POINT('Ctrl Pts',(273.230531789926,27.9827964439655,-1.01185234015407));
#1072=CARTESIAN_POINT('Ctrl Pts',(273.026397788747,27.99627220979,-0.519118808540025));
#1073=CARTESIAN_POINT('Ctrl Pts',(272.976174678758,28.,-0.251216137774798));
#1074=CARTESIAN_POINT('Ctrl Pts',(272.976174678758,28.,-1.04083408558608E-15));
#1075=CARTESIAN_POINT('Ctrl Pts',(272.976174678758,28.,2.22044604925031E-15));
#1076=CARTESIAN_POINT('Ctrl Pts',(272.976174678758,28.,0.251216137774799));
#1077=CARTESIAN_POINT('Ctrl Pts',(273.026397788747,27.99627220979,0.519118808539998));
#1078=CARTESIAN_POINT('Ctrl Pts',(273.230531789926,27.9827964439655,1.01185234015404));
#1079=CARTESIAN_POINT('Ctrl Pts',(273.384437951417,27.9732406405612,1.23669039740513));
#1080=CARTESIAN_POINT('Ctrl Pts',(273.739484437922,27.955285167959,1.59173688391033));
#1081=CARTESIAN_POINT('Ctrl Pts',(273.964322425493,27.9457187059815,1.74564292484531));
#1082=CARTESIAN_POINT('Ctrl Pts',(274.457055728668,27.9322185575352,1.94977683135257));
#1083=CARTESIAN_POINT('Ctrl Pts',(274.724958319419,27.9284800875379,2.));
#1084=CARTESIAN_POINT('Ctrl Pts',(274.976174678758,27.9284800875379,2.));
#1085=CARTESIAN_POINT('',(272.976174678758,30.,2.4492935982947E-16));
#1086=CARTESIAN_POINT('',(272.976174678758,0.,2.4492935982947E-16));
#1087=CARTESIAN_POINT('',(274.976174678758,29.9332590941915,1.99999999999999));
#1088=CARTESIAN_POINT('Ctrl Pts',(274.976174678758,29.9332590941915,1.99999999999999));
#1089=CARTESIAN_POINT('Ctrl Pts',(274.724970201409,29.9332590941915,1.99999999999999));
#1090=CARTESIAN_POINT('Ctrl Pts',(274.457072702196,29.9367468041196,1.94978146899351));
#1091=CARTESIAN_POINT('Ctrl Pts',(273.96433610973,29.949343224819,1.74565098822554));
#1092=CARTESIAN_POINT('Ctrl Pts',(273.739490686087,29.9582699891501,1.59174313207529));
#1093=CARTESIAN_POINT('Ctrl Pts',(273.384431665424,29.9750262603329,1.23668411141214));
#1094=CARTESIAN_POINT('Ctrl Pts',(273.230523718233,29.9839443619467,1.01183863471816));
#1095=CARTESIAN_POINT('Ctrl Pts',(273.02639316486,29.9965209678006,0.519101869343858));
#1096=CARTESIAN_POINT('Ctrl Pts',(272.976174678758,30.,0.251204309330146));
#1097=CARTESIAN_POINT('Ctrl Pts',(272.976174678758,30.,1.87350135405495E-15));
#1098=CARTESIAN_POINT('Ctrl Pts',(272.976174678758,30.,-3.19189119579733E-15));
#1099=CARTESIAN_POINT('Ctrl Pts',(272.976174678758,30.,-0.251204309330147));
#1100=CARTESIAN_POINT('Ctrl Pts',(273.02639316486,29.9965209678006,-0.519101869343858));
#1101=CARTESIAN_POINT('Ctrl Pts',(273.230523718233,29.9839443619467,-1.01183863471816));
#1102=CARTESIAN_POINT('Ctrl Pts',(273.384431665424,29.9750262603329,-1.23668411141214));
#1103=CARTESIAN_POINT('Ctrl Pts',(273.739490686087,29.9582699891501,-1.59174313207529));
#1104=CARTESIAN_POINT('Ctrl Pts',(273.96433610973,29.949343224819,-1.74565098822554));
#1105=CARTESIAN_POINT('Ctrl Pts',(274.457072702196,29.9367468041196,-1.94978146899351));
#1106=CARTESIAN_POINT('Ctrl Pts',(274.724970201409,29.9332590941915,-1.99999999999999));
#1107=CARTESIAN_POINT('Ctrl Pts',(275.227379156107,29.9332590941915,-1.99999999999999));
#1108=CARTESIAN_POINT('Ctrl Pts',(275.49527665532,29.9367468041196,-1.94978146899351));
#1109=CARTESIAN_POINT('Ctrl Pts',(275.988013247786,29.949343224819,-1.74565098822554));
#1110=CARTESIAN_POINT('Ctrl Pts',(276.212858671429,29.9582699891501,-1.59174313207529));
#1111=CARTESIAN_POINT('Ctrl Pts',(276.567917692092,29.9750262603329,-1.23668411141214));
#1112=CARTESIAN_POINT('Ctrl Pts',(276.721825639284,29.9839443619467,-1.01183863471813));
#1113=CARTESIAN_POINT('Ctrl Pts',(276.925956192656,29.9965209678006,-0.519101869343831));
#1114=CARTESIAN_POINT('Ctrl Pts',(276.976174678758,30.,-0.251204309330144));
#1115=CARTESIAN_POINT('Ctrl Pts',(276.976174678758,30.,0.251204309330144));
#1116=CARTESIAN_POINT('Ctrl Pts',(276.925956192656,29.9965209678006,0.519101869343831));
#1117=CARTESIAN_POINT('Ctrl Pts',(276.721825639284,29.9839443619467,1.01183863471813));
#1118=CARTESIAN_POINT('Ctrl Pts',(276.567917692092,29.9750262603329,1.23668411141214));
#1119=CARTESIAN_POINT('Ctrl Pts',(276.212858671429,29.9582699891501,1.59174313207529));
#1120=CARTESIAN_POINT('Ctrl Pts',(275.988013247786,29.949343224819,1.74565098822556));
#1121=CARTESIAN_POINT('Ctrl Pts',(275.49527665532,29.9367468041196,1.94978146899352));
#1122=CARTESIAN_POINT('Ctrl Pts',(275.227379156107,29.9332590941915,1.99999999999999));
#1123=CARTESIAN_POINT('Ctrl Pts',(274.976174678758,29.9332590941915,2.));
#1124=CARTESIAN_POINT('Origin',(264.976174678758,0.,-30.));
#1125=CARTESIAN_POINT('',(264.976174678758,-3.67394039744206E-15,30.));
#1126=CARTESIAN_POINT('Origin',(264.976174678758,0.,0.));
#1127=CARTESIAN_POINT('',(264.976174678758,-3.42901103761259E-15,28.));
#1128=CARTESIAN_POINT('Origin',(264.976174678758,0.,0.));
#1129=CARTESIAN_POINT('Origin',(339.976174678758,0.,0.));
#1130=CARTESIAN_POINT('',(414.976174678758,-3.67394039744206E-15,30.));
#1131=CARTESIAN_POINT('Origin',(414.976174678758,0.,0.));
#1132=CARTESIAN_POINT('',(339.976174678758,-3.67394039744206E-15,30.));
#1133=CARTESIAN_POINT('',(339.976174678758,-3.67394039744206E-15,30.));
#1134=CARTESIAN_POINT('',(339.976174678758,-3.67394039744206E-15,30.));
#1135=CARTESIAN_POINT('Origin',(414.976174678758,0.,-28.));
#1136=CARTESIAN_POINT('',(414.976174678758,-3.42901103761259E-15,28.));
#1137=CARTESIAN_POINT('Origin',(414.976174678758,0.,0.));
#1138=CARTESIAN_POINT('Origin',(339.976174678758,0.,0.));
#1139=CARTESIAN_POINT('',(339.976174678758,-3.42901103761259E-15,28.));
#1140=CARTESIAN_POINT('',(339.976174678758,-3.42901103761259E-15,28.));
#1141=CARTESIAN_POINT('',(339.976174678758,-3.42901103761259E-15,28.));
#1142=UNCERTAINTY_MEASURE_WITH_UNIT(LENGTH_MEASURE(0.01),#1146,
'DISTANCE_ACCURACY_VALUE',
'Maximum model space distance between geometric entities at asserted c
onnectivities');
#1143=UNCERTAINTY_MEASURE_WITH_UNIT(LENGTH_MEASURE(0.01),#1146,
'DISTANCE_ACCURACY_VALUE',
'Maximum model space distance between geometric entities at asserted c
onnectivities');
#1144=(
GEOMETRIC_REPRESENTATION_CONTEXT(3)
GLOBAL_UNCERTAINTY_ASSIGNED_CONTEXT((#1142))
GLOBAL_UNIT_ASSIGNED_CONTEXT((#1146,#1148,#1149))
REPRESENTATION_CONTEXT('','3D')
);
#1145=(
GEOMETRIC_REPRESENTATION_CONTEXT(3)
GLOBAL_UNCERTAINTY_ASSIGNED_CONTEXT((#1143))
GLOBAL_UNIT_ASSIGNED_CONTEXT((#1146,#1148,#1149))
REPRESENTATION_CONTEXT('','3D')
);
#1146=(
LENGTH_UNIT()
NAMED_UNIT(*)
SI_UNIT(.MILLI.,.METRE.)
);
#1147=(
LENGTH_UNIT()
NAMED_UNIT(*)
SI_UNIT($,.METRE.)
);
#1148=(
NAMED_UNIT(*)
PLANE_ANGLE_UNIT()
SI_UNIT($,.RADIAN.)
);
#1149=(
NAMED_UNIT(*)
SI_UNIT($,.STERADIAN.)
SOLID_ANGLE_UNIT()
);
#1150=SHAPE_DEFINITION_REPRESENTATION(#1151,#1152);
#1151=PRODUCT_DEFINITION_SHAPE('',$,#1154);
#1152=SHAPE_REPRESENTATION('',(#394),#1144);
#1153=PRODUCT_DEFINITION_CONTEXT('part definition',#1158,'design');
#1154=PRODUCT_DEFINITION('Fusion \X2\96F690E84EF6\X0\',
'Fusion \X2\96F690E84EF6\X0\',#1155,#1153);
#1155=PRODUCT_DEFINITION_FORMATION('',$,#1160);
#1156=PRODUCT_RELATED_PRODUCT_CATEGORY('Fusion \X2\96F690E84EF6\X0\',
'Fusion \X2\96F690E84EF6\X0\',(#1160));
#1157=APPLICATION_PROTOCOL_DEFINITION('international standard',
'automotive_design',2009,#1158);
#1158=APPLICATION_CONTEXT(
'Core Data for Automotive Mechanical Design Process');
#1159=PRODUCT_CONTEXT('part definition',#1158,'mechanical');
#1160=PRODUCT('Fusion \X2\96F690E84EF6\X0\','Fusion \X2\96F690E84EF6\X0\',
$,(#1159));
#1161=PRESENTATION_STYLE_ASSIGNMENT((#1162));
#1162=SURFACE_STYLE_USAGE(.BOTH.,#1163);
#1163=SURFACE_SIDE_STYLE('',(#1164));
#1164=SURFACE_STYLE_FILL_AREA(#1165);
#1165=FILL_AREA_STYLE('\X2\94A2\X0\ - \X2\7F0E5149\X0\',(#1166));
#1166=FILL_AREA_STYLE_COLOUR('\X2\94A2\X0\ - \X2\7F0E5149\X0\',#1167);
#1167=COLOUR_RGB('\X2\94A2\X0\ - \X2\7F0E5149\X0\',0.627450980392157,0.627450980392157,
0.627450980392157);
ENDSEC;
END-ISO-10303-21;
