ISO-10303-21;
HEADER;
/* Generated by software containing ST-Developer
 * from STEP Tools, Inc. (www.steptools.com) 
 */

FILE_DESCRIPTION(
/* description */ (''),
/* implementation_level */ '2;1');

FILE_NAME(
/* name */ '',
/* time_stamp */ '2026-07-17T12:58:41+08:00',
/* author */ (''),
/* organization */ (''),
/* preprocessor_version */ 'ST-DEVELOPER v20.1',
/* originating_system */ 'Autodesk Translation Framework v14.4.0.0',
/* authorisation */ '');

FILE_SCHEMA (('AUTOMOTIVE_DESIGN { 1 0 10303 214 3 1 1 }'));
ENDSEC;

DATA;
#10=MECHANICAL_DESIGN_GEOMETRIC_PRESENTATION_REPRESENTATION('',(#13),#1307);
#11=SHAPE_REPRESENTATION_RELATIONSHIP('SRR','None',#1314,#12);
#12=ADVANCED_BREP_SHAPE_REPRESENTATION('',(#14),#1306);
#13=STYLED_ITEM('',(#1323),#14);
#14=MANIFOLD_SOLID_BREP('\X2\5B9E4F53\X0\1',#473);
#15=PLANE('',#498);
#16=PLANE('',#502);
#17=PLANE('',#506);
#18=PLANE('',#510);
#19=PLANE('',#514);
#20=PLANE('',#518);
#21=PLANE('',#519);
#22=FACE_BOUND('',#81,.T.);
#23=FACE_BOUND('',#82,.T.);
#24=FACE_BOUND('',#83,.T.);
#25=FACE_BOUND('',#85,.T.);
#26=FACE_BOUND('',#88,.T.);
#27=FACE_BOUND('',#90,.T.);
#28=FACE_BOUND('',#91,.T.);
#29=FACE_BOUND('',#92,.T.);
#30=FACE_BOUND('',#95,.T.);
#31=FACE_BOUND('',#96,.T.);
#32=FACE_BOUND('',#97,.T.);
#33=FACE_BOUND('',#99,.T.);
#34=FACE_BOUND('',#102,.T.);
#35=FACE_BOUND('',#104,.T.);
#36=FACE_BOUND('',#105,.T.);
#37=FACE_BOUND('',#106,.T.);
#38=FACE_BOUND('',#108,.T.);
#39=CIRCLE('',#496,22.75);
#40=CIRCLE('',#497,22.75);
#41=CIRCLE('',#499,25.);
#42=CIRCLE('',#501,25.);
#43=CIRCLE('',#503,22.75);
#44=CIRCLE('',#505,22.75);
#45=CIRCLE('',#508,27.75);
#46=CIRCLE('',#509,27.75);
#47=CIRCLE('',#511,30.);
#48=CIRCLE('',#513,30.);
#49=CIRCLE('',#515,27.75);
#50=CIRCLE('',#517,27.75);
#51=FACE_OUTER_BOUND('',#72,.T.);
#52=FACE_OUTER_BOUND('',#73,.T.);
#53=FACE_OUTER_BOUND('',#74,.T.);
#54=FACE_OUTER_BOUND('',#75,.T.);
#55=FACE_OUTER_BOUND('',#76,.T.);
#56=FACE_OUTER_BOUND('',#77,.T.);
#57=FACE_OUTER_BOUND('',#78,.T.);
#58=FACE_OUTER_BOUND('',#79,.T.);
#59=FACE_OUTER_BOUND('',#80,.T.);
#60=FACE_OUTER_BOUND('',#84,.T.);
#61=FACE_OUTER_BOUND('',#86,.T.);
#62=FACE_OUTER_BOUND('',#87,.T.);
#63=FACE_OUTER_BOUND('',#89,.T.);
#64=FACE_OUTER_BOUND('',#93,.T.);
#65=FACE_OUTER_BOUND('',#94,.T.);
#66=FACE_OUTER_BOUND('',#98,.T.);
#67=FACE_OUTER_BOUND('',#100,.T.);
#68=FACE_OUTER_BOUND('',#101,.T.);
#69=FACE_OUTER_BOUND('',#103,.T.);
#70=FACE_OUTER_BOUND('',#107,.T.);
#71=FACE_OUTER_BOUND('',#109,.T.);
#72=EDGE_LOOP('',(#302,#303,#304,#305,#306,#307));
#73=EDGE_LOOP('',(#308,#309,#310,#311,#312,#313,#314,#315,#316,#317));
#74=EDGE_LOOP('',(#318,#319,#320,#321,#322,#323));
#75=EDGE_LOOP('',(#324,#325,#326,#327,#328,#329));
#76=EDGE_LOOP('',(#330,#331,#332,#333,#334,#335));
#77=EDGE_LOOP('',(#336,#337,#338,#339,#340,#341,#342,#343));
#78=EDGE_LOOP('',(#344,#345,#346,#347,#348,#349));
#79=EDGE_LOOP('',(#350,#351,#352,#353,#354,#355));
#80=EDGE_LOOP('',(#356,#357,#358,#359,#360,#361,#362,#363,#364));
#81=EDGE_LOOP('',(#365,#366));
#82=EDGE_LOOP('',(#367,#368));
#83=EDGE_LOOP('',(#369,#370));
#84=EDGE_LOOP('',(#371));
#85=EDGE_LOOP('',(#372));
#86=EDGE_LOOP('',(#373,#374,#375,#376));
#87=EDGE_LOOP('',(#377));
#88=EDGE_LOOP('',(#378));
#89=EDGE_LOOP('',(#379,#380,#381,#382,#383,#384,#385,#386,#387,#388));
#90=EDGE_LOOP('',(#389,#390));
#91=EDGE_LOOP('',(#391,#392));
#92=EDGE_LOOP('',(#393,#394));
#93=EDGE_LOOP('',(#395));
#94=EDGE_LOOP('',(#396,#397,#398,#399,#400,#401,#402,#403,#404));
#95=EDGE_LOOP('',(#405,#406));
#96=EDGE_LOOP('',(#407,#408));
#97=EDGE_LOOP('',(#409,#410));
#98=EDGE_LOOP('',(#411));
#99=EDGE_LOOP('',(#412));
#100=EDGE_LOOP('',(#413,#414,#415,#416));
#101=EDGE_LOOP('',(#417));
#102=EDGE_LOOP('',(#418));
#103=EDGE_LOOP('',(#419,#420,#421,#422,#423,#424,#425,#426,#427,#428));
#104=EDGE_LOOP('',(#429,#430));
#105=EDGE_LOOP('',(#431,#432));
#106=EDGE_LOOP('',(#433,#434));
#107=EDGE_LOOP('',(#435));
#108=EDGE_LOOP('',(#436));
#109=EDGE_LOOP('',(#437));
#110=LINE('',#647,#128);
#111=LINE('',#715,#129);
#112=LINE('',#823,#130);
#113=LINE('',#901,#131);
#114=LINE('',#979,#132);
#115=LINE('',#1042,#133);
#116=LINE('',#1141,#134);
#117=LINE('',#1219,#135);
#118=LINE('',#1260,#136);
#119=LINE('',#1262,#137);
#120=LINE('',#1269,#138);
#121=LINE('',#1275,#139);
#122=LINE('',#1277,#140);
#123=LINE('',#1283,#141);
#124=LINE('',#1285,#142);
#125=LINE('',#1293,#143);
#126=LINE('',#1300,#144);
#127=LINE('',#1301,#145);
#128=VECTOR('',#524,1.99999999999999);
#129=VECTOR('',#527,1.99999999999999);
#130=VECTOR('',#530,1.99999999999999);
#131=VECTOR('',#533,1.99999999999999);
#132=VECTOR('',#536,1.99999999999999);
#133=VECTOR('',#539,1.99999999999999);
#134=VECTOR('',#542,1.99999999999999);
#135=VECTOR('',#545,1.99999999999999);
#136=VECTOR('',#550,27.75);
#137=VECTOR('',#551,27.75);
#138=VECTOR('',#560,30.);
#139=VECTOR('',#569,27.75);
#140=VECTOR('',#570,27.75);
#141=VECTOR('',#579,27.75);
#142=VECTOR('',#580,27.75);
#143=VECTOR('',#591,30.);
#144=VECTOR('',#600,27.75);
#145=VECTOR('',#601,27.75);
#146=B_SPLINE_CURVE_WITH_KNOTS('',3,(#610,#611,#612,#613,#614,#615,#616,
#617,#618,#619,#620,#621,#622,#623,#624,#625,#626,#627,#628,#629,#630,#631,
#632,#633,#634,#635),.UNSPECIFIED.,.F.,.F.,(4,2,2,2,2,2,2,2,2,2,2,2,4),
(0.,0.0753653426027445,0.150730685205489,0.226095380969377,0.301460076733265,
0.376826067908943,0.452192059084622,0.527557533386976,0.60292300768933,
0.678288481991684,0.753653956294038,0.829019947469716,0.904385938645395),
 .UNSPECIFIED.);
#147=B_SPLINE_CURVE_WITH_KNOTS('',3,(#636,#637,#638,#639,#640,#641,#642,
#643,#644,#645),.UNSPECIFIED.,.F.,.F.,(4,2,2,2,4),(0.904385938645395,0.979750634409283,
1.05511533017317,1.13048067277592,1.20584601537866),.UNSPECIFIED.);
#148=B_SPLINE_CURVE_WITH_KNOTS('',3,(#649,#650,#651,#652,#653,#654,#655,
#656,#657,#658),.UNSPECIFIED.,.F.,.F.,(4,2,2,2,4),(0.,0.0753790793547532,
0.150758158709506,0.226136225482513,0.301514292255519),.UNSPECIFIED.);
#149=B_SPLINE_CURVE_WITH_KNOTS('',3,(#659,#660,#661,#662,#663,#664,#665,
#666,#667,#668,#669,#670,#671,#672,#673,#674,#675,#676,#677,#678,#679,#680,
#681,#682,#683,#684),.UNSPECIFIED.,.F.,.F.,(4,2,2,2,2,2,2,2,2,2,2,2,4),
(0.301514292255519,0.376894288394073,0.452274284532628,0.527653562261594,
0.60303283999056,0.678412117719525,0.753791395448491,0.829171391587046,
0.9045513877256,0.979929454498606,1.05530752127161,1.13068660062637,1.20606567998112),
 .UNSPECIFIED.);
#150=B_SPLINE_CURVE_WITH_KNOTS('',3,(#688,#689,#690,#691,#692,#693,#694,
#695,#696,#697),.UNSPECIFIED.,.F.,.F.,(4,2,2,2,4),(0.,0.0753790793547532,
0.150758158709506,0.226136225482513,0.300664018720565),.UNSPECIFIED.);
#151=B_SPLINE_CURVE_WITH_KNOTS('',3,(#699,#700,#701,#702,#703,#704,#705,
#706,#707,#708),.UNSPECIFIED.,.F.,.F.,(4,2,2,2,4),(0.905401661260554,0.979929454498606,
1.05530752127161,1.13068660062637,1.20606567998112),.UNSPECIFIED.);
#152=B_SPLINE_CURVE_WITH_KNOTS('',3,(#710,#711,#712,#713),.UNSPECIFIED.,
 .F.,.F.,(4,4),(0.9045513877256,0.905401661260554),.UNSPECIFIED.);
#153=B_SPLINE_CURVE_WITH_KNOTS('',3,(#717,#718,#719,#720),.UNSPECIFIED.,
 .F.,.F.,(4,4),(0.300609804406048,0.301460076733265),.UNSPECIFIED.);
#154=B_SPLINE_CURVE_WITH_KNOTS('',3,(#722,#723,#724,#725,#726,#727,#728,
#729,#730,#731),.UNSPECIFIED.,.F.,.F.,(4,2,2,2,4),(0.,0.0753653426027445,
0.150730685205489,0.226095380969377,0.300609804406048),.UNSPECIFIED.);
#155=B_SPLINE_CURVE_WITH_KNOTS('',3,(#733,#734,#735,#736,#737,#738,#739,
#740,#741,#742),.UNSPECIFIED.,.F.,.F.,(4,2,2,2,4),(0.905236210972611,0.979750634409283,
1.05511533017317,1.13048067277592,1.20584601537866),.UNSPECIFIED.);
#156=B_SPLINE_CURVE_WITH_KNOTS('',3,(#743,#744,#745,#746,#747,#748,#749,
#750,#751,#752,#753,#754,#755,#756,#757,#758,#759,#760,#761,#762),
 .UNSPECIFIED.,.F.,.F.,(4,2,2,2,2,2,2,2,2,4),(0.301460076733265,0.376826067908943,
0.452192059084622,0.527557533386976,0.60292300768933,0.678288481991684,
0.753653956294038,0.829019947469716,0.904385938645395,0.905236210972611),
 .UNSPECIFIED.);
#157=B_SPLINE_CURVE_WITH_KNOTS('',3,(#763,#764,#765,#766,#767,#768,#769,
#770,#771,#772,#773,#774,#775,#776,#777,#778,#779,#780,#781,#782),
 .UNSPECIFIED.,.F.,.F.,(4,2,2,2,2,2,2,2,2,4),(0.300664018720565,0.301514292255519,
0.376894288394074,0.452274284532628,0.527653562261594,0.60303283999056,
0.678412117719525,0.753791395448491,0.829171391587046,0.9045513877256),
 .UNSPECIFIED.);
#158=B_SPLINE_CURVE_WITH_KNOTS('',3,(#786,#787,#788,#789,#790,#791,#792,
#793,#794,#795,#796,#797,#798,#799,#800,#801,#802,#803,#804,#805,#806,#807,
#808,#809,#810,#811),.UNSPECIFIED.,.F.,.F.,(4,2,2,2,2,2,2,2,2,2,2,2,4),
(0.,0.075365408629008,0.150730817258016,0.226096156983579,0.301461496709142,
0.376826836434704,0.452192176160267,0.527557584789275,0.602922993418283,
0.678288402047291,0.753653810676299,0.829019150401862,0.904384490127425),
 .UNSPECIFIED.);
#159=B_SPLINE_CURVE_WITH_KNOTS('',3,(#812,#813,#814,#815,#816,#817,#818,
#819,#820,#821),.UNSPECIFIED.,.F.,.F.,(4,2,2,2,4),(0.904384490127425,0.979749829852987,
1.05511516957855,1.13048057820756,1.20584598683657),.UNSPECIFIED.);
#160=B_SPLINE_CURVE_WITH_KNOTS('',3,(#825,#826,#827,#828,#829,#830,#831,
#832,#833,#834),.UNSPECIFIED.,.F.,.F.,(4,2,2,2,4),(0.,0.0753791787975462,
0.150758357595092,0.226137383467749,0.301516409340405),.UNSPECIFIED.);
#161=B_SPLINE_CURVE_WITH_KNOTS('',3,(#835,#836,#837,#838,#839,#840,#841,
#842,#843,#844,#845,#846,#847,#848,#849,#850,#851,#852,#853,#854,#855,#856,
#857,#858,#859,#860),.UNSPECIFIED.,.F.,.F.,(4,2,2,2,2,2,2,2,2,2,2,2,4),
(0.301516409340405,0.376895435213061,0.452274461085717,0.527653639883263,
0.60303281868081,0.678411997478356,0.753791176275902,0.829170202148558,
0.904549228021214,0.979928253893871,1.05530727976653,1.13068645856407,1.20606563736162),
 .UNSPECIFIED.);
#162=B_SPLINE_CURVE_WITH_KNOTS('',3,(#864,#865,#866,#867,#868,#869,#870,
#871,#872,#873,#874,#875,#876,#877,#878,#879,#880,#881,#882,#883,#884,#885,
#886,#887,#888,#889),.UNSPECIFIED.,.F.,.F.,(4,2,2,2,2,2,2,2,2,2,2,2,4),
(0.,0.0753791787975462,0.150758357595092,0.226137383467749,0.301516409340405,
0.376895435213061,0.452274461085717,0.527653639883263,0.60303281868081,
0.678411997478356,0.753791176275902,0.829170202148558,0.904549228021214),
 .UNSPECIFIED.);
#163=B_SPLINE_CURVE_WITH_KNOTS('',3,(#890,#891,#892,#893,#894,#895,#896,
#897,#898,#899),.UNSPECIFIED.,.F.,.F.,(4,2,2,2,4),(0.904549228021214,0.979928253893871,
1.05530727976653,1.13068645856407,1.20606563736162),.UNSPECIFIED.);
#164=B_SPLINE_CURVE_WITH_KNOTS('',3,(#903,#904,#905,#906,#907,#908,#909,
#910,#911,#912),.UNSPECIFIED.,.F.,.F.,(4,2,2,2,4),(0.,0.075365408629008,
0.150730817258016,0.226096156983579,0.301461496709141),.UNSPECIFIED.);
#165=B_SPLINE_CURVE_WITH_KNOTS('',3,(#913,#914,#915,#916,#917,#918,#919,
#920,#921,#922,#923,#924,#925,#926,#927,#928,#929,#930,#931,#932,#933,#934,
#935,#936,#937,#938),.UNSPECIFIED.,.F.,.F.,(4,2,2,2,2,2,2,2,2,2,2,2,4),
(0.301461496709141,0.376826836434704,0.452192176160267,0.527557584789275,
0.602922993418283,0.678288402047291,0.753653810676299,0.829019150401862,
0.904384490127425,0.979749829852987,1.05511516957855,1.13048057820756,1.20584598683657),
 .UNSPECIFIED.);
#166=B_SPLINE_CURVE_WITH_KNOTS('',3,(#942,#943,#944,#945,#946,#947,#948,
#949,#950,#951,#952,#953,#954,#955,#956,#957,#958,#959,#960,#961,#962,#963,
#964,#965,#966,#967),.UNSPECIFIED.,.F.,.F.,(4,2,2,2,2,2,2,2,2,2,2,2,4),
(0.,0.075365408629008,0.150730817258016,0.226096156983579,0.301461496709141,
0.376826836434704,0.452192176160267,0.527557584789275,0.602922993418283,
0.678288402047291,0.753653810676299,0.829019150401862,0.904384490127424),
 .UNSPECIFIED.);
#167=B_SPLINE_CURVE_WITH_KNOTS('',3,(#968,#969,#970,#971,#972,#973,#974,
#975,#976,#977),.UNSPECIFIED.,.F.,.F.,(4,2,2,2,4),(0.904384490127424,0.979749829852987,
1.05511516957855,1.13048057820756,1.20584598683657),.UNSPECIFIED.);
#168=B_SPLINE_CURVE_WITH_KNOTS('',3,(#981,#982,#983,#984,#985,#986,#987,
#988,#989,#990),.UNSPECIFIED.,.F.,.F.,(4,2,2,2,4),(0.,0.0753791787975462,
0.150758357595092,0.226137383467749,0.301516409340405),.UNSPECIFIED.);
#169=B_SPLINE_CURVE_WITH_KNOTS('',3,(#991,#992,#993,#994,#995,#996,#997,
#998,#999,#1000,#1001,#1002,#1003,#1004,#1005,#1006,#1007,#1008,#1009,#1010,
#1011,#1012,#1013,#1014,#1015,#1016),.UNSPECIFIED.,.F.,.F.,(4,2,2,2,2,2,
2,2,2,2,2,2,4),(0.301516409340405,0.376895435213061,0.452274461085717,0.527653639883263,
0.60303281868081,0.678411997478356,0.753791176275902,0.829170202148558,
0.904549228021214,0.979928253893871,1.05530727976653,1.13068645856407,1.20606563736162),
 .UNSPECIFIED.);
#170=B_SPLINE_CURVE_WITH_KNOTS('',3,(#1020,#1021,#1022,#1023,#1024,#1025,
#1026,#1027,#1028,#1029),.UNSPECIFIED.,.F.,.F.,(4,2,2,2,4),(0.,0.0753791787975462,
0.150758357595092,0.226137383467749,0.301516409340405),.UNSPECIFIED.);
#171=B_SPLINE_CURVE_WITH_KNOTS('',3,(#1031,#1032,#1033,#1034,#1035,#1036,
#1037,#1038,#1039,#1040),.UNSPECIFIED.,.F.,.F.,(4,2,2,2,4),(0.904549228021214,
0.979928253893871,1.05530727976653,1.13068645856407,1.20606563736162),
 .UNSPECIFIED.);
#172=B_SPLINE_CURVE_WITH_KNOTS('',3,(#1044,#1045,#1046,#1047,#1048,#1049,
#1050,#1051,#1052,#1053),.UNSPECIFIED.,.F.,.F.,(4,2,2,2,4),(0.,0.075365408629008,
0.150730817258016,0.226096156983579,0.301461496709141),.UNSPECIFIED.);
#173=B_SPLINE_CURVE_WITH_KNOTS('',3,(#1055,#1056,#1057,#1058,#1059,#1060,
#1061,#1062,#1063,#1064),.UNSPECIFIED.,.F.,.F.,(4,2,2,2,4),(0.904384490127424,
0.979749829852987,1.05511516957855,1.13048057820756,1.20584598683657),
 .UNSPECIFIED.);
#174=B_SPLINE_CURVE_WITH_KNOTS('',3,(#1065,#1066,#1067,#1068,#1069,#1070,
#1071,#1072,#1073,#1074,#1075,#1076,#1077,#1078,#1079,#1080,#1081,#1082),
 .UNSPECIFIED.,.F.,.F.,(4,2,2,2,2,2,2,2,4),(0.301461496709141,0.376826836434704,
0.452192176160267,0.527557584789275,0.602922993418283,0.678288402047291,
0.753653810676299,0.829019150401862,0.904384490127424),.UNSPECIFIED.);
#175=B_SPLINE_CURVE_WITH_KNOTS('',3,(#1083,#1084,#1085,#1086,#1087,#1088,
#1089,#1090,#1091,#1092,#1093,#1094,#1095,#1096,#1097,#1098,#1099,#1100),
 .UNSPECIFIED.,.F.,.F.,(4,2,2,2,2,2,2,2,4),(0.301516409340405,0.376895435213061,
0.452274461085717,0.527653639883263,0.603032818680809,0.678411997478356,
0.753791176275902,0.829170202148558,0.904549228021214),.UNSPECIFIED.);
#176=B_SPLINE_CURVE_WITH_KNOTS('',3,(#1104,#1105,#1106,#1107,#1108,#1109,
#1110,#1111,#1112,#1113,#1114,#1115,#1116,#1117,#1118,#1119,#1120,#1121,
#1122,#1123,#1124,#1125,#1126,#1127,#1128,#1129),.UNSPECIFIED.,.F.,.F.,
(4,2,2,2,2,2,2,2,2,2,2,2,4),(0.,0.0753653426027445,0.150730685205489,0.226095380969377,
0.301460076733265,0.376826067908943,0.452192059084622,0.527557533386976,
0.60292300768933,0.678288481991684,0.753653956294038,0.829019947469717,
0.904385938645395),.UNSPECIFIED.);
#177=B_SPLINE_CURVE_WITH_KNOTS('',3,(#1130,#1131,#1132,#1133,#1134,#1135,
#1136,#1137,#1138,#1139),.UNSPECIFIED.,.F.,.F.,(4,2,2,2,4),(0.904385938645395,
0.979750634409283,1.05511533017317,1.13048067277592,1.20584601537866),
 .UNSPECIFIED.);
#178=B_SPLINE_CURVE_WITH_KNOTS('',3,(#1143,#1144,#1145,#1146,#1147,#1148,
#1149,#1150,#1151,#1152),.UNSPECIFIED.,.F.,.F.,(4,2,2,2,4),(0.,0.0753790793547532,
0.150758158709506,0.226136225482513,0.301514292255519),.UNSPECIFIED.);
#179=B_SPLINE_CURVE_WITH_KNOTS('',3,(#1153,#1154,#1155,#1156,#1157,#1158,
#1159,#1160,#1161,#1162,#1163,#1164,#1165,#1166,#1167,#1168,#1169,#1170,
#1171,#1172,#1173,#1174,#1175,#1176,#1177,#1178),.UNSPECIFIED.,.F.,.F.,
(4,2,2,2,2,2,2,2,2,2,2,2,4),(0.301514292255519,0.376894288394074,0.452274284532628,
0.527653562261594,0.60303283999056,0.678412117719525,0.753791395448491,
0.829171391587046,0.9045513877256,0.979929454498606,1.05530752127161,1.13068660062637,
1.20606567998112),.UNSPECIFIED.);
#180=B_SPLINE_CURVE_WITH_KNOTS('',3,(#1182,#1183,#1184,#1185,#1186,#1187,
#1188,#1189,#1190,#1191,#1192,#1193,#1194,#1195,#1196,#1197,#1198,#1199,
#1200,#1201,#1202,#1203,#1204,#1205,#1206,#1207),.UNSPECIFIED.,.F.,.F.,
(4,2,2,2,2,2,2,2,2,2,2,2,4),(0.,0.0753790793547532,0.150758158709506,0.226136225482513,
0.301514292255519,0.376894288394074,0.452274284532628,0.527653562261594,
0.60303283999056,0.678412117719525,0.753791395448491,0.829171391587046,
0.9045513877256),.UNSPECIFIED.);
#181=B_SPLINE_CURVE_WITH_KNOTS('',3,(#1208,#1209,#1210,#1211,#1212,#1213,
#1214,#1215,#1216,#1217),.UNSPECIFIED.,.F.,.F.,(4,2,2,2,4),(0.9045513877256,
0.979929454498606,1.05530752127161,1.13068660062637,1.20606567998112),
 .UNSPECIFIED.);
#182=B_SPLINE_CURVE_WITH_KNOTS('',3,(#1221,#1222,#1223,#1224,#1225,#1226,
#1227,#1228,#1229,#1230),.UNSPECIFIED.,.F.,.F.,(4,2,2,2,4),(0.,0.0753653426027445,
0.150730685205489,0.226095380969377,0.301460076733265),.UNSPECIFIED.);
#183=B_SPLINE_CURVE_WITH_KNOTS('',3,(#1231,#1232,#1233,#1234,#1235,#1236,
#1237,#1238,#1239,#1240,#1241,#1242,#1243,#1244,#1245,#1246,#1247,#1248,
#1249,#1250,#1251,#1252,#1253,#1254,#1255,#1256),.UNSPECIFIED.,.F.,.F.,
(4,2,2,2,2,2,2,2,2,2,2,2,4),(0.301460076733265,0.376826067908943,0.452192059084622,
0.527557533386976,0.60292300768933,0.678288481991684,0.753653956294038,
0.829019947469717,0.904385938645395,0.979750634409283,1.05511533017317,
1.13048067277592,1.20584601537866),.UNSPECIFIED.);
#184=VERTEX_POINT('',#608);
#185=VERTEX_POINT('',#609);
#186=VERTEX_POINT('',#646);
#187=VERTEX_POINT('',#648);
#188=VERTEX_POINT('',#686);
#189=VERTEX_POINT('',#687);
#190=VERTEX_POINT('',#698);
#191=VERTEX_POINT('',#709);
#192=VERTEX_POINT('',#714);
#193=VERTEX_POINT('',#716);
#194=VERTEX_POINT('',#721);
#195=VERTEX_POINT('',#732);
#196=VERTEX_POINT('',#784);
#197=VERTEX_POINT('',#785);
#198=VERTEX_POINT('',#822);
#199=VERTEX_POINT('',#824);
#200=VERTEX_POINT('',#862);
#201=VERTEX_POINT('',#863);
#202=VERTEX_POINT('',#900);
#203=VERTEX_POINT('',#902);
#204=VERTEX_POINT('',#940);
#205=VERTEX_POINT('',#941);
#206=VERTEX_POINT('',#978);
#207=VERTEX_POINT('',#980);
#208=VERTEX_POINT('',#1018);
#209=VERTEX_POINT('',#1019);
#210=VERTEX_POINT('',#1030);
#211=VERTEX_POINT('',#1041);
#212=VERTEX_POINT('',#1043);
#213=VERTEX_POINT('',#1054);
#214=VERTEX_POINT('',#1102);
#215=VERTEX_POINT('',#1103);
#216=VERTEX_POINT('',#1140);
#217=VERTEX_POINT('',#1142);
#218=VERTEX_POINT('',#1180);
#219=VERTEX_POINT('',#1181);
#220=VERTEX_POINT('',#1218);
#221=VERTEX_POINT('',#1220);
#222=VERTEX_POINT('',#1258);
#223=VERTEX_POINT('',#1261);
#224=VERTEX_POINT('',#1265);
#225=VERTEX_POINT('',#1268);
#226=VERTEX_POINT('',#1272);
#227=VERTEX_POINT('',#1276);
#228=VERTEX_POINT('',#1281);
#229=VERTEX_POINT('',#1284);
#230=VERTEX_POINT('',#1288);
#231=VERTEX_POINT('',#1291);
#232=VERTEX_POINT('',#1295);
#233=VERTEX_POINT('',#1298);
#234=EDGE_CURVE('',#184,#185,#146,.T.);
#235=EDGE_CURVE('',#185,#184,#147,.T.);
#236=EDGE_CURVE('',#185,#186,#110,.T.);
#237=EDGE_CURVE('',#187,#186,#148,.T.);
#238=EDGE_CURVE('',#186,#187,#149,.T.);
#239=EDGE_CURVE('',#188,#189,#150,.T.);
#240=EDGE_CURVE('',#190,#188,#151,.T.);
#241=EDGE_CURVE('',#191,#190,#152,.T.);
#242=EDGE_CURVE('',#191,#192,#111,.T.);
#243=EDGE_CURVE('',#193,#192,#153,.T.);
#244=EDGE_CURVE('',#194,#193,#154,.T.);
#245=EDGE_CURVE('',#195,#194,#155,.T.);
#246=EDGE_CURVE('',#192,#195,#156,.T.);
#247=EDGE_CURVE('',#189,#191,#157,.T.);
#248=EDGE_CURVE('',#196,#197,#158,.T.);
#249=EDGE_CURVE('',#197,#196,#159,.T.);
#250=EDGE_CURVE('',#197,#198,#112,.T.);
#251=EDGE_CURVE('',#199,#198,#160,.T.);
#252=EDGE_CURVE('',#198,#199,#161,.T.);
#253=EDGE_CURVE('',#200,#201,#162,.T.);
#254=EDGE_CURVE('',#201,#200,#163,.T.);
#255=EDGE_CURVE('',#201,#202,#113,.T.);
#256=EDGE_CURVE('',#203,#202,#164,.T.);
#257=EDGE_CURVE('',#202,#203,#165,.T.);
#258=EDGE_CURVE('',#204,#205,#166,.T.);
#259=EDGE_CURVE('',#205,#204,#167,.T.);
#260=EDGE_CURVE('',#205,#206,#114,.T.);
#261=EDGE_CURVE('',#207,#206,#168,.T.);
#262=EDGE_CURVE('',#206,#207,#169,.T.);
#263=EDGE_CURVE('',#208,#209,#170,.T.);
#264=EDGE_CURVE('',#210,#208,#171,.T.);
#265=EDGE_CURVE('',#210,#211,#115,.T.);
#266=EDGE_CURVE('',#212,#211,#172,.T.);
#267=EDGE_CURVE('',#213,#212,#173,.T.);
#268=EDGE_CURVE('',#211,#213,#174,.T.);
#269=EDGE_CURVE('',#209,#210,#175,.T.);
#270=EDGE_CURVE('',#214,#215,#176,.T.);
#271=EDGE_CURVE('',#215,#214,#177,.T.);
#272=EDGE_CURVE('',#215,#216,#116,.T.);
#273=EDGE_CURVE('',#217,#216,#178,.T.);
#274=EDGE_CURVE('',#216,#217,#179,.T.);
#275=EDGE_CURVE('',#218,#219,#180,.T.);
#276=EDGE_CURVE('',#219,#218,#181,.T.);
#277=EDGE_CURVE('',#219,#220,#117,.T.);
#278=EDGE_CURVE('',#221,#220,#182,.T.);
#279=EDGE_CURVE('',#220,#221,#183,.T.);
#280=EDGE_CURVE('',#222,#222,#39,.T.);
#281=EDGE_CURVE('',#222,#210,#118,.T.);
#282=EDGE_CURVE('',#209,#223,#119,.T.);
#283=EDGE_CURVE('',#223,#223,#40,.T.);
#284=EDGE_CURVE('',#224,#224,#41,.F.);
#285=EDGE_CURVE('',#224,#225,#120,.T.);
#286=EDGE_CURVE('',#225,#225,#42,.F.);
#287=EDGE_CURVE('',#226,#226,#43,.T.);
#288=EDGE_CURVE('',#226,#190,#121,.T.);
#289=EDGE_CURVE('',#189,#227,#122,.T.);
#290=EDGE_CURVE('',#227,#227,#44,.T.);
#291=EDGE_CURVE('',#228,#228,#45,.T.);
#292=EDGE_CURVE('',#228,#213,#123,.T.);
#293=EDGE_CURVE('',#211,#229,#124,.T.);
#294=EDGE_CURVE('',#229,#229,#46,.T.);
#295=EDGE_CURVE('',#230,#230,#47,.T.);
#296=EDGE_CURVE('',#231,#231,#48,.T.);
#297=EDGE_CURVE('',#231,#230,#125,.T.);
#298=EDGE_CURVE('',#232,#232,#49,.T.);
#299=EDGE_CURVE('',#233,#233,#50,.T.);
#300=EDGE_CURVE('',#233,#195,#126,.T.);
#301=EDGE_CURVE('',#193,#232,#127,.T.);
#302=ORIENTED_EDGE('',*,*,#234,.F.);
#303=ORIENTED_EDGE('',*,*,#235,.F.);
#304=ORIENTED_EDGE('',*,*,#236,.T.);
#305=ORIENTED_EDGE('',*,*,#237,.F.);
#306=ORIENTED_EDGE('',*,*,#238,.F.);
#307=ORIENTED_EDGE('',*,*,#236,.F.);
#308=ORIENTED_EDGE('',*,*,#239,.F.);
#309=ORIENTED_EDGE('',*,*,#240,.F.);
#310=ORIENTED_EDGE('',*,*,#241,.F.);
#311=ORIENTED_EDGE('',*,*,#242,.T.);
#312=ORIENTED_EDGE('',*,*,#243,.F.);
#313=ORIENTED_EDGE('',*,*,#244,.F.);
#314=ORIENTED_EDGE('',*,*,#245,.F.);
#315=ORIENTED_EDGE('',*,*,#246,.F.);
#316=ORIENTED_EDGE('',*,*,#242,.F.);
#317=ORIENTED_EDGE('',*,*,#247,.F.);
#318=ORIENTED_EDGE('',*,*,#248,.F.);
#319=ORIENTED_EDGE('',*,*,#249,.F.);
#320=ORIENTED_EDGE('',*,*,#250,.T.);
#321=ORIENTED_EDGE('',*,*,#251,.F.);
#322=ORIENTED_EDGE('',*,*,#252,.F.);
#323=ORIENTED_EDGE('',*,*,#250,.F.);
#324=ORIENTED_EDGE('',*,*,#253,.F.);
#325=ORIENTED_EDGE('',*,*,#254,.F.);
#326=ORIENTED_EDGE('',*,*,#255,.T.);
#327=ORIENTED_EDGE('',*,*,#256,.F.);
#328=ORIENTED_EDGE('',*,*,#257,.F.);
#329=ORIENTED_EDGE('',*,*,#255,.F.);
#330=ORIENTED_EDGE('',*,*,#258,.F.);
#331=ORIENTED_EDGE('',*,*,#259,.F.);
#332=ORIENTED_EDGE('',*,*,#260,.T.);
#333=ORIENTED_EDGE('',*,*,#261,.F.);
#334=ORIENTED_EDGE('',*,*,#262,.F.);
#335=ORIENTED_EDGE('',*,*,#260,.F.);
#336=ORIENTED_EDGE('',*,*,#263,.F.);
#337=ORIENTED_EDGE('',*,*,#264,.F.);
#338=ORIENTED_EDGE('',*,*,#265,.T.);
#339=ORIENTED_EDGE('',*,*,#266,.F.);
#340=ORIENTED_EDGE('',*,*,#267,.F.);
#341=ORIENTED_EDGE('',*,*,#268,.F.);
#342=ORIENTED_EDGE('',*,*,#265,.F.);
#343=ORIENTED_EDGE('',*,*,#269,.F.);
#344=ORIENTED_EDGE('',*,*,#270,.F.);
#345=ORIENTED_EDGE('',*,*,#271,.F.);
#346=ORIENTED_EDGE('',*,*,#272,.T.);
#347=ORIENTED_EDGE('',*,*,#273,.F.);
#348=ORIENTED_EDGE('',*,*,#274,.F.);
#349=ORIENTED_EDGE('',*,*,#272,.F.);
#350=ORIENTED_EDGE('',*,*,#275,.F.);
#351=ORIENTED_EDGE('',*,*,#276,.F.);
#352=ORIENTED_EDGE('',*,*,#277,.T.);
#353=ORIENTED_EDGE('',*,*,#278,.F.);
#354=ORIENTED_EDGE('',*,*,#279,.F.);
#355=ORIENTED_EDGE('',*,*,#277,.F.);
#356=ORIENTED_EDGE('',*,*,#280,.F.);
#357=ORIENTED_EDGE('',*,*,#281,.T.);
#358=ORIENTED_EDGE('',*,*,#264,.T.);
#359=ORIENTED_EDGE('',*,*,#263,.T.);
#360=ORIENTED_EDGE('',*,*,#282,.T.);
#361=ORIENTED_EDGE('',*,*,#283,.T.);
#362=ORIENTED_EDGE('',*,*,#282,.F.);
#363=ORIENTED_EDGE('',*,*,#269,.T.);
#364=ORIENTED_EDGE('',*,*,#281,.F.);
#365=ORIENTED_EDGE('',*,*,#261,.T.);
#366=ORIENTED_EDGE('',*,*,#262,.T.);
#367=ORIENTED_EDGE('',*,*,#275,.T.);
#368=ORIENTED_EDGE('',*,*,#276,.T.);
#369=ORIENTED_EDGE('',*,*,#273,.T.);
#370=ORIENTED_EDGE('',*,*,#274,.T.);
#371=ORIENTED_EDGE('',*,*,#284,.T.);
#372=ORIENTED_EDGE('',*,*,#283,.F.);
#373=ORIENTED_EDGE('',*,*,#284,.F.);
#374=ORIENTED_EDGE('',*,*,#285,.T.);
#375=ORIENTED_EDGE('',*,*,#286,.T.);
#376=ORIENTED_EDGE('',*,*,#285,.F.);
#377=ORIENTED_EDGE('',*,*,#286,.F.);
#378=ORIENTED_EDGE('',*,*,#287,.T.);
#379=ORIENTED_EDGE('',*,*,#287,.F.);
#380=ORIENTED_EDGE('',*,*,#288,.T.);
#381=ORIENTED_EDGE('',*,*,#240,.T.);
#382=ORIENTED_EDGE('',*,*,#239,.T.);
#383=ORIENTED_EDGE('',*,*,#289,.T.);
#384=ORIENTED_EDGE('',*,*,#290,.F.);
#385=ORIENTED_EDGE('',*,*,#289,.F.);
#386=ORIENTED_EDGE('',*,*,#247,.T.);
#387=ORIENTED_EDGE('',*,*,#241,.T.);
#388=ORIENTED_EDGE('',*,*,#288,.F.);
#389=ORIENTED_EDGE('',*,*,#237,.T.);
#390=ORIENTED_EDGE('',*,*,#238,.T.);
#391=ORIENTED_EDGE('',*,*,#253,.T.);
#392=ORIENTED_EDGE('',*,*,#254,.T.);
#393=ORIENTED_EDGE('',*,*,#251,.T.);
#394=ORIENTED_EDGE('',*,*,#252,.T.);
#395=ORIENTED_EDGE('',*,*,#280,.T.);
#396=ORIENTED_EDGE('',*,*,#291,.F.);
#397=ORIENTED_EDGE('',*,*,#292,.T.);
#398=ORIENTED_EDGE('',*,*,#267,.T.);
#399=ORIENTED_EDGE('',*,*,#266,.T.);
#400=ORIENTED_EDGE('',*,*,#293,.T.);
#401=ORIENTED_EDGE('',*,*,#294,.T.);
#402=ORIENTED_EDGE('',*,*,#293,.F.);
#403=ORIENTED_EDGE('',*,*,#268,.T.);
#404=ORIENTED_EDGE('',*,*,#292,.F.);
#405=ORIENTED_EDGE('',*,*,#258,.T.);
#406=ORIENTED_EDGE('',*,*,#259,.T.);
#407=ORIENTED_EDGE('',*,*,#278,.T.);
#408=ORIENTED_EDGE('',*,*,#279,.T.);
#409=ORIENTED_EDGE('',*,*,#270,.T.);
#410=ORIENTED_EDGE('',*,*,#271,.T.);
#411=ORIENTED_EDGE('',*,*,#295,.F.);
#412=ORIENTED_EDGE('',*,*,#291,.T.);
#413=ORIENTED_EDGE('',*,*,#296,.F.);
#414=ORIENTED_EDGE('',*,*,#297,.T.);
#415=ORIENTED_EDGE('',*,*,#295,.T.);
#416=ORIENTED_EDGE('',*,*,#297,.F.);
#417=ORIENTED_EDGE('',*,*,#296,.T.);
#418=ORIENTED_EDGE('',*,*,#298,.F.);
#419=ORIENTED_EDGE('',*,*,#299,.F.);
#420=ORIENTED_EDGE('',*,*,#300,.T.);
#421=ORIENTED_EDGE('',*,*,#245,.T.);
#422=ORIENTED_EDGE('',*,*,#244,.T.);
#423=ORIENTED_EDGE('',*,*,#301,.T.);
#424=ORIENTED_EDGE('',*,*,#298,.T.);
#425=ORIENTED_EDGE('',*,*,#301,.F.);
#426=ORIENTED_EDGE('',*,*,#243,.T.);
#427=ORIENTED_EDGE('',*,*,#246,.T.);
#428=ORIENTED_EDGE('',*,*,#300,.F.);
#429=ORIENTED_EDGE('',*,*,#234,.T.);
#430=ORIENTED_EDGE('',*,*,#235,.T.);
#431=ORIENTED_EDGE('',*,*,#256,.T.);
#432=ORIENTED_EDGE('',*,*,#257,.T.);
#433=ORIENTED_EDGE('',*,*,#248,.T.);
#434=ORIENTED_EDGE('',*,*,#249,.T.);
#435=ORIENTED_EDGE('',*,*,#299,.T.);
#436=ORIENTED_EDGE('',*,*,#290,.T.);
#437=ORIENTED_EDGE('',*,*,#294,.F.);
#438=CYLINDRICAL_SURFACE('',#487,1.99999999999999);
#439=CYLINDRICAL_SURFACE('',#488,1.99999999999999);
#440=CYLINDRICAL_SURFACE('',#489,1.99999999999999);
#441=CYLINDRICAL_SURFACE('',#490,1.99999999999999);
#442=CYLINDRICAL_SURFACE('',#491,1.99999999999999);
#443=CYLINDRICAL_SURFACE('',#492,1.99999999999999);
#444=CYLINDRICAL_SURFACE('',#493,1.99999999999999);
#445=CYLINDRICAL_SURFACE('',#494,1.99999999999999);
#446=CYLINDRICAL_SURFACE('',#495,22.75);
#447=CYLINDRICAL_SURFACE('',#500,25.);
#448=CYLINDRICAL_SURFACE('',#504,22.75);
#449=CYLINDRICAL_SURFACE('',#507,27.75);
#450=CYLINDRICAL_SURFACE('',#512,30.);
#451=CYLINDRICAL_SURFACE('',#516,27.75);
#452=ADVANCED_FACE('',(#51),#438,.F.);
#453=ADVANCED_FACE('',(#52),#439,.F.);
#454=ADVANCED_FACE('',(#53),#440,.F.);
#455=ADVANCED_FACE('',(#54),#441,.F.);
#456=ADVANCED_FACE('',(#55),#442,.F.);
#457=ADVANCED_FACE('',(#56),#443,.F.);
#458=ADVANCED_FACE('',(#57),#444,.F.);
#459=ADVANCED_FACE('',(#58),#445,.F.);
#460=ADVANCED_FACE('',(#59,#22,#23,#24),#446,.F.);
#461=ADVANCED_FACE('',(#60,#25),#15,.F.);
#462=ADVANCED_FACE('',(#61),#447,.F.);
#463=ADVANCED_FACE('',(#62,#26),#16,.F.);
#464=ADVANCED_FACE('',(#63,#27,#28,#29),#448,.F.);
#465=ADVANCED_FACE('',(#64),#17,.F.);
#466=ADVANCED_FACE('',(#65,#30,#31,#32),#449,.T.);
#467=ADVANCED_FACE('',(#66,#33),#18,.T.);
#468=ADVANCED_FACE('',(#67),#450,.T.);
#469=ADVANCED_FACE('',(#68,#34),#19,.T.);
#470=ADVANCED_FACE('',(#69,#35,#36,#37),#451,.T.);
#471=ADVANCED_FACE('',(#70,#38),#20,.T.);
#472=ADVANCED_FACE('',(#71),#21,.T.);
#473=CLOSED_SHELL('',(#452,#453,#454,#455,#456,#457,#458,#459,#460,#461,
#462,#463,#464,#465,#466,#467,#468,#469,#470,#471,#472));
#474=DERIVED_UNIT_ELEMENT(#476,1.);
#475=DERIVED_UNIT_ELEMENT(#1309,-3.);
#476=(
MASS_UNIT()
NAMED_UNIT(*)
SI_UNIT(.KILO.,.GRAM.)
);
#477=DERIVED_UNIT((#474,#475));
#478=MEASURE_REPRESENTATION_ITEM('density measure',
POSITIVE_RATIO_MEASURE(7850.),#477);
#479=PROPERTY_DEFINITION_REPRESENTATION(#484,#481);
#480=PROPERTY_DEFINITION_REPRESENTATION(#485,#482);
#481=REPRESENTATION('material name',(#483),#1306);
#482=REPRESENTATION('density',(#478),#1306);
#483=DESCRIPTIVE_REPRESENTATION_ITEM('\X2\94A2\X0\','\X2\94A2\X0\');
#484=PROPERTY_DEFINITION('material property','material name',#1316);
#485=PROPERTY_DEFINITION('material property','density of part',#1316);
#486=AXIS2_PLACEMENT_3D('',#606,#520,#521);
#487=AXIS2_PLACEMENT_3D('',#607,#522,#523);
#488=AXIS2_PLACEMENT_3D('',#685,#525,#526);
#489=AXIS2_PLACEMENT_3D('',#783,#528,#529);
#490=AXIS2_PLACEMENT_3D('',#861,#531,#532);
#491=AXIS2_PLACEMENT_3D('',#939,#534,#535);
#492=AXIS2_PLACEMENT_3D('',#1017,#537,#538);
#493=AXIS2_PLACEMENT_3D('',#1101,#540,#541);
#494=AXIS2_PLACEMENT_3D('',#1179,#543,#544);
#495=AXIS2_PLACEMENT_3D('',#1257,#546,#547);
#496=AXIS2_PLACEMENT_3D('',#1259,#548,#549);
#497=AXIS2_PLACEMENT_3D('',#1263,#552,#553);
#498=AXIS2_PLACEMENT_3D('',#1264,#554,#555);
#499=AXIS2_PLACEMENT_3D('',#1266,#556,#557);
#500=AXIS2_PLACEMENT_3D('',#1267,#558,#559);
#501=AXIS2_PLACEMENT_3D('',#1270,#561,#562);
#502=AXIS2_PLACEMENT_3D('',#1271,#563,#564);
#503=AXIS2_PLACEMENT_3D('',#1273,#565,#566);
#504=AXIS2_PLACEMENT_3D('',#1274,#567,#568);
#505=AXIS2_PLACEMENT_3D('',#1278,#571,#572);
#506=AXIS2_PLACEMENT_3D('',#1279,#573,#574);
#507=AXIS2_PLACEMENT_3D('',#1280,#575,#576);
#508=AXIS2_PLACEMENT_3D('',#1282,#577,#578);
#509=AXIS2_PLACEMENT_3D('',#1286,#581,#582);
#510=AXIS2_PLACEMENT_3D('',#1287,#583,#584);
#511=AXIS2_PLACEMENT_3D('',#1289,#585,#586);
#512=AXIS2_PLACEMENT_3D('',#1290,#587,#588);
#513=AXIS2_PLACEMENT_3D('',#1292,#589,#590);
#514=AXIS2_PLACEMENT_3D('',#1294,#592,#593);
#515=AXIS2_PLACEMENT_3D('',#1296,#594,#595);
#516=AXIS2_PLACEMENT_3D('',#1297,#596,#597);
#517=AXIS2_PLACEMENT_3D('',#1299,#598,#599);
#518=AXIS2_PLACEMENT_3D('',#1302,#602,#603);
#519=AXIS2_PLACEMENT_3D('',#1303,#604,#605);
#520=DIRECTION('axis',(0.,0.,1.));
#521=DIRECTION('refdir',(1.,0.,0.));
#522=DIRECTION('center_axis',(0.,2.22044604925031E-16,1.));
#523=DIRECTION('ref_axis',(1.,0.,0.));
#524=DIRECTION('',(0.,2.22044604925031E-16,1.));
#525=DIRECTION('center_axis',(0.,2.22044604925031E-16,1.));
#526=DIRECTION('ref_axis',(1.,0.,0.));
#527=DIRECTION('',(0.,2.22044604925031E-16,1.));
#528=DIRECTION('center_axis',(0.,1.,0.));
#529=DIRECTION('ref_axis',(1.,0.,0.));
#530=DIRECTION('',(0.,1.,0.));
#531=DIRECTION('center_axis',(0.,1.,0.));
#532=DIRECTION('ref_axis',(1.,0.,0.));
#533=DIRECTION('',(0.,1.,0.));
#534=DIRECTION('center_axis',(0.,2.22044604925031E-16,1.));
#535=DIRECTION('ref_axis',(1.,0.,0.));
#536=DIRECTION('',(0.,2.22044604925031E-16,1.));
#537=DIRECTION('center_axis',(0.,2.22044604925031E-16,1.));
#538=DIRECTION('ref_axis',(1.,0.,0.));
#539=DIRECTION('',(0.,2.22044604925031E-16,1.));
#540=DIRECTION('center_axis',(0.,1.,0.));
#541=DIRECTION('ref_axis',(1.,0.,0.));
#542=DIRECTION('',(0.,1.,0.));
#543=DIRECTION('center_axis',(0.,1.,0.));
#544=DIRECTION('ref_axis',(1.,0.,0.));
#545=DIRECTION('',(0.,1.,0.));
#546=DIRECTION('center_axis',(1.,0.,0.));
#547=DIRECTION('ref_axis',(0.,0.,-1.));
#548=DIRECTION('center_axis',(1.,0.,0.));
#549=DIRECTION('ref_axis',(0.,0.,-1.));
#550=DIRECTION('',(1.,0.,0.));
#551=DIRECTION('',(1.,0.,0.));
#552=DIRECTION('center_axis',(1.,0.,0.));
#553=DIRECTION('ref_axis',(0.,0.,-1.));
#554=DIRECTION('center_axis',(-1.,0.,0.));
#555=DIRECTION('ref_axis',(0.,0.,1.));
#556=DIRECTION('center_axis',(-1.,0.,0.));
#557=DIRECTION('ref_axis',(0.,0.,-1.));
#558=DIRECTION('center_axis',(1.,0.,0.));
#559=DIRECTION('ref_axis',(0.,0.,-1.));
#560=DIRECTION('',(1.,0.,0.));
#561=DIRECTION('center_axis',(-1.,0.,0.));
#562=DIRECTION('ref_axis',(0.,0.,-1.));
#563=DIRECTION('center_axis',(1.,0.,0.));
#564=DIRECTION('ref_axis',(0.,0.,-1.));
#565=DIRECTION('center_axis',(1.,0.,0.));
#566=DIRECTION('ref_axis',(0.,0.,-1.));
#567=DIRECTION('center_axis',(1.,0.,0.));
#568=DIRECTION('ref_axis',(0.,0.,-1.));
#569=DIRECTION('',(1.,0.,0.));
#570=DIRECTION('',(1.,0.,0.));
#571=DIRECTION('center_axis',(-1.,0.,0.));
#572=DIRECTION('ref_axis',(0.,0.,-1.));
#573=DIRECTION('center_axis',(-1.,0.,0.));
#574=DIRECTION('ref_axis',(0.,0.,1.));
#575=DIRECTION('center_axis',(1.,0.,0.));
#576=DIRECTION('ref_axis',(0.,0.,-1.));
#577=DIRECTION('center_axis',(1.,0.,0.));
#578=DIRECTION('ref_axis',(0.,0.,-1.));
#579=DIRECTION('',(-1.,0.,0.));
#580=DIRECTION('',(-1.,0.,0.));
#581=DIRECTION('center_axis',(1.,0.,0.));
#582=DIRECTION('ref_axis',(0.,0.,-1.));
#583=DIRECTION('center_axis',(-1.,0.,0.));
#584=DIRECTION('ref_axis',(0.,0.,1.));
#585=DIRECTION('center_axis',(1.,0.,0.));
#586=DIRECTION('ref_axis',(0.,0.,-1.));
#587=DIRECTION('center_axis',(1.,0.,0.));
#588=DIRECTION('ref_axis',(0.,0.,-1.));
#589=DIRECTION('center_axis',(1.,0.,0.));
#590=DIRECTION('ref_axis',(0.,0.,-1.));
#591=DIRECTION('',(-1.,0.,0.));
#592=DIRECTION('center_axis',(1.,0.,0.));
#593=DIRECTION('ref_axis',(0.,0.,-1.));
#594=DIRECTION('center_axis',(1.,0.,0.));
#595=DIRECTION('ref_axis',(0.,0.,-1.));
#596=DIRECTION('center_axis',(1.,0.,0.));
#597=DIRECTION('ref_axis',(0.,0.,-1.));
#598=DIRECTION('center_axis',(1.,0.,0.));
#599=DIRECTION('ref_axis',(0.,0.,-1.));
#600=DIRECTION('',(-1.,0.,0.));
#601=DIRECTION('',(-1.,0.,0.));
#602=DIRECTION('center_axis',(1.,0.,0.));
#603=DIRECTION('ref_axis',(0.,0.,-1.));
#604=DIRECTION('center_axis',(-1.,0.,0.));
#605=DIRECTION('ref_axis',(0.,0.,1.));
#606=CARTESIAN_POINT('',(0.,0.,0.));
#607=CARTESIAN_POINT('Origin',(274.976174678758,0.00850904022022169,-0.00850904022022169));
#608=CARTESIAN_POINT('',(274.976174678758,-1.99149095977978,-27.6784476399439));
#609=CARTESIAN_POINT('',(272.976174678758,0.00850904022021526,-27.7499986954276));
#610=CARTESIAN_POINT('Ctrl Pts',(274.976174678758,-1.99149095977978,-27.6784476399439));
#611=CARTESIAN_POINT('Ctrl Pts',(275.227392487434,-1.99149095977978,-27.6784476399439));
#612=CARTESIAN_POINT('Ctrl Pts',(275.495296003963,-1.94126723851685,-27.6822044871462));
#613=CARTESIAN_POINT('Ctrl Pts',(275.988030080079,-1.73713214904778,-27.6957638571833));
#614=CARTESIAN_POINT('Ctrl Pts',(276.212868006308,-1.58322552475212,-27.7053693858357));
#615=CARTESIAN_POINT('Ctrl Pts',(276.56791306873,-1.2281789267719,-27.7233777135707));
#616=CARTESIAN_POINT('Ctrl Pts',(276.721818498628,-1.00334153195952,-27.7329505698096));
#617=CARTESIAN_POINT('Ctrl Pts',(276.925951691028,-0.510608993869957,-27.7463965226476));
#618=CARTESIAN_POINT('Ctrl Pts',(276.976174678758,-0.242706600516023,-27.7500757262057));
#619=CARTESIAN_POINT('Ctrl Pts',(276.976174678758,0.259728998995554,-27.7499216633255));
#620=CARTESIAN_POINT('Ctrl Pts',(276.925950147233,0.527633385933731,-27.7460780448802));
#621=CARTESIAN_POINT('Ctrl Pts',(276.721814361786,1.02036701251138,-27.7323294193434));
#622=CARTESIAN_POINT('Ctrl Pts',(276.567907963564,1.2452036545085,-27.7226182923884));
#623=CARTESIAN_POINT('Ctrl Pts',(276.212863567358,1.60024650201031,-27.7043914899079));
#624=CARTESIAN_POINT('Ctrl Pts',(275.98802761408,1.75415144266272,-27.6946911368587));
#625=CARTESIAN_POINT('Ctrl Pts',(275.495296018312,1.95828512147731,-27.6810058317325));
#626=CARTESIAN_POINT('Ctrl Pts',(275.227392926433,2.00850904022021,-27.6772179135721));
#627=CARTESIAN_POINT('Ctrl Pts',(274.724956431084,2.00850904022021,-27.6772179135721));
#628=CARTESIAN_POINT('Ctrl Pts',(274.457053339204,1.95828512147732,-27.6810058317325));
#629=CARTESIAN_POINT('Ctrl Pts',(273.964321743437,1.75415144266275,-27.6946911368586));
#630=CARTESIAN_POINT('Ctrl Pts',(273.739485790158,1.60024650201031,-27.7043914899079));
#631=CARTESIAN_POINT('Ctrl Pts',(273.384441393952,1.2452036545085,-27.7226182923884));
#632=CARTESIAN_POINT('Ctrl Pts',(273.23053499573,1.02036701251142,-27.7323294193434));
#633=CARTESIAN_POINT('Ctrl Pts',(273.026399210283,0.527633385933765,-27.7460780448802));
#634=CARTESIAN_POINT('Ctrl Pts',(272.976174678758,0.259728998995551,-27.7499216633255));
#635=CARTESIAN_POINT('Ctrl Pts',(272.976174678758,0.00850904022021322,-27.7499986954276));
#636=CARTESIAN_POINT('Ctrl Pts',(272.976174678758,0.00850904022021502,-27.7499986954276));
#637=CARTESIAN_POINT('Ctrl Pts',(272.976174678758,-0.242706600516024,-27.7500757262057));
#638=CARTESIAN_POINT('Ctrl Pts',(273.026397666488,-0.510608993869957,-27.7463965226476));
#639=CARTESIAN_POINT('Ctrl Pts',(273.230530858888,-1.00334153195952,-27.7329505698096));
#640=CARTESIAN_POINT('Ctrl Pts',(273.384436288786,-1.2281789267719,-27.7233777135707));
#641=CARTESIAN_POINT('Ctrl Pts',(273.739481351209,-1.58322552475212,-27.7053693858357));
#642=CARTESIAN_POINT('Ctrl Pts',(273.964319277437,-1.73713214904778,-27.6957638571833));
#643=CARTESIAN_POINT('Ctrl Pts',(274.457053353554,-1.94126723851685,-27.6822044871462));
#644=CARTESIAN_POINT('Ctrl Pts',(274.724956870082,-1.99149095977977,-27.6784476399439));
#645=CARTESIAN_POINT('Ctrl Pts',(274.976174678758,-1.99149095977978,-27.6784476399439));
#646=CARTESIAN_POINT('',(272.976174678758,0.00850904022021741,-22.7499984087084));
#647=CARTESIAN_POINT('',(272.976174678758,0.00850904022022145,-0.00850904022022169));
#648=CARTESIAN_POINT('',(274.976174678758,-1.99149095977978,-22.6626667397532));
#649=CARTESIAN_POINT('Ctrl Pts',(274.976174678758,-1.99149095977978,-22.6626667397532));
#650=CARTESIAN_POINT('Ctrl Pts',(274.724911080909,-1.99149095977978,-22.6626667397532));
#651=CARTESIAN_POINT('Ctrl Pts',(274.456987844146,-1.94124938142291,-22.6672569704703));
#652=CARTESIAN_POINT('Ctrl Pts',(273.964265906827,-1.73710075302735,-22.6838151258803));
#653=CARTESIAN_POINT('Ctrl Pts',(273.739456198887,-1.5832007473831,-22.6955414711507));
#654=CARTESIAN_POINT('Ctrl Pts',(273.384459313601,-1.22820157662628,-22.7175185113318));
#655=CARTESIAN_POINT('Ctrl Pts',(273.230560993488,-1.00339260903107,-22.7291984847302));
#656=CARTESIAN_POINT('Ctrl Pts',(273.026415123958,-0.510672788520032,-22.7456033946836));
#657=CARTESIAN_POINT('Ctrl Pts',(272.976174678758,-0.242751164781609,-22.7500923859981));
#658=CARTESIAN_POINT('Ctrl Pts',(272.976174678758,0.0085090402202101,-22.7499984087084));
#659=CARTESIAN_POINT('Ctrl Pts',(272.976174678758,0.00850904022021842,-22.7499984087084));
#660=CARTESIAN_POINT('Ctrl Pts',(272.976174678758,0.25977567644008,-22.7499044290133));
#661=CARTESIAN_POINT('Ctrl Pts',(273.026417423797,0.52770027010969,-22.7452148016722));
#662=CARTESIAN_POINT('Ctrl Pts',(273.230567155558,1.02042171154818,-22.7284404102184));
#663=CARTESIAN_POINT('Ctrl Pts',(273.384466917515,1.24522955624168,-22.7165915679052));
#664=CARTESIAN_POINT('Ctrl Pts',(273.739462806407,1.6002231400779,-22.6943476312901));
#665=CARTESIAN_POINT('Ctrl Pts',(273.964269574142,1.75412063716109,-22.6825053631328));
#666=CARTESIAN_POINT('Ctrl Pts',(274.456987814832,1.95826716549457,-22.6657931363996));
#667=CARTESIAN_POINT('Ctrl Pts',(274.724910419662,2.00850904022021,-22.6611648296232));
#668=CARTESIAN_POINT('Ctrl Pts',(275.227438937855,2.00850904022021,-22.6611648296232));
#669=CARTESIAN_POINT('Ctrl Pts',(275.495361542684,1.95826716549457,-22.6657931363996));
#670=CARTESIAN_POINT('Ctrl Pts',(275.988079783375,1.75412063716109,-22.6825053631328));
#671=CARTESIAN_POINT('Ctrl Pts',(276.212886551109,1.6002231400779,-22.6943476312901));
#672=CARTESIAN_POINT('Ctrl Pts',(276.567882440002,1.24522955624168,-22.7165915679052));
#673=CARTESIAN_POINT('Ctrl Pts',(276.721782201958,1.02042171154818,-22.7284404102184));
#674=CARTESIAN_POINT('Ctrl Pts',(276.925931933719,0.52770027010969,-22.7452148016722));
#675=CARTESIAN_POINT('Ctrl Pts',(276.976174678758,0.259775676440078,-22.7499044290133));
#676=CARTESIAN_POINT('Ctrl Pts',(276.976174678758,-0.242751164781601,-22.750092385998));
#677=CARTESIAN_POINT('Ctrl Pts',(276.925934233558,-0.510672788520031,-22.7456033946836));
#678=CARTESIAN_POINT('Ctrl Pts',(276.721788364028,-1.00339260903107,-22.7291984847302));
#679=CARTESIAN_POINT('Ctrl Pts',(276.567890043915,-1.22820157662627,-22.7175185113318));
#680=CARTESIAN_POINT('Ctrl Pts',(276.21289315863,-1.5832007473831,-22.6955414711507));
#681=CARTESIAN_POINT('Ctrl Pts',(275.988083450689,-1.73710075302739,-22.6838151258803));
#682=CARTESIAN_POINT('Ctrl Pts',(275.49536151337,-1.94124938142293,-22.6672569704703));
#683=CARTESIAN_POINT('Ctrl Pts',(275.227438276607,-1.99149095977977,-22.6626667397532));
#684=CARTESIAN_POINT('Ctrl Pts',(274.976174678758,-1.99149095977977,-22.6626667397532));
#685=CARTESIAN_POINT('Origin',(274.976174678758,0.00850904022022169,-0.00850904022022169));
#686=CARTESIAN_POINT('',(274.976174678758,-1.99149095977977,22.6626667397532));
#687=CARTESIAN_POINT('',(276.976156577715,-2.29573909020236E-9,22.75));
#688=CARTESIAN_POINT('Ctrl Pts',(274.976174678758,-1.99149095977977,22.6626667397532));
#689=CARTESIAN_POINT('Ctrl Pts',(275.227438276607,-1.99149095977977,22.6626667397532));
#690=CARTESIAN_POINT('Ctrl Pts',(275.49536151337,-1.9412493814229,22.6672569704703));
#691=CARTESIAN_POINT('Ctrl Pts',(275.988083450689,-1.73710075302734,22.6838151258803));
#692=CARTESIAN_POINT('Ctrl Pts',(276.21289315863,-1.58320074738309,22.6955414711507));
#693=CARTESIAN_POINT('Ctrl Pts',(276.567890043915,-1.22820157662626,22.7175185113318));
#694=CARTESIAN_POINT('Ctrl Pts',(276.721788364028,-1.00339260903106,22.7291984847302));
#695=CARTESIAN_POINT('Ctrl Pts',(276.924782838745,-0.51345175753225,22.7455108700184));
#696=CARTESIAN_POINT('Ctrl Pts',(276.975098072444,-0.248793074747171,22.7499999999498));
#697=CARTESIAN_POINT('Ctrl Pts',(276.976156577715,-4.59147588005582E-9,
22.75));
#698=CARTESIAN_POINT('',(272.976192779801,-2.29574113717606E-9,22.75));
#699=CARTESIAN_POINT('Ctrl Pts',(272.976192779801,-4.59147643516733E-9,
22.75));
#700=CARTESIAN_POINT('Ctrl Pts',(272.977251285072,-0.248793074747172,22.7499999999498));
#701=CARTESIAN_POINT('Ctrl Pts',(273.027566518771,-0.51345175753229,22.7455108700184));
#702=CARTESIAN_POINT('Ctrl Pts',(273.230560993488,-1.0033926090311,22.7291984847302));
#703=CARTESIAN_POINT('Ctrl Pts',(273.384459313601,-1.22820157662627,22.7175185113318));
#704=CARTESIAN_POINT('Ctrl Pts',(273.739456198887,-1.58320074738309,22.6955414711507));
#705=CARTESIAN_POINT('Ctrl Pts',(273.964265906827,-1.73710075302731,22.6838151258803));
#706=CARTESIAN_POINT('Ctrl Pts',(274.456987844146,-1.94124938142289,22.6672569704703));
#707=CARTESIAN_POINT('Ctrl Pts',(274.724911080909,-1.99149095977977,22.6626667397532));
#708=CARTESIAN_POINT('Ctrl Pts',(274.976174678758,-1.99149095977977,22.6626667397532));
#709=CARTESIAN_POINT('',(272.976174678758,0.00850904022022486,22.7499984087084));
#710=CARTESIAN_POINT('Ctrl Pts',(272.976174678758,0.00850904022022654,22.7499984087084));
#711=CARTESIAN_POINT('Ctrl Pts',(272.976174678758,0.00567479530196043,22.7499994687834));
#712=CARTESIAN_POINT('Ctrl Pts',(272.976180703514,0.00283842861635574,22.7500000000006));
#713=CARTESIAN_POINT('Ctrl Pts',(272.976192779801,-4.59147598068937E-9,
22.75));
#714=CARTESIAN_POINT('',(272.976174678758,0.0085090402202268,27.7499986954276));
#715=CARTESIAN_POINT('',(272.976174678758,0.00850904022022145,-0.00850904022022169));
#716=CARTESIAN_POINT('',(272.976192779801,-2.29600966628161E-9,27.75));
#717=CARTESIAN_POINT('Ctrl Pts',(272.976192779801,-4.59201718554617E-9,
27.75));
#718=CARTESIAN_POINT('Ctrl Pts',(272.976180703497,0.00283843256804382,27.7500000000005));
#719=CARTESIAN_POINT('Ctrl Pts',(272.976174678758,0.00567479926274918,27.7499995644969));
#720=CARTESIAN_POINT('Ctrl Pts',(272.976174678758,0.00850904022022808,27.7499986954276));
#721=CARTESIAN_POINT('',(274.976174678758,-1.99149095977976,27.6784476399439));
#722=CARTESIAN_POINT('Ctrl Pts',(274.976174678758,-1.99149095977976,27.6784476399439));
#723=CARTESIAN_POINT('Ctrl Pts',(274.724956870082,-1.99149095977976,27.6784476399439));
#724=CARTESIAN_POINT('Ctrl Pts',(274.457053353554,-1.94126723851684,27.6822044871462));
#725=CARTESIAN_POINT('Ctrl Pts',(273.964319277437,-1.73713214904777,27.6957638571833));
#726=CARTESIAN_POINT('Ctrl Pts',(273.739481351209,-1.58322552475211,27.7053693858357));
#727=CARTESIAN_POINT('Ctrl Pts',(273.384436288786,-1.22817892677189,27.7233777135707));
#728=CARTESIAN_POINT('Ctrl Pts',(273.230530858888,-1.00334153195951,27.7329505698096));
#729=CARTESIAN_POINT('Ctrl Pts',(273.02754919243,-0.513388523712201,27.7463206733292));
#730=CARTESIAN_POINT('Ctrl Pts',(272.97725109816,-0.248749142571838,27.7499999999588));
#731=CARTESIAN_POINT('Ctrl Pts',(272.976192779801,-4.59201593416836E-9,
27.75));
#732=CARTESIAN_POINT('',(276.976156577715,-2.29600918055904E-9,27.75));
#733=CARTESIAN_POINT('Ctrl Pts',(276.976156577715,-4.59201954239319E-9,
27.75));
#734=CARTESIAN_POINT('Ctrl Pts',(276.975098259356,-0.248749142571842,27.7499999999588));
#735=CARTESIAN_POINT('Ctrl Pts',(276.924800165086,-0.513388523712184,27.7463206733292));
#736=CARTESIAN_POINT('Ctrl Pts',(276.721818498628,-1.00334153195948,27.7329505698096));
#737=CARTESIAN_POINT('Ctrl Pts',(276.56791306873,-1.22817892677189,27.7233777135707));
#738=CARTESIAN_POINT('Ctrl Pts',(276.212868006308,-1.58322552475211,27.7053693858357));
#739=CARTESIAN_POINT('Ctrl Pts',(275.988030080079,-1.73713214904777,27.6957638571833));
#740=CARTESIAN_POINT('Ctrl Pts',(275.495296003963,-1.94126723851684,27.6822044871462));
#741=CARTESIAN_POINT('Ctrl Pts',(275.227392487434,-1.99149095977976,27.6784476399439));
#742=CARTESIAN_POINT('Ctrl Pts',(274.976174678758,-1.99149095977976,27.6784476399439));
#743=CARTESIAN_POINT('Ctrl Pts',(272.976174678758,0.00850904022022557,27.7499986954276));
#744=CARTESIAN_POINT('Ctrl Pts',(272.976174678758,0.259728998995564,27.7499216633255));
#745=CARTESIAN_POINT('Ctrl Pts',(273.026399210283,0.527633385933743,27.7460780448802));
#746=CARTESIAN_POINT('Ctrl Pts',(273.23053499573,1.0203670125114,27.7323294193434));
#747=CARTESIAN_POINT('Ctrl Pts',(273.384441393952,1.24520365450851,27.7226182923884));
#748=CARTESIAN_POINT('Ctrl Pts',(273.739485790158,1.60024650201032,27.7043914899079));
#749=CARTESIAN_POINT('Ctrl Pts',(273.964321743436,1.75415144266273,27.6946911368587));
#750=CARTESIAN_POINT('Ctrl Pts',(274.457053339204,1.95828512147733,27.6810058317325));
#751=CARTESIAN_POINT('Ctrl Pts',(274.724956431084,2.00850904022022,27.6772179135721));
#752=CARTESIAN_POINT('Ctrl Pts',(275.227392926433,2.00850904022022,27.6772179135721));
#753=CARTESIAN_POINT('Ctrl Pts',(275.495296018312,1.95828512147733,27.6810058317325));
#754=CARTESIAN_POINT('Ctrl Pts',(275.98802761408,1.75415144266273,27.6946911368587));
#755=CARTESIAN_POINT('Ctrl Pts',(276.212863567358,1.60024650201032,27.7043914899079));
#756=CARTESIAN_POINT('Ctrl Pts',(276.567907963564,1.24520365450851,27.7226182923884));
#757=CARTESIAN_POINT('Ctrl Pts',(276.721814361786,1.0203670125114,27.7323294193434));
#758=CARTESIAN_POINT('Ctrl Pts',(276.925950147233,0.527633385933749,27.7460780448802));
#759=CARTESIAN_POINT('Ctrl Pts',(276.976174678758,0.259728998995566,27.7499216633255));
#760=CARTESIAN_POINT('Ctrl Pts',(276.976174678758,0.00567479926274898,27.7499995644969));
#761=CARTESIAN_POINT('Ctrl Pts',(276.976168654019,0.00283843256804379,27.7500000000005));
#762=CARTESIAN_POINT('Ctrl Pts',(276.976156577715,-4.59201705547463E-9,
27.75));
#763=CARTESIAN_POINT('Ctrl Pts',(276.976156577715,-4.59147566606264E-9,
22.75));
#764=CARTESIAN_POINT('Ctrl Pts',(276.976168654002,0.00283842861635608,22.7500000000006));
#765=CARTESIAN_POINT('Ctrl Pts',(276.976174678758,0.00567479530196093,22.7499994687834));
#766=CARTESIAN_POINT('Ctrl Pts',(276.976174678758,0.259775676440089,22.7499044290133));
#767=CARTESIAN_POINT('Ctrl Pts',(276.925931933719,0.5277002701097,22.7452148016722));
#768=CARTESIAN_POINT('Ctrl Pts',(276.721782201958,1.02042171154819,22.7284404102184));
#769=CARTESIAN_POINT('Ctrl Pts',(276.567882440002,1.24522955624169,22.7165915679052));
#770=CARTESIAN_POINT('Ctrl Pts',(276.212886551109,1.60022314007791,22.6943476312901));
#771=CARTESIAN_POINT('Ctrl Pts',(275.988079783375,1.7541206371611,22.6825053631328));
#772=CARTESIAN_POINT('Ctrl Pts',(275.495361542684,1.95826716549458,22.6657931363996));
#773=CARTESIAN_POINT('Ctrl Pts',(275.227438937855,2.00850904022022,22.6611648296232));
#774=CARTESIAN_POINT('Ctrl Pts',(274.724910419662,2.00850904022022,22.6611648296232));
#775=CARTESIAN_POINT('Ctrl Pts',(274.456987814832,1.95826716549458,22.6657931363996));
#776=CARTESIAN_POINT('Ctrl Pts',(273.964269574142,1.7541206371611,22.6825053631328));
#777=CARTESIAN_POINT('Ctrl Pts',(273.739462806407,1.60022314007791,22.6943476312901));
#778=CARTESIAN_POINT('Ctrl Pts',(273.384466917515,1.24522955624169,22.7165915679052));
#779=CARTESIAN_POINT('Ctrl Pts',(273.230567155558,1.0204217115482,22.7284404102184));
#780=CARTESIAN_POINT('Ctrl Pts',(273.026417423797,0.5277002701097,22.7452148016722));
#781=CARTESIAN_POINT('Ctrl Pts',(272.976174678758,0.259775676440087,22.7499044290133));
#782=CARTESIAN_POINT('Ctrl Pts',(272.976174678758,0.00850904022022585,22.7499984087084));
#783=CARTESIAN_POINT('Origin',(274.976174678758,0.,0.));
#784=CARTESIAN_POINT('',(274.976174678758,-27.6778340915614,1.99999999999999));
#785=CARTESIAN_POINT('',(272.976174678758,-27.75,2.4492935982947E-16));
#786=CARTESIAN_POINT('Ctrl Pts',(274.976174678758,-27.6778340915614,1.99999999999999));
#787=CARTESIAN_POINT('Ctrl Pts',(275.227392707521,-27.6778340915614,1.99999999999999));
#788=CARTESIAN_POINT('Ctrl Pts',(275.495296013221,-27.6816064736923,1.94977617983265));
#789=CARTESIAN_POINT('Ctrl Pts',(275.988028853943,-27.6952288097649,1.7456417923131));
#790=CARTESIAN_POINT('Ctrl Pts',(276.212865796948,-27.7048817497065,1.59173600655608));
#791=CARTESIAN_POINT('Ctrl Pts',(276.567910523013,-27.7229993128227,1.23669128049146));
#792=CARTESIAN_POINT('Ctrl Pts',(276.721816433803,-27.7326413029688,1.01185426528963));
#793=CARTESIAN_POINT('Ctrl Pts',(276.925950919328,-27.7462385898545,0.519121187709619));
#794=CARTESIAN_POINT('Ctrl Pts',(276.976174678758,-27.75,0.251217799085209));
#795=CARTESIAN_POINT('Ctrl Pts',(276.976174678758,-27.75,-0.251217799085209));
#796=CARTESIAN_POINT('Ctrl Pts',(276.925950919328,-27.7462385898545,-0.519121187709619));
#797=CARTESIAN_POINT('Ctrl Pts',(276.721816433803,-27.7326413029688,-1.01185426528963));
#798=CARTESIAN_POINT('Ctrl Pts',(276.567910523013,-27.7229993128227,-1.23669128049146));
#799=CARTESIAN_POINT('Ctrl Pts',(276.212865796948,-27.7048817497065,-1.59173600655608));
#800=CARTESIAN_POINT('Ctrl Pts',(275.988028853943,-27.6952288097649,-1.74564179231308));
#801=CARTESIAN_POINT('Ctrl Pts',(275.495296013221,-27.6816064736923,-1.94977617983265));
#802=CARTESIAN_POINT('Ctrl Pts',(275.227392707522,-27.6778340915614,-1.99999999999999));
#803=CARTESIAN_POINT('Ctrl Pts',(274.724956649995,-27.6778340915614,-1.99999999999999));
#804=CARTESIAN_POINT('Ctrl Pts',(274.457053344295,-27.6816064736923,-1.94977617983265));
#805=CARTESIAN_POINT('Ctrl Pts',(273.964320503573,-27.6952288097649,-1.7456417923131));
#806=CARTESIAN_POINT('Ctrl Pts',(273.739483560568,-27.7048817497065,-1.59173600655608));
#807=CARTESIAN_POINT('Ctrl Pts',(273.384438834503,-27.7229993128227,-1.23669128049146));
#808=CARTESIAN_POINT('Ctrl Pts',(273.230532923713,-27.7326413029688,-1.01185426528963));
#809=CARTESIAN_POINT('Ctrl Pts',(273.026398438189,-27.7462385898545,-0.51912118770962));
#810=CARTESIAN_POINT('Ctrl Pts',(272.976174678758,-27.75,-0.251217799085211));
#811=CARTESIAN_POINT('Ctrl Pts',(272.976174678758,-27.75,-2.4980018054066E-15));
#812=CARTESIAN_POINT('Ctrl Pts',(272.976174678758,-27.75,1.52655665885959E-15));
#813=CARTESIAN_POINT('Ctrl Pts',(272.976174678758,-27.75,0.251217799085211));
#814=CARTESIAN_POINT('Ctrl Pts',(273.026398438189,-27.7462385898545,0.519121187709666));
#815=CARTESIAN_POINT('Ctrl Pts',(273.230532923713,-27.7326413029688,1.01185426528967));
#816=CARTESIAN_POINT('Ctrl Pts',(273.384438834503,-27.7229993128227,1.23669128049146));
#817=CARTESIAN_POINT('Ctrl Pts',(273.739483560568,-27.7048817497065,1.59173600655608));
#818=CARTESIAN_POINT('Ctrl Pts',(273.964320503573,-27.6952288097649,1.7456417923131));
#819=CARTESIAN_POINT('Ctrl Pts',(274.457053344295,-27.6816064736923,1.94977617983265));
#820=CARTESIAN_POINT('Ctrl Pts',(274.724956649995,-27.6778340915614,1.99999999999999));
#821=CARTESIAN_POINT('Ctrl Pts',(274.976174678758,-27.6778340915614,1.99999999999999));
#822=CARTESIAN_POINT('',(272.976174678758,-22.75,1.89188262541108E-15));
#823=CARTESIAN_POINT('',(272.976174678758,0.,2.4492935982947E-16));
#824=CARTESIAN_POINT('',(274.976174678758,-22.6619173946072,1.99999999999999));
#825=CARTESIAN_POINT('Ctrl Pts',(274.976174678758,-22.6619173946072,1.99999999999999));
#826=CARTESIAN_POINT('Ctrl Pts',(274.724910749433,-22.6619173946072,1.99999999999999));
#827=CARTESIAN_POINT('Ctrl Pts',(274.456987826411,-22.6665266623467,1.94975827322143));
#828=CARTESIAN_POINT('Ctrl Pts',(273.964267730268,-22.6831618506626,1.74561068982348));
#829=CARTESIAN_POINT('Ctrl Pts',(273.739459487572,-22.6949461557187,1.59171193355963));
#830=CARTESIAN_POINT('Ctrl Pts',(273.384463105297,-22.7170566404912,1.23671555128492));
#831=CARTESIAN_POINT('Ctrl Pts',(273.230564069132,-22.7288210457092,1.01190714989126));
#832=CARTESIAN_POINT('Ctrl Pts',(273.026416273568,-22.7454106922285,0.51918652599512));
#833=CARTESIAN_POINT('Ctrl Pts',(272.976174678758,-22.75,0.251263419575521));
#834=CARTESIAN_POINT('Ctrl Pts',(272.976174678758,-22.75,8.32667268468867E-16));
#835=CARTESIAN_POINT('Ctrl Pts',(272.976174678758,-22.75,3.53883589099269E-15));
#836=CARTESIAN_POINT('Ctrl Pts',(272.976174678758,-22.75,-0.251263419575517));
#837=CARTESIAN_POINT('Ctrl Pts',(273.026416273568,-22.7454106922285,-0.51918652599512));
#838=CARTESIAN_POINT('Ctrl Pts',(273.230564069132,-22.7288210457092,-1.01190714989126));
#839=CARTESIAN_POINT('Ctrl Pts',(273.384463105297,-22.7170566404912,-1.23671555128492));
#840=CARTESIAN_POINT('Ctrl Pts',(273.739459487572,-22.6949461557187,-1.59171193355963));
#841=CARTESIAN_POINT('Ctrl Pts',(273.964267730268,-22.6831618506626,-1.74561068982348));
#842=CARTESIAN_POINT('Ctrl Pts',(274.456987826411,-22.6665266623467,-1.94975827322143));
#843=CARTESIAN_POINT('Ctrl Pts',(274.724910749433,-22.6619173946072,-1.99999999999999));
#844=CARTESIAN_POINT('Ctrl Pts',(275.227438608083,-22.6619173946072,-1.99999999999999));
#845=CARTESIAN_POINT('Ctrl Pts',(275.495361531106,-22.6665266623467,-1.94975827322143));
#846=CARTESIAN_POINT('Ctrl Pts',(275.988081627249,-22.6831618506626,-1.74561068982348));
#847=CARTESIAN_POINT('Ctrl Pts',(276.212889869945,-22.6949461557187,-1.59171193355963));
#848=CARTESIAN_POINT('Ctrl Pts',(276.567886252219,-22.7170566404912,-1.23671555128492));
#849=CARTESIAN_POINT('Ctrl Pts',(276.721785288384,-22.7288210457092,-1.01190714989123));
#850=CARTESIAN_POINT('Ctrl Pts',(276.925933083948,-22.7454106922285,-0.519186525995093));
#851=CARTESIAN_POINT('Ctrl Pts',(276.976174678758,-22.75,-0.251263419575521));
#852=CARTESIAN_POINT('Ctrl Pts',(276.976174678758,-22.75,0.25126341957552));
#853=CARTESIAN_POINT('Ctrl Pts',(276.925933083948,-22.7454106922285,0.51918652599512));
#854=CARTESIAN_POINT('Ctrl Pts',(276.721785288384,-22.7288210457092,1.01190714989126));
#855=CARTESIAN_POINT('Ctrl Pts',(276.567886252219,-22.7170566404912,1.23671555128492));
#856=CARTESIAN_POINT('Ctrl Pts',(276.212889869945,-22.6949461557187,1.59171193355963));
#857=CARTESIAN_POINT('Ctrl Pts',(275.988081627249,-22.6831618506626,1.7456106898235));
#858=CARTESIAN_POINT('Ctrl Pts',(275.495361531106,-22.6665266623467,1.94975827322145));
#859=CARTESIAN_POINT('Ctrl Pts',(275.227438608083,-22.6619173946072,1.99999999999999));
#860=CARTESIAN_POINT('Ctrl Pts',(274.976174678758,-22.6619173946072,1.99999999999999));
#861=CARTESIAN_POINT('Origin',(274.976174678758,0.,0.));
#862=CARTESIAN_POINT('',(274.976174678758,22.6619173946072,1.99999999999999));
#863=CARTESIAN_POINT('',(272.976174678758,22.75,5.73492783668705E-16));
#864=CARTESIAN_POINT('Ctrl Pts',(274.976174678758,22.6619173946072,1.99999999999999));
#865=CARTESIAN_POINT('Ctrl Pts',(275.227438608083,22.6619173946072,1.99999999999999));
#866=CARTESIAN_POINT('Ctrl Pts',(275.495361531106,22.6665266623467,1.94975827322143));
#867=CARTESIAN_POINT('Ctrl Pts',(275.988081627249,22.6831618506626,1.74561068982348));
#868=CARTESIAN_POINT('Ctrl Pts',(276.212889869945,22.6949461557187,1.59171193355963));
#869=CARTESIAN_POINT('Ctrl Pts',(276.567886252219,22.7170566404912,1.23671555128492));
#870=CARTESIAN_POINT('Ctrl Pts',(276.721785288384,22.7288210457092,1.01190714989126));
#871=CARTESIAN_POINT('Ctrl Pts',(276.925933083948,22.7454106922285,0.51918652599512));
#872=CARTESIAN_POINT('Ctrl Pts',(276.976174678758,22.75,0.25126341957552));
#873=CARTESIAN_POINT('Ctrl Pts',(276.976174678758,22.75,-0.251263419575521));
#874=CARTESIAN_POINT('Ctrl Pts',(276.925933083948,22.7454106922285,-0.519186525995121));
#875=CARTESIAN_POINT('Ctrl Pts',(276.721785288384,22.7288210457092,-1.01190714989126));
#876=CARTESIAN_POINT('Ctrl Pts',(276.567886252219,22.7170566404912,-1.23671555128492));
#877=CARTESIAN_POINT('Ctrl Pts',(276.212889869945,22.6949461557187,-1.59171193355963));
#878=CARTESIAN_POINT('Ctrl Pts',(275.988081627249,22.6831618506626,-1.74561068982348));
#879=CARTESIAN_POINT('Ctrl Pts',(275.495361531106,22.6665266623467,-1.94975827322143));
#880=CARTESIAN_POINT('Ctrl Pts',(275.227438608083,22.6619173946072,-1.99999999999999));
#881=CARTESIAN_POINT('Ctrl Pts',(274.724910749433,22.6619173946072,-1.99999999999999));
#882=CARTESIAN_POINT('Ctrl Pts',(274.456987826411,22.6665266623467,-1.94975827322145));
#883=CARTESIAN_POINT('Ctrl Pts',(273.964267730268,22.6831618506626,-1.7456106898235));
#884=CARTESIAN_POINT('Ctrl Pts',(273.739459487572,22.6949461557187,-1.59171193355963));
#885=CARTESIAN_POINT('Ctrl Pts',(273.384463105297,22.7170566404912,-1.23671555128492));
#886=CARTESIAN_POINT('Ctrl Pts',(273.230564069132,22.7288210457092,-1.01190714989127));
#887=CARTESIAN_POINT('Ctrl Pts',(273.026416273568,22.7454106922285,-0.519186525995134));
#888=CARTESIAN_POINT('Ctrl Pts',(272.976174678758,22.75,-0.251263419575521));
#889=CARTESIAN_POINT('Ctrl Pts',(272.976174678758,22.75,-2.77555756156289E-16));
#890=CARTESIAN_POINT('Ctrl Pts',(272.976174678758,22.75,7.97972798949331E-16));
#891=CARTESIAN_POINT('Ctrl Pts',(272.976174678758,22.75,0.251263419575521));
#892=CARTESIAN_POINT('Ctrl Pts',(273.026416273568,22.7454106922285,0.51918652599512));
#893=CARTESIAN_POINT('Ctrl Pts',(273.230564069132,22.7288210457092,1.01190714989126));
#894=CARTESIAN_POINT('Ctrl Pts',(273.384463105297,22.7170566404912,1.23671555128492));
#895=CARTESIAN_POINT('Ctrl Pts',(273.739459487572,22.6949461557187,1.59171193355963));
#896=CARTESIAN_POINT('Ctrl Pts',(273.964267730268,22.6831618506626,1.74561068982348));
#897=CARTESIAN_POINT('Ctrl Pts',(274.456987826411,22.6665266623467,1.94975827322143));
#898=CARTESIAN_POINT('Ctrl Pts',(274.724910749433,22.6619173946072,1.99999999999999));
#899=CARTESIAN_POINT('Ctrl Pts',(274.976174678758,22.6619173946072,1.99999999999999));
#900=CARTESIAN_POINT('',(272.976174678758,27.75,2.4492935982947E-16));
#901=CARTESIAN_POINT('',(272.976174678758,0.,2.4492935982947E-16));
#902=CARTESIAN_POINT('',(274.976174678758,27.6778340915614,1.99999999999999));
#903=CARTESIAN_POINT('Ctrl Pts',(274.976174678758,27.6778340915614,1.99999999999999));
#904=CARTESIAN_POINT('Ctrl Pts',(274.724956649995,27.6778340915614,1.99999999999999));
#905=CARTESIAN_POINT('Ctrl Pts',(274.457053344295,27.6816064736923,1.94977617983265));
#906=CARTESIAN_POINT('Ctrl Pts',(273.964320503573,27.6952288097649,1.7456417923131));
#907=CARTESIAN_POINT('Ctrl Pts',(273.739483560568,27.7048817497065,1.59173600655608));
#908=CARTESIAN_POINT('Ctrl Pts',(273.384438834503,27.7229993128227,1.23669128049146));
#909=CARTESIAN_POINT('Ctrl Pts',(273.230532923713,27.7326413029688,1.01185426528963));
#910=CARTESIAN_POINT('Ctrl Pts',(273.026398438189,27.7462385898545,0.519121187709619));
#911=CARTESIAN_POINT('Ctrl Pts',(272.976174678758,27.75,0.251217799085211));
#912=CARTESIAN_POINT('Ctrl Pts',(272.976174678758,27.75,2.22044604925031E-15));
#913=CARTESIAN_POINT('Ctrl Pts',(272.976174678758,27.75,-1.38777878078145E-16));
#914=CARTESIAN_POINT('Ctrl Pts',(272.976174678758,27.75,-0.251217799085209));
#915=CARTESIAN_POINT('Ctrl Pts',(273.026398438189,27.7462385898545,-0.51912118770962));
#916=CARTESIAN_POINT('Ctrl Pts',(273.230532923713,27.7326413029688,-1.01185426528963));
#917=CARTESIAN_POINT('Ctrl Pts',(273.384438834503,27.7229993128227,-1.23669128049146));
#918=CARTESIAN_POINT('Ctrl Pts',(273.739483560568,27.7048817497065,-1.59173600655608));
#919=CARTESIAN_POINT('Ctrl Pts',(273.964320503573,27.6952288097649,-1.74564179231309));
#920=CARTESIAN_POINT('Ctrl Pts',(274.457053344295,27.6816064736923,-1.94977617983265));
#921=CARTESIAN_POINT('Ctrl Pts',(274.724956649995,27.6778340915614,-1.99999999999999));
#922=CARTESIAN_POINT('Ctrl Pts',(275.227392707522,27.6778340915614,-1.99999999999999));
#923=CARTESIAN_POINT('Ctrl Pts',(275.495296013221,27.6816064736923,-1.94977617983264));
#924=CARTESIAN_POINT('Ctrl Pts',(275.988028853943,27.6952288097649,-1.74564179231308));
#925=CARTESIAN_POINT('Ctrl Pts',(276.212865796948,27.7048817497065,-1.59173600655608));
#926=CARTESIAN_POINT('Ctrl Pts',(276.567910523013,27.7229993128227,-1.23669128049146));
#927=CARTESIAN_POINT('Ctrl Pts',(276.721816433803,27.7326413029688,-1.01185426528963));
#928=CARTESIAN_POINT('Ctrl Pts',(276.925950919328,27.7462385898545,-0.51912118770962));
#929=CARTESIAN_POINT('Ctrl Pts',(276.976174678758,27.75,-0.251217799085209));
#930=CARTESIAN_POINT('Ctrl Pts',(276.976174678758,27.75,0.251217799085209));
#931=CARTESIAN_POINT('Ctrl Pts',(276.925950919328,27.7462385898545,0.519121187709619));
#932=CARTESIAN_POINT('Ctrl Pts',(276.721816433803,27.7326413029688,1.01185426528963));
#933=CARTESIAN_POINT('Ctrl Pts',(276.567910523013,27.7229993128227,1.23669128049146));
#934=CARTESIAN_POINT('Ctrl Pts',(276.212865796948,27.7048817497065,1.59173600655608));
#935=CARTESIAN_POINT('Ctrl Pts',(275.988028853943,27.6952288097649,1.74564179231309));
#936=CARTESIAN_POINT('Ctrl Pts',(275.495296013221,27.6816064736923,1.94977617983265));
#937=CARTESIAN_POINT('Ctrl Pts',(275.227392707522,27.6778340915614,1.99999999999999));
#938=CARTESIAN_POINT('Ctrl Pts',(274.976174678758,27.6778340915614,2.));
#939=CARTESIAN_POINT('Origin',(229.999996379811,0.,-0.00850904022022169));
#940=CARTESIAN_POINT('',(229.999996379811,-2.,-27.6778340915614));
#941=CARTESIAN_POINT('',(227.999996379811,-6.4047777600251E-15,-27.75));
#942=CARTESIAN_POINT('Ctrl Pts',(229.999996379811,-2.,-27.6778340915614));
#943=CARTESIAN_POINT('Ctrl Pts',(230.251214408574,-2.,-27.6778340915614));
#944=CARTESIAN_POINT('Ctrl Pts',(230.519117714274,-1.94977617983265,-27.6816064736923));
#945=CARTESIAN_POINT('Ctrl Pts',(231.011850554996,-1.74564179231311,-27.6952288097649));
#946=CARTESIAN_POINT('Ctrl Pts',(231.236687498001,-1.59173600655609,-27.7048817497065));
#947=CARTESIAN_POINT('Ctrl Pts',(231.591732224066,-1.23669128049146,-27.7229993128227));
#948=CARTESIAN_POINT('Ctrl Pts',(231.745638134856,-1.01185426528964,-27.7326413029688));
#949=CARTESIAN_POINT('Ctrl Pts',(231.949772620381,-0.519121187709625,-27.7462385898545));
#950=CARTESIAN_POINT('Ctrl Pts',(231.999996379811,-0.251217799085215,-27.75));
#951=CARTESIAN_POINT('Ctrl Pts',(231.999996379811,0.251217799085203,-27.75));
#952=CARTESIAN_POINT('Ctrl Pts',(231.949772620381,0.519121187709613,-27.7462385898545));
#953=CARTESIAN_POINT('Ctrl Pts',(231.745638134856,1.01185426528963,-27.7326413029688));
#954=CARTESIAN_POINT('Ctrl Pts',(231.591732224066,1.23669128049145,-27.7229993128227));
#955=CARTESIAN_POINT('Ctrl Pts',(231.236687498001,1.59173600655607,-27.7048817497065));
#956=CARTESIAN_POINT('Ctrl Pts',(231.011850554996,1.74564179231307,-27.6952288097649));
#957=CARTESIAN_POINT('Ctrl Pts',(230.519117714274,1.94977617983264,-27.6816064736923));
#958=CARTESIAN_POINT('Ctrl Pts',(230.251214408574,1.99999999999999,-27.6778340915614));
#959=CARTESIAN_POINT('Ctrl Pts',(229.748778351048,1.99999999999999,-27.6778340915614));
#960=CARTESIAN_POINT('Ctrl Pts',(229.480875045348,1.94977617983264,-27.6816064736923));
#961=CARTESIAN_POINT('Ctrl Pts',(228.988142204626,1.7456417923131,-27.6952288097649));
#962=CARTESIAN_POINT('Ctrl Pts',(228.763305261621,1.59173600655607,-27.7048817497065));
#963=CARTESIAN_POINT('Ctrl Pts',(228.408260535556,1.23669128049145,-27.7229993128227));
#964=CARTESIAN_POINT('Ctrl Pts',(228.254354624766,1.01185426528963,-27.7326413029688));
#965=CARTESIAN_POINT('Ctrl Pts',(228.050220139242,0.519121187709613,-27.7462385898545));
#966=CARTESIAN_POINT('Ctrl Pts',(227.999996379811,0.251217799085205,-27.75));
#967=CARTESIAN_POINT('Ctrl Pts',(227.999996379811,-3.60822483003176E-15,
-27.75));
#968=CARTESIAN_POINT('Ctrl Pts',(227.999996379811,-4.02455846426619E-15,
-27.75));
#969=CARTESIAN_POINT('Ctrl Pts',(227.999996379811,-0.251217799085213,-27.75));
#970=CARTESIAN_POINT('Ctrl Pts',(228.050220139242,-0.519121187709672,-27.7462385898545));
#971=CARTESIAN_POINT('Ctrl Pts',(228.254354624766,-1.01185426528968,-27.7326413029688));
#972=CARTESIAN_POINT('Ctrl Pts',(228.408260535556,-1.23669128049146,-27.7229993128227));
#973=CARTESIAN_POINT('Ctrl Pts',(228.763305261621,-1.59173600655609,-27.7048817497065));
#974=CARTESIAN_POINT('Ctrl Pts',(228.988142204626,-1.74564179231311,-27.6952288097649));
#975=CARTESIAN_POINT('Ctrl Pts',(229.480875045348,-1.94977617983265,-27.6816064736923));
#976=CARTESIAN_POINT('Ctrl Pts',(229.748778351048,-2.,-27.6778340915614));
#977=CARTESIAN_POINT('Ctrl Pts',(229.999996379811,-2.,-27.6778340915614));
#978=CARTESIAN_POINT('',(227.999996379811,-4.90241788646982E-15,-22.75));
#979=CARTESIAN_POINT('',(227.999996379811,-2.4492935982947E-16,-0.00850904022022169));
#980=CARTESIAN_POINT('',(229.999996379811,-2.,-22.6619173946072));
#981=CARTESIAN_POINT('Ctrl Pts',(229.999996379811,-2.,-22.6619173946072));
#982=CARTESIAN_POINT('Ctrl Pts',(229.748732450486,-2.,-22.6619173946072));
#983=CARTESIAN_POINT('Ctrl Pts',(229.480809527464,-1.94975827322143,-22.6665266623467));
#984=CARTESIAN_POINT('Ctrl Pts',(228.988089431321,-1.74561068982348,-22.6831618506626));
#985=CARTESIAN_POINT('Ctrl Pts',(228.763281188625,-1.59171193355963,-22.6949461557187));
#986=CARTESIAN_POINT('Ctrl Pts',(228.40828480635,-1.23671555128492,-22.7170566404912));
#987=CARTESIAN_POINT('Ctrl Pts',(228.254385770185,-1.01190714989126,-22.7288210457092));
#988=CARTESIAN_POINT('Ctrl Pts',(228.050237974621,-0.519186525995125,-22.7454106922285));
#989=CARTESIAN_POINT('Ctrl Pts',(227.999996379811,-0.251263419575527,-22.75));
#990=CARTESIAN_POINT('Ctrl Pts',(227.999996379811,-6.93889390390723E-15,
-22.75));
#991=CARTESIAN_POINT('Ctrl Pts',(227.999996379811,-4.5102810375397E-15,
-22.75));
#992=CARTESIAN_POINT('Ctrl Pts',(227.999996379811,0.251263419575516,-22.75));
#993=CARTESIAN_POINT('Ctrl Pts',(228.050237974621,0.519186525995115,-22.7454106922285));
#994=CARTESIAN_POINT('Ctrl Pts',(228.254385770185,1.01190714989125,-22.7288210457092));
#995=CARTESIAN_POINT('Ctrl Pts',(228.40828480635,1.23671555128491,-22.7170566404912));
#996=CARTESIAN_POINT('Ctrl Pts',(228.763281188625,1.59171193355962,-22.6949461557187));
#997=CARTESIAN_POINT('Ctrl Pts',(228.988089431321,1.74561068982351,-22.6831618506626));
#998=CARTESIAN_POINT('Ctrl Pts',(229.480809527464,1.94975827322144,-22.6665266623467));
#999=CARTESIAN_POINT('Ctrl Pts',(229.748732450486,1.99999999999999,-22.6619173946072));
#1000=CARTESIAN_POINT('Ctrl Pts',(230.251260309136,1.99999999999999,-22.6619173946072));
#1001=CARTESIAN_POINT('Ctrl Pts',(230.519183232159,1.94975827322142,-22.6665266623467));
#1002=CARTESIAN_POINT('Ctrl Pts',(231.011903328302,1.74561068982347,-22.6831618506626));
#1003=CARTESIAN_POINT('Ctrl Pts',(231.236711570998,1.59171193355962,-22.6949461557187));
#1004=CARTESIAN_POINT('Ctrl Pts',(231.591707953272,1.23671555128491,-22.7170566404912));
#1005=CARTESIAN_POINT('Ctrl Pts',(231.745606989437,1.01190714989123,-22.7288210457092));
#1006=CARTESIAN_POINT('Ctrl Pts',(231.949754785001,0.519186525995088,-22.7454106922285));
#1007=CARTESIAN_POINT('Ctrl Pts',(231.999996379811,0.251263419575516,-22.75));
#1008=CARTESIAN_POINT('Ctrl Pts',(231.999996379811,-0.251263419575525,-22.75));
#1009=CARTESIAN_POINT('Ctrl Pts',(231.949754785001,-0.519186525995125,-22.7454106922285));
#1010=CARTESIAN_POINT('Ctrl Pts',(231.745606989437,-1.01190714989126,-22.7288210457092));
#1011=CARTESIAN_POINT('Ctrl Pts',(231.591707953272,-1.23671555128492,-22.7170566404912));
#1012=CARTESIAN_POINT('Ctrl Pts',(231.236711570998,-1.59171193355963,-22.6949461557187));
#1013=CARTESIAN_POINT('Ctrl Pts',(231.011903328302,-1.74561068982348,-22.6831618506626));
#1014=CARTESIAN_POINT('Ctrl Pts',(230.519183232159,-1.94975827322143,-22.6665266623467));
#1015=CARTESIAN_POINT('Ctrl Pts',(230.251260309136,-2.,-22.6619173946072));
#1016=CARTESIAN_POINT('Ctrl Pts',(229.999996379811,-2.,-22.6619173946072));
#1017=CARTESIAN_POINT('Origin',(229.999996379811,0.,-0.00850904022022169));
#1018=CARTESIAN_POINT('',(229.999996379811,-1.99999999999999,22.6619173946072));
#1019=CARTESIAN_POINT('',(231.999996379811,7.58021376181127E-16,22.75));
#1020=CARTESIAN_POINT('Ctrl Pts',(229.999996379811,-1.99999999999999,22.6619173946072));
#1021=CARTESIAN_POINT('Ctrl Pts',(230.251260309136,-1.99999999999999,22.6619173946072));
#1022=CARTESIAN_POINT('Ctrl Pts',(230.519183232159,-1.94975827322142,22.6665266623467));
#1023=CARTESIAN_POINT('Ctrl Pts',(231.011903328302,-1.74561068982347,22.6831618506626));
#1024=CARTESIAN_POINT('Ctrl Pts',(231.236711570998,-1.59171193355962,22.6949461557187));
#1025=CARTESIAN_POINT('Ctrl Pts',(231.591707953272,-1.23671555128491,22.7170566404912));
#1026=CARTESIAN_POINT('Ctrl Pts',(231.745606989437,-1.01190714989125,22.7288210457092));
#1027=CARTESIAN_POINT('Ctrl Pts',(231.949754785001,-0.519186525995115,22.7454106922285));
#1028=CARTESIAN_POINT('Ctrl Pts',(231.999996379811,-0.251263419575515,22.75));
#1029=CARTESIAN_POINT('Ctrl Pts',(231.999996379811,4.92661467177413E-15,
22.75));
#1030=CARTESIAN_POINT('',(227.999996379811,4.06957193128223E-15,22.75));
#1031=CARTESIAN_POINT('Ctrl Pts',(227.999996379811,3.33066907387547E-15,
22.75));
#1032=CARTESIAN_POINT('Ctrl Pts',(227.999996379811,-0.251263419575517,22.75));
#1033=CARTESIAN_POINT('Ctrl Pts',(228.050237974621,-0.51918652599513,22.7454106922285));
#1034=CARTESIAN_POINT('Ctrl Pts',(228.254385770185,-1.01190714989127,22.7288210457092));
#1035=CARTESIAN_POINT('Ctrl Pts',(228.40828480635,-1.23671555128491,22.7170566404912));
#1036=CARTESIAN_POINT('Ctrl Pts',(228.763281188625,-1.59171193355962,22.6949461557187));
#1037=CARTESIAN_POINT('Ctrl Pts',(228.988089431321,-1.74561068982347,22.6831618506626));
#1038=CARTESIAN_POINT('Ctrl Pts',(229.480809527464,-1.94975827322142,22.6665266623467));
#1039=CARTESIAN_POINT('Ctrl Pts',(229.748732450486,-1.99999999999999,22.6619173946072));
#1040=CARTESIAN_POINT('Ctrl Pts',(229.999996379811,-1.99999999999999,22.6619173946072));
#1041=CARTESIAN_POINT('',(227.999996379811,5.91869781331414E-15,27.75));
#1042=CARTESIAN_POINT('',(227.999996379811,-2.4492935982947E-16,-0.00850904022022169));
#1043=CARTESIAN_POINT('',(229.999996379811,-1.99999999999999,27.6778340915614));
#1044=CARTESIAN_POINT('Ctrl Pts',(229.999996379811,-1.99999999999999,27.6778340915614));
#1045=CARTESIAN_POINT('Ctrl Pts',(229.748778351048,-1.99999999999998,27.6778340915614));
#1046=CARTESIAN_POINT('Ctrl Pts',(229.480875045348,-1.94977617983264,27.6816064736923));
#1047=CARTESIAN_POINT('Ctrl Pts',(228.988142204626,-1.74564179231309,27.6952288097649));
#1048=CARTESIAN_POINT('Ctrl Pts',(228.763305261621,-1.59173600655607,27.7048817497065));
#1049=CARTESIAN_POINT('Ctrl Pts',(228.408260535556,-1.23669128049145,27.7229993128227));
#1050=CARTESIAN_POINT('Ctrl Pts',(228.254354624766,-1.01185426528962,27.7326413029688));
#1051=CARTESIAN_POINT('Ctrl Pts',(228.050220139242,-0.519121187709613,27.7462385898545));
#1052=CARTESIAN_POINT('Ctrl Pts',(227.999996379811,-0.251217799085204,27.75));
#1053=CARTESIAN_POINT('Ctrl Pts',(227.999996379811,4.92661467177413E-15,
27.75));
#1054=CARTESIAN_POINT('',(231.999996379811,1.97841633525388E-15,27.75));
#1055=CARTESIAN_POINT('Ctrl Pts',(231.999996379811,8.18789480661053E-15,
27.75));
#1056=CARTESIAN_POINT('Ctrl Pts',(231.999996379811,-0.251217799085201,27.75));
#1057=CARTESIAN_POINT('Ctrl Pts',(231.949772620381,-0.519121187709615,27.7462385898545));
#1058=CARTESIAN_POINT('Ctrl Pts',(231.745638134856,-1.01185426528963,27.7326413029688));
#1059=CARTESIAN_POINT('Ctrl Pts',(231.591732224066,-1.23669128049145,27.7229993128227));
#1060=CARTESIAN_POINT('Ctrl Pts',(231.236687498001,-1.59173600655607,27.7048817497065));
#1061=CARTESIAN_POINT('Ctrl Pts',(231.011850554996,-1.74564179231309,27.6952288097649));
#1062=CARTESIAN_POINT('Ctrl Pts',(230.519117714274,-1.94977617983264,27.6816064736923));
#1063=CARTESIAN_POINT('Ctrl Pts',(230.251214408574,-1.99999999999998,27.6778340915614));
#1064=CARTESIAN_POINT('Ctrl Pts',(229.999996379811,-1.99999999999998,27.6778340915614));
#1065=CARTESIAN_POINT('Ctrl Pts',(227.999996379811,8.36136715420821E-15,
27.75));
#1066=CARTESIAN_POINT('Ctrl Pts',(227.999996379811,0.251217799085217,27.75));
#1067=CARTESIAN_POINT('Ctrl Pts',(228.050220139242,0.519121187709626,27.7462385898545));
#1068=CARTESIAN_POINT('Ctrl Pts',(228.254354624766,1.01185426528964,27.7326413029688));
#1069=CARTESIAN_POINT('Ctrl Pts',(228.408260535556,1.23669128049146,27.7229993128227));
#1070=CARTESIAN_POINT('Ctrl Pts',(228.763305261621,1.59173600655609,27.7048817497065));
#1071=CARTESIAN_POINT('Ctrl Pts',(228.988142204626,1.7456417923131,27.6952288097649));
#1072=CARTESIAN_POINT('Ctrl Pts',(229.480875045348,1.94977617983266,27.6816064736923));
#1073=CARTESIAN_POINT('Ctrl Pts',(229.748778351048,2.,27.6778340915614));
#1074=CARTESIAN_POINT('Ctrl Pts',(230.251214408574,2.,27.6778340915614));
#1075=CARTESIAN_POINT('Ctrl Pts',(230.519117714274,1.94977617983264,27.6816064736923));
#1076=CARTESIAN_POINT('Ctrl Pts',(231.011850554996,1.74564179231309,27.6952288097649));
#1077=CARTESIAN_POINT('Ctrl Pts',(231.236687498001,1.59173600655609,27.7048817497065));
#1078=CARTESIAN_POINT('Ctrl Pts',(231.591732224066,1.23669128049146,27.7229993128227));
#1079=CARTESIAN_POINT('Ctrl Pts',(231.745638134856,1.01185426528964,27.7326413029688));
#1080=CARTESIAN_POINT('Ctrl Pts',(231.949772620381,0.519121187709625,27.7462385898545));
#1081=CARTESIAN_POINT('Ctrl Pts',(231.999996379811,0.251217799085216,27.75));
#1082=CARTESIAN_POINT('Ctrl Pts',(231.999996379811,6.73072708679001E-15,
27.75));
#1083=CARTESIAN_POINT('Ctrl Pts',(231.999996379811,4.23272528138341E-15,
22.75));
#1084=CARTESIAN_POINT('Ctrl Pts',(231.999996379811,0.251263419575525,22.75));
#1085=CARTESIAN_POINT('Ctrl Pts',(231.949754785001,0.519186525995099,22.7454106922285));
#1086=CARTESIAN_POINT('Ctrl Pts',(231.745606989437,1.01190714989124,22.7288210457092));
#1087=CARTESIAN_POINT('Ctrl Pts',(231.591707953272,1.23671555128492,22.7170566404912));
#1088=CARTESIAN_POINT('Ctrl Pts',(231.236711570998,1.59171193355963,22.6949461557187));
#1089=CARTESIAN_POINT('Ctrl Pts',(231.011903328302,1.74561068982348,22.6831618506626));
#1090=CARTESIAN_POINT('Ctrl Pts',(230.519183232159,1.94975827322143,22.6665266623467));
#1091=CARTESIAN_POINT('Ctrl Pts',(230.251260309136,2.,22.6619173946072));
#1092=CARTESIAN_POINT('Ctrl Pts',(229.748732450486,2.,22.6619173946072));
#1093=CARTESIAN_POINT('Ctrl Pts',(229.480809527464,1.94975827322145,22.6665266623467));
#1094=CARTESIAN_POINT('Ctrl Pts',(228.988089431321,1.74561068982352,22.6831618506626));
#1095=CARTESIAN_POINT('Ctrl Pts',(228.763281188625,1.59171193355963,22.6949461557187));
#1096=CARTESIAN_POINT('Ctrl Pts',(228.40828480635,1.23671555128492,22.7170566404912));
#1097=CARTESIAN_POINT('Ctrl Pts',(228.254385770185,1.01190714989126,22.7288210457092));
#1098=CARTESIAN_POINT('Ctrl Pts',(228.050237974621,0.519186525995115,22.7454106922285));
#1099=CARTESIAN_POINT('Ctrl Pts',(227.999996379811,0.251263419575527,22.75));
#1100=CARTESIAN_POINT('Ctrl Pts',(227.999996379811,6.31439345255558E-15,
22.75));
#1101=CARTESIAN_POINT('Origin',(229.999996379811,0.,-0.00850904022022169));
#1102=CARTESIAN_POINT('',(229.999996379811,-27.6784476399439,1.99149095977977));
#1103=CARTESIAN_POINT('',(227.999996379811,-27.7499986954276,-0.00850904022022111));
#1104=CARTESIAN_POINT('Ctrl Pts',(229.999996379811,-27.6784476399439,1.99149095977977));
#1105=CARTESIAN_POINT('Ctrl Pts',(230.251214188487,-27.6784476399439,1.99149095977977));
#1106=CARTESIAN_POINT('Ctrl Pts',(230.519117705016,-27.6822044871462,1.94126723851684));
#1107=CARTESIAN_POINT('Ctrl Pts',(231.011851781132,-27.6957638571833,1.73713214904777));
#1108=CARTESIAN_POINT('Ctrl Pts',(231.236689707361,-27.7053693858357,1.58322552475212));
#1109=CARTESIAN_POINT('Ctrl Pts',(231.591734769783,-27.7233777135707,1.22817892677189));
#1110=CARTESIAN_POINT('Ctrl Pts',(231.745640199681,-27.7329505698096,1.00334153195951));
#1111=CARTESIAN_POINT('Ctrl Pts',(231.949773392081,-27.7463965226476,0.510608993869951));
#1112=CARTESIAN_POINT('Ctrl Pts',(231.999996379811,-27.7500757262057,0.242706600516017));
#1113=CARTESIAN_POINT('Ctrl Pts',(231.999996379811,-27.7499216633255,-0.25972899899556));
#1114=CARTESIAN_POINT('Ctrl Pts',(231.949771848286,-27.7460780448802,-0.527633385933729));
#1115=CARTESIAN_POINT('Ctrl Pts',(231.745636062839,-27.7323294193434,-1.02036701251139));
#1116=CARTESIAN_POINT('Ctrl Pts',(231.591729664617,-27.7226182923884,-1.2452036545085));
#1117=CARTESIAN_POINT('Ctrl Pts',(231.236685268411,-27.7043914899079,-1.60024650201032));
#1118=CARTESIAN_POINT('Ctrl Pts',(231.011849315133,-27.6946911368587,-1.75415144266271));
#1119=CARTESIAN_POINT('Ctrl Pts',(230.519117719365,-27.6810058317325,-1.95828512147731));
#1120=CARTESIAN_POINT('Ctrl Pts',(230.251214627486,-27.6772179135721,-2.00850904022021));
#1121=CARTESIAN_POINT('Ctrl Pts',(229.748778132137,-27.6772179135721,-2.00850904022021));
#1122=CARTESIAN_POINT('Ctrl Pts',(229.480875040257,-27.6810058317325,-1.95828512147732));
#1123=CARTESIAN_POINT('Ctrl Pts',(228.988143444489,-27.6946911368587,-1.75415144266273));
#1124=CARTESIAN_POINT('Ctrl Pts',(228.763307491211,-27.7043914899079,-1.60024650201032));
#1125=CARTESIAN_POINT('Ctrl Pts',(228.408263095005,-27.7226182923884,-1.2452036545085));
#1126=CARTESIAN_POINT('Ctrl Pts',(228.254356696783,-27.7323294193434,-1.0203670125114));
#1127=CARTESIAN_POINT('Ctrl Pts',(228.050220911336,-27.7460780448802,-0.527633385933742));
#1128=CARTESIAN_POINT('Ctrl Pts',(227.999996379811,-27.7499216633255,-0.259728998995561));
#1129=CARTESIAN_POINT('Ctrl Pts',(227.999996379811,-27.7499986954276,-0.00850904022022245));
#1130=CARTESIAN_POINT('Ctrl Pts',(227.999996379811,-27.7499986954276,-0.00850904022022078));
#1131=CARTESIAN_POINT('Ctrl Pts',(227.999996379811,-27.7500757262057,0.242706600516018));
#1132=CARTESIAN_POINT('Ctrl Pts',(228.050219367541,-27.7463965226476,0.510608993869951));
#1133=CARTESIAN_POINT('Ctrl Pts',(228.254352559941,-27.7329505698096,1.00334153195951));
#1134=CARTESIAN_POINT('Ctrl Pts',(228.408257989839,-27.7233777135707,1.22817892677189));
#1135=CARTESIAN_POINT('Ctrl Pts',(228.763303052262,-27.7053693858357,1.58322552475212));
#1136=CARTESIAN_POINT('Ctrl Pts',(228.98814097849,-27.6957638571833,1.73713214904777));
#1137=CARTESIAN_POINT('Ctrl Pts',(229.480875054607,-27.6822044871462,1.94126723851684));
#1138=CARTESIAN_POINT('Ctrl Pts',(229.748778571135,-27.6784476399439,1.99149095977977));
#1139=CARTESIAN_POINT('Ctrl Pts',(229.999996379811,-27.6784476399439,1.99149095977977));
#1140=CARTESIAN_POINT('',(227.999996379811,-22.7499984087084,-0.00850904022022077));
#1141=CARTESIAN_POINT('',(227.999996379811,0.,-0.00850904022022145));
#1142=CARTESIAN_POINT('',(229.999996379811,-22.6626667397532,1.99149095977977));
#1143=CARTESIAN_POINT('Ctrl Pts',(229.999996379811,-22.6626667397532,1.99149095977977));
#1144=CARTESIAN_POINT('Ctrl Pts',(229.748732781962,-22.6626667397532,1.99149095977977));
#1145=CARTESIAN_POINT('Ctrl Pts',(229.480809545199,-22.6672569704703,1.9412493814229));
#1146=CARTESIAN_POINT('Ctrl Pts',(228.98808760788,-22.6838151258803,1.73710075302734));
#1147=CARTESIAN_POINT('Ctrl Pts',(228.763277899939,-22.6955414711507,1.5832007473831));
#1148=CARTESIAN_POINT('Ctrl Pts',(228.408281014654,-22.7175185113318,1.22820157662627));
#1149=CARTESIAN_POINT('Ctrl Pts',(228.254382694541,-22.7291984847302,1.00339260903107));
#1150=CARTESIAN_POINT('Ctrl Pts',(228.050236825011,-22.7456033946836,0.510672788520027));
#1151=CARTESIAN_POINT('Ctrl Pts',(227.999996379811,-22.7500923859981,0.2427511647816));
#1152=CARTESIAN_POINT('Ctrl Pts',(227.999996379811,-22.7499984087084,-0.00850904022021912));
#1153=CARTESIAN_POINT('Ctrl Pts',(227.999996379811,-22.7499984087084,-0.00850904022022009));
#1154=CARTESIAN_POINT('Ctrl Pts',(227.999996379811,-22.7499044290133,-0.259775676440081));
#1155=CARTESIAN_POINT('Ctrl Pts',(228.05023912485,-22.7452148016722,-0.527700270109695));
#1156=CARTESIAN_POINT('Ctrl Pts',(228.254388856611,-22.7284404102184,-1.02042171154818));
#1157=CARTESIAN_POINT('Ctrl Pts',(228.408288618567,-22.7165915679052,-1.24522955624169));
#1158=CARTESIAN_POINT('Ctrl Pts',(228.76328450746,-22.6943476312901,-1.60022314007791));
#1159=CARTESIAN_POINT('Ctrl Pts',(228.988091275195,-22.6825053631328,-1.75412063716109));
#1160=CARTESIAN_POINT('Ctrl Pts',(229.480809515885,-22.6657931363996,-1.95826716549458));
#1161=CARTESIAN_POINT('Ctrl Pts',(229.748732120715,-22.6611648296232,-2.00850904022021));
#1162=CARTESIAN_POINT('Ctrl Pts',(230.251260638908,-22.6611648296232,-2.00850904022021));
#1163=CARTESIAN_POINT('Ctrl Pts',(230.519183243737,-22.6657931363996,-1.95826716549456));
#1164=CARTESIAN_POINT('Ctrl Pts',(231.011901484428,-22.6825053631328,-1.75412063716106));
#1165=CARTESIAN_POINT('Ctrl Pts',(231.236708252162,-22.6943476312901,-1.60022314007791));
#1166=CARTESIAN_POINT('Ctrl Pts',(231.591704141055,-22.7165915679052,-1.24522955624169));
#1167=CARTESIAN_POINT('Ctrl Pts',(231.745603903011,-22.7284404102184,-1.02042171154816));
#1168=CARTESIAN_POINT('Ctrl Pts',(231.949753634772,-22.7452148016722,-0.527700270109669));
#1169=CARTESIAN_POINT('Ctrl Pts',(231.999996379811,-22.7499044290133,-0.259775676440083));
#1170=CARTESIAN_POINT('Ctrl Pts',(231.999996379811,-22.750092385998,0.242751164781597));
#1171=CARTESIAN_POINT('Ctrl Pts',(231.949755934611,-22.7456033946836,0.510672788520027));
#1172=CARTESIAN_POINT('Ctrl Pts',(231.745610065081,-22.7291984847302,1.00339260903107));
#1173=CARTESIAN_POINT('Ctrl Pts',(231.591711744968,-22.7175185113318,1.22820157662627));
#1174=CARTESIAN_POINT('Ctrl Pts',(231.236714859683,-22.6955414711507,1.5832007473831));
#1175=CARTESIAN_POINT('Ctrl Pts',(231.011905151742,-22.6838151258803,1.73710075302734));
#1176=CARTESIAN_POINT('Ctrl Pts',(230.519183214423,-22.6672569704703,1.9412493814229));
#1177=CARTESIAN_POINT('Ctrl Pts',(230.25125997766,-22.6626667397532,1.99149095977977));
#1178=CARTESIAN_POINT('Ctrl Pts',(229.999996379811,-22.6626667397532,1.99149095977977));
#1179=CARTESIAN_POINT('Origin',(229.999996379811,0.,-0.00850904022022169));
#1180=CARTESIAN_POINT('',(229.999996379811,22.6626667397532,1.99149095977977));
#1181=CARTESIAN_POINT('',(227.999996379811,22.7499984087084,-0.00850904022022139));
#1182=CARTESIAN_POINT('Ctrl Pts',(229.999996379811,22.6626667397532,1.99149095977977));
#1183=CARTESIAN_POINT('Ctrl Pts',(230.25125997766,22.6626667397532,1.99149095977977));
#1184=CARTESIAN_POINT('Ctrl Pts',(230.519183214423,22.6672569704703,1.9412493814229));
#1185=CARTESIAN_POINT('Ctrl Pts',(231.011905151742,22.6838151258803,1.73710075302734));
#1186=CARTESIAN_POINT('Ctrl Pts',(231.236714859683,22.6955414711507,1.5832007473831));
#1187=CARTESIAN_POINT('Ctrl Pts',(231.591711744968,22.7175185113318,1.22820157662627));
#1188=CARTESIAN_POINT('Ctrl Pts',(231.745610065081,22.7291984847302,1.00339260903107));
#1189=CARTESIAN_POINT('Ctrl Pts',(231.949755934611,22.7456033946836,0.510672788520027));
#1190=CARTESIAN_POINT('Ctrl Pts',(231.999996379811,22.750092385998,0.242751164781597));
#1191=CARTESIAN_POINT('Ctrl Pts',(231.999996379811,22.7499044290133,-0.259775676440083));
#1192=CARTESIAN_POINT('Ctrl Pts',(231.949753634772,22.7452148016722,-0.527700270109695));
#1193=CARTESIAN_POINT('Ctrl Pts',(231.745603903011,22.7284404102184,-1.02042171154818));
#1194=CARTESIAN_POINT('Ctrl Pts',(231.591704141055,22.7165915679052,-1.24522955624169));
#1195=CARTESIAN_POINT('Ctrl Pts',(231.236708252162,22.6943476312901,-1.60022314007791));
#1196=CARTESIAN_POINT('Ctrl Pts',(231.011901484428,22.6825053631328,-1.75412063716107));
#1197=CARTESIAN_POINT('Ctrl Pts',(230.519183243737,22.6657931363996,-1.95826716549456));
#1198=CARTESIAN_POINT('Ctrl Pts',(230.251260638908,22.6611648296232,-2.00850904022021));
#1199=CARTESIAN_POINT('Ctrl Pts',(229.748732120715,22.6611648296232,-2.00850904022021));
#1200=CARTESIAN_POINT('Ctrl Pts',(229.480809515885,22.6657931363996,-1.95826716549458));
#1201=CARTESIAN_POINT('Ctrl Pts',(228.988091275195,22.6825053631328,-1.75412063716109));
#1202=CARTESIAN_POINT('Ctrl Pts',(228.76328450746,22.6943476312901,-1.60022314007791));
#1203=CARTESIAN_POINT('Ctrl Pts',(228.408288618567,22.7165915679052,-1.24522955624169));
#1204=CARTESIAN_POINT('Ctrl Pts',(228.254388856611,22.7284404102184,-1.0204217115482));
#1205=CARTESIAN_POINT('Ctrl Pts',(228.05023912485,22.7452148016722,-0.527700270109695));
#1206=CARTESIAN_POINT('Ctrl Pts',(227.999996379811,22.7499044290133,-0.259775676440085));
#1207=CARTESIAN_POINT('Ctrl Pts',(227.999996379811,22.7499984087084,-0.00850904022022328));
#1208=CARTESIAN_POINT('Ctrl Pts',(227.999996379811,22.7499984087084,-0.00850904022022134));
#1209=CARTESIAN_POINT('Ctrl Pts',(227.999996379811,22.7500923859981,0.242751164781598));
#1210=CARTESIAN_POINT('Ctrl Pts',(228.050236825011,22.7456033946836,0.510672788520067));
#1211=CARTESIAN_POINT('Ctrl Pts',(228.254382694541,22.7291984847302,1.00339260903111));
#1212=CARTESIAN_POINT('Ctrl Pts',(228.408281014654,22.7175185113318,1.22820157662627));
#1213=CARTESIAN_POINT('Ctrl Pts',(228.763277899939,22.6955414711507,1.5832007473831));
#1214=CARTESIAN_POINT('Ctrl Pts',(228.98808760788,22.6838151258803,1.73710075302734));
#1215=CARTESIAN_POINT('Ctrl Pts',(229.480809545199,22.6672569704703,1.9412493814229));
#1216=CARTESIAN_POINT('Ctrl Pts',(229.748732781962,22.6626667397532,1.99149095977977));
#1217=CARTESIAN_POINT('Ctrl Pts',(229.999996379811,22.6626667397532,1.99149095977977));
#1218=CARTESIAN_POINT('',(227.999996379811,27.7499986954276,-0.00850904022022229));
#1219=CARTESIAN_POINT('',(227.999996379811,0.,-0.00850904022022145));
#1220=CARTESIAN_POINT('',(229.999996379811,27.6784476399439,1.99149095977977));
#1221=CARTESIAN_POINT('Ctrl Pts',(229.999996379811,27.6784476399439,1.99149095977977));
#1222=CARTESIAN_POINT('Ctrl Pts',(229.748778571135,27.6784476399439,1.99149095977977));
#1223=CARTESIAN_POINT('Ctrl Pts',(229.480875054607,27.6822044871462,1.94126723851684));
#1224=CARTESIAN_POINT('Ctrl Pts',(228.98814097849,27.6957638571833,1.73713214904777));
#1225=CARTESIAN_POINT('Ctrl Pts',(228.763303052262,27.7053693858357,1.58322552475212));
#1226=CARTESIAN_POINT('Ctrl Pts',(228.408257989839,27.7233777135707,1.22817892677189));
#1227=CARTESIAN_POINT('Ctrl Pts',(228.254352559941,27.7329505698096,1.00334153195951));
#1228=CARTESIAN_POINT('Ctrl Pts',(228.050219367541,27.7463965226476,0.510608993869951));
#1229=CARTESIAN_POINT('Ctrl Pts',(227.999996379811,27.7500757262057,0.24270660051602));
#1230=CARTESIAN_POINT('Ctrl Pts',(227.999996379811,27.7499986954276,-0.00850904022021863));
#1231=CARTESIAN_POINT('Ctrl Pts',(227.999996379811,27.7499986954276,-0.00850904022022279));
#1232=CARTESIAN_POINT('Ctrl Pts',(227.999996379811,27.7499216633255,-0.259728998995561));
#1233=CARTESIAN_POINT('Ctrl Pts',(228.050220911336,27.7460780448802,-0.527633385933742));
#1234=CARTESIAN_POINT('Ctrl Pts',(228.254356696783,27.7323294193434,-1.0203670125114));
#1235=CARTESIAN_POINT('Ctrl Pts',(228.408263095005,27.7226182923884,-1.2452036545085));
#1236=CARTESIAN_POINT('Ctrl Pts',(228.763307491211,27.7043914899079,-1.60024650201032));
#1237=CARTESIAN_POINT('Ctrl Pts',(228.988143444489,27.6946911368587,-1.75415144266273));
#1238=CARTESIAN_POINT('Ctrl Pts',(229.480875040257,27.6810058317325,-1.95828512147732));
#1239=CARTESIAN_POINT('Ctrl Pts',(229.748778132137,27.6772179135721,-2.00850904022021));
#1240=CARTESIAN_POINT('Ctrl Pts',(230.251214627486,27.6772179135721,-2.00850904022021));
#1241=CARTESIAN_POINT('Ctrl Pts',(230.519117719365,27.6810058317325,-1.95828512147732));
#1242=CARTESIAN_POINT('Ctrl Pts',(231.011849315133,27.6946911368587,-1.75415144266273));
#1243=CARTESIAN_POINT('Ctrl Pts',(231.236685268411,27.7043914899079,-1.60024650201032));
#1244=CARTESIAN_POINT('Ctrl Pts',(231.591729664617,27.7226182923884,-1.2452036545085));
#1245=CARTESIAN_POINT('Ctrl Pts',(231.745636062839,27.7323294193434,-1.0203670125114));
#1246=CARTESIAN_POINT('Ctrl Pts',(231.949771848286,27.7460780448802,-0.527633385933742));
#1247=CARTESIAN_POINT('Ctrl Pts',(231.999996379811,27.7499216633255,-0.25972899899556));
#1248=CARTESIAN_POINT('Ctrl Pts',(231.999996379811,27.7500757262057,0.242706600516017));
#1249=CARTESIAN_POINT('Ctrl Pts',(231.949773392081,27.7463965226476,0.510608993869951));
#1250=CARTESIAN_POINT('Ctrl Pts',(231.745640199681,27.7329505698096,1.00334153195951));
#1251=CARTESIAN_POINT('Ctrl Pts',(231.591734769783,27.7233777135707,1.22817892677189));
#1252=CARTESIAN_POINT('Ctrl Pts',(231.236689707361,27.7053693858357,1.58322552475212));
#1253=CARTESIAN_POINT('Ctrl Pts',(231.011851781132,27.6957638571833,1.73713214904777));
#1254=CARTESIAN_POINT('Ctrl Pts',(230.519117705016,27.6822044871462,1.94126723851684));
#1255=CARTESIAN_POINT('Ctrl Pts',(230.251214188487,27.6784476399439,1.99149095977977));
#1256=CARTESIAN_POINT('Ctrl Pts',(229.999996379811,27.6784476399439,1.99149095977977));
#1257=CARTESIAN_POINT('Origin',(229.976174678758,0.,0.));
#1258=CARTESIAN_POINT('',(224.976174678758,-2.78607146806023E-15,22.75));
#1259=CARTESIAN_POINT('Origin',(224.976174678758,0.,0.));
#1260=CARTESIAN_POINT('',(229.976174678758,-2.78607146806023E-15,22.75));
#1261=CARTESIAN_POINT('',(244.976174678758,-2.78607146806023E-15,22.75));
#1262=CARTESIAN_POINT('',(229.976174678758,-2.78607146806023E-15,22.75));
#1263=CARTESIAN_POINT('Origin',(244.976174678758,0.,0.));
#1264=CARTESIAN_POINT('Origin',(244.976174678758,0.,-30.));
#1265=CARTESIAN_POINT('',(244.976174678758,3.06161699786838E-15,25.));
#1266=CARTESIAN_POINT('Origin',(244.976174678758,0.,0.));
#1267=CARTESIAN_POINT('Origin',(252.476174678758,0.,0.));
#1268=CARTESIAN_POINT('',(259.976174678758,3.06161699786838E-15,25.));
#1269=CARTESIAN_POINT('',(252.476174678758,-3.06161699786838E-15,25.));
#1270=CARTESIAN_POINT('Origin',(259.976174678758,0.,0.));
#1271=CARTESIAN_POINT('Origin',(259.976174678758,0.,-27.75));
#1272=CARTESIAN_POINT('',(259.976174678758,-2.78607146806023E-15,22.75));
#1273=CARTESIAN_POINT('Origin',(259.976174678758,0.,0.));
#1274=CARTESIAN_POINT('Origin',(274.976174678758,0.,0.));
#1275=CARTESIAN_POINT('',(274.976174678758,-2.78607146806023E-15,22.75));
#1276=CARTESIAN_POINT('',(284.976174678758,2.78607146806023E-15,22.75));
#1277=CARTESIAN_POINT('',(274.976174678758,-2.78607146806023E-15,22.75));
#1278=CARTESIAN_POINT('Origin',(284.976174678758,0.,0.));
#1279=CARTESIAN_POINT('Origin',(224.976174678758,0.,-27.75));
#1280=CARTESIAN_POINT('Origin',(229.976174678758,0.,0.));
#1281=CARTESIAN_POINT('',(239.976174678758,-3.39839486763391E-15,27.75));
#1282=CARTESIAN_POINT('Origin',(239.976174678758,0.,0.));
#1283=CARTESIAN_POINT('',(229.976174678758,-3.39839486763391E-15,27.75));
#1284=CARTESIAN_POINT('',(219.976174678758,-3.39839486763391E-15,27.75));
#1285=CARTESIAN_POINT('',(229.976174678758,-3.39839486763391E-15,27.75));
#1286=CARTESIAN_POINT('Origin',(219.976174678758,0.,0.));
#1287=CARTESIAN_POINT('Origin',(239.976174678758,0.,-30.));
#1288=CARTESIAN_POINT('',(239.976174678758,-3.67394039744206E-15,30.));
#1289=CARTESIAN_POINT('Origin',(239.976174678758,0.,0.));
#1290=CARTESIAN_POINT('Origin',(252.476174678758,0.,0.));
#1291=CARTESIAN_POINT('',(264.976174678758,-3.67394039744206E-15,30.));
#1292=CARTESIAN_POINT('Origin',(264.976174678758,0.,0.));
#1293=CARTESIAN_POINT('',(252.476174678758,-3.67394039744206E-15,30.));
#1294=CARTESIAN_POINT('Origin',(264.976174678758,0.,-27.75));
#1295=CARTESIAN_POINT('',(264.976174678758,-3.39839486763391E-15,27.75));
#1296=CARTESIAN_POINT('Origin',(264.976174678758,0.,0.));
#1297=CARTESIAN_POINT('Origin',(274.976174678758,0.,0.));
#1298=CARTESIAN_POINT('',(284.976174678758,-3.39839486763391E-15,27.75));
#1299=CARTESIAN_POINT('Origin',(284.976174678758,0.,0.));
#1300=CARTESIAN_POINT('',(274.976174678758,-3.39839486763391E-15,27.75));
#1301=CARTESIAN_POINT('',(274.976174678758,-3.39839486763391E-15,27.75));
#1302=CARTESIAN_POINT('Origin',(284.976174678758,0.,4.44089209850063E-15));
#1303=CARTESIAN_POINT('Origin',(219.976174678758,0.,-27.75));
#1304=UNCERTAINTY_MEASURE_WITH_UNIT(LENGTH_MEASURE(0.01),#1308,
'DISTANCE_ACCURACY_VALUE',
'Maximum model space distance between geometric entities at asserted c
onnectivities');
#1305=UNCERTAINTY_MEASURE_WITH_UNIT(LENGTH_MEASURE(0.01),#1308,
'DISTANCE_ACCURACY_VALUE',
'Maximum model space distance between geometric entities at asserted c
onnectivities');
#1306=(
GEOMETRIC_REPRESENTATION_CONTEXT(3)
GLOBAL_UNCERTAINTY_ASSIGNED_CONTEXT((#1304))
GLOBAL_UNIT_ASSIGNED_CONTEXT((#1308,#1310,#1311))
REPRESENTATION_CONTEXT('','3D')
);
#1307=(
GEOMETRIC_REPRESENTATION_CONTEXT(3)
GLOBAL_UNCERTAINTY_ASSIGNED_CONTEXT((#1305))
GLOBAL_UNIT_ASSIGNED_CONTEXT((#1308,#1310,#1311))
REPRESENTATION_CONTEXT('','3D')
);
#1308=(
LENGTH_UNIT()
NAMED_UNIT(*)
SI_UNIT(.MILLI.,.METRE.)
);
#1309=(
LENGTH_UNIT()
NAMED_UNIT(*)
SI_UNIT($,.METRE.)
);
#1310=(
NAMED_UNIT(*)
PLANE_ANGLE_UNIT()
SI_UNIT($,.RADIAN.)
);
#1311=(
NAMED_UNIT(*)
SI_UNIT($,.STERADIAN.)
SOLID_ANGLE_UNIT()
);
#1312=SHAPE_DEFINITION_REPRESENTATION(#1313,#1314);
#1313=PRODUCT_DEFINITION_SHAPE('',$,#1316);
#1314=SHAPE_REPRESENTATION('',(#486),#1306);
#1315=PRODUCT_DEFINITION_CONTEXT('part definition',#1320,'design');
#1316=PRODUCT_DEFINITION('Fusion \X2\96F690E84EF6\X0\',
'Fusion \X2\96F690E84EF6\X0\',#1317,#1315);
#1317=PRODUCT_DEFINITION_FORMATION('',$,#1322);
#1318=PRODUCT_RELATED_PRODUCT_CATEGORY('Fusion \X2\96F690E84EF6\X0\',
'Fusion \X2\96F690E84EF6\X0\',(#1322));
#1319=APPLICATION_PROTOCOL_DEFINITION('international standard',
'automotive_design',2009,#1320);
#1320=APPLICATION_CONTEXT(
'Core Data for Automotive Mechanical Design Process');
#1321=PRODUCT_CONTEXT('part definition',#1320,'mechanical');
#1322=PRODUCT('Fusion \X2\96F690E84EF6\X0\','Fusion \X2\96F690E84EF6\X0\',
$,(#1321));
#1323=PRESENTATION_STYLE_ASSIGNMENT((#1324));
#1324=SURFACE_STYLE_USAGE(.BOTH.,#1325);
#1325=SURFACE_SIDE_STYLE('',(#1326));
#1326=SURFACE_STYLE_FILL_AREA(#1327);
#1327=FILL_AREA_STYLE('\X2\94A2\X0\ - \X2\7F0E5149\X0\',(#1328));
#1328=FILL_AREA_STYLE_COLOUR('\X2\94A2\X0\ - \X2\7F0E5149\X0\',#1329);
#1329=COLOUR_RGB('\X2\94A2\X0\ - \X2\7F0E5149\X0\',0.627450980392157,0.627450980392157,
0.627450980392157);
ENDSEC;
END-ISO-10303-21;
