ISO-10303-21;
HEADER;
/* Generated by software containing ST-Developer
 * from STEP Tools, Inc. (www.steptools.com) 
 */

FILE_DESCRIPTION(
/* description */ (''),
/* implementation_level */ '2;1');

FILE_NAME(
/* name */ '',
/* time_stamp */ '2026-07-06T22:58:37+08:00',
/* author */ (''),
/* organization */ (''),
/* preprocessor_version */ 'ST-DEVELOPER v20.1',
/* originating_system */ 'Autodesk Translation Framework v14.4.0.0',
/* authorisation */ '');

FILE_SCHEMA (('AUTOMOTIVE_DESIGN { 1 0 10303 214 3 1 1 }'));
ENDSEC;

DATA;
#10=MECHANICAL_DESIGN_GEOMETRIC_PRESENTATION_REPRESENTATION('',(#13),#430);
#11=SHAPE_REPRESENTATION_RELATIONSHIP('SRR','None',#437,#12);
#12=ADVANCED_BREP_SHAPE_REPRESENTATION('',(#14),#429);
#13=STYLED_ITEM('',(#446),#14);
#14=MANIFOLD_SOLID_BREP('\X2\5B9E4F53\X0\1',#235);
#15=FACE_BOUND('',#54,.T.);
#16=FACE_BOUND('',#57,.T.);
#17=FACE_BOUND('',#60,.T.);
#18=FACE_BOUND('',#63,.T.);
#19=FACE_BOUND('',#66,.T.);
#20=FACE_BOUND('',#71,.T.);
#21=PLANE('',#254);
#22=PLANE('',#258);
#23=PLANE('',#262);
#24=PLANE('',#266);
#25=PLANE('',#270);
#26=PLANE('',#278);
#27=CYLINDRICAL_SURFACE('',#252,18.5098932035144);
#28=CYLINDRICAL_SURFACE('',#256,20.5);
#29=CYLINDRICAL_SURFACE('',#260,18.7);
#30=CYLINDRICAL_SURFACE('',#264,20.5);
#31=CYLINDRICAL_SURFACE('',#268,18.7);
#32=CYLINDRICAL_SURFACE('',#272,20.5);
#33=CYLINDRICAL_SURFACE('',#282,3.06);
#34=FACE_OUTER_BOUND('',#51,.T.);
#35=FACE_OUTER_BOUND('',#52,.T.);
#36=FACE_OUTER_BOUND('',#53,.T.);
#37=FACE_OUTER_BOUND('',#55,.T.);
#38=FACE_OUTER_BOUND('',#56,.T.);
#39=FACE_OUTER_BOUND('',#58,.T.);
#40=FACE_OUTER_BOUND('',#59,.T.);
#41=FACE_OUTER_BOUND('',#61,.T.);
#42=FACE_OUTER_BOUND('',#62,.T.);
#43=FACE_OUTER_BOUND('',#64,.T.);
#44=FACE_OUTER_BOUND('',#65,.T.);
#45=FACE_OUTER_BOUND('',#67,.T.);
#46=FACE_OUTER_BOUND('',#68,.T.);
#47=FACE_OUTER_BOUND('',#69,.T.);
#48=FACE_OUTER_BOUND('',#70,.T.);
#49=FACE_OUTER_BOUND('',#72,.T.);
#50=FACE_OUTER_BOUND('',#73,.T.);
#51=EDGE_LOOP('',(#158,#159,#160,#161));
#52=EDGE_LOOP('',(#162,#163,#164,#165));
#53=EDGE_LOOP('',(#166));
#54=EDGE_LOOP('',(#167));
#55=EDGE_LOOP('',(#168,#169,#170,#171));
#56=EDGE_LOOP('',(#172));
#57=EDGE_LOOP('',(#173));
#58=EDGE_LOOP('',(#174,#175,#176,#177));
#59=EDGE_LOOP('',(#178));
#60=EDGE_LOOP('',(#179));
#61=EDGE_LOOP('',(#180,#181,#182,#183));
#62=EDGE_LOOP('',(#184));
#63=EDGE_LOOP('',(#185));
#64=EDGE_LOOP('',(#186,#187,#188,#189));
#65=EDGE_LOOP('',(#190));
#66=EDGE_LOOP('',(#191));
#67=EDGE_LOOP('',(#192,#193,#194,#195));
#68=EDGE_LOOP('',(#196,#197,#198,#199));
#69=EDGE_LOOP('',(#200,#201,#202,#203));
#70=EDGE_LOOP('',(#204));
#71=EDGE_LOOP('',(#205));
#72=EDGE_LOOP('',(#206,#207,#208,#209));
#73=EDGE_LOOP('',(#210,#211,#212,#213));
#74=LINE('',#369,#85);
#75=LINE('',#373,#86);
#76=LINE('',#381,#87);
#77=LINE('',#388,#88);
#78=LINE('',#395,#89);
#79=LINE('',#402,#90);
#80=LINE('',#409,#91);
#81=LINE('',#413,#92);
#82=LINE('',#417,#93);
#83=LINE('',#423,#94);
#84=LINE('',#426,#95);
#85=VECTOR('',#289,10.7849466017572);
#86=VECTOR('',#294,18.5098932035144);
#87=VECTOR('',#305,20.5);
#88=VECTOR('',#314,18.7);
#89=VECTOR('',#323,20.5);
#90=VECTOR('',#332,18.7);
#91=VECTOR('',#341,20.5);
#92=VECTOR('',#346,12.7331337442118);
#93=VECTOR('',#351,6.73925903839129);
#94=VECTOR('',#358,5.03612529417953);
#95=VECTOR('',#363,3.06);
#96=CIRCLE('',#250,3.06);
#97=CIRCLE('',#251,18.5098932035144);
#98=CIRCLE('',#253,18.5098932035144);
#99=CIRCLE('',#255,20.5);
#100=CIRCLE('',#257,20.5);
#101=CIRCLE('',#259,18.7);
#102=CIRCLE('',#261,18.7);
#103=CIRCLE('',#263,20.5);
#104=CIRCLE('',#265,20.5);
#105=CIRCLE('',#267,18.7);
#106=CIRCLE('',#269,18.7);
#107=CIRCLE('',#271,20.5);
#108=CIRCLE('',#273,20.5);
#109=CIRCLE('',#275,4.96626748842352);
#110=CIRCLE('',#277,8.51225058835906);
#111=CIRCLE('',#279,7.01225058835906);
#112=CIRCLE('',#281,3.06);
#113=VERTEX_POINT('',#366);
#114=VERTEX_POINT('',#368);
#115=VERTEX_POINT('',#372);
#116=VERTEX_POINT('',#376);
#117=VERTEX_POINT('',#379);
#118=VERTEX_POINT('',#383);
#119=VERTEX_POINT('',#386);
#120=VERTEX_POINT('',#390);
#121=VERTEX_POINT('',#393);
#122=VERTEX_POINT('',#397);
#123=VERTEX_POINT('',#400);
#124=VERTEX_POINT('',#404);
#125=VERTEX_POINT('',#407);
#126=VERTEX_POINT('',#411);
#127=VERTEX_POINT('',#415);
#128=VERTEX_POINT('',#419);
#129=VERTEX_POINT('',#422);
#130=EDGE_CURVE('',#113,#113,#96,.T.);
#131=EDGE_CURVE('',#113,#114,#74,.T.);
#132=EDGE_CURVE('',#114,#114,#97,.T.);
#133=EDGE_CURVE('',#114,#115,#75,.T.);
#134=EDGE_CURVE('',#115,#115,#98,.T.);
#135=EDGE_CURVE('',#116,#116,#99,.T.);
#136=EDGE_CURVE('',#117,#117,#100,.T.);
#137=EDGE_CURVE('',#117,#116,#76,.T.);
#138=EDGE_CURVE('',#118,#118,#101,.T.);
#139=EDGE_CURVE('',#119,#119,#102,.T.);
#140=EDGE_CURVE('',#119,#118,#77,.T.);
#141=EDGE_CURVE('',#120,#120,#103,.T.);
#142=EDGE_CURVE('',#121,#121,#104,.T.);
#143=EDGE_CURVE('',#121,#120,#78,.T.);
#144=EDGE_CURVE('',#122,#122,#105,.T.);
#145=EDGE_CURVE('',#123,#123,#106,.T.);
#146=EDGE_CURVE('',#123,#122,#79,.T.);
#147=EDGE_CURVE('',#124,#124,#107,.T.);
#148=EDGE_CURVE('',#125,#125,#108,.T.);
#149=EDGE_CURVE('',#125,#124,#80,.T.);
#150=EDGE_CURVE('',#126,#126,#109,.T.);
#151=EDGE_CURVE('',#126,#125,#81,.T.);
#152=EDGE_CURVE('',#127,#127,#110,.T.);
#153=EDGE_CURVE('',#127,#126,#82,.T.);
#154=EDGE_CURVE('',#128,#128,#111,.T.);
#155=EDGE_CURVE('',#128,#129,#83,.T.);
#156=EDGE_CURVE('',#129,#129,#112,.T.);
#157=EDGE_CURVE('',#129,#113,#84,.T.);
#158=ORIENTED_EDGE('',*,*,#130,.T.);
#159=ORIENTED_EDGE('',*,*,#131,.T.);
#160=ORIENTED_EDGE('',*,*,#132,.F.);
#161=ORIENTED_EDGE('',*,*,#131,.F.);
#162=ORIENTED_EDGE('',*,*,#132,.T.);
#163=ORIENTED_EDGE('',*,*,#133,.T.);
#164=ORIENTED_EDGE('',*,*,#134,.F.);
#165=ORIENTED_EDGE('',*,*,#133,.F.);
#166=ORIENTED_EDGE('',*,*,#135,.F.);
#167=ORIENTED_EDGE('',*,*,#134,.T.);
#168=ORIENTED_EDGE('',*,*,#136,.F.);
#169=ORIENTED_EDGE('',*,*,#137,.T.);
#170=ORIENTED_EDGE('',*,*,#135,.T.);
#171=ORIENTED_EDGE('',*,*,#137,.F.);
#172=ORIENTED_EDGE('',*,*,#136,.T.);
#173=ORIENTED_EDGE('',*,*,#138,.F.);
#174=ORIENTED_EDGE('',*,*,#139,.F.);
#175=ORIENTED_EDGE('',*,*,#140,.T.);
#176=ORIENTED_EDGE('',*,*,#138,.T.);
#177=ORIENTED_EDGE('',*,*,#140,.F.);
#178=ORIENTED_EDGE('',*,*,#141,.F.);
#179=ORIENTED_EDGE('',*,*,#139,.T.);
#180=ORIENTED_EDGE('',*,*,#142,.F.);
#181=ORIENTED_EDGE('',*,*,#143,.T.);
#182=ORIENTED_EDGE('',*,*,#141,.T.);
#183=ORIENTED_EDGE('',*,*,#143,.F.);
#184=ORIENTED_EDGE('',*,*,#142,.T.);
#185=ORIENTED_EDGE('',*,*,#144,.F.);
#186=ORIENTED_EDGE('',*,*,#145,.F.);
#187=ORIENTED_EDGE('',*,*,#146,.T.);
#188=ORIENTED_EDGE('',*,*,#144,.T.);
#189=ORIENTED_EDGE('',*,*,#146,.F.);
#190=ORIENTED_EDGE('',*,*,#147,.F.);
#191=ORIENTED_EDGE('',*,*,#145,.T.);
#192=ORIENTED_EDGE('',*,*,#148,.F.);
#193=ORIENTED_EDGE('',*,*,#149,.T.);
#194=ORIENTED_EDGE('',*,*,#147,.T.);
#195=ORIENTED_EDGE('',*,*,#149,.F.);
#196=ORIENTED_EDGE('',*,*,#150,.F.);
#197=ORIENTED_EDGE('',*,*,#151,.T.);
#198=ORIENTED_EDGE('',*,*,#148,.T.);
#199=ORIENTED_EDGE('',*,*,#151,.F.);
#200=ORIENTED_EDGE('',*,*,#152,.F.);
#201=ORIENTED_EDGE('',*,*,#153,.T.);
#202=ORIENTED_EDGE('',*,*,#150,.T.);
#203=ORIENTED_EDGE('',*,*,#153,.F.);
#204=ORIENTED_EDGE('',*,*,#152,.T.);
#205=ORIENTED_EDGE('',*,*,#154,.F.);
#206=ORIENTED_EDGE('',*,*,#154,.T.);
#207=ORIENTED_EDGE('',*,*,#155,.T.);
#208=ORIENTED_EDGE('',*,*,#156,.F.);
#209=ORIENTED_EDGE('',*,*,#155,.F.);
#210=ORIENTED_EDGE('',*,*,#156,.T.);
#211=ORIENTED_EDGE('',*,*,#157,.T.);
#212=ORIENTED_EDGE('',*,*,#130,.F.);
#213=ORIENTED_EDGE('',*,*,#157,.F.);
#214=CONICAL_SURFACE('',#249,10.7849466017572,1.0471975511966);
#215=CONICAL_SURFACE('',#274,12.7331337442118,1.38303294135237);
#216=CONICAL_SURFACE('',#276,6.73925903839129,0.26179938779915);
#217=CONICAL_SURFACE('',#280,5.03612529417953,0.26179938779915);
#218=ADVANCED_FACE('',(#34),#214,.F.);
#219=ADVANCED_FACE('',(#35),#27,.F.);
#220=ADVANCED_FACE('',(#36,#15),#21,.T.);
#221=ADVANCED_FACE('',(#37),#28,.T.);
#222=ADVANCED_FACE('',(#38,#16),#22,.T.);
#223=ADVANCED_FACE('',(#39),#29,.T.);
#224=ADVANCED_FACE('',(#40,#17),#23,.T.);
#225=ADVANCED_FACE('',(#41),#30,.T.);
#226=ADVANCED_FACE('',(#42,#18),#24,.T.);
#227=ADVANCED_FACE('',(#43),#31,.T.);
#228=ADVANCED_FACE('',(#44,#19),#25,.T.);
#229=ADVANCED_FACE('',(#45),#32,.T.);
#230=ADVANCED_FACE('',(#46),#215,.T.);
#231=ADVANCED_FACE('',(#47),#216,.T.);
#232=ADVANCED_FACE('',(#48,#20),#26,.T.);
#233=ADVANCED_FACE('',(#49),#217,.F.);
#234=ADVANCED_FACE('',(#50),#33,.F.);
#235=CLOSED_SHELL('',(#218,#219,#220,#221,#222,#223,#224,#225,#226,#227,
#228,#229,#230,#231,#232,#233,#234));
#236=DERIVED_UNIT_ELEMENT(#238,1.);
#237=DERIVED_UNIT_ELEMENT(#432,-3.);
#238=(
MASS_UNIT()
NAMED_UNIT(*)
SI_UNIT(.KILO.,.GRAM.)
);
#239=DERIVED_UNIT((#236,#237));
#240=MEASURE_REPRESENTATION_ITEM('density measure',
POSITIVE_RATIO_MEASURE(7850.),#239);
#241=PROPERTY_DEFINITION_REPRESENTATION(#246,#243);
#242=PROPERTY_DEFINITION_REPRESENTATION(#247,#244);
#243=REPRESENTATION('material name',(#245),#429);
#244=REPRESENTATION('density',(#240),#429);
#245=DESCRIPTIVE_REPRESENTATION_ITEM('\X2\94A2\X0\','\X2\94A2\X0\');
#246=PROPERTY_DEFINITION('material property','material name',#439);
#247=PROPERTY_DEFINITION('material property','density of part',#439);
#248=AXIS2_PLACEMENT_3D('',#364,#283,#284);
#249=AXIS2_PLACEMENT_3D('',#365,#285,#286);
#250=AXIS2_PLACEMENT_3D('',#367,#287,#288);
#251=AXIS2_PLACEMENT_3D('',#370,#290,#291);
#252=AXIS2_PLACEMENT_3D('',#371,#292,#293);
#253=AXIS2_PLACEMENT_3D('',#374,#295,#296);
#254=AXIS2_PLACEMENT_3D('',#375,#297,#298);
#255=AXIS2_PLACEMENT_3D('',#377,#299,#300);
#256=AXIS2_PLACEMENT_3D('',#378,#301,#302);
#257=AXIS2_PLACEMENT_3D('',#380,#303,#304);
#258=AXIS2_PLACEMENT_3D('',#382,#306,#307);
#259=AXIS2_PLACEMENT_3D('',#384,#308,#309);
#260=AXIS2_PLACEMENT_3D('',#385,#310,#311);
#261=AXIS2_PLACEMENT_3D('',#387,#312,#313);
#262=AXIS2_PLACEMENT_3D('',#389,#315,#316);
#263=AXIS2_PLACEMENT_3D('',#391,#317,#318);
#264=AXIS2_PLACEMENT_3D('',#392,#319,#320);
#265=AXIS2_PLACEMENT_3D('',#394,#321,#322);
#266=AXIS2_PLACEMENT_3D('',#396,#324,#325);
#267=AXIS2_PLACEMENT_3D('',#398,#326,#327);
#268=AXIS2_PLACEMENT_3D('',#399,#328,#329);
#269=AXIS2_PLACEMENT_3D('',#401,#330,#331);
#270=AXIS2_PLACEMENT_3D('',#403,#333,#334);
#271=AXIS2_PLACEMENT_3D('',#405,#335,#336);
#272=AXIS2_PLACEMENT_3D('',#406,#337,#338);
#273=AXIS2_PLACEMENT_3D('',#408,#339,#340);
#274=AXIS2_PLACEMENT_3D('',#410,#342,#343);
#275=AXIS2_PLACEMENT_3D('',#412,#344,#345);
#276=AXIS2_PLACEMENT_3D('',#414,#347,#348);
#277=AXIS2_PLACEMENT_3D('',#416,#349,#350);
#278=AXIS2_PLACEMENT_3D('',#418,#352,#353);
#279=AXIS2_PLACEMENT_3D('',#420,#354,#355);
#280=AXIS2_PLACEMENT_3D('',#421,#356,#357);
#281=AXIS2_PLACEMENT_3D('',#424,#359,#360);
#282=AXIS2_PLACEMENT_3D('',#425,#361,#362);
#283=DIRECTION('axis',(0.,0.,1.));
#284=DIRECTION('refdir',(1.,0.,0.));
#285=DIRECTION('center_axis',(-1.,0.,0.));
#286=DIRECTION('ref_axis',(0.,0.,-1.));
#287=DIRECTION('center_axis',(1.,0.,0.));
#288=DIRECTION('ref_axis',(0.,0.,-1.));
#289=DIRECTION('',(-0.5,-1.06057523872491E-16,0.866025403784439));
#290=DIRECTION('center_axis',(1.,0.,0.));
#291=DIRECTION('ref_axis',(0.,0.,-1.));
#292=DIRECTION('center_axis',(1.,0.,0.));
#293=DIRECTION('ref_axis',(0.,0.,-1.));
#294=DIRECTION('',(-1.,0.,0.));
#295=DIRECTION('center_axis',(1.,0.,0.));
#296=DIRECTION('ref_axis',(0.,0.,-1.));
#297=DIRECTION('center_axis',(-1.,0.,0.));
#298=DIRECTION('ref_axis',(0.,0.,1.));
#299=DIRECTION('center_axis',(1.,0.,0.));
#300=DIRECTION('ref_axis',(0.,0.,-1.));
#301=DIRECTION('center_axis',(1.,0.,0.));
#302=DIRECTION('ref_axis',(0.,0.,-1.));
#303=DIRECTION('center_axis',(1.,0.,0.));
#304=DIRECTION('ref_axis',(0.,0.,-1.));
#305=DIRECTION('',(-1.,0.,0.));
#306=DIRECTION('center_axis',(1.,0.,0.));
#307=DIRECTION('ref_axis',(0.,0.,-1.));
#308=DIRECTION('center_axis',(1.,0.,0.));
#309=DIRECTION('ref_axis',(0.,0.,-1.));
#310=DIRECTION('center_axis',(1.,0.,0.));
#311=DIRECTION('ref_axis',(0.,0.,-1.));
#312=DIRECTION('center_axis',(1.,0.,0.));
#313=DIRECTION('ref_axis',(0.,0.,-1.));
#314=DIRECTION('',(-1.,0.,0.));
#315=DIRECTION('center_axis',(-1.,0.,0.));
#316=DIRECTION('ref_axis',(0.,0.,1.));
#317=DIRECTION('center_axis',(1.,0.,0.));
#318=DIRECTION('ref_axis',(0.,0.,-1.));
#319=DIRECTION('center_axis',(1.,0.,0.));
#320=DIRECTION('ref_axis',(0.,0.,-1.));
#321=DIRECTION('center_axis',(1.,0.,0.));
#322=DIRECTION('ref_axis',(0.,0.,-1.));
#323=DIRECTION('',(-1.,0.,0.));
#324=DIRECTION('center_axis',(1.,0.,0.));
#325=DIRECTION('ref_axis',(0.,0.,-1.));
#326=DIRECTION('center_axis',(1.,0.,0.));
#327=DIRECTION('ref_axis',(0.,0.,-1.));
#328=DIRECTION('center_axis',(1.,0.,0.));
#329=DIRECTION('ref_axis',(0.,0.,-1.));
#330=DIRECTION('center_axis',(1.,0.,0.));
#331=DIRECTION('ref_axis',(0.,0.,-1.));
#332=DIRECTION('',(-1.,0.,0.));
#333=DIRECTION('center_axis',(-1.,0.,0.));
#334=DIRECTION('ref_axis',(0.,0.,1.));
#335=DIRECTION('center_axis',(1.,0.,0.));
#336=DIRECTION('ref_axis',(0.,0.,-1.));
#337=DIRECTION('center_axis',(1.,0.,0.));
#338=DIRECTION('ref_axis',(0.,0.,-1.));
#339=DIRECTION('center_axis',(1.,0.,0.));
#340=DIRECTION('ref_axis',(0.,0.,-1.));
#341=DIRECTION('',(-1.,0.,0.));
#342=DIRECTION('center_axis',(-1.,0.,0.));
#343=DIRECTION('ref_axis',(0.,0.,-1.));
#344=DIRECTION('center_axis',(1.,0.,0.));
#345=DIRECTION('ref_axis',(0.,0.,-1.));
#346=DIRECTION('',(-0.186662059462043,-1.20312263124939E-16,0.982424183109001));
#347=DIRECTION('center_axis',(1.,0.,0.));
#348=DIRECTION('ref_axis',(0.,0.,-1.));
#349=DIRECTION('center_axis',(1.,0.,0.));
#350=DIRECTION('ref_axis',(0.,0.,-1.));
#351=DIRECTION('',(-0.965925826289068,3.16961915143177E-17,-0.258819045102521));
#352=DIRECTION('center_axis',(1.,0.,0.));
#353=DIRECTION('ref_axis',(0.,0.,-1.));
#354=DIRECTION('center_axis',(1.,0.,0.));
#355=DIRECTION('ref_axis',(0.,0.,-1.));
#356=DIRECTION('center_axis',(1.,0.,0.));
#357=DIRECTION('ref_axis',(0.,0.,-1.));
#358=DIRECTION('',(-0.965925826289068,3.16961915143177E-17,-0.258819045102521));
#359=DIRECTION('center_axis',(1.,0.,0.));
#360=DIRECTION('ref_axis',(0.,0.,-1.));
#361=DIRECTION('center_axis',(1.,0.,0.));
#362=DIRECTION('ref_axis',(0.,0.,-1.));
#363=DIRECTION('',(-1.,0.,0.));
#364=CARTESIAN_POINT('',(0.,0.,0.));
#365=CARTESIAN_POINT('Origin',(-4.46,0.,0.));
#366=CARTESIAN_POINT('',(-5.55111512312578E-16,-3.7474192053909E-16,3.06));
#367=CARTESIAN_POINT('Origin',(0.,0.,0.));
#368=CARTESIAN_POINT('',(-8.92,-2.26680814642432E-15,18.5098932035144));
#369=CARTESIAN_POINT('',(-4.46,-1.32077503348171E-15,10.7849466017572));
#370=CARTESIAN_POINT('Origin',(-8.92,0.,0.));
#371=CARTESIAN_POINT('Origin',(-9.92,0.,0.));
#372=CARTESIAN_POINT('',(-10.92,-2.26680814642432E-15,18.5098932035144));
#373=CARTESIAN_POINT('',(-9.92,-2.26680814642432E-15,18.5098932035144));
#374=CARTESIAN_POINT('Origin',(-10.92,0.,0.));
#375=CARTESIAN_POINT('Origin',(-10.92,0.,-20.5));
#376=CARTESIAN_POINT('',(-10.92,-2.51052593825207E-15,20.5));
#377=CARTESIAN_POINT('Origin',(-10.92,0.,0.));
#378=CARTESIAN_POINT('Origin',(-9.61000000745058,0.,0.));
#379=CARTESIAN_POINT('',(-8.30000001490116,-2.51052593825207E-15,20.5));
#380=CARTESIAN_POINT('Origin',(-8.30000001490116,0.,0.));
#381=CARTESIAN_POINT('',(-9.61000000745058,-2.51052593825207E-15,20.5));
#382=CARTESIAN_POINT('Origin',(-8.30000001490116,0.,-18.7));
#383=CARTESIAN_POINT('',(-8.30000001490116,-2.29008951440555E-15,18.7));
#384=CARTESIAN_POINT('Origin',(-8.30000001490116,0.,0.));
#385=CARTESIAN_POINT('Origin',(-6.85000001490116,0.,0.));
#386=CARTESIAN_POINT('',(-5.40000001490116,-2.29008951440555E-15,18.7));
#387=CARTESIAN_POINT('Origin',(-5.40000001490116,0.,0.));
#388=CARTESIAN_POINT('',(-6.85000001490116,-2.29008951440555E-15,18.7));
#389=CARTESIAN_POINT('Origin',(-5.40000001490116,0.,-20.5));
#390=CARTESIAN_POINT('',(-5.40000001490116,-2.51052593825207E-15,20.5));
#391=CARTESIAN_POINT('Origin',(-5.40000001490116,0.,0.));
#392=CARTESIAN_POINT('Origin',(-4.65000001490116,0.,0.));
#393=CARTESIAN_POINT('',(-3.90000001490116,-2.51052593825207E-15,20.5));
#394=CARTESIAN_POINT('Origin',(-3.90000001490116,0.,0.));
#395=CARTESIAN_POINT('',(-4.65000001490116,-2.51052593825207E-15,20.5));
#396=CARTESIAN_POINT('Origin',(-3.90000001490116,0.,-18.7));
#397=CARTESIAN_POINT('',(-3.90000001490116,-2.29008951440555E-15,18.7));
#398=CARTESIAN_POINT('Origin',(-3.90000001490116,0.,0.));
#399=CARTESIAN_POINT('Origin',(-2.45000001490116,0.,0.));
#400=CARTESIAN_POINT('',(-1.00000001490116,-2.29008951440555E-15,18.7));
#401=CARTESIAN_POINT('Origin',(-1.00000001490116,0.,0.));
#402=CARTESIAN_POINT('',(-2.45000001490116,-2.29008951440555E-15,18.7));
#403=CARTESIAN_POINT('Origin',(-1.00000001490116,0.,-20.5));
#404=CARTESIAN_POINT('',(-1.00000001490116,-2.51052593825207E-15,20.5));
#405=CARTESIAN_POINT('Origin',(-1.00000001490116,0.,0.));
#406=CARTESIAN_POINT('Origin',(-0.500000007450581,0.,0.));
#407=CARTESIAN_POINT('',(0.,-2.51052593825207E-15,20.5));
#408=CARTESIAN_POINT('Origin',(0.,0.,0.));
#409=CARTESIAN_POINT('',(-0.500000007450581,-2.51052593825207E-15,20.5));
#410=CARTESIAN_POINT('Origin',(1.47571616802396,0.,0.));
#411=CARTESIAN_POINT('',(2.95143233604791,-6.08192358340742E-16,4.96626748842352));
#412=CARTESIAN_POINT('Origin',(2.95143233604791,0.,0.));
#413=CARTESIAN_POINT('',(1.47571616802396,-1.55935914829641E-15,12.7331337442118));
#414=CARTESIAN_POINT('Origin',(9.56832688191794,0.,0.));
#415=CARTESIAN_POINT('',(16.185221427788,-1.04245004365741E-15,8.51225058835906));
#416=CARTESIAN_POINT('Origin',(16.185221427788,0.,0.));
#417=CARTESIAN_POINT('',(9.56832688191794,-8.25321200999076E-16,6.73925903839129));
#418=CARTESIAN_POINT('Origin',(16.185221427788,0.,-7.01225058835906));
#419=CARTESIAN_POINT('',(16.185221427788,-8.58753023785307E-16,7.01225058835906));
#420=CARTESIAN_POINT('Origin',(16.185221427788,0.,0.));
#421=CARTESIAN_POINT('Origin',(8.81022142778795,0.,0.));
#422=CARTESIAN_POINT('',(1.43522142778795,-3.7474192053909E-16,3.06));
#423=CARTESIAN_POINT('',(8.81022142778795,-6.16747472162199E-16,5.03612529417953));
#424=CARTESIAN_POINT('Origin',(1.43522142778795,0.,0.));
#425=CARTESIAN_POINT('Origin',(0.717610713893977,0.,0.));
#426=CARTESIAN_POINT('',(0.717610713893977,-3.7474192053909E-16,3.06));
#427=UNCERTAINTY_MEASURE_WITH_UNIT(LENGTH_MEASURE(0.01),#431,
'DISTANCE_ACCURACY_VALUE',
'Maximum model space distance between geometric entities at asserted c
onnectivities');
#428=UNCERTAINTY_MEASURE_WITH_UNIT(LENGTH_MEASURE(0.01),#431,
'DISTANCE_ACCURACY_VALUE',
'Maximum model space distance between geometric entities at asserted c
onnectivities');
#429=(
GEOMETRIC_REPRESENTATION_CONTEXT(3)
GLOBAL_UNCERTAINTY_ASSIGNED_CONTEXT((#427))
GLOBAL_UNIT_ASSIGNED_CONTEXT((#431,#433,#434))
REPRESENTATION_CONTEXT('','3D')
);
#430=(
GEOMETRIC_REPRESENTATION_CONTEXT(3)
GLOBAL_UNCERTAINTY_ASSIGNED_CONTEXT((#428))
GLOBAL_UNIT_ASSIGNED_CONTEXT((#431,#433,#434))
REPRESENTATION_CONTEXT('','3D')
);
#431=(
LENGTH_UNIT()
NAMED_UNIT(*)
SI_UNIT(.MILLI.,.METRE.)
);
#432=(
LENGTH_UNIT()
NAMED_UNIT(*)
SI_UNIT($,.METRE.)
);
#433=(
NAMED_UNIT(*)
PLANE_ANGLE_UNIT()
SI_UNIT($,.RADIAN.)
);
#434=(
NAMED_UNIT(*)
SI_UNIT($,.STERADIAN.)
SOLID_ANGLE_UNIT()
);
#435=SHAPE_DEFINITION_REPRESENTATION(#436,#437);
#436=PRODUCT_DEFINITION_SHAPE('',$,#439);
#437=SHAPE_REPRESENTATION('',(#248),#429);
#438=PRODUCT_DEFINITION_CONTEXT('part definition',#443,'design');
#439=PRODUCT_DEFINITION('Fusion \X2\96F690E84EF6\X0\',
'Fusion \X2\96F690E84EF6\X0\',#440,#438);
#440=PRODUCT_DEFINITION_FORMATION('',$,#445);
#441=PRODUCT_RELATED_PRODUCT_CATEGORY('Fusion \X2\96F690E84EF6\X0\',
'Fusion \X2\96F690E84EF6\X0\',(#445));
#442=APPLICATION_PROTOCOL_DEFINITION('international standard',
'automotive_design',2009,#443);
#443=APPLICATION_CONTEXT(
'Core Data for Automotive Mechanical Design Process');
#444=PRODUCT_CONTEXT('part definition',#443,'mechanical');
#445=PRODUCT('Fusion \X2\96F690E84EF6\X0\','Fusion \X2\96F690E84EF6\X0\',
$,(#444));
#446=PRESENTATION_STYLE_ASSIGNMENT((#447));
#447=SURFACE_STYLE_USAGE(.BOTH.,#448);
#448=SURFACE_SIDE_STYLE('',(#449));
#449=SURFACE_STYLE_FILL_AREA(#450);
#450=FILL_AREA_STYLE('\X2\94A2\X0\ - \X2\7F0E5149\X0\',(#451));
#451=FILL_AREA_STYLE_COLOUR('\X2\94A2\X0\ - \X2\7F0E5149\X0\',#452);
#452=COLOUR_RGB('\X2\94A2\X0\ - \X2\7F0E5149\X0\',0.627450980392157,0.627450980392157,
0.627450980392157);
ENDSEC;
END-ISO-10303-21;
