ISO-10303-21;
HEADER;
/* Generated by software containing ST-Developer
 * from STEP Tools, Inc. (www.steptools.com) 
 */

FILE_DESCRIPTION(
/* description */ (''),
/* implementation_level */ '2;1');

FILE_NAME(
/* name */ '',
/* time_stamp */ '2026-07-06T22:58:51+08:00',
/* author */ (''),
/* organization */ (''),
/* preprocessor_version */ 'ST-DEVELOPER v20.1',
/* originating_system */ 'Autodesk Translation Framework v14.4.0.0',
/* authorisation */ '');

FILE_SCHEMA (('AUTOMOTIVE_DESIGN { 1 0 10303 214 3 1 1 }'));
ENDSEC;

DATA;
#10=MECHANICAL_DESIGN_GEOMETRIC_PRESENTATION_REPRESENTATION('',(#13),#181);
#11=SHAPE_REPRESENTATION_RELATIONSHIP('SRR','None',#188,#12);
#12=ADVANCED_BREP_SHAPE_REPRESENTATION('',(#14),#180);
#13=STYLED_ITEM('',(#197),#14);
#14=MANIFOLD_SOLID_BREP('\X2\5B9E4F53\X0\1',#95);
#15=CONICAL_SURFACE('',#121,19.6,1.51529779679033);
#16=FACE_BOUND('',#29,.T.);
#17=PLANE('',#112);
#18=PLANE('',#116);
#19=PLANE('',#117);
#20=FACE_OUTER_BOUND('',#27,.T.);
#21=FACE_OUTER_BOUND('',#28,.T.);
#22=FACE_OUTER_BOUND('',#30,.T.);
#23=FACE_OUTER_BOUND('',#31,.T.);
#24=FACE_OUTER_BOUND('',#32,.T.);
#25=FACE_OUTER_BOUND('',#33,.T.);
#26=FACE_OUTER_BOUND('',#34,.T.);
#27=EDGE_LOOP('',(#65,#66,#67,#68));
#28=EDGE_LOOP('',(#69));
#29=EDGE_LOOP('',(#70));
#30=EDGE_LOOP('',(#71,#72,#73,#74));
#31=EDGE_LOOP('',(#75));
#32=EDGE_LOOP('',(#76));
#33=EDGE_LOOP('',(#77,#78,#79,#80));
#34=EDGE_LOOP('',(#81,#82,#83,#84));
#35=LINE('',#159,#39);
#36=LINE('',#167,#40);
#37=LINE('',#175,#41);
#38=LINE('',#177,#42);
#39=VECTOR('',#128,18.7);
#40=VECTOR('',#139,20.5);
#41=VECTOR('',#150,20.5);
#42=VECTOR('',#153,19.6);
#43=CIRCLE('',#110,18.7);
#44=CIRCLE('',#111,18.7);
#45=CIRCLE('',#113,20.5);
#46=CIRCLE('',#115,20.5);
#47=CIRCLE('',#118,20.5);
#48=CIRCLE('',#120,20.5);
#49=VERTEX_POINT('',#156);
#50=VERTEX_POINT('',#158);
#51=VERTEX_POINT('',#162);
#52=VERTEX_POINT('',#165);
#53=VERTEX_POINT('',#170);
#54=VERTEX_POINT('',#173);
#55=EDGE_CURVE('',#49,#49,#43,.T.);
#56=EDGE_CURVE('',#49,#50,#35,.T.);
#57=EDGE_CURVE('',#50,#50,#44,.T.);
#58=EDGE_CURVE('',#51,#51,#45,.T.);
#59=EDGE_CURVE('',#52,#52,#46,.T.);
#60=EDGE_CURVE('',#52,#51,#36,.T.);
#61=EDGE_CURVE('',#53,#53,#47,.T.);
#62=EDGE_CURVE('',#54,#54,#48,.T.);
#63=EDGE_CURVE('',#54,#53,#37,.T.);
#64=EDGE_CURVE('',#50,#54,#38,.T.);
#65=ORIENTED_EDGE('',*,*,#55,.F.);
#66=ORIENTED_EDGE('',*,*,#56,.T.);
#67=ORIENTED_EDGE('',*,*,#57,.T.);
#68=ORIENTED_EDGE('',*,*,#56,.F.);
#69=ORIENTED_EDGE('',*,*,#58,.F.);
#70=ORIENTED_EDGE('',*,*,#55,.T.);
#71=ORIENTED_EDGE('',*,*,#59,.F.);
#72=ORIENTED_EDGE('',*,*,#60,.T.);
#73=ORIENTED_EDGE('',*,*,#58,.T.);
#74=ORIENTED_EDGE('',*,*,#60,.F.);
#75=ORIENTED_EDGE('',*,*,#59,.T.);
#76=ORIENTED_EDGE('',*,*,#61,.F.);
#77=ORIENTED_EDGE('',*,*,#62,.F.);
#78=ORIENTED_EDGE('',*,*,#63,.T.);
#79=ORIENTED_EDGE('',*,*,#61,.T.);
#80=ORIENTED_EDGE('',*,*,#63,.F.);
#81=ORIENTED_EDGE('',*,*,#57,.F.);
#82=ORIENTED_EDGE('',*,*,#64,.T.);
#83=ORIENTED_EDGE('',*,*,#62,.T.);
#84=ORIENTED_EDGE('',*,*,#64,.F.);
#85=CYLINDRICAL_SURFACE('',#109,18.7);
#86=CYLINDRICAL_SURFACE('',#114,20.5);
#87=CYLINDRICAL_SURFACE('',#119,20.5);
#88=ADVANCED_FACE('',(#20),#85,.T.);
#89=ADVANCED_FACE('',(#21,#16),#17,.T.);
#90=ADVANCED_FACE('',(#22),#86,.T.);
#91=ADVANCED_FACE('',(#23),#18,.T.);
#92=ADVANCED_FACE('',(#24),#19,.T.);
#93=ADVANCED_FACE('',(#25),#87,.T.);
#94=ADVANCED_FACE('',(#26),#15,.T.);
#95=CLOSED_SHELL('',(#88,#89,#90,#91,#92,#93,#94));
#96=DERIVED_UNIT_ELEMENT(#98,1.);
#97=DERIVED_UNIT_ELEMENT(#183,-3.);
#98=(
MASS_UNIT()
NAMED_UNIT(*)
SI_UNIT(.KILO.,.GRAM.)
);
#99=DERIVED_UNIT((#96,#97));
#100=MEASURE_REPRESENTATION_ITEM('density measure',
POSITIVE_RATIO_MEASURE(7850.),#99);
#101=PROPERTY_DEFINITION_REPRESENTATION(#106,#103);
#102=PROPERTY_DEFINITION_REPRESENTATION(#107,#104);
#103=REPRESENTATION('material name',(#105),#180);
#104=REPRESENTATION('density',(#100),#180);
#105=DESCRIPTIVE_REPRESENTATION_ITEM('\X2\94A2\X0\','\X2\94A2\X0\');
#106=PROPERTY_DEFINITION('material property','material name',#190);
#107=PROPERTY_DEFINITION('material property','density of part',#190);
#108=AXIS2_PLACEMENT_3D('',#154,#122,#123);
#109=AXIS2_PLACEMENT_3D('',#155,#124,#125);
#110=AXIS2_PLACEMENT_3D('',#157,#126,#127);
#111=AXIS2_PLACEMENT_3D('',#160,#129,#130);
#112=AXIS2_PLACEMENT_3D('',#161,#131,#132);
#113=AXIS2_PLACEMENT_3D('',#163,#133,#134);
#114=AXIS2_PLACEMENT_3D('',#164,#135,#136);
#115=AXIS2_PLACEMENT_3D('',#166,#137,#138);
#116=AXIS2_PLACEMENT_3D('',#168,#140,#141);
#117=AXIS2_PLACEMENT_3D('',#169,#142,#143);
#118=AXIS2_PLACEMENT_3D('',#171,#144,#145);
#119=AXIS2_PLACEMENT_3D('',#172,#146,#147);
#120=AXIS2_PLACEMENT_3D('',#174,#148,#149);
#121=AXIS2_PLACEMENT_3D('',#176,#151,#152);
#122=DIRECTION('axis',(0.,0.,1.));
#123=DIRECTION('refdir',(1.,0.,0.));
#124=DIRECTION('center_axis',(1.,0.,0.));
#125=DIRECTION('ref_axis',(0.,0.,-1.));
#126=DIRECTION('center_axis',(1.,0.,0.));
#127=DIRECTION('ref_axis',(0.,0.,-1.));
#128=DIRECTION('',(-1.,0.,0.));
#129=DIRECTION('center_axis',(1.,0.,0.));
#130=DIRECTION('ref_axis',(0.,0.,-1.));
#131=DIRECTION('center_axis',(-1.,0.,0.));
#132=DIRECTION('ref_axis',(0.,0.,1.));
#133=DIRECTION('center_axis',(1.,0.,0.));
#134=DIRECTION('ref_axis',(0.,0.,-1.));
#135=DIRECTION('center_axis',(1.,0.,0.));
#136=DIRECTION('ref_axis',(0.,0.,-1.));
#137=DIRECTION('center_axis',(1.,0.,0.));
#138=DIRECTION('ref_axis',(0.,0.,-1.));
#139=DIRECTION('',(-1.,0.,0.));
#140=DIRECTION('center_axis',(1.,0.,0.));
#141=DIRECTION('ref_axis',(0.,0.,-1.));
#142=DIRECTION('center_axis',(-1.,0.,0.));
#143=DIRECTION('ref_axis',(0.,0.,1.));
#144=DIRECTION('center_axis',(1.,0.,0.));
#145=DIRECTION('ref_axis',(0.,0.,-1.));
#146=DIRECTION('center_axis',(1.,0.,0.));
#147=DIRECTION('ref_axis',(0.,0.,-1.));
#148=DIRECTION('center_axis',(1.,0.,0.));
#149=DIRECTION('ref_axis',(0.,0.,-1.));
#150=DIRECTION('',(-1.,0.,0.));
#151=DIRECTION('center_axis',(-1.,0.,0.));
#152=DIRECTION('ref_axis',(0.,0.,-1.));
#153=DIRECTION('',(-0.0554700443432552,-1.22276127394665E-16,0.998460351832038));
#154=CARTESIAN_POINT('',(0.,0.,0.));
#155=CARTESIAN_POINT('Origin',(-23.4500003278255,0.,0.));
#156=CARTESIAN_POINT('',(-22.0000003278255,-2.29008951440555E-15,18.7));
#157=CARTESIAN_POINT('Origin',(-22.0000003278255,0.,0.));
#158=CARTESIAN_POINT('',(-24.9000003278255,-2.29008951440555E-15,18.7));
#159=CARTESIAN_POINT('',(-23.4500003278255,-2.29008951440555E-15,18.7));
#160=CARTESIAN_POINT('Origin',(-24.9000003278255,0.,0.));
#161=CARTESIAN_POINT('Origin',(-22.0000003278255,0.,-20.5));
#162=CARTESIAN_POINT('',(-22.0000003278255,-2.51052593825207E-15,20.5));
#163=CARTESIAN_POINT('Origin',(-22.0000003278255,0.,0.));
#164=CARTESIAN_POINT('Origin',(-21.0000003129244,0.,0.));
#165=CARTESIAN_POINT('',(-20.0000002980232,-2.51052593825207E-15,20.5));
#166=CARTESIAN_POINT('Origin',(-20.0000002980232,0.,0.));
#167=CARTESIAN_POINT('',(-21.0000003129244,-2.51052593825207E-15,20.5));
#168=CARTESIAN_POINT('Origin',(-20.0000002980232,0.,0.));
#169=CARTESIAN_POINT('Origin',(-30.0000004470348,0.,-20.5));
#170=CARTESIAN_POINT('',(-30.0000004470348,-2.51052593825207E-15,20.5));
#171=CARTESIAN_POINT('Origin',(-30.0000004470348,0.,0.));
#172=CARTESIAN_POINT('Origin',(-27.5000004097819,0.,0.));
#173=CARTESIAN_POINT('',(-25.000000372529,-2.51052593825207E-15,20.5));
#174=CARTESIAN_POINT('Origin',(-25.000000372529,0.,0.));
#175=CARTESIAN_POINT('',(-27.5000004097819,-2.51052593825207E-15,20.5));
#176=CARTESIAN_POINT('Origin',(-24.9500003501773,0.,0.));
#177=CARTESIAN_POINT('',(-24.9500003501773,-2.40030772632881E-15,19.6));
#178=UNCERTAINTY_MEASURE_WITH_UNIT(LENGTH_MEASURE(0.01),#182,
'DISTANCE_ACCURACY_VALUE',
'Maximum model space distance between geometric entities at asserted c
onnectivities');
#179=UNCERTAINTY_MEASURE_WITH_UNIT(LENGTH_MEASURE(0.01),#182,
'DISTANCE_ACCURACY_VALUE',
'Maximum model space distance between geometric entities at asserted c
onnectivities');
#180=(
GEOMETRIC_REPRESENTATION_CONTEXT(3)
GLOBAL_UNCERTAINTY_ASSIGNED_CONTEXT((#178))
GLOBAL_UNIT_ASSIGNED_CONTEXT((#182,#184,#185))
REPRESENTATION_CONTEXT('','3D')
);
#181=(
GEOMETRIC_REPRESENTATION_CONTEXT(3)
GLOBAL_UNCERTAINTY_ASSIGNED_CONTEXT((#179))
GLOBAL_UNIT_ASSIGNED_CONTEXT((#182,#184,#185))
REPRESENTATION_CONTEXT('','3D')
);
#182=(
LENGTH_UNIT()
NAMED_UNIT(*)
SI_UNIT(.MILLI.,.METRE.)
);
#183=(
LENGTH_UNIT()
NAMED_UNIT(*)
SI_UNIT($,.METRE.)
);
#184=(
NAMED_UNIT(*)
PLANE_ANGLE_UNIT()
SI_UNIT($,.RADIAN.)
);
#185=(
NAMED_UNIT(*)
SI_UNIT($,.STERADIAN.)
SOLID_ANGLE_UNIT()
);
#186=SHAPE_DEFINITION_REPRESENTATION(#187,#188);
#187=PRODUCT_DEFINITION_SHAPE('',$,#190);
#188=SHAPE_REPRESENTATION('',(#108),#180);
#189=PRODUCT_DEFINITION_CONTEXT('part definition',#194,'design');
#190=PRODUCT_DEFINITION('Fusion \X2\96F690E84EF6\X0\',
'Fusion \X2\96F690E84EF6\X0\',#191,#189);
#191=PRODUCT_DEFINITION_FORMATION('',$,#196);
#192=PRODUCT_RELATED_PRODUCT_CATEGORY('Fusion \X2\96F690E84EF6\X0\',
'Fusion \X2\96F690E84EF6\X0\',(#196));
#193=APPLICATION_PROTOCOL_DEFINITION('international standard',
'automotive_design',2009,#194);
#194=APPLICATION_CONTEXT(
'Core Data for Automotive Mechanical Design Process');
#195=PRODUCT_CONTEXT('part definition',#194,'mechanical');
#196=PRODUCT('Fusion \X2\96F690E84EF6\X0\','Fusion \X2\96F690E84EF6\X0\',
$,(#195));
#197=PRESENTATION_STYLE_ASSIGNMENT((#198));
#198=SURFACE_STYLE_USAGE(.BOTH.,#199);
#199=SURFACE_SIDE_STYLE('',(#200));
#200=SURFACE_STYLE_FILL_AREA(#201);
#201=FILL_AREA_STYLE('\X2\94A2\X0\ - \X2\7F0E5149\X0\',(#202));
#202=FILL_AREA_STYLE_COLOUR('\X2\94A2\X0\ - \X2\7F0E5149\X0\',#203);
#203=COLOUR_RGB('\X2\94A2\X0\ - \X2\7F0E5149\X0\',0.627450980392157,0.627450980392157,
0.627450980392157);
ENDSEC;
END-ISO-10303-21;
